<?xml version="1.0" standalone="no"?>
<!DOCTYPE svg PUBLIC "-//W3C//DTD SVG 1.1//EN" "http://www.w3.org/Graphics/SVG/1.1/DTD/svg11.dtd" >
<svg xmlns="http://www.w3.org/2000/svg" xmlns:xlink="http://www.w3.org/1999/xlink" version="1.1">
<metadata>
Created by FontForge 20170910 at Tue May  5 23:09:06 2015
 By Jimmy Wärting
Copyright (c) 2014 by Daniel Hernandez &#38; Miguel Hernandez. All rights reserved.
</metadata>
<defs>
<font id="iCielTexta-Italic" horiz-adv-x="524" >
  <font-face 
    font-family="iCiel Texta"
    font-weight="400"
    font-style="italic"
    font-stretch="normal"
    units-per-em="1000"
    panose-1="2 0 0 0 0 0 0 0 0 0"
    ascent="750"
    descent="-250"
    x-height="420"
    cap-height="600"
    bbox="-371 -192 1070 934"
    underline-thickness="50"
    underline-position="-100"
    slope="-8"
    unicode-range="U+001D-E020"
  />
<missing-glyph horiz-adv-x="564" 
 />
    <glyph glyph-name=".notdef" horiz-adv-x="564" 
 />
    <glyph glyph-name=".null" horiz-adv-x="0" 
 />
    <glyph glyph-name=".null" horiz-adv-x="0" 
 />
    <glyph glyph-name="nonmarkingreturn" horiz-adv-x="105" 
 />
    <glyph glyph-name="space" unicode=" " horiz-adv-x="224" 
 />
    <glyph glyph-name="acute" unicode="&#xb4;" horiz-adv-x="279" 
d="M182 497h-50l73 145l83 -13z" />
    <glyph glyph-name="Acircumflex" unicode="&#xc2;" horiz-adv-x="595" 
d="M586 0h-72l-38 133h-320l-75 -133h-72l341 600h63zM193 198h265l-88 312zM401 729l-64 -61h-64l104 108h57l76 -108h-65z" />
    <glyph glyph-name="circumflex" unicode="&#x2c6;" horiz-adv-x="371" 
d="M295 559l-64 -61h-64l104 108h57l76 -108h-65z" />
    <glyph glyph-name="Adieresis" unicode="&#xc4;" horiz-adv-x="595" 
d="M586 0h-72l-38 133h-320l-75 -133h-72l341 600h63zM193 198h265l-88 312zM270 710q0 20 16.5 36t36.5 16q17 0 28.5 -12.5t11.5 -29.5q0 -20 -16.5 -36t-36.5 -16q-17 0 -28.5 12.5t-11.5 29.5zM432 710q0 20 16.5 36t36.5 16q17 0 28.5 -12.5t11.5 -29.5
q0 -20 -16.5 -36t-36.5 -16q-17 0 -28.5 12.5t-11.5 29.5z" />
    <glyph glyph-name="dieresis" unicode="&#xa8;" horiz-adv-x="455" 
d="M198 710q0 20 16.5 36t36.5 16q17 0 28.5 -12.5t11.5 -29.5q0 -20 -16.5 -36t-36.5 -16q-17 0 -28.5 12.5t-11.5 29.5zM360 710q0 20 16.5 36t36.5 16q17 0 28.5 -12.5t11.5 -29.5q0 -20 -16.5 -36t-36.5 -16q-17 0 -28.5 12.5t-11.5 29.5z" />
    <glyph glyph-name="Agrave" unicode="&#xc0;" horiz-adv-x="595" 
d="M586 0h-72l-38 133h-320l-75 -133h-72l341 600h63zM193 198h265l-88 312zM292 767l86 13l32 -145h-50z" />
    <glyph glyph-name="grave" unicode="`" horiz-adv-x="279" 
d="M150 629l86 13l32 -145h-50z" />
    <glyph glyph-name="Aring" unicode="&#xc5;" horiz-adv-x="595" 
d="M586 0h-72l-38 133h-320l-75 -133h-72l341 600h63zM193 198h265l-88 312zM293 702q5 39 38 63t78 24q44 0 69.5 -24t20.5 -63q-6 -39 -38.5 -63t-76.5 -24q-45 0 -71 24t-20 63zM452 702q3 21 -10 32t-39 11t-43 -11t-20 -32t11 -32t40 -11t42 11t19 32z" />
    <glyph glyph-name="ring" unicode="&#x2da;" horiz-adv-x="288" 
d="M140 702q5 39 38 63t78 24q44 0 69.5 -24t20.5 -63q-6 -39 -38.5 -63t-76.5 -24q-45 0 -71 24t-20 63zM299 702q3 21 -10 32t-39 11t-43 -11t-20 -32t11 -32t40 -11t42 11t19 32z" />
    <glyph glyph-name="Atilde" unicode="&#xc3;" horiz-adv-x="595" 
d="M586 0h-72l-38 133h-320l-75 -133h-72l341 600h63zM193 198h265l-88 312zM470 668q-23 0 -41.5 9t-34 20.5t-30.5 20.5t-31 9q-23 0 -33.5 -13.5t-18.5 -30.5l-7 -16l-48 6l9 26q11 32 33.5 57.5t64.5 25.5q22 0 40 -9.5t34 -20.5t31 -20.5t32 -9.5q24 0 35.5 13.5
t17.5 31.5l5 15l49 -5l-8 -25q-11 -33 -34 -58.5t-65 -25.5z" />
    <glyph glyph-name="tilde" unicode="&#x2dc;" horiz-adv-x="485" 
d="M408 499q-23 0 -41.5 9t-34 20.5t-30.5 20.5t-31 9q-23 0 -33.5 -13.5t-18.5 -30.5l-7 -16l-48 6l9 26q11 32 33.5 57.5t64.5 25.5q22 0 40 -9.5t34 -20.5t31 -20.5t32 -9.5q24 0 35.5 13.5t17.5 31.5l5 15l49 -5l-8 -25q-11 -33 -34 -58.5t-65 -25.5z" />
    <glyph glyph-name="B" unicode="B" horiz-adv-x="604" 
d="M584 185q0 -47 -18 -81.5t-49.5 -57.5t-75 -34.5t-94.5 -11.5h-265l84 600h253q88 0 136.5 -35t48.5 -104q0 -60 -31 -98.5t-82 -55.5v-3q42 -11 67.5 -41.5t25.5 -77.5zM190 271l-29 -206h197q31 0 59 7t49 21.5t33.5 36.5t12.5 51q0 44 -35 66t-87 24h-200zM530 450
q0 46 -32 65.5t-89 19.5h-182l-28 -199h182q67 0 108 30t41 84z" />
    <glyph glyph-name="C" unicode="C" horiz-adv-x="565" 
d="M547 63q-23 -22 -54 -39q-26 -14 -65 -26t-90 -12q-60 0 -108 21t-81.5 57.5t-51.5 86t-18 106.5q0 73 26.5 138t73 113.5t110 76.5t137.5 28q51 0 86.5 -12.5t58.5 -26.5q26 -17 43 -38l-48 -54q-16 18 -38 32q-19 12 -46.5 22.5t-64.5 10.5q-56 0 -104 -22.5t-84 -61
t-56.5 -89.5t-20.5 -108q0 -44 13.5 -83t39 -68t62 -46t81.5 -17q37 0 67 10t53 22q26 14 47 33z" />
    <glyph glyph-name="AE" unicode="&#xc6;" horiz-adv-x="878" 
d="M491 600h430l-9 -65h-351l-28 -199h300l-9 -65h-300l-29 -206h351l-9 -65h-421l19 133h-246l-108 -133h-86zM241 198h203l41 292h-7z" />
    <glyph glyph-name="Ccedilla" unicode="&#xc7;" horiz-adv-x="565" 
d="M277 -47l22 36q-52 6 -92.5 29t-69 58.5t-43.5 81.5t-15 99q0 73 26.5 138t73 113.5t110 76.5t137.5 28q51 0 86.5 -12.5t58.5 -26.5q26 -17 43 -38l-48 -54q-16 18 -38 32q-19 12 -46.5 22.5t-64.5 10.5q-56 0 -104 -22.5t-84 -61t-56.5 -89.5t-20.5 -108
q0 -44 13.5 -83t39 -68t62 -46t81.5 -17q37 0 67 10t53 22q26 14 47 33l32 -54q-23 -22 -54 -39q-26 -14 -65 -26t-90 -12h-1l-10 -17q23 -1 39.5 -14.5t16.5 -40.5q0 -34 -23.5 -56.5t-65.5 -22.5q-19 0 -31.5 4.5t-20.5 9.5q-10 6 -16 14l23 28q5 -6 12 -10q6 -4 15.5 -7
t21.5 -3q22 0 34.5 10.5t12.5 28.5q0 28 -37 28q-5 0 -8.5 -0.5t-6.5 -0.5h-6z" />
    <glyph glyph-name="cedilla" unicode="&#xb8;" horiz-adv-x="206" 
d="M57 -47l31 50h39l-20 -34q23 -1 39.5 -14.5t16.5 -40.5q0 -34 -23.5 -56.5t-65.5 -22.5q-19 0 -31.5 4.5t-20.5 9.5q-10 6 -16 14l23 28q5 -6 12 -10q6 -4 15.5 -7t21.5 -3q22 0 34.5 10.5t12.5 28.5q0 28 -37 28q-5 0 -8.5 -0.5t-6.5 -0.5h-6z" />
    <glyph glyph-name="D" unicode="D" horiz-adv-x="630" 
d="M633 343q0 -78 -26.5 -141t-73.5 -108t-111 -69.5t-140 -24.5h-200l84 600h200q61 0 110.5 -18t84.5 -51.5t53.5 -81t18.5 -106.5zM227 535l-66 -470h126q56 0 105.5 18.5t87 53.5t59.5 84.5t22 112.5q0 47 -15.5 84.5t-43 63.5t-65.5 39.5t-84 13.5h-126z" />
    <glyph glyph-name="Delta" unicode="&#x2206;" horiz-adv-x="618" 
d="M29 15l357 585h14l193 -585l-2 -15h-564zM134 61h367l-125 413h-3z" />
    <glyph glyph-name="E" unicode="E" horiz-adv-x="544" 
d="M490 271h-300l-29 -206h351l-9 -65h-421l84 600h421l-9 -65h-351l-28 -199h300z" />
    <glyph glyph-name="Eacute" unicode="&#xc9;" horiz-adv-x="544" 
d="M490 271h-300l-29 -206h351l-9 -65h-421l84 600h421l-9 -65h-351l-28 -199h300zM405 635h-50l73 145l83 -13z" />
    <glyph glyph-name="Ecircumflex" unicode="&#xca;" horiz-adv-x="544" 
d="M490 271h-300l-29 -206h351l-9 -65h-421l84 600h421l-9 -65h-351l-28 -199h300zM403 729l-64 -61h-64l104 108h57l76 -108h-65z" />
    <glyph glyph-name="Edieresis" unicode="&#xcb;" horiz-adv-x="544" 
d="M490 271h-300l-29 -206h351l-9 -65h-421l84 600h421l-9 -65h-351l-28 -199h300zM267 710q0 20 16.5 36t36.5 16q17 0 28.5 -12.5t11.5 -29.5q0 -20 -16.5 -36t-36.5 -16q-17 0 -28.5 12.5t-11.5 29.5zM429 710q0 20 16.5 36t36.5 16q17 0 28.5 -12.5t11.5 -29.5
q0 -20 -16.5 -36t-36.5 -16q-17 0 -28.5 12.5t-11.5 29.5z" />
    <glyph glyph-name="Egrave" unicode="&#xc8;" horiz-adv-x="544" 
d="M490 271h-300l-29 -206h351l-9 -65h-421l84 600h421l-9 -65h-351l-28 -199h300zM298 767l86 13l32 -145h-50z" />
    <glyph glyph-name="Eth" unicode="&#xd0;" horiz-adv-x="631" 
d="M71 336h58l37 264h200q61 0 110.5 -18t84.5 -51.5t53.5 -81t18.5 -106.5q0 -78 -26.5 -141t-73.5 -108t-111 -69.5t-140 -24.5h-200l38 272h-58zM227 535l-28 -199h179l-9 -64h-179l-29 -207h126q56 0 105.5 18.5t87 53.5t59.5 84.5t22 112.5q0 47 -15.5 84.5t-43 63.5
t-65.5 39.5t-84 13.5h-126z" />
    <glyph glyph-name="Euro" unicode="&#x20ac;" horiz-adv-x="564" 
d="M424 203h-206q5 -67 40.5 -109.5t109.5 -42.5q31 0 56.5 9t42.5 20q20 12 36 29l27 -50q-18 -20 -44 -36q-22 -14 -54 -25t-74 -11q-51 0 -89 16.5t-64 46t-40.5 69t-18.5 84.5h-77l8 54h68q0 11 1 22.5t3 22.5q2 12 4.5 24.5t4.5 24.5h-68l7 54h77q17 44 42.5 82
t59.5 66t76.5 44t93.5 16q42 0 71 -11t47 -25q21 -16 35 -36l-43 -53q-11 16 -28 29q-14 11 -37 20.5t-54 9.5q-73 0 -119 -39t-71 -103h205l-7 -54h-214q-5 -23 -9 -43t-4 -43v-8h214z" />
    <glyph glyph-name="F" unicode="F" horiz-adv-x="531" 
d="M490 271h-300l-38 -271h-70l84 600h421l-9 -65h-351l-28 -199h300z" />
    <glyph glyph-name="G" unicode="G" horiz-adv-x="638" 
d="M572 263h-212l9 65h282l-6 -42q-10 -68 -36 -123.5t-65.5 -94.5t-92.5 -60.5t-116 -21.5q-61 0 -108.5 20.5t-80 57t-49.5 85.5t-17 106q0 74 26 139t72 114t109.5 77t139.5 28q55 0 93 -12.5t62 -27.5q28 -18 46 -39l-49 -53q-16 18 -39 33q-20 12 -50 22.5t-72 10.5
q-59 0 -107.5 -23t-83.5 -62t-54.5 -90.5t-19.5 -108.5q0 -44 12.5 -82.5t36.5 -67t59.5 -45t82.5 -16.5q44 0 81.5 15t66.5 42.5t49 65.5t30 84z" />
    <glyph glyph-name="H" unicode="H" horiz-adv-x="644" 
d="M562 0h-70l37 263h-340l-37 -263h-70l84 600h70l-38 -272h340l38 272h70z" />
    <glyph glyph-name="I" unicode="I" horiz-adv-x="234" 
d="M152 0h-70l84 600h70z" />
    <glyph glyph-name="Iacute" unicode="&#xcd;" horiz-adv-x="234" 
d="M152 0h-70l84 600h70zM232 635h-50l73 145l83 -13z" />
    <glyph glyph-name="Icircumflex" unicode="&#xce;" horiz-adv-x="234" 
d="M152 0h-70l84 600h70zM222 729l-64 -61h-64l104 108h57l76 -108h-65z" />
    <glyph glyph-name="Idieresis" unicode="&#xcf;" horiz-adv-x="234" 
d="M152 0h-70l84 600h70zM90 710q0 20 16.5 36t36.5 16q17 0 28.5 -12.5t11.5 -29.5q0 -20 -16.5 -36t-36.5 -16q-17 0 -28.5 12.5t-11.5 29.5zM252 710q0 20 16.5 36t36.5 16q17 0 28.5 -12.5t11.5 -29.5q0 -20 -16.5 -36t-36.5 -16q-17 0 -28.5 12.5t-11.5 29.5z" />
    <glyph glyph-name="Igrave" unicode="&#xcc;" horiz-adv-x="234" 
d="M152 0h-70l84 600h70zM111 767l86 13l32 -145h-50z" />
    <glyph glyph-name="J" unicode="J" horiz-adv-x="430" 
d="M64 88q11 -10 27 -18q13 -7 31.5 -12t41.5 -5q62 0 100 36t49 117l55 394h70l-57 -408q-14 -100 -70.5 -153t-150.5 -53q-35 0 -60 7t-42 16t-25.5 17t-9.5 9z" />
    <glyph glyph-name="K" unicode="K" horiz-adv-x="568" 
d="M190 271l362 329h80l-1 -12l-261 -236l184 -340l-2 -12h-74q-33 62 -64 118q-13 24 -27 49.5t-27 49.5t-25 45.5t-21 38.5l-137 -126l-25 -175h-70l84 600h70z" />
    <glyph glyph-name="L" unicode="L" horiz-adv-x="489" 
d="M82 0l84 600h70l-75 -535h312l-9 -65h-382z" />
    <glyph glyph-name="Lslash" unicode="&#x141;" horiz-adv-x="491" 
d="M58 287l69 39l39 274h70l-33 -231l177 100l-7 -50l-177 -100l-35 -254h312l-9 -65h-382l38 276l-69 -39z" />
    <glyph glyph-name="M" unicode="M" horiz-adv-x="723" 
d="M638 470l-236 -257h-20l-165 253l-65 -466h-70l84 600h49l190 -294l272 294h48l-84 -600h-69z" />
    <glyph glyph-name="N" unicode="N" horiz-adv-x="665" 
d="M583 0h-50l-314 476l-67 -476h-70l84 600h51l314 -474l66 474h70z" />
    <glyph glyph-name="A" unicode="A" horiz-adv-x="595" 
d="M586 0h-72l-38 133h-320l-75 -133h-72l341 600h63zM193 198h265l-88 312z" />
    <glyph glyph-name="Ntilde" unicode="&#xd1;" horiz-adv-x="665" 
d="M583 0h-50l-314 476l-67 -476h-70l84 600h51l314 -474l66 474h70zM506 668q-23 0 -41.5 9t-34 20.5t-30.5 20.5t-31 9q-23 0 -33.5 -13.5t-18.5 -30.5l-7 -16l-48 6l9 26q11 32 33.5 57.5t64.5 25.5q22 0 40 -9.5t34 -20.5t31 -20.5t32 -9.5q24 0 35.5 13.5t17.5 31.5
l5 15l49 -5l-8 -25q-11 -33 -34 -58.5t-65 -25.5z" />
    <glyph glyph-name="O" unicode="O" horiz-adv-x="677" 
d="M336 -14q-61 0 -108.5 20.5t-80.5 57t-50 86t-17 106.5q0 73 25.5 138t71.5 114t109 77t138 28q61 0 109 -20.5t81 -56.5t50 -85.5t17 -107.5q0 -73 -25.5 -138t-71.5 -113.5t-109 -77t-139 -28.5zM345 53q58 0 106.5 23t83.5 61.5t54.5 89.5t19.5 107q0 44 -13 83
t-37.5 68t-61 45.5t-82.5 16.5q-58 0 -106 -23t-82.5 -62t-54 -90t-19.5 -108q0 -44 12.5 -82.5t37 -67t60.5 -45t82 -16.5z" />
    <glyph glyph-name="OE" unicode="&#x152;" horiz-adv-x="1027" 
d="M973 271h-300l-29 -206h351l-9 -65h-421l12 86q-46 -47 -107.5 -73.5t-135.5 -26.5q-61 0 -108.5 20.5t-80.5 57t-50 86t-17 106.5q0 73 25.5 138t71.5 114t109 77t138 28q74 0 127.5 -29t85.5 -80l14 96h421l-9 -65h-351l-28 -199h300zM343 53q58 0 106.5 23t83.5 61.5
t54.5 89.5t19.5 107q0 44 -13 83t-37.5 68t-61 45.5t-82.5 16.5q-58 0 -106 -23t-82.5 -62t-54 -90t-19.5 -108q0 -44 12.5 -82.5t37 -67t60.5 -45t82 -16.5z" />
    <glyph glyph-name="Oacute" unicode="&#xd3;" horiz-adv-x="677" 
d="M336 -14q-61 0 -108.5 20.5t-80.5 57t-50 86t-17 106.5q0 73 25.5 138t71.5 114t109 77t138 28q61 0 109 -20.5t81 -56.5t50 -85.5t17 -107.5q0 -73 -25.5 -138t-71.5 -113.5t-109 -77t-139 -28.5zM345 53q58 0 106.5 23t83.5 61.5t54.5 89.5t19.5 107q0 44 -13 83
t-37.5 68t-61 45.5t-82.5 16.5q-58 0 -106 -23t-82.5 -62t-54 -90t-19.5 -108q0 -44 12.5 -82.5t37 -67t60.5 -45t82 -16.5zM454 668h-50l73 145l83 -13z" />
    <glyph glyph-name="Ocircumflex" unicode="&#xd4;" horiz-adv-x="677" 
d="M336 -14q-61 0 -108.5 20.5t-80.5 57t-50 86t-17 106.5q0 73 25.5 138t71.5 114t109 77t138 28q61 0 109 -20.5t81 -56.5t50 -85.5t17 -107.5q0 -73 -25.5 -138t-71.5 -113.5t-109 -77t-139 -28.5zM345 53q58 0 106.5 23t83.5 61.5t54.5 89.5t19.5 107q0 44 -13 83
t-37.5 68t-61 45.5t-82.5 16.5q-58 0 -106 -23t-82.5 -62t-54 -90t-19.5 -108q0 -44 12.5 -82.5t37 -67t60.5 -45t82 -16.5zM443 729l-64 -61h-64l104 108h57l76 -108h-65z" />
    <glyph glyph-name="Odieresis" unicode="&#xd6;" horiz-adv-x="677" 
d="M336 -14q-61 0 -108.5 20.5t-80.5 57t-50 86t-17 106.5q0 73 25.5 138t71.5 114t109 77t138 28q61 0 109 -20.5t81 -56.5t50 -85.5t17 -107.5q0 -73 -25.5 -138t-71.5 -113.5t-109 -77t-139 -28.5zM345 53q58 0 106.5 23t83.5 61.5t54.5 89.5t19.5 107q0 44 -13 83
t-37.5 68t-61 45.5t-82.5 16.5q-58 0 -106 -23t-82.5 -62t-54 -90t-19.5 -108q0 -44 12.5 -82.5t37 -67t60.5 -45t82 -16.5zM311 710q0 20 16.5 36t36.5 16q17 0 28.5 -12.5t11.5 -29.5q0 -20 -16.5 -36t-36.5 -16q-17 0 -28.5 12.5t-11.5 29.5zM473 710q0 20 16.5 36
t36.5 16q17 0 28.5 -12.5t11.5 -29.5q0 -20 -16.5 -36t-36.5 -16q-17 0 -28.5 12.5t-11.5 29.5z" />
    <glyph glyph-name="Ograve" unicode="&#xd2;" horiz-adv-x="677" 
d="M336 -14q-61 0 -108.5 20.5t-80.5 57t-50 86t-17 106.5q0 73 25.5 138t71.5 114t109 77t138 28q61 0 109 -20.5t81 -56.5t50 -85.5t17 -107.5q0 -73 -25.5 -138t-71.5 -113.5t-109 -77t-139 -28.5zM345 53q58 0 106.5 23t83.5 61.5t54.5 89.5t19.5 107q0 44 -13 83
t-37.5 68t-61 45.5t-82.5 16.5q-58 0 -106 -23t-82.5 -62t-54 -90t-19.5 -108q0 -44 12.5 -82.5t37 -67t60.5 -45t82 -16.5zM341 800l86 13l32 -145h-50z" />
    <glyph glyph-name="Omega" unicode="&#x2126;" horiz-adv-x="710" 
d="M61 61h141q-54 32 -81 90t-27 123q0 64 24 125t69 108.5t109.5 76.5t144.5 29q66 0 115 -21.5t82 -58t49.5 -84.5t16.5 -101q0 -45 -12.5 -87.5t-36 -80t-56.5 -68t-73 -51.5h141l-9 -61h-268l9 63q47 3 89 26.5t74 61.5t51 85.5t19 98.5q0 43 -13 81.5t-38.5 67
t-62.5 45.5t-86 17q-60 0 -109.5 -23t-85 -61t-54.5 -87.5t-19 -102.5q0 -40 11.5 -77t33.5 -65.5t52.5 -46.5t68.5 -20l-9 -63h-269z" />
    <glyph glyph-name="Oslash" unicode="&#xd8;" horiz-adv-x="681" 
d="M336 -14q-60 0 -106.5 19t-78.5 54l-66 -59h-78l113 101q-40 66 -40 155q0 73 25.5 138t71.5 114t109 77t138 28q60 0 106.5 -19t78.5 -54l67 60h77l-113 -101q41 -67 41 -156q0 -73 -25.5 -138t-71.5 -113.5t-109 -77t-139 -28.5zM345 53q58 0 106.5 23t83.5 61.5
t54.5 89.5t19.5 107q0 64 -26 114l-376 -338q24 -27 58.5 -42t79.5 -15zM153 264q0 -63 24 -112l376 338q-25 26 -59 41.5t-79 15.5q-58 0 -106 -23t-82.5 -62t-54 -90t-19.5 -108z" />
    <glyph glyph-name="Otilde" unicode="&#xd5;" horiz-adv-x="677" 
d="M336 -14q-61 0 -108.5 20.5t-80.5 57t-50 86t-17 106.5q0 73 25.5 138t71.5 114t109 77t138 28q61 0 109 -20.5t81 -56.5t50 -85.5t17 -107.5q0 -73 -25.5 -138t-71.5 -113.5t-109 -77t-139 -28.5zM345 53q58 0 106.5 23t83.5 61.5t54.5 89.5t19.5 107q0 44 -13 83
t-37.5 68t-61 45.5t-82.5 16.5q-58 0 -106 -23t-82.5 -62t-54 -90t-19.5 -108q0 -44 12.5 -82.5t37 -67t60.5 -45t82 -16.5zM508 668q-23 0 -41.5 9t-34 20.5t-30.5 20.5t-31 9q-23 0 -33.5 -13.5t-18.5 -30.5l-7 -16l-48 6l9 26q11 32 33.5 57.5t64.5 25.5q22 0 40 -9.5
t34 -20.5t31 -20.5t32 -9.5q24 0 35.5 13.5t17.5 31.5l5 15l49 -5l-8 -25q-11 -33 -34 -58.5t-65 -25.5z" />
    <glyph glyph-name="P" unicode="P" horiz-adv-x="577" 
d="M402 600q97 0 150 -43.5t53 -126.5q0 -57 -19 -101.5t-54 -75t-83.5 -46t-107.5 -15.5h-162l-27 -192h-70l84 600h236zM533 419q0 59 -38 87.5t-104 28.5h-164l-39 -278h164q82 0 131.5 38.5t49.5 123.5z" />
    <glyph glyph-name="Q" unicode="Q" horiz-adv-x="677" 
d="M336 -14q-61 0 -108.5 20.5t-80.5 57t-50 86t-17 106.5q0 73 25.5 138t71.5 114t109 77t138 28q61 0 109 -20.5t81 -56.5t50 -85.5t17 -107.5q0 -54 -14 -103t-40.5 -91t-63.5 -75.5t-82 -55.5l68 -140h-80l-56 117q-19 -4 -38 -6.5t-39 -2.5zM345 53q58 0 106.5 23
t83.5 61.5t54.5 89.5t19.5 107q0 44 -13 83t-37.5 68t-61 45.5t-82.5 16.5q-58 0 -106 -23t-82.5 -62t-54 -90t-19.5 -108q0 -44 12.5 -82.5t37 -67t60.5 -45t82 -16.5z" />
    <glyph glyph-name="R" unicode="R" horiz-adv-x="598" 
d="M401 600q97 0 150.5 -43.5t53.5 -126.5q0 -87 -46 -142t-119 -76l-1 -3l122 -192l-2 -17h-68l-127 199h-184l-28 -199h-70l84 600h235zM532 419q0 59 -37.5 87.5t-103.5 28.5h-164l-38 -271h172q37 0 68 9.5t54 28.5t36 48.5t13 68.5z" />
    <glyph glyph-name="S" unicode="S" horiz-adv-x="509" 
d="M95 110q16 -17 40 -29q20 -11 51 -20t73 -9q86 0 125 33t39 83q0 18 -7 32t-23.5 27t-44 24.5t-67.5 24.5q-90 28 -133 63t-43 93q0 41 17 74.5t47.5 57t74.5 36.5t98 13q53 0 88.5 -9.5t58.5 -20.5q26 -13 42 -29l-46 -58q-14 14 -36 25q-19 10 -47.5 18t-68.5 8
q-33 0 -61 -7t-49 -20t-33 -32.5t-12 -44.5q0 -16 7.5 -29t24.5 -25t44 -23.5t67 -23.5q97 -29 136 -68t39 -94q0 -41 -16 -76.5t-47 -61.5t-76.5 -41t-105.5 -15q-55 0 -93 10.5t-62 24.5q-28 16 -46 36z" />
    <glyph glyph-name="Scaron" unicode="&#x160;" horiz-adv-x="509" 
d="M95 110q16 -17 40 -29q20 -11 51 -20t73 -9q86 0 125 33t39 83q0 18 -7 32t-23.5 27t-44 24.5t-67.5 24.5q-90 28 -133 63t-43 93q0 41 17 74.5t47.5 57t74.5 36.5t98 13q53 0 88.5 -9.5t58.5 -20.5q26 -13 42 -29l-46 -58q-14 14 -36 25q-19 10 -47.5 18t-68.5 8
q-33 0 -61 -7t-49 -20t-33 -32.5t-12 -44.5q0 -16 7.5 -29t24.5 -25t44 -23.5t67 -23.5q97 -29 136 -68t39 -94q0 -41 -16 -76.5t-47 -61.5t-76.5 -41t-105.5 -15q-55 0 -93 10.5t-62 24.5q-28 16 -46 36zM349 715l64 62h64l-104 -109h-57l-76 109h65z" />
    <glyph glyph-name="caron" unicode="&#x2c7;" horiz-adv-x="325" 
d="M260 715l64 62h64l-104 -109h-57l-76 109h65z" />
    <glyph glyph-name="T" unicode="T" horiz-adv-x="519" 
d="M109 600h469l-9 -65h-200l-75 -535h-70l75 535h-199z" />
    <glyph glyph-name="Thorn" unicode="&#xde;" horiz-adv-x="575" 
d="M223 502h166q97 0 149.5 -43.5t52.5 -126.5q0 -57 -19 -101.5t-54 -75t-83.5 -46t-107.5 -15.5h-162l-13 -94h-70l84 600h70zM518 321q0 59 -37.5 87t-103.5 28h-164l-39 -276h164q83 0 131.5 38t48.5 123z" />
    <glyph glyph-name="U" unicode="U" horiz-adv-x="630" 
d="M313 -14q-57 0 -99 19.5t-68 54.5t-35.5 83.5t-1.5 107.5l49 349h70l-49 -349q-6 -43 -0.5 -79.5t23 -63t47.5 -41.5t73 -15t77.5 15t59.5 41.5t40.5 63t21.5 79.5l49 349h70l-49 -349q-8 -59 -31 -107.5t-58.5 -83.5t-83 -54.5t-105.5 -19.5z" />
    <glyph glyph-name="Uacute" unicode="&#xda;" horiz-adv-x="630" 
d="M313 -14q-57 0 -99 19.5t-68 54.5t-35.5 83.5t-1.5 107.5l49 349h70l-49 -349q-6 -43 -0.5 -79.5t23 -63t47.5 -41.5t73 -15t77.5 15t59.5 41.5t40.5 63t21.5 79.5l49 349h70l-49 -349q-8 -59 -31 -107.5t-58.5 -83.5t-83 -54.5t-105.5 -19.5zM426 635h-50l73 145l83 -13
z" />
    <glyph glyph-name="Ucircumflex" unicode="&#xdb;" horiz-adv-x="630" 
d="M313 -14q-57 0 -99 19.5t-68 54.5t-35.5 83.5t-1.5 107.5l49 349h70l-49 -349q-6 -43 -0.5 -79.5t23 -63t47.5 -41.5t73 -15t77.5 15t59.5 41.5t40.5 63t21.5 79.5l49 349h70l-49 -349q-8 -59 -31 -107.5t-58.5 -83.5t-83 -54.5t-105.5 -19.5zM415 695l-64 -61h-64
l104 108h57l76 -108h-65z" />
    <glyph glyph-name="Udieresis" unicode="&#xdc;" horiz-adv-x="630" 
d="M313 -14q-57 0 -99 19.5t-68 54.5t-35.5 83.5t-1.5 107.5l49 349h70l-49 -349q-6 -43 -0.5 -79.5t23 -63t47.5 -41.5t73 -15t77.5 15t59.5 41.5t40.5 63t21.5 79.5l49 349h70l-49 -349q-8 -59 -31 -107.5t-58.5 -83.5t-83 -54.5t-105.5 -19.5zM289 710q0 20 16.5 36
t36.5 16q17 0 28.5 -12.5t11.5 -29.5q0 -20 -16.5 -36t-36.5 -16q-17 0 -28.5 12.5t-11.5 29.5zM451 710q0 20 16.5 36t36.5 16q17 0 28.5 -12.5t11.5 -29.5q0 -20 -16.5 -36t-36.5 -16q-17 0 -28.5 12.5t-11.5 29.5z" />
    <glyph glyph-name="Ugrave" unicode="&#xd9;" horiz-adv-x="630" 
d="M313 -14q-57 0 -99 19.5t-68 54.5t-35.5 83.5t-1.5 107.5l49 349h70l-49 -349q-6 -43 -0.5 -79.5t23 -63t47.5 -41.5t73 -15t77.5 15t59.5 41.5t40.5 63t21.5 79.5l49 349h70l-49 -349q-8 -59 -31 -107.5t-58.5 -83.5t-83 -54.5t-105.5 -19.5zM311 767l86 13l32 -145h-50
z" />
    <glyph glyph-name="V" unicode="V" horiz-adv-x="595" 
d="M93 600h72l144 -510l289 510h72l-341 -600h-63z" />
    <glyph glyph-name="W" unicode="W" horiz-adv-x="806" 
d="M472 492l-201 -492h-55l-116 600h72l81 -493l200 493h68l61 -493l220 493h72l-284 -600h-55z" />
    <glyph glyph-name="X" unicode="X" horiz-adv-x="527" 
d="M357 308l157 -308h-84l-114 224l-16 41l-29 -41l-174 -224h-83l241 308l-150 292h84l110 -215l14 -37l25 37l169 215h83z" />
    <glyph glyph-name="Y" unicode="Y" horiz-adv-x="530" 
d="M524 600h81l-273 -370l-32 -230h-70l32 230l-169 370h82l118 -268l13 -38h2l24 38z" />
    <glyph glyph-name="Yacute" unicode="&#xdd;" horiz-adv-x="530" 
d="M524 600h81l-273 -370l-32 -230h-70l32 230l-169 370h82l118 -268l13 -38h2l24 38zM383 668h-50l73 145l83 -13z" />
    <glyph glyph-name="Ydieresis" unicode="&#x178;" horiz-adv-x="530" 
d="M524 600h81l-273 -370l-32 -230h-70l32 230l-169 370h82l118 -268l13 -38h2l24 38zM239 710q0 20 16.5 36t36.5 16q17 0 28.5 -12.5t11.5 -29.5q0 -20 -16.5 -36t-36.5 -16q-17 0 -28.5 12.5t-11.5 29.5zM401 710q0 20 16.5 36t36.5 16q17 0 28.5 -12.5t11.5 -29.5
q0 -20 -16.5 -36t-36.5 -16q-17 0 -28.5 12.5t-11.5 29.5z" />
    <glyph glyph-name="Z" unicode="Z" horiz-adv-x="522" 
d="M37 47l434 488h-354l9 65h448l-6 -47l-428 -488h351l-9 -65h-452z" />
    <glyph glyph-name="Zcaron" unicode="&#x17d;" horiz-adv-x="522" 
d="M37 47l434 488h-354l9 65h448l-6 -47l-428 -488h351l-9 -65h-452zM355 715l64 62h64l-104 -109h-57l-76 109h65z" />
    <glyph glyph-name="ae" unicode="&#xe6;" horiz-adv-x="749" 
d="M698 38q-15 -14 -38 -25q-20 -9 -49 -16.5t-68 -7.5q-59 0 -100.5 22t-63.5 63q-29 -38 -73.5 -61t-107.5 -23q-79 0 -115 34t-36 83q0 66 52.5 110t156.5 44q38 0 65 -5.5t45 -12.5l2 16q8 57 -19 83.5t-85 26.5q-26 0 -48 -5.5t-39 -11.5q-20 -8 -37 -17l-19 57
q19 10 44 19q21 7 49.5 13t62.5 6q62 0 98.5 -19.5t50.5 -54.5q31 35 72 54.5t91 19.5q45 0 77.5 -16t51.5 -44.5t26 -66.5t1 -82l-2 -17h-313q-5 -39 2.5 -68t24.5 -48.5t42 -29.5t56 -10q29 0 52 6t39 14q18 9 33 20zM206 45q32 0 58 9t45 25t30.5 36.5t14.5 43.5l4 29
q-14 7 -39.5 14t-64.5 7q-76 0 -106 -26.5t-30 -68.5q0 -30 21 -49.5t67 -19.5zM580 371q-51 0 -86 -27t-52 -84h238q0 111 -100 111z" />
    <glyph glyph-name="ampersand" unicode="&#x26;" horiz-adv-x="585" 
d="M565 261q-14 -42 -33 -79t-43 -69l97 -113h-102l-48 57q-37 -32 -82 -49.5t-99 -17.5q-46 0 -81 11t-58.5 30.5t-35.5 46t-12 56.5q0 36 12.5 63.5t33 49.5t47.5 39t57 32l-13 16q-41 51 -41 112q0 34 13.5 64.5t37.5 53t56.5 36t71.5 13.5q66 0 102.5 -34.5t36.5 -88.5
q0 -37 -13 -65t-34.5 -50t-50 -39t-58.5 -32l123 -144q32 49 53 118zM260 50q38 0 73 13t66 39l-141 168q-23 -12 -43.5 -25t-36 -28.5t-24.5 -33.5t-9 -41q0 -21 9 -38t25 -29t36.5 -18.5t44.5 -6.5zM236 452q0 -24 9.5 -43.5t28.5 -42.5l13 -16q25 12 47.5 25t39.5 28
t27 34t10 43q0 35 -20.5 54.5t-55.5 19.5q-41 0 -70 -27t-29 -75z" />
    <glyph glyph-name="approxequal" unicode="&#x2248;" horiz-adv-x="456" 
d="M326 175q-22 0 -39.5 7.5t-32 16t-28 16t-27.5 7.5q-20 0 -30.5 -10.5t-15.5 -24.5l-5 -13l-58 5l9 29q11 29 34 51t65 22q21 0 38 -7.5t32 -16t29 -16t29 -7.5q20 0 29 10.5t15 24.5l6 13l57 -5l-9 -30q-10 -29 -33.5 -50.5t-64.5 -21.5zM353 365q-22 0 -39.5 7.5
t-32 16t-28 16t-27.5 7.5q-20 0 -30.5 -10.5t-15.5 -24.5l-5 -13l-59 5l10 30q10 29 33.5 50.5t65.5 21.5q21 0 38 -7.5t32 -16t28.5 -16t28.5 -7.5q20 0 29 10.5t15 24.5l6 13l57 -5l-9 -29q-9 -29 -32.5 -51t-64.5 -22z" />
    <glyph glyph-name="asciicircum" unicode="^" horiz-adv-x="437" 
d="M308 644l-128 -147h-61l174 196h46l119 -196h-63z" />
    <glyph glyph-name="asciitilde" unicode="~" horiz-adv-x="481" 
d="M357 313q17 0 33 3.5t28 8.5q14 5 25 13l18 -42q-13 -11 -31 -19q-15 -8 -35.5 -13.5t-44.5 -5.5q-22 0 -38 5t-31 11t-31.5 11t-40.5 5q-17 0 -33 -4t-28 -9q-14 -5 -26 -12l-17 42q13 10 31 19q15 7 35 13t44 6q22 0 38 -5t31 -11t32 -11t41 -5z" />
    <glyph glyph-name="asterisk" unicode="*" horiz-adv-x="387" 
d="M252 541l-128 21l31 62l105 -67v134h62l-43 -135l129 68l13 -62l-137 -21l83 -96l-59 -37l-42 120l-76 -120l-45 37z" />
    <glyph glyph-name="at" unicode="@" horiz-adv-x="1008" 
d="M765 51q-30 0 -52 8t-36.5 21.5t-22.5 31t-9 36.5h-6q-5 -6 -19.5 -21t-37.5 -30.5t-55 -27.5t-72 -12q-70 0 -111.5 43t-41.5 116q0 62 23 113.5t61 89t86 58t98 20.5q39 0 63.5 -10t39.5 -24t22 -29t9 -25l31 78h51l-66 -255q-2 -5 -5.5 -22.5t-3.5 -31.5
q0 -31 16.5 -50t49.5 -19q31 0 61 17t54 49t38.5 77.5t14.5 103.5q0 60 -20.5 119.5t-62 107t-104.5 76.5t-148 29q-100 0 -187 -38t-151.5 -101t-101.5 -146t-37 -173q0 -76 26.5 -142.5t74 -116t113 -78t143.5 -28.5q48 0 88 8.5t69 19.5q34 12 62 29l17 -51
q-28 -18 -65 -31q-32 -12 -77 -21.5t-102 -9.5q-95 0 -170.5 33.5t-128.5 90t-81.5 131.5t-28.5 158q0 103 41.5 197.5t114.5 167t173 115.5t216 43q89 0 162 -30t124.5 -81.5t80 -120.5t28.5 -148q0 -67 -20 -124.5t-54 -99.5t-79 -66t-95 -24zM479 116q39 0 74 17.5
t62 46.5t42.5 67t15.5 80q0 54 -30.5 82.5t-78.5 28.5q-34 0 -68 -15.5t-61 -43t-43.5 -66t-16.5 -84.5q0 -54 28 -83.5t76 -29.5z" />
    <glyph glyph-name="b" unicode="b" horiz-adv-x="523" 
d="M152 605h69l-35 -248h3q14 20 36 36q19 14 49 25.5t75 11.5q36 0 66.5 -13.5t52.5 -38.5t34.5 -59.5t12.5 -76.5q0 -56 -18.5 -102.5t-50 -79.5t-73 -51.5t-87.5 -18.5q-47 0 -75 12.5t-45 28.5q-19 18 -28 42h-3l-18 -73h-50zM159 185q0 -65 35 -101t87 -36
q33 0 62.5 14t52 39t36 59t13.5 75q0 61 -33 99t-86 38q-32 0 -62.5 -13t-53.5 -37t-37 -59t-14 -78z" />
    <glyph glyph-name="backslash" unicode="\" horiz-adv-x="355" 
d="M146 798h71l86 -926h-70z" />
    <glyph glyph-name="bar" unicode="|" horiz-adv-x="193" 
d="M111 -128h-65l115 815h65z" />
    <glyph glyph-name="braceleft" unicode="{" horiz-adv-x="272" 
d="M84 317q32 0 53.5 24.5t28.5 73.5l25 173q8 57 40.5 89t94.5 38l3 -59q-31 -5 -46 -20t-21 -56l-23 -170q-7 -48 -26.5 -78.5t-51.5 -41.5l-2 -9q29 -11 40 -41.5t5 -75.5l-24 -173q-5 -39 5.5 -55t39.5 -20l-19 -58q-60 5 -84.5 36.5t-16.5 88.5l25 175q7 48 -7.5 73.5
t-46.5 25.5h-25l8 60h25z" />
    <glyph glyph-name="braceright" unicode="}" horiz-adv-x="272" 
d="M301 317l-8 -60h-25q-32 0 -53.5 -25.5t-28.5 -73.5l-25 -175q-8 -57 -40.5 -88.5t-94.5 -36.5l-3 58q31 4 46.5 20t20.5 55l24 173q6 45 25.5 75.5t51.5 41.5l2 9q-59 23 -45 120l24 170q6 41 -5 56t-40 20l19 59q60 -6 84 -38t16 -89l-24 -173q-7 -49 7.5 -73.5
t46.5 -24.5h25z" />
    <glyph glyph-name="bracketleft" unicode="[" horiz-adv-x="320" 
d="M163 700h240l-9 -58h-172l-100 -714h172l-8 -58h-240z" />
    <glyph glyph-name="bracketright" unicode="]" horiz-adv-x="320" 
d="M6 -72h172l100 714h-172l9 58h240l-117 -830h-240z" />
    <glyph glyph-name="breve" unicode="&#x2d8;" horiz-adv-x="396" 
d="M390 610q-3 -24 -14.5 -44.5t-28 -35.5t-37 -23.5t-41.5 -8.5t-39 8.5t-30.5 23.5t-18 35.5t-2.5 44.5h44q-4 -26 10.5 -46.5t41.5 -20.5q13 0 25 5.5t21.5 14.5t16 21t8.5 26h44z" />
    <glyph glyph-name="brokenbar" unicode="&#xa6;" horiz-adv-x="202" 
d="M115 330l48 343h64l-48 -343h-64zM47 -153l48 343h64l-48 -343h-64z" />
    <glyph glyph-name="bullet" unicode="&#x2022;" horiz-adv-x="311" 
d="M198 296q28 0 45.5 -19t17.5 -46q0 -17 -7 -31.5t-18.5 -25t-26.5 -17t-31 -6.5q-29 0 -47 18.5t-18 45.5q0 16 7 31t18.5 26t27 17.5t32.5 6.5z" />
    <glyph glyph-name="c" unicode="c" horiz-adv-x="411" 
d="M247 -10q-41 0 -74.5 13.5t-57 38t-36 59t-12.5 76.5q0 55 18.5 101.5t51 80t77 52.5t95.5 19q35 0 59 -6t38 -13q17 -8 26 -18l-29 -52q-10 8 -25 15q-13 6 -31.5 11t-41.5 5q-33 0 -63.5 -13t-54 -37.5t-37 -59.5t-13.5 -80q0 -66 34.5 -100t87.5 -34q23 0 43.5 4.5
t34.5 10.5q17 7 30 16l11 -52q-13 -11 -31 -19q-16 -7 -40.5 -12.5t-59.5 -5.5z" />
    <glyph glyph-name="ccedilla" unicode="&#xe7;" horiz-adv-x="411" 
d="M199 -54l28 45q-75 7 -117.5 57t-42.5 129q0 55 18.5 101.5t51 80t77 52.5t95.5 19q35 0 59 -6t38 -13q17 -8 26 -18l-29 -52q-10 8 -25 15q-13 6 -31.5 11t-41.5 5q-33 0 -63.5 -13t-54 -37.5t-37 -59.5t-13.5 -80q0 -66 34.5 -100t87.5 -34q23 0 43.5 4.5t34.5 10.5
q17 7 30 16l11 -52q-11 -10 -27 -17q-14 -7 -35.5 -12t-50.5 -7l-16 -29q23 -1 39.5 -14.5t16.5 -40.5q0 -34 -23.5 -56.5t-65.5 -22.5q-19 0 -31.5 4.5t-20.5 9.5q-10 6 -16 14l23 28q5 -6 12 -10q6 -4 15.5 -7t21.5 -3q22 0 34.5 10.5t12.5 28.5q0 28 -37 28
q-5 0 -8.5 -0.5t-6.5 -0.5h-6z" />
    <glyph glyph-name="cent" unicode="&#xa2;" horiz-adv-x="428" 
d="M201 87q-55 17 -87 64.5t-32 114.5q0 54 18.5 99t50.5 78.5t75 53t93 21.5l22 82h51l-23 -85q20 -4 35.5 -9.5t26.5 -10.5q12 -6 21 -14l-29 -52q-7 6 -18 11q-9 5 -22 9.5t-30 7.5l-87 -321h13q23 0 43 4.5t34 10.5q17 7 30 16l12 -52q-15 -11 -34 -19
q-17 -7 -41.5 -12.5t-55.5 -5.5h-17l-21 -78h-51zM153 273q0 -45 18 -77t47 -47l84 309q-29 -4 -56 -19t-47.5 -39t-33 -56t-12.5 -71z" />
    <glyph glyph-name="colon" unicode=":" horiz-adv-x="212" 
d="M105 -10q-18 0 -29.5 11.5t-11.5 29.5q0 21 16.5 36.5t37.5 15.5q18 0 29.5 -12t11.5 -30q0 -21 -16.5 -36t-37.5 -15zM153 334q-18 0 -29.5 11.5t-11.5 29.5q0 21 16.5 36.5t37.5 15.5q18 0 29.5 -12t11.5 -30q0 -21 -16.5 -36t-37.5 -15z" />
    <glyph glyph-name="comma" unicode="," horiz-adv-x="202" 
d="M2 -83q36 8 59.5 28t28.5 46q-14 2 -23.5 13t-9.5 27q0 21 16.5 36.5t37.5 15.5q20 0 33 -13.5t8 -33.5l-1 -4v-4q-2 -30 -13.5 -55.5t-30.5 -45t-44.5 -32.5t-54.5 -18l-6 40v0z" />
    <glyph glyph-name="copyright" unicode="&#xa9;" horiz-adv-x="689" 
d="M430 605q63 0 111 -20.5t81 -56.5t50 -84t17 -103q0 -70 -25 -133t-70 -110.5t-108.5 -75.5t-141.5 -28q-63 0 -111.5 20.5t-81.5 56.5t-50.5 84.5t-17.5 103.5q0 69 25 132t71 110.5t110 75.5t141 28zM424 563q-66 0 -120.5 -24t-93.5 -65.5t-60.5 -96t-21.5 -114.5
q0 -47 14.5 -88.5t43 -72.5t69.5 -48.5t95 -17.5q66 0 120.5 24t93.5 65.5t60.5 95.5t21.5 114q0 48 -14.5 89.5t-43 72t-70 48.5t-94.5 18zM481 386q-7 8 -18 14q-9 5 -22 10t-31 5q-29 0 -52 -10.5t-40 -28t-26 -41.5t-9 -51q0 -42 24.5 -70t70.5 -28q18 0 32 4.5t25 9.5
q12 6 22 15l19 -38q-11 -11 -27 -19q-14 -7 -34 -12.5t-46 -5.5q-33 0 -58.5 10.5t-43 29t-26 44t-8.5 54.5q0 37 13 70.5t36.5 58.5t57 39.5t74.5 14.5q26 0 45 -6t30 -13q13 -8 22 -18z" />
    <glyph glyph-name="d" unicode="d" 
d="M440 364l33 241h69l-85 -605h-48v67h-3q-16 -22 -40 -39q-20 -14 -52 -26t-77 -12q-38 0 -69 13.5t-53.5 38t-35 59t-12.5 76.5q0 55 19 101.5t50.5 80.5t73 52.5t87.5 18.5q43 0 70 -10.5t43 -22.5q18 -15 27 -33h3zM425 235q0 65 -34.5 101t-87.5 36q-33 0 -63 -14
t-52.5 -38.5t-36 -59t-13.5 -74.5q0 -61 32.5 -99.5t86.5 -38.5q33 0 63 13t53.5 37t37.5 58.5t14 78.5z" />
    <glyph glyph-name="dagger" unicode="&#x2020;" horiz-adv-x="390" 
d="M103 497h133l20 138h59l-20 -138h132l-8 -58h-132l-44 -265h-45l30 265h-133z" />
    <glyph glyph-name="daggerdbl" unicode="&#x2021;" horiz-adv-x="424" 
d="M124 530h133l19 138h59l-19 -138h132l-8 -58h-132l-26 -138l-13 -138h132l-8 -58h-132l-19 -138h-59l19 138h-133l8 58h133l26 138l13 138h-133z" />
    <glyph glyph-name="degree" unicode="&#xb0;" horiz-adv-x="300" 
d="M244 672q46 0 72 -27.5t26 -67.5q0 -25 -9.5 -46.5t-27 -38t-41 -26t-50.5 -9.5q-46 0 -72 27t-26 67q0 25 9.5 47t27 38.5t41 26t50.5 9.5zM239 633q-35 0 -57.5 -23t-22.5 -54q0 -25 16 -42t45 -17q35 0 57 22.5t22 53.5q0 25 -15.5 42.5t-44.5 17.5z" />
    <glyph glyph-name="divide" unicode="&#xf7;" horiz-adv-x="489" 
d="M216 142q0 23 17 39.5t40 16.5q18 0 30.5 -12.5t12.5 -31.5q0 -23 -17.5 -39t-39.5 -16q-19 0 -31 12t-12 31zM258 443q0 23 17.5 39.5t40.5 16.5q17 0 29.5 -12.5t12.5 -31.5q0 -23 -17.5 -39t-38.5 -16q-20 0 -32 12t-12 31zM105 325h371l-8 -58h-371z" />
    <glyph glyph-name="dollar" unicode="$" horiz-adv-x="505" 
d="M95 110q14 -15 34 -26q17 -10 42.5 -19t60.5 -12l32 228q-81 27 -120 61t-39 90q0 38 14.5 69.5t41.5 54.5t65 37.5t85 18.5l15 104h59l-15 -104q45 -3 75 -12t50 -20q22 -12 36 -26l-46 -58q-12 11 -30 21q-15 8 -38.5 16.5t-55.5 11.5l-29 -207q90 -29 127 -66.5
t37 -91.5q0 -39 -14 -72.5t-41 -59t-67 -41.5t-92 -20l-13 -94h-59l13 94q-47 3 -79.5 14.5t-53.5 23.5q-25 14 -40 32zM423 168q0 30 -22.5 51.5t-79.5 42.5l-29 -209q69 7 100 38.5t31 76.5zM178 443q0 -27 21.5 -46.5t75.5 -39.5l27 188q-54 -6 -89 -31.5t-35 -70.5z" />
    <glyph glyph-name="dotaccent" unicode="&#x2d9;" horiz-adv-x="331" 
d="M243 550q-23 0 -37 15t-14 37q0 27 20.5 46.5t47.5 19.5q23 0 37 -15t14 -37q0 -27 -20.5 -46.5t-47.5 -19.5z" />
    <glyph glyph-name="dotlessi" unicode="&#x131;" horiz-adv-x="207" 
d="M128 420h69l-59 -420h-69z" />
    <glyph glyph-name="e" unicode="e" horiz-adv-x="457" 
d="M406 38q-16 -14 -39 -25q-20 -9 -49 -16.5t-68 -7.5q-88 0 -136 51.5t-48 135.5q0 53 17 99.5t48 81t73.5 54t92.5 19.5q45 0 77.5 -16t51.5 -44.5t26 -66.5t1 -82l-2 -17h-314q-9 -77 27 -116.5t98 -39.5q29 0 51.5 6t39.5 14q19 9 34 20zM288 371q-103 0 -139 -111h238
q0 111 -99 111z" />
    <glyph glyph-name="eacute" unicode="&#xe9;" horiz-adv-x="457" 
d="M406 38q-16 -14 -39 -25q-20 -9 -49 -16.5t-68 -7.5q-88 0 -136 51.5t-48 135.5q0 53 17 99.5t48 81t73.5 54t92.5 19.5q45 0 77.5 -16t51.5 -44.5t26 -66.5t1 -82l-2 -17h-314q-9 -77 27 -116.5t98 -39.5q29 0 51.5 6t39.5 14q19 9 34 20zM288 371q-103 0 -139 -111h238
q0 111 -99 111zM330 497h-50l73 145l83 -13z" />
    <glyph glyph-name="ecircumflex" unicode="&#xea;" horiz-adv-x="457" 
d="M406 38q-16 -14 -39 -25q-20 -9 -49 -16.5t-68 -7.5q-88 0 -136 51.5t-48 135.5q0 53 17 99.5t48 81t73.5 54t92.5 19.5q45 0 77.5 -16t51.5 -44.5t26 -66.5t1 -82l-2 -17h-314q-9 -77 27 -116.5t98 -39.5q29 0 51.5 6t39.5 14q19 9 34 20zM288 371q-103 0 -139 -111h238
q0 111 -99 111zM315 557l-64 -61h-64l104 108h57l76 -108h-65z" />
    <glyph glyph-name="edieresis" unicode="&#xeb;" horiz-adv-x="457" 
d="M406 38q-16 -14 -39 -25q-20 -9 -49 -16.5t-68 -7.5q-88 0 -136 51.5t-48 135.5q0 53 17 99.5t48 81t73.5 54t92.5 19.5q45 0 77.5 -16t51.5 -44.5t26 -66.5t1 -82l-2 -17h-314q-9 -77 27 -116.5t98 -39.5q29 0 51.5 6t39.5 14q19 9 34 20zM288 371q-103 0 -139 -111h238
q0 111 -99 111zM186 539q0 20 16.5 36t36.5 16q17 0 28.5 -12.5t11.5 -29.5q0 -20 -16.5 -36t-36.5 -16q-17 0 -28.5 12.5t-11.5 29.5zM348 539q0 20 16.5 36t36.5 16q17 0 28.5 -12.5t11.5 -29.5q0 -20 -16.5 -36t-36.5 -16q-17 0 -28.5 12.5t-11.5 29.5z" />
    <glyph glyph-name="egrave" unicode="&#xe8;" horiz-adv-x="457" 
d="M406 38q-16 -14 -39 -25q-20 -9 -49 -16.5t-68 -7.5q-88 0 -136 51.5t-48 135.5q0 53 17 99.5t48 81t73.5 54t92.5 19.5q45 0 77.5 -16t51.5 -44.5t26 -66.5t1 -82l-2 -17h-314q-9 -77 27 -116.5t98 -39.5q29 0 51.5 6t39.5 14q19 9 34 20zM288 371q-103 0 -139 -111h238
q0 111 -99 111zM212 629l86 13l32 -145h-50z" />
    <glyph glyph-name="eight" unicode="8" horiz-adv-x="514" 
d="M256 -14q-46 0 -80.5 13t-58 34.5t-35.5 50.5t-12 62q0 57 30.5 100.5t83.5 68.5q-29 18 -44.5 47.5t-15.5 64.5q0 38 15.5 72t44.5 59.5t69.5 40t90.5 14.5q42 0 74 -11t53.5 -31t33 -47t11.5 -58q0 -48 -25.5 -87.5t-70.5 -63.5q35 -19 53.5 -52t18.5 -75
q0 -40 -16.5 -76.5t-47.5 -64.5t-74.5 -44.5t-97.5 -16.5zM420 180q0 44 -32.5 73t-89.5 29q-35 0 -63.5 -10t-49 -27.5t-32 -40.5t-11.5 -50q0 -44 32.5 -73t91.5 -29q34 0 62 10t48.5 27.5t32 40.5t11.5 50zM307 343q33 0 59 9t43 25t26 37t9 44q0 36 -26.5 62.5
t-82.5 26.5q-34 0 -60 -9.5t-43.5 -25t-26.5 -36.5t-9 -43q0 -38 27 -64t84 -26z" />
    <glyph glyph-name="ellipsis" unicode="&#x2026;" horiz-adv-x="707" 
d="M63 40q0 26 20 45.5t46 19.5q22 0 36 -15t14 -36q0 -27 -20 -45.5t-46 -18.5q-23 0 -36.5 14.5t-13.5 35.5zM302 40q0 26 20 45.5t46 19.5q22 0 36 -15t14 -36q0 -27 -20 -45.5t-46 -18.5q-22 0 -36 14.5t-14 35.5zM541 40q0 26 20 45.5t46 19.5q22 0 36 -15t14 -36
q0 -27 -20 -45.5t-46 -18.5q-22 0 -36 14.5t-14 35.5z" />
    <glyph glyph-name="emdash" unicode="&#x2014;" horiz-adv-x="718" 
d="M105 317h588l-8 -58h-588z" />
    <glyph glyph-name="endash" unicode="&#x2013;" horiz-adv-x="465" 
d="M105 317h335l-8 -58h-335z" />
    <glyph glyph-name="equal" unicode="=" horiz-adv-x="468" 
d="M121 417h344l-8 -58h-344zM94 226h344l-8 -58h-344z" />
    <glyph glyph-name="eth" unicode="&#xf0;" horiz-adv-x="501" 
d="M248 -10q-88 0 -135 50t-47 135q0 55 17.5 102t49 81t76.5 53t101 19q17 0 30 -2t26 -5l1 5q-3 5 -7 11q-3 5 -6.5 11.5t-7.5 14.5l-37 75l-132 -75l-18 42l130 73l-68 137l2 11h65l57 -116l134 76l19 -41l-133 -76l100 -204q15 -31 21.5 -60.5t6.5 -58.5
q0 -57 -17.5 -104.5t-49.5 -81.5t-77 -53t-101 -19zM422 238q0 66 -33.5 100t-86.5 34q-33 0 -63 -12.5t-52.5 -36.5t-36 -59.5t-13.5 -81.5q0 -65 33 -99.5t86 -34.5q34 0 64 12.5t52.5 37t36 60t13.5 80.5z" />
    <glyph glyph-name="partialdiff" unicode="&#x2202;" horiz-adv-x="501" 
d="M248 -10q-88 0 -135 50t-47 135q0 55 17.5 102t49 81t76.5 53t101 19q17 0 30 -2t26 -5l1 5q-3 5 -7 11q-3 5 -6.5 11.5t-7.5 14.5l-125 252l2 11h65l177 -361q15 -31 21.5 -60.5t6.5 -58.5q0 -57 -17.5 -104.5t-49.5 -81.5t-77 -53t-101 -19zM422 238q0 66 -33.5 100
t-86.5 34q-33 0 -63 -12.5t-52.5 -36.5t-36 -59.5t-13.5 -81.5q0 -65 33 -99.5t86 -34.5q34 0 64 12.5t52.5 37t36 60t13.5 80.5z" />
    <glyph glyph-name="exclam" unicode="!" horiz-adv-x="207" 
d="M151 167h-49l42 433h86zM61 36q0 23 16.5 39t39.5 16q18 0 30 -12.5t12 -30.5q0 -23 -17 -39.5t-39 -16.5q-19 0 -30.5 12.5t-11.5 31.5z" />
    <glyph glyph-name="exclamdown" unicode="&#xa1;" horiz-adv-x="196" 
d="M115 -177h-86l80 433h49zM103 375q0 23 16.5 39.5t38.5 16.5q19 0 31 -12.5t12 -31.5q0 -23 -17 -39t-39 -16q-19 0 -30.5 12.5t-11.5 30.5z" />
    <glyph glyph-name="f" unicode="f" horiz-adv-x="304" 
d="M218 364l-51 -364h-69l51 364h-79l8 56h79l7 52q9 66 52 103.5t109 37.5q21 0 37 -3t27 -7q12 -4 21 -10l-29 -56q-8 3 -18 7q-8 3 -20 5.5t-26 2.5q-33 0 -56 -20.5t-28 -58.5l-7 -53h125l-8 -56h-125z" />
    <glyph glyph-name="i" unicode="i" horiz-adv-x="207" 
d="M175 512q-18 0 -29.5 11.5t-11.5 29.5q0 21 16.5 36.5t37.5 15.5q18 0 29.5 -12t11.5 -30q0 -21 -16.5 -36t-37.5 -15zM128 420h69l-59 -420h-69z" />
    <glyph glyph-name="five" unicode="5" horiz-adv-x="480" 
d="M218 535l-30 -180q17 4 38 6.5t47 2.5q99 0 146.5 -43.5t47.5 -113.5q0 -47 -16.5 -87.5t-47.5 -70t-75.5 -46.5t-100.5 -17q-51 0 -84.5 13t-54.5 29q-25 18 -40 42l49 51q13 -20 32 -35q17 -13 43 -23.5t63 -10.5q71 0 115.5 38.5t44.5 105.5q0 48 -34.5 75.5
t-98.5 27.5q-32 0 -57 -4t-43 -8.5t-27.5 -9l-9.5 -4.5l-14 12l53 315h330l-9 -65h-267z" />
    <glyph glyph-name="l" unicode="l" horiz-adv-x="209" 
d="M155 605h69l-85 -605h-69z" />
    <glyph glyph-name="florin" unicode="&#x192;" horiz-adv-x="504" 
d="M265 365h-89l8 55h100l11 32q28 81 79 119t122 38q20 0 35 -3t25 -6q11 -4 20 -9l-37 -57q-6 3 -14 6q-7 2 -17 4t-24 2q-45 0 -74 -21t-47 -73l-11 -32h153l-8 -55h-164l-91 -267q-7 -20 -16 -37.5t-23 -31t-34.5 -21.5t-49.5 -8q-18 0 -32 3t-24 8q-11 5 -20 12l28 52
q6 -4 13 -7q14 -7 31 -7q25 0 39.5 12t25.5 42z" />
    <glyph glyph-name="four" unicode="4" horiz-adv-x="549" 
d="M51 194l395 406h52l-55 -393h107l-9 -65h-107l-20 -142h-70l20 142h-320zM147 207h226l39 274l-249 -258q-2 -2 -4.5 -4t-4.5 -4q-3 -3 -6 -5z" />
    <glyph glyph-name="fraction" unicode="&#x2044;" horiz-adv-x="581" 
d="M-10 0l638 700h62l-640 -700h-60z" />
    <glyph glyph-name="germandbls" unicode="&#xdf;" horiz-adv-x="498" 
d="M284 331q36 5 61 17.5t40 30t21.5 38.5t6.5 44q0 37 -23 61.5t-66 24.5q-47 0 -83.5 -32t-45.5 -95l-59 -420h-69l57 407q14 100 69 150.5t146 50.5q72 0 111 -38.5t39 -101.5q0 -52 -26 -90.5t-68 -59.5q46 -13 67.5 -51t21.5 -81q0 -44 -15 -80t-44 -62t-70.5 -40
t-94.5 -14q-34 0 -54 5q-11 2 -19 5l17 54q7 -2 16 -3q15 -3 46 -3t57.5 9.5t45.5 27t30 42t11 53.5q0 49 -30.5 75t-81.5 26h-22z" />
    <glyph glyph-name="greater" unicode="&#x3e;" horiz-adv-x="375" 
d="M378 284l-300 -197l10 72l213 140l-174 140l11 72l244 -197z" />
    <glyph glyph-name="greaterequal" unicode="&#x2265;" horiz-adv-x="384" 
d="M123 249l169 142l-128 148l47 43l159 -183l-2 -15l-209 -178zM71 141h277l-8 -58h-277z" />
    <glyph glyph-name="guillemotleft" unicode="&#xab;" horiz-adv-x="452" 
d="M73 220l147 188h60l-2 -10l-143 -186l-1 -5l91 -189l-2 -10h-60l-93 189zM260 220l147 188h59l-2 -10l-143 -186l-1 -5l91 -189l-2 -10h-59l-93 189z" />
    <glyph glyph-name="guillemotright" unicode="&#xbb;" horiz-adv-x="451" 
d="M252 197l-147 -189h-61l1 10l145 189l1 5l-92 186l1 10h61l94 -188zM438 197l-147 -189h-61l1 10l145 189l1 5l-92 186l1 10h61l94 -188z" />
    <glyph glyph-name="guilsinglleft" unicode="&#x2039;" horiz-adv-x="266" 
d="M73 220l147 188h60l-2 -10l-143 -186l-1 -5l91 -189l-2 -10h-60l-93 189z" />
    <glyph glyph-name="guilsinglright" unicode="&#x203a;" horiz-adv-x="265" 
d="M252 197l-147 -189h-61l1 10l145 189l1 5l-92 186l1 10h61l94 -188z" />
    <glyph glyph-name="h" unicode="h" horiz-adv-x="509" 
d="M152 605h69l-32 -226h3q28 28 61.5 39.5t79.5 11.5q41 0 71.5 -14t49 -39.5t25.5 -61t1 -78.5l-33 -237h-69l32 228q4 31 0.5 57t-16 45.5t-33 30.5t-50.5 11q-32 0 -56.5 -12t-42 -30t-28 -39.5t-13.5 -39.5l-35 -251h-69z" />
    <glyph glyph-name="hungarumlaut" unicode="&#x2dd;" horiz-adv-x="395" 
d="M306 419h-48l68 158h82zM153 419h-48l68 158h82z" />
    <glyph glyph-name="hyphen" unicode="-" horiz-adv-x="398" 
d="M95 258h280l-8 -58h-280z" />
    <glyph glyph-name="iacute" unicode="&#xed;" horiz-adv-x="207" 
d="M199 497h-50l73 145l83 -13zM128 420h69l-59 -420h-69z" />
    <glyph glyph-name="icircumflex" unicode="&#xee;" horiz-adv-x="207" 
d="M128 420h69l-59 -420h-69zM188 591l-64 -61h-64l104 108h57l76 -108h-65z" />
    <glyph glyph-name="idieresis" unicode="&#xef;" horiz-adv-x="207" 
d="M59 571q0 20 16.5 36t36.5 16q17 0 28.5 -12.5t11.5 -29.5q0 -20 -16.5 -36t-36.5 -16q-17 0 -28.5 12.5t-11.5 29.5zM221 571q0 20 16.5 36t36.5 16q17 0 28.5 -12.5t11.5 -29.5q0 -20 -16.5 -36t-36.5 -16q-17 0 -28.5 12.5t-11.5 29.5zM128 420h69l-59 -420h-69z" />
    <glyph glyph-name="igrave" unicode="&#xec;" horiz-adv-x="207" 
d="M128 420h69l-59 -420h-69zM76 629l86 13l32 -145h-50z" />
    <glyph glyph-name="infinity" unicode="&#x221e;" horiz-adv-x="754" 
d="M226 117q-34 0 -60 11.5t-44 32t-27 47t-9 56.5q0 37 14 71.5t39 61t59.5 42.5t75.5 16q30 0 53 -10.5t40.5 -28t31 -40t25.5 -47.5q18 25 37.5 47.5t42.5 40t48.5 28t55.5 10.5t55.5 -10.5t44.5 -29.5t29.5 -46t10.5 -60q0 -37 -13.5 -71.5t-38 -61.5t-59 -43t-77.5 -16
q-30 0 -53 10t-41 27.5t-31.5 40t-24.5 46.5q-18 -24 -38 -46.5t-42.5 -40t-48 -27.5t-55.5 -10zM596 399q-23 0 -43 -9t-38 -24.5t-34 -36t-31 -42.5q9 -23 19.5 -43.5t24 -36t30.5 -25t40 -9.5q29 0 52 10.5t39.5 28.5t25 41t8.5 48q0 44 -25.5 71t-67.5 27zM238 173
q23 0 43 9t38 24.5t34.5 36t31.5 42.5q-9 22 -20 43t-24.5 36.5t-30.5 25t-40 9.5q-29 0 -52 -11t-39 -29t-24.5 -41.5t-8.5 -47.5q0 -39 22.5 -68t69.5 -29z" />
    <glyph glyph-name="integral" unicode="&#x222b;" horiz-adv-x="298" 
d="M190 534q8 56 35.5 85.5t79.5 29.5q16 0 28.5 -3t21.5 -7q11 -4 18 -10l-28 -52q-6 2 -11 5q-5 2 -11 4t-14 2q-21 0 -33.5 -14t-17.5 -46l-74 -527q-8 -56 -35.5 -85.5t-79.5 -29.5q-16 0 -28.5 3t-20.5 7q-11 4 -18 10l27 52q5 -3 11 -6q12 -5 26 -5q22 0 33.5 14
t16.5 46z" />
    <glyph glyph-name="j" unicode="j" horiz-adv-x="207" 
d="M-7 -98h8q28 0 43 15.5t19 39.5l65 463h68l-65 -466q-8 -51 -37 -80.5t-86 -29.5h-23zM175 512q-18 0 -29.5 11.5t-11.5 29.5q0 21 16.5 36.5t37.5 15.5q18 0 29.5 -12t11.5 -30q0 -21 -16.5 -36t-37.5 -15z" />
    <glyph glyph-name="k" unicode="k" horiz-adv-x="440" 
d="M487 420l-220 -182l161 -238h-85l-131 192l-55 -46l-21 -146h-69l85 605h69l-52 -370h2l225 185h91z" />
    <glyph glyph-name="less" unicode="&#x3c;" horiz-adv-x="375" 
d="M81 314l300 197l-10 -72l-213 -140l173 -140l-10 -72l-244 197z" />
    <glyph glyph-name="lessequal" unicode="&#x2264;" horiz-adv-x="385" 
d="M284 206l-160 178l2 15l211 183l35 -43l-170 -148l129 -142zM346 83h-278l8 58h278z" />
    <glyph glyph-name="logicalnot" unicode="&#xac;" horiz-adv-x="544" 
d="M96 346h431l-48 -346h-59l40 288h-372z" />
    <glyph glyph-name="lozenge" unicode="&#x25ca;" horiz-adv-x="438" 
d="M447 300l-205 -300h-46l-121 300l205 300h46zM228 99h10l129 200l-73 202h-10l-130 -202z" />
    <glyph glyph-name="lslash" unicode="&#x142;" horiz-adv-x="227" 
d="M60 271l63 36l42 298h69l-36 -256l64 37l-7 -46l-64 -36l-42 -304h-69l36 261l-62 -36z" />
    <glyph glyph-name="m" unicode="m" horiz-adv-x="813" 
d="M126 420h49l-3 -62h5q30 37 64.5 54.5t88.5 17.5t89 -21.5t51 -58.5h5q27 36 64.5 58t99.5 22q41 0 71 -14t48.5 -39.5t25 -61t0.5 -78.5l-33 -237h-69l32 229q8 61 -15.5 102t-82.5 41q-32 0 -56 -11.5t-41 -28.5t-26.5 -38.5t-12.5 -40.5l-36 -253h-69l35 246
q8 54 -17.5 90t-85.5 36q-31 0 -54.5 -11t-40 -28.5t-26.5 -38t-14 -38.5l-36 -256h-69z" />
    <glyph glyph-name="macron" unicode="&#xaf;" horiz-adv-x="526" 
d="M221 714h295l-6 -46h-295z" />
    <glyph glyph-name="minus" unicode="&#x2212;" horiz-adv-x="558" 
d="M108 328h434l-8 -58h-434z" />
    <glyph glyph-name="mu" unicode="&#xb5;" horiz-adv-x="501" 
d="M43 -128l53 376h1l24 172h69l-32 -229q-4 -30 -1 -56.5t14.5 -45.5t31.5 -30t50 -11q32 0 57 11.5t43 29.5t28.5 39t13.5 39l35 253h69l-59 -420h-44l-3 60h-3q-3 -5 -14 -16.5t-30.5 -23.5t-48 -21t-66.5 -9q-63 0 -100 32l-20 -150h-68z" />
    <glyph glyph-name="u" unicode="u" horiz-adv-x="507" 
d="M440 0h-44l-3 60h-3q-3 -5 -14 -16.5t-30.5 -23.5t-48 -21t-66.5 -9q-41 0 -71 14t-48 39.5t-24 61t0 78.5l33 237h69l-32 -229q-4 -30 -1 -56.5t14.5 -45.5t31.5 -30t50 -11q32 0 57 11.5t43 29.5t28.5 39t13.5 39l35 253h69z" />
    <glyph glyph-name="multiply" unicode="&#xd7;" horiz-adv-x="494" 
d="M78 142l172 157l-128 158l47 40l127 -157l171 157l34 -40l-172 -158l128 -157l-46 -40l-127 156l-171 -156z" />
    <glyph glyph-name="n" unicode="n" horiz-adv-x="510" 
d="M126 420h49l-3 -62h5q26 34 63 53t94 19q41 0 71.5 -14t49 -39.5t25.5 -61t1 -78.5l-33 -237h-69l32 229q8 61 -16.5 102t-83.5 41q-32 0 -56.5 -12t-42 -30t-28 -39t-13.5 -39l-35 -252h-69z" />
    <glyph glyph-name="nine" unicode="9" horiz-adv-x="516" 
d="M245 52q37 0 71 14t60.5 44.5t43.5 78.5t20 116v2q-30 -35 -73.5 -56t-97.5 -21q-41 0 -73 13t-54.5 35.5t-34.5 52.5t-12 64q0 43 18 82.5t49 69.5t73.5 48t92.5 18q40 0 74.5 -13t60 -41.5t40 -73.5t14.5 -110q0 -93 -21 -165.5t-58.5 -122t-89 -75.5t-112.5 -26
q-48 0 -78 13t-48 29q-21 18 -33 42l49 51q10 -20 27 -35q14 -13 37 -23.5t55 -10.5zM280 296q59 0 102.5 32t61.5 86q-7 72 -41.5 102.5t-83.5 30.5q-32 0 -60 -11.5t-49 -31.5t-33 -46.5t-12 -56.5q0 -47 30.5 -76t84.5 -29z" />
    <glyph glyph-name="notequal" unicode="&#x2260;" horiz-adv-x="458" 
d="M116 424h190l59 116l48 -18l-50 -98h97l-8 -58h-118l-82 -163h177l-8 -58h-198l-57 -113l-48 18l47 95h-88l8 58h109l83 163h-169z" />
    <glyph glyph-name="ntilde" unicode="&#xf1;" horiz-adv-x="510" 
d="M126 420h49l-3 -62h5q26 34 63 53t94 19q41 0 71.5 -14t49 -39.5t25.5 -61t1 -78.5l-33 -237h-69l32 229q8 61 -16.5 102t-83.5 41q-32 0 -56.5 -12t-42 -30t-28 -39t-13.5 -39l-35 -252h-69zM405 530q-23 0 -41.5 9t-34 20.5t-30.5 20.5t-31 9q-23 0 -33.5 -13.5
t-18.5 -30.5l-7 -16l-48 6l9 26q11 32 33.5 57.5t64.5 25.5q22 0 40 -9.5t34 -20.5t31 -20.5t32 -9.5q24 0 35.5 13.5t17.5 31.5l5 15l49 -5l-8 -25q-11 -33 -34 -58.5t-65 -25.5z" />
    <glyph glyph-name="numbersign" unicode="#" horiz-adv-x="612" 
d="M522 421h117l-17 -45h-117l-61 -171h113l-15 -45h-114l-56 -160h-47l56 160h-162l-56 -160h-48l56 160h-117l16 45h117l61 171h-113l16 45h114l57 162h47l-57 -162h161l57 162h49zM235 205h161l61 171h-162z" />
    <glyph glyph-name="o" unicode="o" horiz-adv-x="501" 
d="M494 238q0 -56 -20.5 -102t-54 -78.5t-78 -50t-92.5 -17.5q-40 0 -73.5 13t-58 37.5t-38 59t-13.5 77.5q0 57 20 103.5t54 79.5t78.5 51.5t92.5 18.5q39 0 72.5 -13.5t58 -39t38.5 -61t14 -78.5zM257 46q32 0 62.5 13t54 37.5t37.5 59t14 78.5q0 65 -35 102.5t-87 37.5
q-32 0 -62.5 -13.5t-54 -38.5t-37.5 -60t-14 -78q0 -65 35 -101.5t87 -36.5z" />
    <glyph glyph-name="oacute" unicode="&#xf3;" horiz-adv-x="501" 
d="M494 238q0 -56 -20.5 -102t-54 -78.5t-78 -50t-92.5 -17.5q-40 0 -73.5 13t-58 37.5t-38 59t-13.5 77.5q0 57 20 103.5t54 79.5t78.5 51.5t92.5 18.5q39 0 72.5 -13.5t58 -39t38.5 -61t14 -78.5zM257 46q32 0 62.5 13t54 37.5t37.5 59t14 78.5q0 65 -35 102.5t-87 37.5
q-32 0 -62.5 -13.5t-54 -38.5t-37.5 -60t-14 -78q0 -65 35 -101.5t87 -36.5zM343 497h-50l73 145l83 -13z" />
    <glyph glyph-name="ocircumflex" unicode="&#xf4;" horiz-adv-x="501" 
d="M494 238q0 -56 -20.5 -102t-54 -78.5t-78 -50t-92.5 -17.5q-40 0 -73.5 13t-58 37.5t-38 59t-13.5 77.5q0 57 20 103.5t54 79.5t78.5 51.5t92.5 18.5q39 0 72.5 -13.5t58 -39t38.5 -61t14 -78.5zM257 46q32 0 62.5 13t54 37.5t37.5 59t14 78.5q0 65 -35 102.5t-87 37.5
q-32 0 -62.5 -13.5t-54 -38.5t-37.5 -60t-14 -78q0 -65 35 -101.5t87 -36.5zM334 560l-64 -61h-64l104 108h57l76 -108h-65z" />
    <glyph glyph-name="odieresis" unicode="&#xf6;" horiz-adv-x="501" 
d="M494 238q0 -56 -20.5 -102t-54 -78.5t-78 -50t-92.5 -17.5q-40 0 -73.5 13t-58 37.5t-38 59t-13.5 77.5q0 57 20 103.5t54 79.5t78.5 51.5t92.5 18.5q39 0 72.5 -13.5t58 -39t38.5 -61t14 -78.5zM257 46q32 0 62.5 13t54 37.5t37.5 59t14 78.5q0 65 -35 102.5t-87 37.5
q-32 0 -62.5 -13.5t-54 -38.5t-37.5 -60t-14 -78q0 -65 35 -101.5t87 -36.5zM204 572q0 20 16.5 36t36.5 16q17 0 28.5 -12.5t11.5 -29.5q0 -20 -16.5 -36t-36.5 -16q-17 0 -28.5 12.5t-11.5 29.5zM366 572q0 20 16.5 36t36.5 16q17 0 28.5 -12.5t11.5 -29.5
q0 -20 -16.5 -36t-36.5 -16q-17 0 -28.5 12.5t-11.5 29.5z" />
    <glyph glyph-name="oe" unicode="&#x153;" horiz-adv-x="809" 
d="M760 38q-16 -14 -39 -25q-20 -9 -49 -16.5t-68 -7.5q-60 0 -102 24.5t-63 68.5q-35 -44 -85 -68t-107 -24q-40 0 -73.5 13t-58 37.5t-38 59t-13.5 77.5q0 57 20 103.5t54 79.5t78.5 51.5t92.5 18.5q54 0 95.5 -24.5t64.5 -69.5q31 44 78 69t104 25q45 0 77.5 -16
t51.5 -44.5t26 -66.5t1 -82l-2 -17h-314q-9 -77 27 -116.5t98 -39.5q29 0 51.5 6t39.5 14q19 9 34 20zM255 46q32 0 62.5 13t54 37.5t37.5 59t14 78.5q0 65 -35 102.5t-87 37.5q-32 0 -62.5 -13.5t-54 -38.5t-37.5 -60t-14 -78q0 -65 35 -101.5t87 -36.5zM642 371
q-103 0 -139 -111h238q0 111 -99 111z" />
    <glyph glyph-name="ogonek" unicode="&#x2db;" horiz-adv-x="192" 
d="M149 -112q-8 -8 -18 -13q-8 -5 -20 -8.5t-27 -3.5q-30 0 -46 16t-16 42q0 29 15.5 48.5t35.5 31.5q23 14 52 23l5 -24q-17 -6 -30 -15q-11 -8 -21.5 -19t-12.5 -27q-5 -36 30 -36q14 0 25 7q5 3 10 7z" />
    <glyph glyph-name="ograve" unicode="&#xf2;" horiz-adv-x="501" 
d="M494 238q0 -56 -20.5 -102t-54 -78.5t-78 -50t-92.5 -17.5q-40 0 -73.5 13t-58 37.5t-38 59t-13.5 77.5q0 57 20 103.5t54 79.5t78.5 51.5t92.5 18.5q39 0 72.5 -13.5t58 -39t38.5 -61t14 -78.5zM257 46q32 0 62.5 13t54 37.5t37.5 59t14 78.5q0 65 -35 102.5t-87 37.5
q-32 0 -62.5 -13.5t-54 -38.5t-37.5 -60t-14 -78q0 -65 35 -101.5t87 -36.5zM225 629l86 13l32 -145h-50z" />
    <glyph glyph-name="one" unicode="1" horiz-adv-x="294" 
d="M99 600h207l-84 -600h-70l75 535h-137z" />
    <glyph glyph-name="onehalf" unicode="&#xbd;" horiz-adv-x="683" 
d="M33 0l549 600h62l-551 -600h-60zM413 44l160 123q31 23 38.5 40.5t7.5 33.5q0 22 -13 35.5t-45 13.5q-18 0 -34 -5.5t-29 -12.5t-20.5 -12.5t-8.5 -6.5l-21 38q16 12 34 22q16 8 38 15t48 7q56 0 80 -25.5t24 -62.5q0 -14 -2 -26.5t-8 -26t-18 -27t-32 -28.5l-127 -95
h167l-6 -44h-239zM127 600h119l-45 -326h-50l39 282h-69z" />
    <glyph glyph-name="onequarter" unicode="&#xbc;" horiz-adv-x="621" 
d="M328 119l207 207h37l-28 -196h60l-6 -42h-60l-12 -88h-48l12 88h-167zM33 0l549 600h62l-551 -600h-60zM124 600h120l-45 -326h-50l39 282h-70zM389 127l47 3h60l13 92l4 28h-1l-86 -89z" />
    <glyph glyph-name="uni00B9" unicode="&#xb9;" horiz-adv-x="208" 
d="M119 668h119l-46 -326h-50l40 282h-69z" />
    <glyph glyph-name="ordfeminine" unicode="&#xaa;" horiz-adv-x="400" 
d="M90 360q0 53 41.5 84t110.5 31q47 0 69.5 -10.5t30.5 -20.5l2 14q4 25 3 45t-9 33.5t-25 20.5t-46 7q-18 0 -35 -3.5t-30.5 -7.5t-22.5 -7.5t-11 -4.5l-11 47q19 7 40 13q18 5 40.5 9t46.5 4q41 0 67 -11t39 -32t15.5 -50t-2.5 -65l-26 -182h-42l-4 38h-3q-5 -6 -14 -14
t-23.5 -15t-36 -12t-51.5 -5q-51 0 -82 26t-31 68zM148 365q0 -26 20.5 -41t55.5 -15q48 0 78.5 21.5t30.5 48.5q0 25 -24 39.5t-62 14.5q-47 0 -73 -18t-26 -50z" />
    <glyph glyph-name="ordmasculine" unicode="&#xba;" horiz-adv-x="410" 
d="M292 613q65 0 103.5 -39.5t38.5 -108.5q0 -44 -15 -80t-41 -62t-60.5 -40t-74.5 -14q-65 0 -104 39.5t-39 106.5q0 45 15 81.5t41 62.5t61 40t75 14zM284 562q-27 0 -50 -10.5t-39.5 -29t-26 -44.5t-9.5 -57q0 -46 24.5 -73.5t66.5 -27.5q27 0 50.5 10.5t40.5 29t26.5 44
t9.5 56.5q0 47 -24.5 74.5t-68.5 27.5z" />
    <glyph glyph-name="oslash" unicode="&#xf8;" horiz-adv-x="502" 
d="M494 238q0 -56 -20.5 -102t-54 -78.5t-78 -50t-92.5 -17.5q-78 0 -127 46l-40 -36h-56l71 65q-31 46 -31 112q0 57 20 103.5t54 79.5t78.5 51.5t92.5 18.5q37 0 68.5 -12t55.5 -34l38 36h56l-70 -63q17 -24 26 -54t9 -65zM257 46q32 0 62.5 13t54 37.5t37.5 59t14 78.5
t-17 76l-238 -228q34 -36 87 -36zM135 184q0 -42 15 -72l237 227q-33 35 -84 35q-32 0 -62.5 -13.5t-54 -38.5t-37.5 -60t-14 -78z" />
    <glyph glyph-name="otilde" unicode="&#xf5;" horiz-adv-x="501" 
d="M494 238q0 -56 -20.5 -102t-54 -78.5t-78 -50t-92.5 -17.5q-40 0 -73.5 13t-58 37.5t-38 59t-13.5 77.5q0 57 20 103.5t54 79.5t78.5 51.5t92.5 18.5q39 0 72.5 -13.5t58 -39t38.5 -61t14 -78.5zM257 46q32 0 62.5 13t54 37.5t37.5 59t14 78.5q0 65 -35 102.5t-87 37.5
q-32 0 -62.5 -13.5t-54 -38.5t-37.5 -60t-14 -78q0 -65 35 -101.5t87 -36.5zM396 501q-23 0 -41.5 9t-34 20.5t-30.5 20.5t-31 9q-23 0 -33.5 -13.5t-18.5 -30.5l-7 -16l-48 6l9 26q11 32 33.5 57.5t64.5 25.5q22 0 40 -9.5t34 -20.5t31 -20.5t32 -9.5q24 0 35.5 13.5
t17.5 31.5l5 15l49 -5l-8 -25q-11 -33 -34 -58.5t-65 -25.5z" />
    <glyph glyph-name="p" unicode="p" horiz-adv-x="523" 
d="M144 56l-30 -212h-69l81 576h49l-1 -62h7q16 20 40 36q20 14 51 25t75 11q37 0 68 -13.5t53 -38t34.5 -59t12.5 -76.5q0 -56 -18.5 -102t-50 -80t-72.5 -52.5t-86 -18.5t-72.5 10t-42.5 23q-18 14 -26 33h-3zM159 185q0 -65 35 -101t87 -36q33 0 62.5 14t52 38.5t36 58.5
t13.5 75q0 61 -33 99.5t-86 38.5q-32 0 -62.5 -13t-53.5 -37t-37 -59t-14 -78z" />
    <glyph glyph-name="paragraph" unicode="&#xb6;" horiz-adv-x="521" 
d="M398 122h-64q-56 0 -102.5 13.5t-80.5 40t-52.5 66t-18.5 91.5q0 66 24 116t67 83.5t101 51t126 17.5h137l-96 -683h-70z" />
    <glyph glyph-name="parenleft" unicode="(" horiz-adv-x="259" 
d="M152 287q-9 -69 -6 -126.5t15 -105t30 -84.5t38 -65l-48 -43q-24 30 -47 71t-38.5 93.5t-21 117t5.5 142.5t34.5 142.5t53.5 117t64.5 93.5t67.5 71l36 -43q-28 -28 -56.5 -65t-53.5 -84.5t-44.5 -105t-29.5 -126.5z" />
    <glyph glyph-name="parenright" unicode=")" horiz-adv-x="259" 
d="M195 367q0 103 -25.5 179.5t-58.5 121.5l48 43q24 -30 47 -71t38.5 -93.5t21 -117t-5.5 -142.5t-34.5 -142.5t-54 -117t-64.5 -93.5t-67 -71l-36 43q33 33 67 78t61.5 102t45 127t17.5 154z" />
    <glyph glyph-name="percent" unicode="%" horiz-adv-x="651" 
d="M256 613q27 0 47.5 -10t34 -27.5t20.5 -41t7 -49.5q0 -33 -10.5 -64.5t-30.5 -55.5t-48 -39t-62 -15q-27 0 -48 10.5t-34.5 28t-20.5 40.5t-7 49q0 34 10.5 65.5t30.5 55.5t48 38.5t63 14.5zM248 556q-20 0 -35 -9t-25.5 -24.5t-16 -36t-5.5 -43.5q0 -32 13.5 -53.5
t42.5 -21.5q38 0 59.5 33.5t21.5 79.5q0 33 -13.5 54t-41.5 21zM523 294q27 0 48 -10t34.5 -27.5t20.5 -41t7 -49.5q0 -33 -11 -64.5t-30.5 -55.5t-48 -39t-62.5 -15q-27 0 -47.5 10.5t-34.5 28t-21 41t-7 49.5q0 33 11 64.5t30.5 55.5t47.5 38.5t63 14.5zM515 238
q-38 0 -59.5 -33t-21.5 -80q0 -32 13.5 -53.5t41.5 -21.5q38 0 59.5 33.5t21.5 79.5q0 33 -14 54t-41 21zM683 600l-561 -600h-76l559 600h78z" />
    <glyph glyph-name="period" unicode="." horiz-adv-x="200" 
d="M99 -10q-18 0 -29.5 11.5t-11.5 29.5q0 21 16.5 36.5t37.5 15.5q18 0 29.5 -12t11.5 -30q0 -21 -16.5 -36t-37.5 -15z" />
    <glyph glyph-name="periodcentered" unicode="&#xb7;" horiz-adv-x="207" 
d="M105 353q0 23 17 39.5t38 16.5q19 0 31 -12.5t12 -31.5q0 -23 -16.5 -39t-39.5 -16q-18 0 -30 12.5t-12 30.5z" />
    <glyph glyph-name="perthousand" unicode="&#x2030;" horiz-adv-x="947" 
d="M256 613q27 0 47.5 -10t34 -27.5t20.5 -41t7 -49.5q0 -33 -10.5 -64.5t-30.5 -55.5t-48 -39t-62 -15q-27 0 -48 10.5t-34.5 28t-20.5 40.5t-7 49q0 34 10.5 65.5t30.5 55.5t48 38.5t63 14.5zM222 368q38 0 59.5 33.5t21.5 79.5q0 33 -13.5 54t-41.5 21q-20 0 -35 -9
t-25.5 -24.5t-16 -36t-5.5 -43.5q0 -32 13.5 -53.5t42.5 -21.5zM683 600l-561 -600h-76l559 600h78zM523 294q27 0 48 -10t34.5 -27.5t20.5 -41t7 -49.5q0 -33 -11 -64.5t-30.5 -55.5t-48 -39t-62.5 -15q-27 0 -47.5 10.5t-34.5 28t-21 41t-7 49.5q0 33 11 64.5t30.5 55.5
t47.5 38.5t63 14.5zM515 238q-38 0 -59.5 -33t-21.5 -80q0 -32 13.5 -53.5t41.5 -21.5q38 0 59.5 33.5t21.5 79.5q0 33 -14 54t-41 21zM820 238q-38 0 -59.5 -33t-21.5 -80q0 -32 13.5 -53.5t41.5 -21.5q38 0 59.5 33.5t21.5 79.5q0 33 -13.5 54t-41.5 21zM828 294
q27 0 48 -10t34.5 -27.5t20.5 -41t7 -49.5q0 -33 -11 -64.5t-30.5 -55.5t-48 -39t-62.5 -15q-27 0 -47.5 10.5t-34.5 28t-21 41t-7 49.5q0 33 11 64.5t30.5 55.5t47.5 38.5t63 14.5z" />
    <glyph glyph-name="pi" unicode="&#x3c0;" horiz-adv-x="487" 
d="M516 420l-8 -57h-64l-51 -363h-69l51 363h-161l-51 -363h-69l51 363h-64l8 57h427z" />
    <glyph glyph-name="plus" unicode="+" horiz-adv-x="514" 
d="M332 323h187l-8 -58h-187l-26 -184h-60l26 184h-187l8 58h187l27 192h60z" />
    <glyph glyph-name="plusminus" unicode="&#xb1;" horiz-adv-x="525" 
d="M259 169l24 172h-172l8 58h172l25 176h59l-25 -176h168l-8 -58h-168l-24 -172h-59zM468 40h-399l8 58h399z" />
    <glyph glyph-name="product" unicode="&#x220f;" horiz-adv-x="613" 
d="M546 0h-70l76 539h-339l-76 -539h-70l84 600h479z" />
    <glyph glyph-name="q" unicode="q" 
d="M435 -156h-69l31 219h-3q-14 -21 -36 -37q-19 -14 -49 -25t-74 -11q-37 0 -68 13.5t-53 38.5t-34.5 59.5t-12.5 76.5q0 56 19 102.5t50.5 79.5t73.5 51.5t89 18.5q45 0 73 -13t44 -28q18 -18 27 -41h4l19 72h50zM425 235q0 65 -35 101t-87 36q-33 0 -63 -14t-52.5 -39
t-36 -59t-13.5 -74q0 -62 32.5 -100t86.5 -38q33 0 63 13t53.5 37t37.5 58.5t14 78.5z" />
    <glyph glyph-name="question" unicode="?" horiz-adv-x="417" 
d="M108 560q19 15 45 26q22 10 52.5 18.5t68.5 8.5q81 0 127 -36.5t46 -99.5q0 -41 -13.5 -70.5t-34 -52t-45 -40t-47 -35.5t-40 -38t-23.5 -47l-6 -27h-49l5 39q6 44 34.5 74.5t61 57.5t58.5 55.5t26 67.5q0 38 -29 62t-80 24q-30 0 -55 -7.5t-43 -15.5q-21 -10 -38 -22z
M150 36q0 23 16.5 39t38.5 16q19 0 31 -12.5t12 -30.5q0 -23 -17.5 -39.5t-39.5 -16.5q-19 0 -30 12.5t-11 31.5z" />
    <glyph glyph-name="questiondown" unicode="&#xbf;" horiz-adv-x="410" 
d="M366 -134q-20 -16 -46 -27q-22 -10 -52 -18t-68 -8q-81 0 -127 36.5t-46 99.5q0 41 13.5 70.5t34 52t45.5 40t47.5 35.5t40 38t23.5 47l6 27h48l-5 -39q-4 -29 -18.5 -52t-34.5 -42.5t-42 -37.5t-41 -36.5t-31 -39.5t-12 -47q0 -38 28.5 -62t79.5 -24q29 0 54.5 7
t43.5 15q21 10 38 23zM325 390q0 -23 -17 -39t-39 -16q-19 0 -30.5 12.5t-11.5 30.5q0 23 17 39.5t39 16.5q19 0 30.5 -12.5t11.5 -31.5z" />
    <glyph glyph-name="quotedbl" unicode="&#x22;" horiz-adv-x="315" 
d="M162 475h-43l48 209h68zM303 475h-43l48 209h68z" />
    <glyph glyph-name="quotedblbase" unicode="&#x201e;" horiz-adv-x="428" 
d="M2 -83q36 8 59.5 28t28.5 46q-14 2 -23.5 13t-9.5 27q0 21 16.5 36.5t37.5 15.5q20 0 33 -13.5t8 -33.5l-1 -4v-4q-2 -30 -13.5 -55.5t-30.5 -45t-44.5 -32.5t-54.5 -18zM228 -83q36 8 59.5 28t28.5 46q-14 2 -23.5 13t-9.5 27q0 21 16.5 36.5t37.5 15.5q20 0 33 -13.5
t8 -33.5l-1 -4v-4q-2 -30 -13.5 -55.5t-30.5 -45t-44.5 -32.5t-54.5 -18z" />
    <glyph glyph-name="quotedblleft" unicode="&#x201c;" horiz-adv-x="359" 
d="M256 449q8 61 46 100.5t96 50.5l6 -40q-35 -8 -59 -28t-29 -46q15 -2 24 -13t9 -27q0 -21 -16.5 -36.5t-37.5 -15.5q-20 0 -31 13.5t-9 33.5zM111 449q8 61 46 100.5t96 50.5l6 -40q-35 -8 -59 -28t-29 -46q15 -2 24 -13t9 -27q0 -21 -16.5 -36.5t-37.5 -15.5
q-20 0 -31 13.5t-9 33.5z" />
    <glyph glyph-name="quotedblright" unicode="&#x201d;" horiz-adv-x="362" 
d="M254 545q-8 -61 -46.5 -100.5t-96.5 -50.5l-6 40q35 8 58.5 27.5t29.5 45.5q-14 3 -23.5 14t-9.5 27q0 21 16.5 36.5t37.5 15.5q20 0 31.5 -13.5t9.5 -33.5zM250 434q35 8 58.5 27.5t29.5 45.5q-14 3 -23.5 14t-9.5 27q0 21 16.5 36.5t37.5 15.5q20 0 33 -13.5t8 -33.5
l-1 -4v-4q-2 -30 -13.5 -55.5t-30.5 -45t-44.5 -32.5t-54.5 -18z" />
    <glyph glyph-name="quoteleft" unicode="&#x2018;" horiz-adv-x="214" 
d="M111 449q8 61 46 100.5t96 50.5l6 -40q-35 -8 -59 -28t-29 -46q15 -2 24 -13t9 -27q0 -21 -16.5 -36.5t-37.5 -15.5q-20 0 -31 13.5t-9 33.5z" />
    <glyph glyph-name="quoteright" unicode="&#x2019;" horiz-adv-x="218" 
d="M106 434q35 8 58.5 27.5t29.5 45.5q-14 3 -23.5 14t-9.5 27q0 21 16.5 36.5t37.5 15.5q20 0 33 -13.5t8 -33.5l-1 -4v-4q-2 -30 -13.5 -55.5t-30.5 -45t-44.5 -32.5t-54.5 -18l-6 40v0z" />
    <glyph glyph-name="quotesinglbase" unicode="&#x201a;" horiz-adv-x="202" 
d="M2 -83q36 8 59.5 28t28.5 46q-14 2 -23.5 13t-9.5 27q0 21 16.5 36.5t37.5 15.5q20 0 33 -13.5t8 -33.5l-1 -4v-4q-2 -30 -13.5 -55.5t-30.5 -45t-44.5 -32.5t-54.5 -18l-6 40v0z" />
    <glyph glyph-name="quotesingle" unicode="'" horiz-adv-x="174" 
d="M162 475h-43l48 209h68z" />
    <glyph glyph-name="r" unicode="r" horiz-adv-x="284" 
d="M323 365h-23q-23 0 -44.5 -9t-39.5 -24.5t-30 -37t-15 -46.5l-35 -248h-69l59 420h49l-4 -74h4q20 36 55 55.5t77 19.5h24z" />
    <glyph glyph-name="radical" unicode="&#x221a;" horiz-adv-x="598" 
d="M194 -192h-17l-141 399h77l73 -217q6 -17 11.5 -35t4.5 -31h2q4 13 13.5 31t20.5 35l375 610h77z" />
    <glyph glyph-name="registered" unicode="&#xae;" horiz-adv-x="550" 
d="M557 411q0 -53 -19 -100.5t-53.5 -84t-82.5 -58t-107 -21.5q-47 0 -83.5 16t-61.5 43.5t-37.5 64t-12.5 78.5q0 52 18.5 100t53 84.5t82 58t106.5 21.5q48 0 84.5 -16t61.5 -43t38 -64t13 -79zM512 406q0 35 -11 65t-31 52t-49.5 34.5t-66.5 12.5q-45 0 -83.5 -16.5
t-66 -45t-43.5 -68.5t-16 -86q0 -35 10.5 -65t31 -52t49.5 -34.5t65 -12.5q46 0 84.5 17t66.5 46t44 68.5t16 84.5zM350 485q35 0 55 -16.5t20 -45.5q0 -25 -13.5 -43.5t-36.5 -27.5l34 -60l-1 -9h-37l-35 61h-60l-9 -61h-36l28 202h91zM291 450l-11 -72h54q23 0 38 10.5
t15 30.5q0 31 -41 31h-55z" />
    <glyph glyph-name="s" unicode="s" horiz-adv-x="409" 
d="M83 90q15 -12 36 -21q17 -8 43 -14t58 -6q57 0 81 19.5t24 47.5q0 21 -18 33.5t-45 21.5t-58.5 18t-58.5 22t-45 33.5t-18 53.5q0 26 10.5 50t32 42t54 29t76.5 11q40 0 70 -5.5t50 -11.5q24 -8 41 -17l-37 -59q-15 9 -34 17q-17 6 -40 11.5t-53 5.5q-105 0 -105 -63
q0 -20 18 -31.5t45 -19.5t58.5 -16t58.5 -21t45 -34.5t18 -56.5q0 -26 -9.5 -51t-31 -44.5t-56 -31.5t-83.5 -12q-45 0 -76 8t-51 18q-23 11 -38 26z" />
    <glyph glyph-name="scaron" unicode="&#x161;" horiz-adv-x="409" 
d="M83 90q15 -12 36 -21q17 -8 43 -14t58 -6q57 0 81 19.5t24 47.5q0 21 -18 33.5t-45 21.5t-58.5 18t-58.5 22t-45 33.5t-18 53.5q0 26 10.5 50t32 42t54 29t76.5 11q40 0 70 -5.5t50 -11.5q24 -8 41 -17l-37 -59q-15 9 -34 17q-17 6 -40 11.5t-53 5.5q-105 0 -105 -63
q0 -20 18 -31.5t45 -19.5t58.5 -16t58.5 -21t45 -34.5t18 -56.5q0 -26 -9.5 -51t-31 -44.5t-56 -31.5t-83.5 -12q-45 0 -76 8t-51 18q-23 11 -38 26zM284 544l64 62h64l-104 -109h-57l-76 109h65z" />
    <glyph glyph-name="section" unicode="&#xa7;" horiz-adv-x="510" 
d="M92 102q18 -14 44 -25q22 -9 53 -16.5t72 -7.5q79 0 112 19.5t33 49.5q0 15 -7.5 25.5t-23 19.5t-40.5 17.5t-59 19.5q-65 20 -101.5 46t-36.5 64q0 30 16 46.5t30 24.5q-29 17 -46.5 38.5t-17.5 50.5t14 54.5t42.5 44t71.5 29.5t100 11q51 0 86 -7.5t58 -15.5
q26 -11 43 -23l-47 -58q-15 11 -36 20q-18 8 -46 14.5t-67 6.5q-73 0 -105.5 -18.5t-32.5 -50.5q0 -28 28 -43.5t81 -30.5q34 -10 63 -22t50 -26.5t33 -32t12 -37.5q0 -29 -15.5 -48t-27.5 -27q29 -17 45.5 -39.5t16.5 -49.5q0 -26 -13.5 -51t-42 -44.5t-72.5 -31
t-105 -11.5q-55 0 -94 9t-65 20q-30 12 -50 29zM278 351q-11 3 -21.5 5.5t-19.5 6.5q-8 -3 -18.5 -12.5t-10.5 -27.5q0 -32 101 -63q17 -5 32 -10.5t29 -10.5q7 5 16.5 15t9.5 27q0 20 -30 36.5t-88 33.5z" />
    <glyph glyph-name="semicolon" unicode=";" horiz-adv-x="234" 
d="M22 -83q36 8 59.5 28t28.5 46q-14 2 -23.5 13t-9.5 27q0 21 16.5 36.5t37.5 15.5q20 0 33 -13.5t8 -33.5l-1 -4v-4q-2 -30 -13.5 -55.5t-30.5 -45t-44.5 -32.5t-54.5 -18zM167 334q-18 0 -29.5 11.5t-11.5 29.5q0 21 16.5 36.5t37.5 15.5q18 0 29.5 -12t11.5 -30
q0 -21 -16.5 -36t-37.5 -15z" />
    <glyph glyph-name="seven" unicode="7" horiz-adv-x="434" 
d="M112 600h392l-6 -47l-341 -553h-85l334 535h-303z" />
    <glyph glyph-name="six" unicode="6" horiz-adv-x="519" 
d="M160 295q30 36 73.5 57t97.5 21q41 0 73.5 -13t55 -35.5t34.5 -52.5t12 -64q0 -43 -18 -82.5t-49.5 -69.5t-74.5 -48t-92 -18q-40 0 -74.5 13t-59.5 41.5t-39.5 73.5t-14.5 110q0 95 23 167t62.5 120.5t92 73t112.5 24.5q47 0 77.5 -13t48.5 -29q21 -18 33 -42l-49 -51
q-11 19 -28 34q-14 13 -37 24t-55 11q-37 0 -72 -13t-63 -42.5t-46.5 -77t-22.5 -116.5v-3zM321 307q-60 0 -104.5 -33t-61.5 -89q3 -35 14 -59.5t27.5 -40t38.5 -22.5t46 -7q32 0 60 11.5t49 31.5t33 46.5t12 56.5q0 47 -30 76t-84 29z" />
    <glyph glyph-name="slash" unicode="/" horiz-adv-x="567" 
d="M5 -112l577 895h73l-574 -894z" />
    <glyph glyph-name="Aacute" unicode="&#xc1;" horiz-adv-x="595" 
d="M586 0h-72l-38 133h-320l-75 -133h-72l341 600h63zM193 198h265l-88 312zM413 635h-50l73 145l83 -13z" />
    <glyph glyph-name="sterling" unicode="&#xa3;" horiz-adv-x="495" 
d="M440 0h-372l9 65h1l-1 1q20 9 37 25q14 14 26 37t12 58q0 16 -2.5 36.5t-6.5 42.5h-64l8 56h48q-2 11 -2.5 26.5t-0.5 29.5q0 46 16.5 87.5t47.5 73t76.5 50.5t103.5 19q43 0 73 -10t48 -21q21 -14 34 -31l-50 -52q-11 12 -27 23q-14 9 -35.5 16.5t-51.5 7.5
q-40 0 -69.5 -13t-49 -35.5t-29.5 -53t-10 -65.5q0 -12 0.5 -26.5t1.5 -25.5h218l-8 -56h-201q3 -18 5 -36.5t2 -35.5q0 -42 -17 -74t-38 -54h277z" />
    <glyph glyph-name="summation" unicode="&#x2211;" horiz-adv-x="442" 
d="M480 600l-8 -61h-265l139 -223l-4 -33l-200 -222h263l-9 -61h-353l9 61l215 232l2 12l-150 234l8 61h353z" />
    <glyph glyph-name="t" unicode="t" horiz-adv-x="320" 
d="M153 420l18 128h69l-18 -128h125l-8 -56h-125l-35 -247q-9 -68 53 -68q11 0 23 2.5t21 6.5q11 4 20 10l16 -50q-12 -8 -27 -14q-13 -5 -30.5 -9.5t-37.5 -4.5q-65 0 -90 34t-17 94l35 246h-79l8 56h79z" />
    <glyph glyph-name="thorn" unicode="&#xfe;" 
d="M145 56l-30 -212h-69l106 756h69l-33 -232h3q16 17 39 31q20 11 49 21t69 10q37 0 68 -13.5t53.5 -38t34.5 -59t12 -76.5q0 -56 -18.5 -102t-50 -80t-73 -52.5t-87.5 -18.5q-40 0 -66 10t-42 23q-18 14 -30 33h-4zM160 185q0 -65 35 -101t87 -36q33 0 62.5 14t52 38.5
t36 58.5t13.5 75q0 61 -33 99.5t-86 38.5q-32 0 -62.5 -13t-53.5 -37t-37 -59t-14 -78z" />
    <glyph glyph-name="three" unicode="3" horiz-adv-x="489" 
d="M201 294l9 59l200 182h-283l9 65h378l-8 -59l-209 -187q85 -2 127.5 -42.5t42.5 -110.5q0 -44 -16.5 -83.5t-47 -68.5t-75 -46t-99.5 -17q-51 0 -85 13t-55 29q-25 18 -40 42l49 51q13 -20 32 -35q17 -13 43 -23.5t63 -10.5q36 0 65 11t50 30t32.5 44.5t11.5 54.5
q0 48 -31.5 75t-96.5 27h-66z" />
    <glyph glyph-name="threequarters" unicode="&#xbe;" horiz-adv-x="709" 
d="M416 119l207 207h37l-28 -196h60l-5 -42h-60l-13 -88h-48l13 88h-167zM125 0l549 600h62l-551 -600h-60zM132 600h224l-4 -33l-89 -97q78 -9 78 -82q0 -24 -9 -46.5t-27.5 -39t-45.5 -26.5t-63 -10q-27 0 -48 6.5t-36 15t-23 15.5t-9 9l33 36q0 -1 6.5 -7t17.5 -13
t27.5 -12.5t36.5 -5.5q44 0 66 21.5t22 50.5q0 23 -15 36.5t-45 13.5h-37l4 32l85 92h-155zM514 161q-12 -12 -24 -22.5t-13 -11.5l47 3h60l13 92l4 28h-1z" />
    <glyph glyph-name="uni00B3" unicode="&#xb3;" horiz-adv-x="336" 
d="M147 668h224l-4 -33l-89 -97q78 -9 78 -82q0 -24 -9.5 -46.5t-27.5 -39t-45 -26.5t-63 -10q-27 0 -48 6.5t-36 15t-23 15.5t-9 9l33 36q0 -1 6.5 -7t17.5 -13t27.5 -12.5t36.5 -5.5q44 0 66 21.5t22 50.5q0 23 -15 36.5t-45 13.5h-37l4 32l85 92h-155z" />
    <glyph glyph-name="trademark" unicode="&#x2122;" horiz-adv-x="705" 
d="M373 281l45 319h36l93 -149l138 149h34l-45 -319h-48l33 230l-114 -124h-13l-78 122l-32 -228h-49zM353 557h-97l-39 -276h-48l39 276h-97l6 43h242z" />
    <glyph glyph-name="two" unicode="2" horiz-adv-x="490" 
d="M53 47l288 261q28 26 44.5 44.5t24 33.5t9.5 28t2 29q0 45 -29.5 74.5t-84.5 29.5q-33 0 -62.5 -11t-51 -24t-35 -25t-14.5 -13l-31 55q24 24 56 42q27 16 64.5 29t83.5 13q45 0 78.5 -12t55.5 -33t33 -49.5t11 -62.5q0 -22 -3 -42t-12.5 -40.5t-26.5 -42.5t-45 -47
l-242 -219h290l-9 -65h-401z" />
    <glyph glyph-name="uni00B2" unicode="&#xb2;" horiz-adv-x="347" 
d="M107 386l160 123q31 23 38.5 40.5t7.5 33.5q0 22 -13 35.5t-45 13.5q-18 0 -34 -5.5t-29 -12.5t-20.5 -12.5t-8.5 -6.5l-21 38q16 12 34 22q16 8 38 15t48 7q56 0 80 -25.5t24 -62.5q0 -14 -2 -26.5t-8 -26t-18 -27t-32 -28.5l-127 -95h167l-6 -44h-239z" />
    <glyph glyph-name="uacute" unicode="&#xfa;" horiz-adv-x="507" 
d="M344 497h-50l73 145l83 -13zM440 0h-44l-3 60h-3q-3 -5 -14 -16.5t-30.5 -23.5t-48 -21t-66.5 -9q-41 0 -71 14t-48 39.5t-24 61t0 78.5l33 237h69l-32 -229q-4 -30 -1 -56.5t14.5 -45.5t31.5 -30t50 -11q32 0 57 11.5t43 29.5t28.5 39t13.5 39l35 253h69z" />
    <glyph glyph-name="ucircumflex" unicode="&#xfb;" horiz-adv-x="507" 
d="M328 557l-64 -61h-64l104 108h57l76 -108h-65zM440 0h-44l-3 60h-3q-3 -5 -14 -16.5t-30.5 -23.5t-48 -21t-66.5 -9q-41 0 -71 14t-48 39.5t-24 61t0 78.5l33 237h69l-32 -229q-4 -30 -1 -56.5t14.5 -45.5t31.5 -30t50 -11q32 0 57 11.5t43 29.5t28.5 39t13.5 39l35 253
h69z" />
    <glyph glyph-name="udieresis" unicode="&#xfc;" horiz-adv-x="507" 
d="M198 538q0 20 16.5 36t36.5 16q17 0 28.5 -12.5t11.5 -29.5q0 -20 -16.5 -36t-36.5 -16q-17 0 -28.5 12.5t-11.5 29.5zM360 538q0 20 16.5 36t36.5 16q17 0 28.5 -12.5t11.5 -29.5q0 -20 -16.5 -36t-36.5 -16q-17 0 -28.5 12.5t-11.5 29.5zM440 0h-44l-3 60h-3
q-3 -5 -14 -16.5t-30.5 -23.5t-48 -21t-66.5 -9q-41 0 -71 14t-48 39.5t-24 61t0 78.5l33 237h69l-32 -229q-4 -30 -1 -56.5t14.5 -45.5t31.5 -30t50 -11q32 0 57 11.5t43 29.5t28.5 39t13.5 39l35 253h69z" />
    <glyph glyph-name="ugrave" unicode="&#xf9;" horiz-adv-x="507" 
d="M440 0h-44l-3 60h-3q-3 -5 -14 -16.5t-30.5 -23.5t-48 -21t-66.5 -9q-41 0 -71 14t-48 39.5t-24 61t0 78.5l33 237h69l-32 -229q-4 -30 -1 -56.5t14.5 -45.5t31.5 -30t50 -11q32 0 57 11.5t43 29.5t28.5 39t13.5 39l35 253h69zM227 629l86 13l32 -145h-50z" />
    <glyph glyph-name="underscore" unicode="_" horiz-adv-x="550" 
d="M48 -40h442l-8 -58h-442z" />
    <glyph glyph-name="uni00A0" unicode="&#xa0;" horiz-adv-x="224" 
 />
    <glyph glyph-name="v" unicode="v" horiz-adv-x="456" 
d="M252 0h-48l-133 420h67l96 -311q5 -15 3 -28h4q1 5 4.5 13t7.5 15l184 311h66z" />
    <glyph glyph-name="w" unicode="w" horiz-adv-x="652" 
d="M76 420h72l56 -311q2 -7 2.5 -15t0.5 -13h7q1 5 3.5 11t7.5 17l133 311h58l45 -311q1 -7 1.5 -15t0.5 -13h8q1 5 4 13t6 15l146 311h67l-214 -420h-60l-40 310q-1 6 -1.5 14t-0.5 13h-4q0 -4 -2.5 -11t-6.5 -16l-130 -310h-63z" />
    <glyph glyph-name="x" unicode="x" horiz-adv-x="432" 
d="M207 221l-120 199h72l92 -157h4l132 157h79l-178 -201l130 -219h-74l-100 175h-4l-144 -175h-81z" />
    <glyph glyph-name="yen" unicode="&#xa5;" horiz-adv-x="573" 
d="M546 600h81l-233 -315h135l-8 -56h-167l-12 -87h167l-8 -56h-167l-12 -86h-70l12 86h-168l8 56h168l12 87h-168l8 56h135l-144 315h82l118 -268l13 -38h2l24 38z" />
    <glyph glyph-name="z" unicode="z" horiz-adv-x="421" 
d="M36 0l5 35l302 328h-255l8 57h348l-4 -32l-300 -331h253l-8 -57h-349z" />
    <glyph glyph-name="zcaron" unicode="&#x17e;" horiz-adv-x="421" 
d="M36 0l5 35l302 328h-255l8 57h348l-4 -32l-300 -331h253l-8 -57h-349zM284 544l64 62h64l-104 -109h-57l-76 109h65z" />
    <glyph glyph-name="zero" unicode="0" horiz-adv-x="598" 
d="M297 -14q-53 0 -92.5 20.5t-66.5 55.5t-40.5 83t-13.5 102q0 73 21.5 139.5t61 116.5t95 80t123.5 30q52 0 92 -20t66.5 -55.5t40 -83t13.5 -102.5q0 -73 -21.5 -139t-60.5 -116.5t-94.5 -80.5t-123.5 -30zM306 53q51 0 91.5 24t69 64.5t44 93.5t15.5 111q0 42 -9.5 78.5
t-28 64t-47 43t-66.5 15.5q-51 0 -91.5 -24.5t-69 -65t-43.5 -94t-15 -110.5q0 -42 9 -78.5t28 -63.5t47 -42.5t66 -15.5z" />
    <glyph glyph-name="a" unicode="a" 
d="M449 353l19 67h48l-59 -420h-48v67h-3q-16 -22 -40 -39q-20 -14 -52 -26t-77 -12q-38 0 -69 13.5t-53.5 38t-35 59t-12.5 76.5q0 55 19 101.5t50.5 80.5t73 52.5t86.5 18.5q46 0 75 -12.5t46 -26.5q19 -17 29 -38h3zM425 235q0 65 -34.5 101t-87.5 36q-33 0 -63 -14
t-52.5 -38.5t-36 -59t-13.5 -74.5q0 -61 32.5 -99.5t86.5 -38.5q33 0 63 13t53.5 37t37.5 58.5t14 78.5z" />
    <glyph glyph-name="aacute" unicode="&#xe1;" 
d="M449 353l19 67h48l-59 -420h-48v67h-3q-16 -22 -40 -39q-20 -14 -52 -26t-77 -12q-38 0 -69 13.5t-53.5 38t-35 59t-12.5 76.5q0 55 19 101.5t50.5 80.5t73 52.5t86.5 18.5q46 0 75 -12.5t46 -26.5q19 -17 29 -38h3zM425 235q0 65 -34.5 101t-87.5 36q-33 0 -63 -14
t-52.5 -38.5t-36 -59t-13.5 -74.5q0 -61 32.5 -99.5t86.5 -38.5q33 0 63 13t53.5 37t37.5 58.5t14 78.5zM342 497h-50l73 145l83 -13z" />
    <glyph glyph-name="acircumflex" unicode="&#xe2;" 
d="M449 353l19 67h48l-59 -420h-48v67h-3q-16 -22 -40 -39q-20 -14 -52 -26t-77 -12q-38 0 -69 13.5t-53.5 38t-35 59t-12.5 76.5q0 55 19 101.5t50.5 80.5t73 52.5t86.5 18.5q46 0 75 -12.5t46 -26.5q19 -17 29 -38h3zM425 235q0 65 -34.5 101t-87.5 36q-33 0 -63 -14
t-52.5 -38.5t-36 -59t-13.5 -74.5q0 -61 32.5 -99.5t86.5 -38.5q33 0 63 13t53.5 37t37.5 58.5t14 78.5zM336 561l-64 -61h-64l104 108h57l76 -108h-65z" />
    <glyph glyph-name="atilde" unicode="&#xe3;" 
d="M449 353l19 67h48l-59 -420h-48v67h-3q-16 -22 -40 -39q-20 -14 -52 -26t-77 -12q-38 0 -69 13.5t-53.5 38t-35 59t-12.5 76.5q0 55 19 101.5t50.5 80.5t73 52.5t86.5 18.5q46 0 75 -12.5t46 -26.5q19 -17 29 -38h3zM425 235q0 65 -34.5 101t-87.5 36q-33 0 -63 -14
t-52.5 -38.5t-36 -59t-13.5 -74.5q0 -61 32.5 -99.5t86.5 -38.5q33 0 63 13t53.5 37t37.5 58.5t14 78.5zM397 497q-23 0 -41.5 9t-34 20.5t-30.5 20.5t-31 9q-23 0 -33.5 -13.5t-18.5 -30.5l-7 -16l-48 6l9 26q11 32 33.5 57.5t64.5 25.5q22 0 40 -9.5t34 -20.5t31 -20.5
t32 -9.5q24 0 35.5 13.5t17.5 31.5l5 15l49 -5l-8 -25q-11 -33 -34 -58.5t-65 -25.5z" />
    <glyph glyph-name="adieresis" unicode="&#xe4;" 
d="M449 353l19 67h48l-59 -420h-48v67h-3q-16 -22 -40 -39q-20 -14 -52 -26t-77 -12q-38 0 -69 13.5t-53.5 38t-35 59t-12.5 76.5q0 55 19 101.5t50.5 80.5t73 52.5t86.5 18.5q46 0 75 -12.5t46 -26.5q19 -17 29 -38h3zM425 235q0 65 -34.5 101t-87.5 36q-33 0 -63 -14
t-52.5 -38.5t-36 -59t-13.5 -74.5q0 -61 32.5 -99.5t86.5 -38.5q33 0 63 13t53.5 37t37.5 58.5t14 78.5zM198 539q0 20 16.5 36t36.5 16q17 0 28.5 -12.5t11.5 -29.5q0 -20 -16.5 -36t-36.5 -16q-17 0 -28.5 12.5t-11.5 29.5zM360 539q0 20 16.5 36t36.5 16q17 0 28.5 -12.5
t11.5 -29.5q0 -20 -16.5 -36t-36.5 -16q-17 0 -28.5 12.5t-11.5 29.5z" />
    <glyph glyph-name="aring" unicode="&#xe5;" 
d="M449 353l19 67h48l-59 -420h-48v67h-3q-16 -22 -40 -39q-20 -14 -52 -26t-77 -12q-38 0 -69 13.5t-53.5 38t-35 59t-12.5 76.5q0 55 19 101.5t50.5 80.5t73 52.5t86.5 18.5q46 0 75 -12.5t46 -26.5q19 -17 29 -38h3zM425 235q0 65 -34.5 101t-87.5 36q-33 0 -63 -14
t-52.5 -38.5t-36 -59t-13.5 -74.5q0 -61 32.5 -99.5t86.5 -38.5q33 0 63 13t53.5 37t37.5 58.5t14 78.5zM229 583q5 39 38 63t78 24q44 0 69.5 -24t20.5 -63q-6 -39 -38.5 -63t-76.5 -24q-45 0 -71 24t-20 63zM388 583q3 21 -10 32t-39 11t-43 -11t-20 -32t11 -32t40 -11
t42 11t19 32z" />
    <glyph glyph-name="agrave" unicode="&#xe0;" 
d="M449 353l19 67h48l-59 -420h-48v67h-3q-16 -22 -40 -39q-20 -14 -52 -26t-77 -12q-38 0 -69 13.5t-53.5 38t-35 59t-12.5 76.5q0 55 19 101.5t50.5 80.5t73 52.5t86.5 18.5q46 0 75 -12.5t46 -26.5q19 -17 29 -38h3zM425 235q0 65 -34.5 101t-87.5 36q-33 0 -63 -14
t-52.5 -38.5t-36 -59t-13.5 -74.5q0 -61 32.5 -99.5t86.5 -38.5q33 0 63 13t53.5 37t37.5 58.5t14 78.5zM233 629l86 13l32 -145h-50z" />
    <glyph glyph-name="y" unicode="y" horiz-adv-x="504" 
d="M496 420l-57 -409q-6 -42 -23 -76.5t-44.5 -60t-65 -39.5t-84.5 -14q-46 0 -76 10t-49 22q-22 14 -34 33l45 47q11 -16 29 -27q15 -10 37 -18t54 -8q63 0 98 33.5t43 95.5l5 37q-8 -8 -20 -18t-29.5 -18.5t-39.5 -14t-49 -5.5q-44 0 -75.5 14t-50.5 39.5t-25 61t0 78.5
l33 237h69l-32 -229q-4 -30 -1 -56.5t14.5 -45.5t31.5 -30t50 -11q32 0 57 11.5t42.5 29.5t28 39t13.5 39l36 253h69z" />
    <glyph glyph-name="yacute" unicode="&#xfd;" horiz-adv-x="504" 
d="M496 420l-57 -409q-6 -42 -23 -76.5t-44.5 -60t-65 -39.5t-84.5 -14q-46 0 -76 10t-49 22q-22 14 -34 33l45 47q11 -16 29 -27q15 -10 37 -18t54 -8q63 0 98 33.5t43 95.5l5 37q-8 -8 -20 -18t-29.5 -18.5t-39.5 -14t-49 -5.5q-44 0 -75.5 14t-50.5 39.5t-25 61t0 78.5
l33 237h69l-32 -229q-4 -30 -1 -56.5t14.5 -45.5t31.5 -30t50 -11q32 0 57 11.5t42.5 29.5t28 39t13.5 39l36 253h69zM341 497h-50l73 145l83 -13z" />
    <glyph glyph-name="ydieresis" unicode="&#xff;" horiz-adv-x="504" 
d="M496 420l-57 -409q-6 -42 -23 -76.5t-44.5 -60t-65 -39.5t-84.5 -14q-46 0 -76 10t-49 22q-22 14 -34 33l45 47q11 -16 29 -27q15 -10 37 -18t54 -8q63 0 98 33.5t43 95.5l5 37q-8 -8 -20 -18t-29.5 -18.5t-39.5 -14t-49 -5.5q-44 0 -75.5 14t-50.5 39.5t-25 61t0 78.5
l33 237h69l-32 -229q-4 -30 -1 -56.5t14.5 -45.5t31.5 -30t50 -11q32 0 57 11.5t42.5 29.5t28 39t13.5 39l36 253h69zM198 539q0 20 16.5 36t36.5 16q17 0 28.5 -12.5t11.5 -29.5q0 -20 -16.5 -36t-36.5 -16q-17 0 -28.5 12.5t-11.5 29.5zM360 539q0 20 16.5 36t36.5 16
q17 0 28.5 -12.5t11.5 -29.5q0 -20 -16.5 -36t-36.5 -16q-17 0 -28.5 12.5t-11.5 29.5z" />
    <glyph glyph-name="g" unicode="g" horiz-adv-x="523" 
d="M460 28q-6 -45 -24.5 -83t-48 -65.5t-69.5 -43t-89 -15.5q-46 0 -76 10t-49 22q-22 14 -34 33l45 47q11 -16 29 -27q15 -10 37 -18t54 -8q67 0 106.5 37t49.5 109l5 37h-3q-14 -21 -36 -37q-19 -14 -49 -25t-74 -11q-37 0 -68 13.5t-53 38.5t-34.5 59.5t-12.5 76.5
q0 56 19 102.5t50.5 79.5t73.5 51.5t89 18.5q45 0 73 -13t44 -28q18 -18 27 -41h4l19 72h50zM424 235q0 65 -35 101t-87 36q-33 0 -63 -14t-52.5 -39t-36 -59t-13.5 -74q0 -62 32.5 -100t86.5 -38q33 0 63 13t53.5 37t37.5 58.5t14 78.5z" />
    <glyph glyph-name="dcroat" unicode="&#x111;" 
d="M425 235q0 65 -34.5 101t-87.5 36q-33 0 -63 -14t-52.5 -38.5t-36 -59t-13.5 -74.5q0 -61 32.5 -99.5t86.5 -38.5q33 0 63 13t53.5 37t37.5 58.5t14 78.5zM525 481l-68 -481h-48v67h-3q-16 -22 -40 -39q-20 -14 -52 -26t-77 -12q-38 0 -69 13.5t-53.5 38t-35 59
t-12.5 76.5q0 55 19 101.5t50.5 80.5t73 52.5t87.5 18.5q43 0 70 -10.5t43 -22.5q18 -15 27 -33h3l16 117h-144l5 51h145l11 73h69l-11 -73h49l-5 -51h-50z" />
    <glyph glyph-name="Dcroat" unicode="&#x110;" horiz-adv-x="631" 
d="M71 336h58l37 264h200q61 0 110.5 -18t84.5 -51.5t53.5 -81t18.5 -106.5q0 -78 -26.5 -141t-73.5 -108t-111 -69.5t-140 -24.5h-200l38 272h-58zM227 535l-28 -199h179l-9 -64h-179l-29 -207h126q56 0 105.5 18.5t87 53.5t59.5 84.5t22 112.5q0 47 -15.5 84.5t-43 63.5
t-65.5 39.5t-84 13.5h-126z" />
    <glyph glyph-name="Itilde" unicode="&#x128;" horiz-adv-x="234" 
d="M152 0h-70l84 600h70zM296 670q-23 0 -41.5 9t-34 20.5t-30.5 20.5t-31 9q-23 0 -33.5 -13.5t-18.5 -30.5l-7 -16l-48 6l9 26q11 32 33.5 57.5t64.5 25.5q22 0 40 -9.5t34 -20.5t31 -20.5t32 -9.5q24 0 35.5 13.5t17.5 31.5l5 15l49 -5l-8 -25q-11 -33 -34 -58.5
t-65 -25.5z" />
    <glyph glyph-name="Utilde" unicode="&#x168;" horiz-adv-x="630" 
d="M313 -14q-57 0 -99 19.5t-68 54.5t-35.5 83.5t-1.5 107.5l49 349h70l-49 -349q-6 -43 -0.5 -79.5t23 -63t47.5 -41.5t73 -15t77.5 15t59.5 41.5t40.5 63t21.5 79.5l49 349h70l-49 -349q-8 -59 -31 -107.5t-58.5 -83.5t-83 -54.5t-105.5 -19.5zM493 670q-23 0 -41.5 9
t-34 20.5t-30.5 20.5t-31 9q-23 0 -33.5 -13.5t-18.5 -30.5l-7 -16l-48 6l9 26q11 32 33.5 57.5t64.5 25.5q22 0 40 -9.5t34 -20.5t31 -20.5t32 -9.5q24 0 35.5 13.5t17.5 31.5l5 15l49 -5l-8 -25q-11 -33 -34 -58.5t-65 -25.5z" />
    <glyph glyph-name="utilde" unicode="&#x169;" horiz-adv-x="507" 
d="M440 0h-44l-3 60h-3q-3 -5 -14 -16.5t-30.5 -23.5t-48 -21t-66.5 -9q-41 0 -71 14t-48 39.5t-24 61t0 78.5l33 237h69l-32 -229q-4 -30 -1 -56.5t14.5 -45.5t31.5 -30t50 -11q32 0 57 11.5t43 29.5t28.5 39t13.5 39l35 253h69zM397 499q-23 0 -41.5 9t-34 20.5
t-30.5 20.5t-31 9q-23 0 -33.5 -13.5t-18.5 -30.5l-7 -16l-48 6l9 26q11 32 33.5 57.5t64.5 25.5q22 0 40 -9.5t34 -20.5t31 -20.5t32 -9.5q24 0 35.5 13.5t17.5 31.5l5 15l49 -5l-8 -25q-11 -33 -34 -58.5t-65 -25.5z" />
    <glyph glyph-name="Ohorn" unicode="&#x1a0;" horiz-adv-x="677" 
d="M345 53q58 0 106.5 23t83.5 61.5t54.5 89.5t19.5 107q0 44 -13 83t-37.5 68t-61 45.5t-82.5 16.5q-58 0 -106 -23t-82.5 -62t-54 -90t-19.5 -108q0 -44 12.5 -82.5t37 -67t60.5 -45t82 -16.5zM587 561q14 -11 27 -25q33 -36 50 -85.5t17 -107.5q0 -73 -25.5 -138
t-71.5 -113.5t-109 -77t-139 -28.5q-61 0 -108.5 20.5t-80.5 57t-50 86t-17 106.5q0 73 25.5 138t71.5 114t109 77t138 28q52 0 95 -15q38 1 67 25t37 62h60q-13 -61 -63 -102q-16 -13 -33 -22z" />
    <glyph glyph-name="ohorn" unicode="&#x1a1;" horiz-adv-x="501" 
d="M257 46q32 0 62.5 13t54 37.5t37.5 59t14 78.5q0 65 -35 102.5t-87 37.5q-32 0 -62.5 -13.5t-54 -38.5t-37.5 -60t-14 -78q0 -65 35 -101.5t87 -36.5zM441 378h1q24 -26 38 -61.5t14 -78.5q0 -56 -20.5 -102t-54 -78.5t-78 -50t-92.5 -17.5q-40 0 -73.5 13t-58 37.5
t-38 59t-13.5 77.5q0 57 20 103.5t54 79.5t78.5 51.5t92.5 18.5q37 0 69 -12q38 1 67 25t37 62h60q-13 -61 -63 -102q-19 -15 -40 -25z" />
    <glyph glyph-name="Uhorn" unicode="&#x1af;" horiz-adv-x="630" 
d="M634 554l-43 -303q-8 -59 -31 -107.5t-58.5 -83.5t-83 -54.5t-105.5 -19.5q-57 0 -99 19.5t-68 54.5t-35.5 83.5t-1.5 107.5l49 349h70l-49 -349q-6 -43 -0.5 -79.5t23 -63t47.5 -41.5t73 -15t77.5 15t59.5 41.5t40.5 63t21.5 79.5l49 349h30q27 5 49 23q29 24 37 62h60
q-13 -61 -63 -102q-23 -19 -49 -29z" />
    <glyph glyph-name="uhorn" unicode="&#x1b0;" horiz-adv-x="507" 
d="M493 375l-53 -375h-44l-3 60h-3q-3 -5 -14 -16.5t-30.5 -23.5t-48 -21t-66.5 -9q-41 0 -71 14t-48 39.5t-24 61t0 78.5l33 237h69l-32 -229q-4 -30 -1 -56.5t14.5 -45.5t31.5 -30t50 -11q32 0 57 11.5t43 29.5t28.5 39t13.5 39l35 253h28q27 5 49 23q29 24 37 62h60
q-13 -61 -63 -102q-23 -18 -48 -28z" />
    <glyph glyph-name="uni1EA0" unicode="&#x1ea0;" horiz-adv-x="595" 
d="M586 0h-72l-38 133h-320l-75 -133h-72l341 600h63zM193 198h265l-88 312zM225 -132q0 23 17 39.5t38 16.5q19 0 31 -12.5t12 -31.5q0 -23 -16.5 -39t-39.5 -16q-18 0 -30 12.5t-12 30.5z" />
    <glyph glyph-name="uni1EA1" unicode="&#x1ea1;" 
d="M449 353l19 67h48l-59 -420h-48v67h-3q-16 -22 -40 -39q-20 -14 -52 -26t-77 -12q-38 0 -69 13.5t-53.5 38t-35 59t-12.5 76.5q0 55 19 101.5t50.5 80.5t73 52.5t86.5 18.5q46 0 75 -12.5t46 -26.5q19 -17 29 -38h3zM425 235q0 65 -34.5 101t-87.5 36q-33 0 -63 -14
t-52.5 -38.5t-36 -59t-13.5 -74.5q0 -61 32.5 -99.5t86.5 -38.5q33 0 63 13t53.5 37t37.5 58.5t14 78.5zM175 -132q0 23 17 39.5t38 16.5q19 0 31 -12.5t12 -31.5q0 -23 -16.5 -39t-39.5 -16q-18 0 -30 12.5t-12 30.5z" />
    <glyph glyph-name="uni1EA2" unicode="&#x1ea2;" horiz-adv-x="595" 
d="M586 0h-72l-38 133h-320l-75 -133h-72l341 600h63zM193 198h265l-88 312zM318 803q14 12 25 16q8 4 20 7.5t27 3.5q33 0 53 -16t20 -44q0 -17 -6 -29t-10.5 -18t-11.5 -12t-11.5 -9t-8 -6t-4.5 -9l-5 -19h-40l3 27q3 20 13.5 30t16.5 15t10 10t4 14q0 8 -6.5 13t-19.5 5
q-9 0 -16.5 -2t-12.5 -5q-7 -2 -25 -15z" />
    <glyph glyph-name="uni1EA3" unicode="&#x1ea3;" 
d="M449 353l19 67h48l-59 -420h-48v67h-3q-16 -22 -40 -39q-20 -14 -52 -26t-77 -12q-38 0 -69 13.5t-53.5 38t-35 59t-12.5 76.5q0 55 19 101.5t50.5 80.5t73 52.5t86.5 18.5q46 0 75 -12.5t46 -26.5q19 -17 29 -38h3zM425 235q0 65 -34.5 101t-87.5 36q-33 0 -63 -14
t-52.5 -38.5t-36 -59t-13.5 -74.5q0 -61 32.5 -99.5t86.5 -38.5q33 0 63 13t53.5 37t37.5 58.5t14 78.5zM256 628q14 12 25 16q8 4 20 7.5t27 3.5q33 0 53 -16t20 -44q0 -17 -6 -29t-10.5 -18t-11.5 -12t-11.5 -9t-8 -6t-4.5 -9l-5 -19h-40l3 27q3 20 13.5 30t16.5 15t10 10
t4 14q0 8 -6.5 13t-19.5 5q-9 0 -16.5 -2t-12.5 -5q-7 -2 -25 -15z" />
    <glyph glyph-name="uni1EA4" unicode="&#x1ea4;" horiz-adv-x="595" 
d="M586 0h-72l-38 133h-320l-75 -133h-72l341 600h63zM193 198h265l-88 312zM401 729l-64 -61h-64l104 108h57l76 -108h-65zM522 750h-50l73 145l83 -13z" />
    <glyph glyph-name="uni1EA5" unicode="&#x1ea5;" 
d="M449 353l19 67h48l-59 -420h-48v67h-3q-16 -22 -40 -39q-20 -14 -52 -26t-77 -12q-38 0 -69 13.5t-53.5 38t-35 59t-12.5 76.5q0 55 19 101.5t50.5 80.5t73 52.5t86.5 18.5q46 0 75 -12.5t46 -26.5q19 -17 29 -38h3zM425 235q0 65 -34.5 101t-87.5 36q-33 0 -63 -14
t-52.5 -38.5t-36 -59t-13.5 -74.5q0 -61 32.5 -99.5t86.5 -38.5q33 0 63 13t53.5 37t37.5 58.5t14 78.5zM336 559l-64 -61h-64l104 108h57l76 -108h-65zM477 584h-50l73 145l83 -13z" />
    <glyph glyph-name="uni1EA6" unicode="&#x1ea6;" horiz-adv-x="595" 
d="M586 0h-72l-38 133h-320l-75 -133h-72l341 600h63zM193 198h265l-88 312zM406 729l-64 -61h-64l104 108h57l76 -108h-65zM222 887l86 13l32 -145h-50z" />
    <glyph glyph-name="uni1EA7" unicode="&#x1ea7;" 
d="M449 353l19 67h48l-59 -420h-48v67h-3q-16 -22 -40 -39q-20 -14 -52 -26t-77 -12q-38 0 -69 13.5t-53.5 38t-35 59t-12.5 76.5q0 55 19 101.5t50.5 80.5t73 52.5t86.5 18.5q46 0 75 -12.5t46 -26.5q19 -17 29 -38h3zM425 235q0 65 -34.5 101t-87.5 36q-33 0 -63 -14
t-52.5 -38.5t-36 -59t-13.5 -74.5q0 -61 32.5 -99.5t86.5 -38.5q33 0 63 13t53.5 37t37.5 58.5t14 78.5zM336 559l-64 -61h-64l104 108h57l76 -108h-65zM144 718l86 13l32 -145h-50z" />
    <glyph glyph-name="uni1EA8" unicode="&#x1ea8;" horiz-adv-x="595" 
d="M586 0h-72l-38 133h-320l-75 -133h-72l341 600h63zM193 198h265l-88 312zM401 729l-64 -61h-64l104 108h57l76 -108h-65zM437 885q14 12 25 16q8 4 20 7.5t27 3.5q33 0 53 -16t20 -44q0 -17 -6 -29t-10.5 -18t-11.5 -12t-11.5 -9t-8 -6t-4.5 -9l-5 -19h-40l3 27
q3 20 13.5 30t16.5 15t10 10t4 14q0 8 -6.5 13t-19.5 5q-9 0 -16.5 -2t-12.5 -5q-7 -2 -25 -15z" />
    <glyph glyph-name="uni1EA9" unicode="&#x1ea9;" 
d="M449 353l19 67h48l-59 -420h-48v67h-3q-16 -22 -40 -39q-20 -14 -52 -26t-77 -12q-38 0 -69 13.5t-53.5 38t-35 59t-12.5 76.5q0 55 19 101.5t50.5 80.5t73 52.5t86.5 18.5q46 0 75 -12.5t46 -26.5q19 -17 29 -38h3zM425 235q0 65 -34.5 101t-87.5 36q-33 0 -63 -14
t-52.5 -38.5t-36 -59t-13.5 -74.5q0 -61 32.5 -99.5t86.5 -38.5q33 0 63 13t53.5 37t37.5 58.5t14 78.5zM336 559l-64 -61h-64l104 108h57l76 -108h-65zM373 721q14 12 25 16q8 4 20 7.5t27 3.5q33 0 53 -16t20 -44q0 -17 -6 -29t-10.5 -18t-11.5 -12t-11.5 -9t-8 -6
t-4.5 -9l-5 -19h-40l3 27q3 20 13.5 30t16.5 15t10 10t4 14q0 8 -6.5 13t-19.5 5q-9 0 -16.5 -2t-12.5 -5q-7 -2 -25 -15z" />
    <glyph glyph-name="uni1EAA" unicode="&#x1eaa;" horiz-adv-x="595" 
d="M586 0h-72l-38 133h-320l-75 -133h-72l341 600h63zM193 198h265l-88 312zM401 729l-64 -61h-64l104 108h57l76 -108h-65zM526 783q-23 0 -41.5 9t-34 20.5t-30.5 20.5t-31 9q-23 0 -33.5 -13.5t-18.5 -30.5l-7 -16l-48 6l9 26q11 32 33.5 57.5t64.5 25.5q22 0 40 -9.5
t34 -20.5t31 -20.5t32 -9.5q24 0 35.5 13.5t17.5 31.5l5 15l49 -5l-8 -25q-11 -33 -34 -58.5t-65 -25.5z" />
    <glyph glyph-name="uni1EAB" unicode="&#x1eab;" 
d="M449 353l19 67h48l-59 -420h-48v67h-3q-16 -22 -40 -39q-20 -14 -52 -26t-77 -12q-38 0 -69 13.5t-53.5 38t-35 59t-12.5 76.5q0 55 19 101.5t50.5 80.5t73 52.5t86.5 18.5q46 0 75 -12.5t46 -26.5q19 -17 29 -38h3zM425 235q0 65 -34.5 101t-87.5 36q-33 0 -63 -14
t-52.5 -38.5t-36 -59t-13.5 -74.5q0 -61 32.5 -99.5t86.5 -38.5q33 0 63 13t53.5 37t37.5 58.5t14 78.5zM336 559l-64 -61h-64l104 108h57l76 -108h-65zM462 613q-23 0 -41.5 9t-34 20.5t-30.5 20.5t-31 9q-23 0 -33.5 -13.5t-18.5 -30.5l-7 -16l-48 6l9 26q11 32 33.5 57.5
t64.5 25.5q22 0 40 -9.5t34 -20.5t31 -20.5t32 -9.5q24 0 35.5 13.5t17.5 31.5l5 15l49 -5l-8 -25q-11 -33 -34 -58.5t-65 -25.5z" />
    <glyph glyph-name="uni1EAC" unicode="&#x1eac;" horiz-adv-x="595" 
d="M586 0h-72l-38 133h-320l-75 -133h-72l341 600h63zM193 198h265l-88 312zM401 729l-64 -61h-64l104 108h57l76 -108h-65zM225 -132q0 23 17 39.5t38 16.5q19 0 31 -12.5t12 -31.5q0 -23 -16.5 -39t-39.5 -16q-18 0 -30 12.5t-12 30.5z" />
    <glyph glyph-name="uni1EAD" unicode="&#x1ead;" 
d="M449 353l19 67h48l-59 -420h-48v67h-3q-16 -22 -40 -39q-20 -14 -52 -26t-77 -12q-38 0 -69 13.5t-53.5 38t-35 59t-12.5 76.5q0 55 19 101.5t50.5 80.5t73 52.5t86.5 18.5q46 0 75 -12.5t46 -26.5q19 -17 29 -38h3zM425 235q0 65 -34.5 101t-87.5 36q-33 0 -63 -14
t-52.5 -38.5t-36 -59t-13.5 -74.5q0 -61 32.5 -99.5t86.5 -38.5q33 0 63 13t53.5 37t37.5 58.5t14 78.5zM336 559l-64 -61h-64l104 108h57l76 -108h-65zM197 -132q0 23 17 39.5t38 16.5q19 0 31 -12.5t12 -31.5q0 -23 -16.5 -39t-39.5 -16q-18 0 -30 12.5t-12 30.5z" />
    <glyph glyph-name="uni1EAE" unicode="&#x1eae;" horiz-adv-x="595" 
d="M586 0h-72l-38 133h-320l-75 -133h-72l341 600h63zM193 198h265l-88 312zM506 780q-3 -24 -14.5 -44.5t-28 -35.5t-37 -23.5t-41.5 -8.5t-39 8.5t-30.5 23.5t-18 35.5t-2.5 44.5h44q-4 -26 10.5 -46.5t41.5 -20.5q13 0 25 5.5t21.5 14.5t16 21t8.5 26h44zM413 784h-50
l73 145l83 -13z" />
    <glyph glyph-name="uni1EAF" unicode="&#x1eaf;" 
d="M449 353l19 67h48l-59 -420h-48v67h-3q-16 -22 -40 -39q-20 -14 -52 -26t-77 -12q-38 0 -69 13.5t-53.5 38t-35 59t-12.5 76.5q0 55 19 101.5t50.5 80.5t73 52.5t86.5 18.5q46 0 75 -12.5t46 -26.5q19 -17 29 -38h3zM425 235q0 65 -34.5 101t-87.5 36q-33 0 -63 -14
t-52.5 -38.5t-36 -59t-13.5 -74.5q0 -61 32.5 -99.5t86.5 -38.5q33 0 63 13t53.5 37t37.5 58.5t14 78.5zM461 610q-3 -24 -14.5 -44.5t-28 -35.5t-37 -23.5t-41.5 -8.5t-39 8.5t-30.5 23.5t-18 35.5t-2.5 44.5h44q-4 -26 10.5 -46.5t41.5 -20.5q13 0 25 5.5t21.5 14.5t16 21
t8.5 26h44zM379 627h-50l73 145l83 -13z" />
    <glyph glyph-name="uni1EB0" unicode="&#x1eb0;" horiz-adv-x="595" 
d="M586 0h-72l-38 133h-320l-75 -133h-72l341 600h63zM193 198h265l-88 312zM512 780q-3 -24 -14.5 -44.5t-28 -35.5t-37 -23.5t-41.5 -8.5t-39 8.5t-30.5 23.5t-18 35.5t-2.5 44.5h44q-4 -26 10.5 -46.5t41.5 -20.5q13 0 25 5.5t21.5 14.5t16 21t8.5 26h44zM321 921l86 13
l32 -145h-50z" />
    <glyph glyph-name="uni1EB1" unicode="&#x1eb1;" 
d="M449 353l19 67h48l-59 -420h-48v67h-3q-16 -22 -40 -39q-20 -14 -52 -26t-77 -12q-38 0 -69 13.5t-53.5 38t-35 59t-12.5 76.5q0 55 19 101.5t50.5 80.5t73 52.5t86.5 18.5q46 0 75 -12.5t46 -26.5q19 -17 29 -38h3zM425 235q0 65 -34.5 101t-87.5 36q-33 0 -63 -14
t-52.5 -38.5t-36 -59t-13.5 -74.5q0 -61 32.5 -99.5t86.5 -38.5q33 0 63 13t53.5 37t37.5 58.5t14 78.5zM461 610q-3 -24 -14.5 -44.5t-28 -35.5t-37 -23.5t-41.5 -8.5t-39 8.5t-30.5 23.5t-18 35.5t-2.5 44.5h44q-4 -26 10.5 -46.5t41.5 -20.5q13 0 25 5.5t21.5 14.5t16 21
t8.5 26h44zM271 761l86 13l32 -145h-50z" />
    <glyph glyph-name="uni1EB2" unicode="&#x1eb2;" horiz-adv-x="595" 
d="M586 0h-72l-38 133h-320l-75 -133h-72l341 600h63zM193 198h265l-88 312zM511 780q-3 -24 -14.5 -44.5t-28 -35.5t-37 -23.5t-41.5 -8.5t-39 8.5t-30.5 23.5t-18 35.5t-2.5 44.5h44q-4 -26 10.5 -46.5t41.5 -20.5q13 0 25 5.5t21.5 14.5t16 21t8.5 26h44zM333 777.75
q14 9 25 12q8 3 20 5.625t27 2.625q33 0 53 -12t20 -33q0 -12.75 -6 -21.75t-10.5 -13.5t-11.5 -9t-11.5 -6.75t-8 -4.5t-4.5 -6.75l-5 -14.25h-40l3 20.25q3 15 13.5 22.5t16.5 11.25t10 7.5t4 10.5q0 6 -6.5 9.75t-19.5 3.75q-9 0 -16.5 -1.5t-12.5 -3.75
q-7 -1.5 -25 -11.25z" />
    <glyph glyph-name="uni1EB3" unicode="&#x1eb3;" 
d="M449 353l19 67h48l-59 -420h-48v67h-3q-16 -22 -40 -39q-20 -14 -52 -26t-77 -12q-38 0 -69 13.5t-53.5 38t-35 59t-12.5 76.5q0 55 19 101.5t50.5 80.5t73 52.5t86.5 18.5q46 0 75 -12.5t46 -26.5q19 -17 29 -38h3zM425 235q0 65 -34.5 101t-87.5 36q-33 0 -63 -14
t-52.5 -38.5t-36 -59t-13.5 -74.5q0 -61 32.5 -99.5t86.5 -38.5q33 0 63 13t53.5 37t37.5 58.5t14 78.5zM461 610q-3 -24 -14.5 -44.5t-28 -35.5t-37 -23.5t-41.5 -8.5t-39 8.5t-30.5 23.5t-18 35.5t-2.5 44.5h44q-4 -26 10.5 -46.5t41.5 -20.5q13 0 25 5.5t21.5 14.5t16 21
t8.5 26h44zM295 754q14 12 25 16q8 4 20 7.5t27 3.5q33 0 53 -16t20 -44q0 -17 -6 -29t-10.5 -18t-11.5 -12t-11.5 -9t-8 -6t-4.5 -9l-5 -19h-40l3 27q3 20 13.5 30t16.5 15t10 10t4 14q0 8 -6.5 13t-19.5 5q-9 0 -16.5 -2t-12.5 -5q-7 -2 -25 -15z" />
    <glyph glyph-name="uni1EB4" unicode="&#x1eb4;" horiz-adv-x="595" 
d="M586 0h-72l-38 133h-320l-75 -133h-72l341 600h63zM193 198h265l-88 312zM513 780q-3 -24 -14.5 -44.5t-28 -35.5t-37 -23.5t-41.5 -8.5t-39 8.5t-30.5 23.5t-18 35.5t-2.5 44.5h44q-4 -26 10.5 -46.5t41.5 -20.5q13 0 25 5.5t21.5 14.5t16 21t8.5 26h44zM507 803
q-23 0 -41.5 9t-34 20.5t-30.5 20.5t-31 9q-23 0 -33.5 -13.5t-18.5 -30.5l-7 -16l-48 6l9 26q11 32 33.5 57.5t64.5 25.5q22 0 40 -9.5t34 -20.5t31 -20.5t32 -9.5q24 0 35.5 13.5t17.5 31.5l5 15l49 -5l-8 -25q-11 -33 -34 -58.5t-65 -25.5z" />
    <glyph glyph-name="uni1EB5" unicode="&#x1eb5;" 
d="M449 353l19 67h48l-59 -420h-48v67h-3q-16 -22 -40 -39q-20 -14 -52 -26t-77 -12q-38 0 -69 13.5t-53.5 38t-35 59t-12.5 76.5q0 55 19 101.5t50.5 80.5t73 52.5t86.5 18.5q46 0 75 -12.5t46 -26.5q19 -17 29 -38h3zM425 235q0 65 -34.5 101t-87.5 36q-33 0 -63 -14
t-52.5 -38.5t-36 -59t-13.5 -74.5q0 -61 32.5 -99.5t86.5 -38.5q33 0 63 13t53.5 37t37.5 58.5t14 78.5zM462 610q-3 -24 -14.5 -44.5t-28 -35.5t-37 -23.5t-41.5 -8.5t-39 8.5t-30.5 23.5t-18 35.5t-2.5 44.5h44q-4 -26 10.5 -46.5t41.5 -20.5q13 0 25 5.5t21.5 14.5t16 21
t8.5 26h44zM431 640q-23 0 -41.5 9t-34 20.5t-30.5 20.5t-31 9q-23 0 -33.5 -13.5t-18.5 -30.5l-7 -16l-48 6l9 26q11 32 33.5 57.5t64.5 25.5q22 0 40 -9.5t34 -20.5t31 -20.5t32 -9.5q24 0 35.5 13.5t17.5 31.5l5 15l49 -5l-8 -25q-11 -33 -34 -58.5t-65 -25.5z" />
    <glyph glyph-name="uni1EB6" unicode="&#x1eb6;" horiz-adv-x="595" 
d="M586 0h-72l-38 133h-320l-75 -133h-72l341 600h63zM193 198h265l-88 312zM514 781q-3 -24 -14.5 -44.5t-28 -35.5t-37 -23.5t-41.5 -8.5t-39 8.5t-30.5 23.5t-18 35.5t-2.5 44.5h44q-4 -26 10.5 -46.5t41.5 -20.5q13 0 25 5.5t21.5 14.5t16 21t8.5 26h44zM225 -132
q0 23 17 39.5t38 16.5q19 0 31 -12.5t12 -31.5q0 -23 -16.5 -39t-39.5 -16q-18 0 -30 12.5t-12 30.5z" />
    <glyph glyph-name="uni1EB7" unicode="&#x1eb7;" 
d="M449 353l19 67h48l-59 -420h-48v67h-3q-16 -22 -40 -39q-20 -14 -52 -26t-77 -12q-38 0 -69 13.5t-53.5 38t-35 59t-12.5 76.5q0 55 19 101.5t50.5 80.5t73 52.5t86.5 18.5q46 0 75 -12.5t46 -26.5q19 -17 29 -38h3zM425 235q0 65 -34.5 101t-87.5 36q-33 0 -63 -14
t-52.5 -38.5t-36 -59t-13.5 -74.5q0 -61 32.5 -99.5t86.5 -38.5q33 0 63 13t53.5 37t37.5 58.5t14 78.5zM461 610q-3 -24 -14.5 -44.5t-28 -35.5t-37 -23.5t-41.5 -8.5t-39 8.5t-30.5 23.5t-18 35.5t-2.5 44.5h44q-4 -26 10.5 -46.5t41.5 -20.5q13 0 25 5.5t21.5 14.5t16 21
t8.5 26h44zM202 -132q0 23 17 39.5t38 16.5q19 0 31 -12.5t12 -31.5q0 -23 -16.5 -39t-39.5 -16q-18 0 -30 12.5t-12 30.5z" />
    <glyph glyph-name="uni1EB8" unicode="&#x1eb8;" horiz-adv-x="544" 
d="M490 271h-300l-29 -206h351l-9 -65h-421l84 600h421l-9 -65h-351l-28 -199h300zM219 -132q0 23 17 39.5t38 16.5q19 0 31 -12.5t12 -31.5q0 -23 -16.5 -39t-39.5 -16q-18 0 -30 12.5t-12 30.5z" />
    <glyph glyph-name="uni1EB9" unicode="&#x1eb9;" horiz-adv-x="457" 
d="M406 38q-16 -14 -39 -25q-20 -9 -49 -16.5t-68 -7.5q-88 0 -136 51.5t-48 135.5q0 53 17 99.5t48 81t73.5 54t92.5 19.5q45 0 77.5 -16t51.5 -44.5t26 -66.5t1 -82l-2 -17h-314q-9 -77 27 -116.5t98 -39.5q29 0 51.5 6t39.5 14q19 9 34 20zM288 371q-103 0 -139 -111h238
q0 111 -99 111zM157 -132q0 23 17 39.5t38 16.5q19 0 31 -12.5t12 -31.5q0 -23 -16.5 -39t-39.5 -16q-18 0 -30 12.5t-12 30.5z" />
    <glyph glyph-name="uni1EBA" unicode="&#x1eba;" horiz-adv-x="544" 
d="M490 271h-300l-29 -206h351l-9 -65h-421l84 600h421l-9 -65h-351l-28 -199h300zM332 854q14 12 25 16q8 4 20 7.5t27 3.5q33 0 53 -16t20 -44q0 -17 -6 -29t-10.5 -18t-11.5 -12t-11.5 -9t-8 -6t-4.5 -9l-5 -19h-40l3 27q3 20 13.5 30t16.5 15t10 10t4 14q0 8 -6.5 13
t-19.5 5q-9 0 -16.5 -2t-12.5 -5q-7 -2 -25 -15z" />
    <glyph glyph-name="uni1EBB" unicode="&#x1ebb;" horiz-adv-x="457" 
d="M406 38q-16 -14 -39 -25q-20 -9 -49 -16.5t-68 -7.5q-88 0 -136 51.5t-48 135.5q0 53 17 99.5t48 81t73.5 54t92.5 19.5q45 0 77.5 -16t51.5 -44.5t26 -66.5t1 -82l-2 -17h-314q-9 -77 27 -116.5t98 -39.5q29 0 51.5 6t39.5 14q19 9 34 20zM288 371q-103 0 -139 -111h238
q0 111 -99 111zM239 628q14 12 25 16q8 4 20 7.5t27 3.5q33 0 53 -16t20 -44q0 -17 -6 -29t-10.5 -18t-11.5 -12t-11.5 -9t-8 -6t-4.5 -9l-5 -19h-40l3 27q3 20 13.5 30t16.5 15t10 10t4 14q0 8 -6.5 13t-19.5 5q-9 0 -16.5 -2t-12.5 -5q-7 -2 -25 -15z" />
    <glyph glyph-name="uni1EBC" unicode="&#x1ebc;" horiz-adv-x="544" 
d="M490 271h-300l-29 -206h351l-9 -65h-421l84 600h421l-9 -65h-351l-28 -199h300zM471 725q-23 0 -41.5 9t-34 20.5t-30.5 20.5t-31 9q-23 0 -33.5 -13.5t-18.5 -30.5l-7 -16l-48 6l9 26q11 32 33.5 57.5t64.5 25.5q22 0 40 -9.5t34 -20.5t31 -20.5t32 -9.5q24 0 35.5 13.5
t17.5 31.5l5 15l49 -5l-8 -25q-11 -33 -34 -58.5t-65 -25.5z" />
    <glyph glyph-name="uni1EBD" unicode="&#x1ebd;" horiz-adv-x="457" 
d="M406 38q-16 -14 -39 -25q-20 -9 -49 -16.5t-68 -7.5q-88 0 -136 51.5t-48 135.5q0 53 17 99.5t48 81t73.5 54t92.5 19.5q45 0 77.5 -16t51.5 -44.5t26 -66.5t1 -82l-2 -17h-314q-9 -77 27 -116.5t98 -39.5q29 0 51.5 6t39.5 14q19 9 34 20zM288 371q-103 0 -139 -111h238
q0 111 -99 111zM377 499q-23 0 -41.5 9t-34 20.5t-30.5 20.5t-31 9q-23 0 -33.5 -13.5t-18.5 -30.5l-7 -16l-48 6l9 26q11 32 33.5 57.5t64.5 25.5q22 0 40 -9.5t34 -20.5t31 -20.5t32 -9.5q24 0 35.5 13.5t17.5 31.5l5 15l49 -5l-8 -25q-11 -33 -34 -58.5t-65 -25.5z" />
    <glyph glyph-name="uni1EBE" unicode="&#x1ebe;" horiz-adv-x="544" 
d="M490 271h-300l-29 -206h351l-9 -65h-421l84 600h421l-9 -65h-351l-28 -199h300zM396 729l-64 -61h-64l104 108h57l76 -108h-65zM517 750h-50l73 145l83 -13z" />
    <glyph glyph-name="uni1EBF" unicode="&#x1ebf;" horiz-adv-x="457" 
d="M406 38q-16 -14 -39 -25q-20 -9 -49 -16.5t-68 -7.5q-88 0 -136 51.5t-48 135.5q0 53 17 99.5t48 81t73.5 54t92.5 19.5q45 0 77.5 -16t51.5 -44.5t26 -66.5t1 -82l-2 -17h-314q-9 -77 27 -116.5t98 -39.5q29 0 51.5 6t39.5 14q19 9 34 20zM288 371q-103 0 -139 -111h238
q0 111 -99 111zM318 559l-64 -61h-64l104 108h57l76 -108h-65zM454 586h-50l73 145l83 -13z" />
    <glyph glyph-name="uni1EC0" unicode="&#x1ec0;" horiz-adv-x="544" 
d="M490 271h-300l-29 -206h351l-9 -65h-421l84 600h421l-9 -65h-351l-28 -199h300zM391 729l-64 -61h-64l104 108h57l76 -108h-65zM207 887l86 13l32 -145h-50z" />
    <glyph glyph-name="uni1EC1" unicode="&#x1ec1;" horiz-adv-x="457" 
d="M406 38q-16 -14 -39 -25q-20 -9 -49 -16.5t-68 -7.5q-88 0 -136 51.5t-48 135.5q0 53 17 99.5t48 81t73.5 54t92.5 19.5q45 0 77.5 -16t51.5 -44.5t26 -66.5t1 -82l-2 -17h-314q-9 -77 27 -116.5t98 -39.5q29 0 51.5 6t39.5 14q19 9 34 20zM288 371q-103 0 -139 -111h238
q0 111 -99 111zM318 559l-64 -61h-64l104 108h57l76 -108h-65zM131 718l86 13l32 -145h-50z" />
    <glyph glyph-name="uni1EC2" unicode="&#x1ec2;" horiz-adv-x="544" 
d="M490 271h-300l-29 -206h351l-9 -65h-421l84 600h421l-9 -65h-351l-28 -199h300zM394 729l-64 -61h-64l104 108h57l76 -108h-65zM430 885q14 12 25 16q8 4 20 7.5t27 3.5q33 0 53 -16t20 -44q0 -17 -6 -29t-10.5 -18t-11.5 -12t-11.5 -9t-8 -6t-4.5 -9l-5 -19h-40l3 27
q3 20 13.5 30t16.5 15t10 10t4 14q0 8 -6.5 13t-19.5 5q-9 0 -16.5 -2t-12.5 -5q-7 -2 -25 -15z" />
    <glyph glyph-name="uni1EC3" unicode="&#x1ec3;" horiz-adv-x="457" 
d="M406 38q-16 -14 -39 -25q-20 -9 -49 -16.5t-68 -7.5q-88 0 -136 51.5t-48 135.5q0 53 17 99.5t48 81t73.5 54t92.5 19.5q45 0 77.5 -16t51.5 -44.5t26 -66.5t1 -82l-2 -17h-314q-9 -77 27 -116.5t98 -39.5q29 0 51.5 6t39.5 14q19 9 34 20zM288 371q-103 0 -139 -111h238
q0 111 -99 111zM318 559l-64 -61h-64l104 108h57l76 -108h-65zM358 721q14 12 25 16q8 4 20 7.5t27 3.5q33 0 53 -16t20 -44q0 -17 -6 -29t-10.5 -18t-11.5 -12t-11.5 -9t-8 -6t-4.5 -9l-5 -19h-40l3 27q3 20 13.5 30t16.5 15t10 10t4 14q0 8 -6.5 13t-19.5 5q-9 0 -16.5 -2
t-12.5 -5q-7 -2 -25 -15z" />
    <glyph glyph-name="uni1EC4" unicode="&#x1ec4;" horiz-adv-x="544" 
d="M490 271h-300l-29 -206h351l-9 -65h-421l84 600h421l-9 -65h-351l-28 -199h300zM394 729l-64 -61h-64l104 108h57l76 -108h-65zM519 783q-23 0 -41.5 9t-34 20.5t-30.5 20.5t-31 9q-23 0 -33.5 -13.5t-18.5 -30.5l-7 -16l-48 6l9 26q11 32 33.5 57.5t64.5 25.5
q22 0 40 -9.5t34 -20.5t31 -20.5t32 -9.5q24 0 35.5 13.5t17.5 31.5l5 15l49 -5l-8 -25q-11 -33 -34 -58.5t-65 -25.5z" />
    <glyph glyph-name="uni1EC5" unicode="&#x1ec5;" horiz-adv-x="457" 
d="M406 38q-16 -14 -39 -25q-20 -9 -49 -16.5t-68 -7.5q-88 0 -136 51.5t-48 135.5q0 53 17 99.5t48 81t73.5 54t92.5 19.5q45 0 77.5 -16t51.5 -44.5t26 -66.5t1 -82l-2 -17h-314q-9 -77 27 -116.5t98 -39.5q29 0 51.5 6t39.5 14q19 9 34 20zM288 371q-103 0 -139 -111h238
q0 111 -99 111zM318 559l-64 -61h-64l104 108h57l76 -108h-65zM433 604q-23 0 -41.5 9t-34 20.5t-30.5 20.5t-31 9q-23 0 -33.5 -13.5t-18.5 -30.5l-7 -16l-48 6l9 26q11 32 33.5 57.5t64.5 25.5q22 0 40 -9.5t34 -20.5t31 -20.5t32 -9.5q24 0 35.5 13.5t17.5 31.5l5 15
l49 -5l-8 -25q-11 -33 -34 -58.5t-65 -25.5z" />
    <glyph glyph-name="uni1EC6" unicode="&#x1ec6;" horiz-adv-x="544" 
d="M490 271h-300l-29 -206h351l-9 -65h-421l84 600h421l-9 -65h-351l-28 -199h300zM394 729l-64 -61h-64l104 108h57l76 -108h-65zM219 -132q0 23 17 39.5t38 16.5q19 0 31 -12.5t12 -31.5q0 -23 -16.5 -39t-39.5 -16q-18 0 -30 12.5t-12 30.5z" />
    <glyph glyph-name="uni1EC7" unicode="&#x1ec7;" horiz-adv-x="457" 
d="M406 38q-16 -14 -39 -25q-20 -9 -49 -16.5t-68 -7.5q-88 0 -136 51.5t-48 135.5q0 53 17 99.5t48 81t73.5 54t92.5 19.5q45 0 77.5 -16t51.5 -44.5t26 -66.5t1 -82l-2 -17h-314q-9 -77 27 -116.5t98 -39.5q29 0 51.5 6t39.5 14q19 9 34 20zM288 371q-103 0 -139 -111h238
q0 111 -99 111zM318 559l-64 -61h-64l104 108h57l76 -108h-65zM157 -132q0 23 17 39.5t38 16.5q19 0 31 -12.5t12 -31.5q0 -23 -16.5 -39t-39.5 -16q-18 0 -30 12.5t-12 30.5z" />
    <glyph glyph-name="uni1EC8" unicode="&#x1ec8;" horiz-adv-x="234" 
d="M152 0h-70l84 600h70zM141 803q14 12 25 16q8 4 20 7.5t27 3.5q33 0 53 -16t20 -44q0 -17 -6 -29t-10.5 -18t-11.5 -12t-11.5 -9t-8 -6t-4.5 -9l-5 -19h-40l3 27q3 20 13.5 30t16.5 15t10 10t4 14q0 8 -6.5 13t-19.5 5q-9 0 -16.5 -2t-12.5 -5q-7 -2 -25 -15z" />
    <glyph glyph-name="uni1EC9" unicode="&#x1ec9;" horiz-adv-x="207" 
d="M128 420h69l-59 -420h-69zM99 633q14 12 25 16q8 4 20 7.5t27 3.5q33 0 53 -16t20 -44q0 -17 -6 -29t-10.5 -18t-11.5 -12t-11.5 -9t-8 -6t-4.5 -9l-5 -19h-40l3 27q3 20 13.5 30t16.5 15t10 10t4 14q0 8 -6.5 13t-19.5 5q-9 0 -16.5 -2t-12.5 -5q-7 -2 -25 -15z" />
    <glyph glyph-name="uni1ECA" unicode="&#x1eca;" horiz-adv-x="234" 
d="M152 0h-70l84 600h70zM44 -132q0 23 17 39.5t38 16.5q19 0 31 -12.5t12 -31.5q0 -23 -16.5 -39t-39.5 -16q-18 0 -30 12.5t-12 30.5z" />
    <glyph glyph-name="uni1ECB" unicode="&#x1ecb;" horiz-adv-x="207" 
d="M175 512q-18 0 -29.5 11.5t-11.5 29.5q0 21 16.5 36.5t37.5 15.5q18 0 29.5 -12t11.5 -30q0 -21 -16.5 -36t-37.5 -15zM128 420h69l-59 -420h-69zM30 -132q0 23 17 39.5t38 16.5q19 0 31 -12.5t12 -31.5q0 -23 -16.5 -39t-39.5 -16q-18 0 -30 12.5t-12 30.5z" />
    <glyph glyph-name="uni1ECC" unicode="&#x1ecc;" horiz-adv-x="677" 
d="M336 -14q-61 0 -108.5 20.5t-80.5 57t-50 86t-17 106.5q0 73 25.5 138t71.5 114t109 77t138 28q61 0 109 -20.5t81 -56.5t50 -85.5t17 -107.5q0 -73 -25.5 -138t-71.5 -113.5t-109 -77t-139 -28.5zM345 53q58 0 106.5 23t83.5 61.5t54.5 89.5t19.5 107q0 44 -13 83
t-37.5 68t-61 45.5t-82.5 16.5q-58 0 -106 -23t-82.5 -62t-54 -90t-19.5 -108q0 -44 12.5 -82.5t37 -67t60.5 -45t82 -16.5zM265 -132q0 23 17 39.5t38 16.5q19 0 31 -12.5t12 -31.5q0 -23 -16.5 -39t-39.5 -16q-18 0 -30 12.5t-12 30.5z" />
    <glyph glyph-name="uni1ECD" unicode="&#x1ecd;" horiz-adv-x="501" 
d="M494 238q0 -56 -20.5 -102t-54 -78.5t-78 -50t-92.5 -17.5q-40 0 -73.5 13t-58 37.5t-38 59t-13.5 77.5q0 57 20 103.5t54 79.5t78.5 51.5t92.5 18.5q39 0 72.5 -13.5t58 -39t38.5 -61t14 -78.5zM257 46q32 0 62.5 13t54 37.5t37.5 59t14 78.5q0 65 -35 102.5t-87 37.5
q-32 0 -62.5 -13.5t-54 -38.5t-37.5 -60t-14 -78q0 -65 35 -101.5t87 -36.5zM178 -132q0 23 17 39.5t38 16.5q19 0 31 -12.5t12 -31.5q0 -23 -16.5 -39t-39.5 -16q-18 0 -30 12.5t-12 30.5z" />
    <glyph glyph-name="uni1ECE" unicode="&#x1ece;" horiz-adv-x="677" 
d="M336 -14q-61 0 -108.5 20.5t-80.5 57t-50 86t-17 106.5q0 73 25.5 138t71.5 114t109 77t138 28q61 0 109 -20.5t81 -56.5t50 -85.5t17 -107.5q0 -73 -25.5 -138t-71.5 -113.5t-109 -77t-139 -28.5zM345 53q58 0 106.5 23t83.5 61.5t54.5 89.5t19.5 107q0 44 -13 83
t-37.5 68t-61 45.5t-82.5 16.5q-58 0 -106 -23t-82.5 -62t-54 -90t-19.5 -108q0 -44 12.5 -82.5t37 -67t60.5 -45t82 -16.5zM371 803q14 12 25 16q8 4 20 7.5t27 3.5q33 0 53 -16t20 -44q0 -17 -6 -29t-10.5 -18t-11.5 -12t-11.5 -9t-8 -6t-4.5 -9l-5 -19h-40l3 27
q3 20 13.5 30t16.5 15t10 10t4 14q0 8 -6.5 13t-19.5 5q-9 0 -16.5 -2t-12.5 -5q-7 -2 -25 -15z" />
    <glyph glyph-name="uni1ECF" unicode="&#x1ecf;" horiz-adv-x="501" 
d="M494 238q0 -56 -20.5 -102t-54 -78.5t-78 -50t-92.5 -17.5q-40 0 -73.5 13t-58 37.5t-38 59t-13.5 77.5q0 57 20 103.5t54 79.5t78.5 51.5t92.5 18.5q39 0 72.5 -13.5t58 -39t38.5 -61t14 -78.5zM257 46q32 0 62.5 13t54 37.5t37.5 59t14 78.5q0 65 -35 102.5t-87 37.5
q-32 0 -62.5 -13.5t-54 -38.5t-37.5 -60t-14 -78q0 -65 35 -101.5t87 -36.5zM259 628q14 12 25 16q8 4 20 7.5t27 3.5q33 0 53 -16t20 -44q0 -17 -6 -29t-10.5 -18t-11.5 -12t-11.5 -9t-8 -6t-4.5 -9l-5 -19h-40l3 27q3 20 13.5 30t16.5 15t10 10t4 14q0 8 -6.5 13t-19.5 5
q-9 0 -16.5 -2t-12.5 -5q-7 -2 -25 -15z" />
    <glyph glyph-name="uni1ED0" unicode="&#x1ed0;" horiz-adv-x="677" 
d="M336 -14q-61 0 -108.5 20.5t-80.5 57t-50 86t-17 106.5q0 73 25.5 138t71.5 114t109 77t138 28q61 0 109 -20.5t81 -56.5t50 -85.5t17 -107.5q0 -73 -25.5 -138t-71.5 -113.5t-109 -77t-139 -28.5zM345 53q58 0 106.5 23t83.5 61.5t54.5 89.5t19.5 107q0 44 -13 83
t-37.5 68t-61 45.5t-82.5 16.5q-58 0 -106 -23t-82.5 -62t-54 -90t-19.5 -108q0 -44 12.5 -82.5t37 -67t60.5 -45t82 -16.5zM453 730l-64 -61h-64l104 108h57l76 -108h-65zM574 751h-50l73 145l83 -13z" />
    <glyph glyph-name="uni1ED1" unicode="&#x1ed1;" horiz-adv-x="501" 
d="M494 238q0 -56 -20.5 -102t-54 -78.5t-78 -50t-92.5 -17.5q-40 0 -73.5 13t-58 37.5t-38 59t-13.5 77.5q0 57 20 103.5t54 79.5t78.5 51.5t92.5 18.5q39 0 72.5 -13.5t58 -39t38.5 -61t14 -78.5zM257 46q32 0 62.5 13t54 37.5t37.5 59t14 78.5q0 65 -35 102.5t-87 37.5
q-32 0 -62.5 -13.5t-54 -38.5t-37.5 -60t-14 -78q0 -65 35 -101.5t87 -36.5zM338 559l-64 -61h-64l104 108h57l76 -108h-65zM477 586h-50l73 145l83 -13z" />
    <glyph glyph-name="uni1ED2" unicode="&#x1ed2;" horiz-adv-x="677" 
d="M336 -14q-61 0 -108.5 20.5t-80.5 57t-50 86t-17 106.5q0 73 25.5 138t71.5 114t109 77t138 28q61 0 109 -20.5t81 -56.5t50 -85.5t17 -107.5q0 -73 -25.5 -138t-71.5 -113.5t-109 -77t-139 -28.5zM345 53q58 0 106.5 23t83.5 61.5t54.5 89.5t19.5 107q0 44 -13 83
t-37.5 68t-61 45.5t-82.5 16.5q-58 0 -106 -23t-82.5 -62t-54 -90t-19.5 -108q0 -44 12.5 -82.5t37 -67t60.5 -45t82 -16.5zM452 729l-64 -61h-64l104 108h57l76 -108h-65zM268 887l86 13l32 -145h-50z" />
    <glyph glyph-name="uni1ED3" unicode="&#x1ed3;" horiz-adv-x="501" 
d="M494 238q0 -56 -20.5 -102t-54 -78.5t-78 -50t-92.5 -17.5q-40 0 -73.5 13t-58 37.5t-38 59t-13.5 77.5q0 57 20 103.5t54 79.5t78.5 51.5t92.5 18.5q39 0 72.5 -13.5t58 -39t38.5 -61t14 -78.5zM257 46q32 0 62.5 13t54 37.5t37.5 59t14 78.5q0 65 -35 102.5t-87 37.5
q-32 0 -62.5 -13.5t-54 -38.5t-37.5 -60t-14 -78q0 -65 35 -101.5t87 -36.5zM338 559l-64 -61h-64l104 108h57l76 -108h-65zM131 718l86 13l32 -145h-50z" />
    <glyph glyph-name="uni1ED4" unicode="&#x1ed4;" horiz-adv-x="677" 
d="M336 -14q-61 0 -108.5 20.5t-80.5 57t-50 86t-17 106.5q0 73 25.5 138t71.5 114t109 77t138 28q61 0 109 -20.5t81 -56.5t50 -85.5t17 -107.5q0 -73 -25.5 -138t-71.5 -113.5t-109 -77t-139 -28.5zM345 53q58 0 106.5 23t83.5 61.5t54.5 89.5t19.5 107q0 44 -13 83
t-37.5 68t-61 45.5t-82.5 16.5q-58 0 -106 -23t-82.5 -62t-54 -90t-19.5 -108q0 -44 12.5 -82.5t37 -67t60.5 -45t82 -16.5zM453 729l-64 -61h-64l104 108h57l76 -108h-65zM489 885q14 12 25 16q8 4 20 7.5t27 3.5q33 0 53 -16t20 -44q0 -17 -6 -29t-10.5 -18t-11.5 -12
t-11.5 -9t-8 -6t-4.5 -9l-5 -19h-40l3 27q3 20 13.5 30t16.5 15t10 10t4 14q0 8 -6.5 13t-19.5 5q-9 0 -16.5 -2t-12.5 -5q-7 -2 -25 -15z" />
    <glyph glyph-name="uni1ED5" unicode="&#x1ed5;" horiz-adv-x="501" 
d="M494 238q0 -56 -20.5 -102t-54 -78.5t-78 -50t-92.5 -17.5q-40 0 -73.5 13t-58 37.5t-38 59t-13.5 77.5q0 57 20 103.5t54 79.5t78.5 51.5t92.5 18.5q39 0 72.5 -13.5t58 -39t38.5 -61t14 -78.5zM257 46q32 0 62.5 13t54 37.5t37.5 59t14 78.5q0 65 -35 102.5t-87 37.5
q-32 0 -62.5 -13.5t-54 -38.5t-37.5 -60t-14 -78q0 -65 35 -101.5t87 -36.5zM338 559l-64 -61h-64l104 108h57l76 -108h-65zM379 721q14 12 25 16q8 4 20 7.5t27 3.5q33 0 53 -16t20 -44q0 -17 -6 -29t-10.5 -18t-11.5 -12t-11.5 -9t-8 -6t-4.5 -9l-5 -19h-40l3 27
q3 20 13.5 30t16.5 15t10 10t4 14q0 8 -6.5 13t-19.5 5q-9 0 -16.5 -2t-12.5 -5q-7 -2 -25 -15z" />
    <glyph glyph-name="uni1ED6" unicode="&#x1ed6;" horiz-adv-x="677" 
d="M336 -14q-61 0 -108.5 20.5t-80.5 57t-50 86t-17 106.5q0 73 25.5 138t71.5 114t109 77t138 28q61 0 109 -20.5t81 -56.5t50 -85.5t17 -107.5q0 -73 -25.5 -138t-71.5 -113.5t-109 -77t-139 -28.5zM345 53q58 0 106.5 23t83.5 61.5t54.5 89.5t19.5 107q0 44 -13 83
t-37.5 68t-61 45.5t-82.5 16.5q-58 0 -106 -23t-82.5 -62t-54 -90t-19.5 -108q0 -44 12.5 -82.5t37 -67t60.5 -45t82 -16.5zM453 729l-64 -61h-64l104 108h57l76 -108h-65zM578 783q-23 0 -41.5 9t-34 20.5t-30.5 20.5t-31 9q-23 0 -33.5 -13.5t-18.5 -30.5l-7 -16l-48 6
l9 26q11 32 33.5 57.5t64.5 25.5q22 0 40 -9.5t34 -20.5t31 -20.5t32 -9.5q24 0 35.5 13.5t17.5 31.5l5 15l49 -5l-8 -25q-11 -33 -34 -58.5t-65 -25.5z" />
    <glyph glyph-name="uni1ED7" unicode="&#x1ed7;" horiz-adv-x="501" 
d="M494 238q0 -56 -20.5 -102t-54 -78.5t-78 -50t-92.5 -17.5q-40 0 -73.5 13t-58 37.5t-38 59t-13.5 77.5q0 57 20 103.5t54 79.5t78.5 51.5t92.5 18.5q39 0 72.5 -13.5t58 -39t38.5 -61t14 -78.5zM257 46q32 0 62.5 13t54 37.5t37.5 59t14 78.5q0 65 -35 102.5t-87 37.5
q-32 0 -62.5 -13.5t-54 -38.5t-37.5 -60t-14 -78q0 -65 35 -101.5t87 -36.5zM338 559l-64 -61h-64l104 108h57l76 -108h-65zM463 619q-23 0 -41.5 9t-34 20.5t-30.5 20.5t-31 9q-23 0 -33.5 -13.5t-18.5 -30.5l-7 -16l-48 6l9 26q11 32 33.5 57.5t64.5 25.5q22 0 40 -9.5
t34 -20.5t31 -20.5t32 -9.5q24 0 35.5 13.5t17.5 31.5l5 15l49 -5l-8 -25q-11 -33 -34 -58.5t-65 -25.5z" />
    <glyph glyph-name="uni1ED8" unicode="&#x1ed8;" horiz-adv-x="677" 
d="M336 -14q-61 0 -108.5 20.5t-80.5 57t-50 86t-17 106.5q0 73 25.5 138t71.5 114t109 77t138 28q61 0 109 -20.5t81 -56.5t50 -85.5t17 -107.5q0 -73 -25.5 -138t-71.5 -113.5t-109 -77t-139 -28.5zM345 53q58 0 106.5 23t83.5 61.5t54.5 89.5t19.5 107q0 44 -13 83
t-37.5 68t-61 45.5t-82.5 16.5q-58 0 -106 -23t-82.5 -62t-54 -90t-19.5 -108q0 -44 12.5 -82.5t37 -67t60.5 -45t82 -16.5zM457 729l-64 -61h-64l104 108h57l76 -108h-65zM265 -132q0 23 17 39.5t38 16.5q19 0 31 -12.5t12 -31.5q0 -23 -16.5 -39t-39.5 -16q-18 0 -30 12.5
t-12 30.5z" />
    <glyph glyph-name="uni1ED9" unicode="&#x1ed9;" horiz-adv-x="501" 
d="M494 238q0 -56 -20.5 -102t-54 -78.5t-78 -50t-92.5 -17.5q-40 0 -73.5 13t-58 37.5t-38 59t-13.5 77.5q0 57 20 103.5t54 79.5t78.5 51.5t92.5 18.5q39 0 72.5 -13.5t58 -39t38.5 -61t14 -78.5zM257 46q32 0 62.5 13t54 37.5t37.5 59t14 78.5q0 65 -35 102.5t-87 37.5
q-32 0 -62.5 -13.5t-54 -38.5t-37.5 -60t-14 -78q0 -65 35 -101.5t87 -36.5zM338 559l-64 -61h-64l104 108h57l76 -108h-65zM178 -132q0 23 17 39.5t38 16.5q19 0 31 -12.5t12 -31.5q0 -23 -16.5 -39t-39.5 -16q-18 0 -30 12.5t-12 30.5z" />
    <glyph glyph-name="uni1EDB" unicode="&#x1edb;" horiz-adv-x="501" 
d="M257 46q32 0 62.5 13t54 37.5t37.5 59t14 78.5q0 65 -35 102.5t-87 37.5q-32 0 -62.5 -13.5t-54 -38.5t-37.5 -60t-14 -78q0 -65 35 -101.5t87 -36.5zM441 378h1q24 -26 38 -61.5t14 -78.5q0 -56 -20.5 -102t-54 -78.5t-78 -50t-92.5 -17.5q-40 0 -73.5 13t-58 37.5
t-38 59t-13.5 77.5q0 57 20 103.5t54 79.5t78.5 51.5t92.5 18.5q37 0 69 -12q38 1 67 25t37 62h60q-13 -61 -63 -102q-19 -15 -40 -25zM333 498h-50l73 145l83 -13z" />
    <glyph glyph-name="uni1EDA" unicode="&#x1eda;" horiz-adv-x="677" 
d="M345 53q58 0 106.5 23t83.5 61.5t54.5 89.5t19.5 107q0 44 -13 83t-37.5 68t-61 45.5t-82.5 16.5q-58 0 -106 -23t-82.5 -62t-54 -90t-19.5 -108q0 -44 12.5 -82.5t37 -67t60.5 -45t82 -16.5zM587 561q14 -11 27 -25q33 -36 50 -85.5t17 -107.5q0 -73 -25.5 -138
t-71.5 -113.5t-109 -77t-139 -28.5q-61 0 -108.5 20.5t-80.5 57t-50 86t-17 106.5q0 73 25.5 138t71.5 114t109 77t138 28q52 0 95 -15q38 1 67 25t37 62h60q-13 -61 -63 -102q-16 -13 -33 -22zM440 668h-50l73 145l83 -13z" />
    <glyph glyph-name="uni1EDC" unicode="&#x1edc;" horiz-adv-x="677" 
d="M345 53q58 0 106.5 23t83.5 61.5t54.5 89.5t19.5 107q0 44 -13 83t-37.5 68t-61 45.5t-82.5 16.5q-58 0 -106 -23t-82.5 -62t-54 -90t-19.5 -108q0 -44 12.5 -82.5t37 -67t60.5 -45t82 -16.5zM587 561q14 -11 27 -25q33 -36 50 -85.5t17 -107.5q0 -73 -25.5 -138
t-71.5 -113.5t-109 -77t-139 -28.5q-61 0 -108.5 20.5t-80.5 57t-50 86t-17 106.5q0 73 25.5 138t71.5 114t109 77t138 28q52 0 95 -15q38 1 67 25t37 62h60q-13 -61 -63 -102q-16 -13 -33 -22zM368 800l86 13l32 -145h-50z" />
    <glyph glyph-name="uni1EDE" unicode="&#x1ede;" horiz-adv-x="677" 
d="M345 53q58 0 106.5 23t83.5 61.5t54.5 89.5t19.5 107q0 44 -13 83t-37.5 68t-61 45.5t-82.5 16.5q-58 0 -106 -23t-82.5 -62t-54 -90t-19.5 -108q0 -44 12.5 -82.5t37 -67t60.5 -45t82 -16.5zM587 561q14 -11 27 -25q33 -36 50 -85.5t17 -107.5q0 -73 -25.5 -138
t-71.5 -113.5t-109 -77t-139 -28.5q-61 0 -108.5 20.5t-80.5 57t-50 86t-17 106.5q0 73 25.5 138t71.5 114t109 77t138 28q52 0 95 -15q38 1 67 25t37 62h60q-13 -61 -63 -102q-16 -13 -33 -22zM352 803q14 12 25 16q8 4 20 7.5t27 3.5q33 0 53 -16t20 -44q0 -17 -6 -29
t-10.5 -18t-11.5 -12t-11.5 -9t-8 -6t-4.5 -9l-5 -19h-40l3 27q3 20 13.5 30t16.5 15t10 10t4 14q0 8 -6.5 13t-19.5 5q-9 0 -16.5 -2t-12.5 -5q-7 -2 -25 -15z" />
    <glyph glyph-name="uni1EDF" unicode="&#x1edf;" horiz-adv-x="501" 
d="M257 46q32 0 62.5 13t54 37.5t37.5 59t14 78.5q0 65 -35 102.5t-87 37.5q-32 0 -62.5 -13.5t-54 -38.5t-37.5 -60t-14 -78q0 -65 35 -101.5t87 -36.5zM441 378h1q24 -26 38 -61.5t14 -78.5q0 -56 -20.5 -102t-54 -78.5t-78 -50t-92.5 -17.5q-40 0 -73.5 13t-58 37.5
t-38 59t-13.5 77.5q0 57 20 103.5t54 79.5t78.5 51.5t92.5 18.5q37 0 69 -12q38 1 67 25t37 62h60q-13 -61 -63 -102q-19 -15 -40 -25zM253 633q14 12 25 16q8 4 20 7.5t27 3.5q33 0 53 -16t20 -44q0 -17 -6 -29t-10.5 -18t-11.5 -12t-11.5 -9t-8 -6t-4.5 -9l-5 -19h-40
l3 27q3 20 13.5 30t16.5 15t10 10t4 14q0 8 -6.5 13t-19.5 5q-9 0 -16.5 -2t-12.5 -5q-7 -2 -25 -15z" />
    <glyph glyph-name="uni1EE0" unicode="&#x1ee0;" horiz-adv-x="677" 
d="M345 53q58 0 106.5 23t83.5 61.5t54.5 89.5t19.5 107q0 44 -13 83t-37.5 68t-61 45.5t-82.5 16.5q-58 0 -106 -23t-82.5 -62t-54 -90t-19.5 -108q0 -44 12.5 -82.5t37 -67t60.5 -45t82 -16.5zM587 561q14 -11 27 -25q33 -36 50 -85.5t17 -107.5q0 -73 -25.5 -138
t-71.5 -113.5t-109 -77t-139 -28.5q-61 0 -108.5 20.5t-80.5 57t-50 86t-17 106.5q0 73 25.5 138t71.5 114t109 77t138 28q52 0 95 -15q38 1 67 25t37 62h60q-13 -61 -63 -102q-16 -13 -33 -22zM490 669q-23 0 -41.5 9t-34 20.5t-30.5 20.5t-31 9q-23 0 -33.5 -13.5
t-18.5 -30.5l-7 -16l-48 6l9 26q11 32 33.5 57.5t64.5 25.5q22 0 40 -9.5t34 -20.5t31 -20.5t32 -9.5q24 0 35.5 13.5t17.5 31.5l5 15l49 -5l-8 -25q-11 -33 -34 -58.5t-65 -25.5z" />
    <glyph glyph-name="uni1EE1" unicode="&#x1ee1;" horiz-adv-x="501" 
d="M257 46q32 0 62.5 13t54 37.5t37.5 59t14 78.5q0 65 -35 102.5t-87 37.5q-32 0 -62.5 -13.5t-54 -38.5t-37.5 -60t-14 -78q0 -65 35 -101.5t87 -36.5zM441 378h1q24 -26 38 -61.5t14 -78.5q0 -56 -20.5 -102t-54 -78.5t-78 -50t-92.5 -17.5q-40 0 -73.5 13t-58 37.5
t-38 59t-13.5 77.5q0 57 20 103.5t54 79.5t78.5 51.5t92.5 18.5q37 0 69 -12q38 1 67 25t37 62h60q-13 -61 -63 -102q-19 -15 -40 -25zM383 499q-23 0 -41.5 9t-34 20.5t-30.5 20.5t-31 9q-23 0 -33.5 -13.5t-18.5 -30.5l-7 -16l-48 6l9 26q11 32 33.5 57.5t64.5 25.5
q22 0 40 -9.5t34 -20.5t31 -20.5t32 -9.5q24 0 35.5 13.5t17.5 31.5l5 15l49 -5l-8 -25q-11 -33 -34 -58.5t-65 -25.5z" />
    <glyph glyph-name="uni1EE2" unicode="&#x1ee2;" horiz-adv-x="677" 
d="M345 53q58 0 106.5 23t83.5 61.5t54.5 89.5t19.5 107q0 44 -13 83t-37.5 68t-61 45.5t-82.5 16.5q-58 0 -106 -23t-82.5 -62t-54 -90t-19.5 -108q0 -44 12.5 -82.5t37 -67t60.5 -45t82 -16.5zM587 561q14 -11 27 -25q33 -36 50 -85.5t17 -107.5q0 -73 -25.5 -138
t-71.5 -113.5t-109 -77t-139 -28.5q-61 0 -108.5 20.5t-80.5 57t-50 86t-17 106.5q0 73 25.5 138t71.5 114t109 77t138 28q52 0 95 -15q38 1 67 25t37 62h60q-13 -61 -63 -102q-16 -13 -33 -22zM265 -132q0 23 17 39.5t38 16.5q19 0 31 -12.5t12 -31.5q0 -23 -16.5 -39
t-39.5 -16q-18 0 -30 12.5t-12 30.5z" />
    <glyph glyph-name="uni1EE3" unicode="&#x1ee3;" horiz-adv-x="501" 
d="M257 46q32 0 62.5 13t54 37.5t37.5 59t14 78.5q0 65 -35 102.5t-87 37.5q-32 0 -62.5 -13.5t-54 -38.5t-37.5 -60t-14 -78q0 -65 35 -101.5t87 -36.5zM441 378h1q24 -26 38 -61.5t14 -78.5q0 -56 -20.5 -102t-54 -78.5t-78 -50t-92.5 -17.5q-40 0 -73.5 13t-58 37.5
t-38 59t-13.5 77.5q0 57 20 103.5t54 79.5t78.5 51.5t92.5 18.5q37 0 69 -12q38 1 67 25t37 62h60q-13 -61 -63 -102q-19 -15 -40 -25zM175 -132q0 23 17 39.5t38 16.5q19 0 31 -12.5t12 -31.5q0 -23 -16.5 -39t-39.5 -16q-18 0 -30 12.5t-12 30.5z" />
    <glyph glyph-name="uni1EE4" unicode="&#x1ee4;" horiz-adv-x="630" 
d="M313 -14q-57 0 -99 19.5t-68 54.5t-35.5 83.5t-1.5 107.5l49 349h70l-49 -349q-6 -43 -0.5 -79.5t23 -63t47.5 -41.5t73 -15t77.5 15t59.5 41.5t40.5 63t21.5 79.5l49 349h70l-49 -349q-8 -59 -31 -107.5t-58.5 -83.5t-83 -54.5t-105.5 -19.5zM242 -132q0 23 17 39.5
t38 16.5q19 0 31 -12.5t12 -31.5q0 -23 -16.5 -39t-39.5 -16q-18 0 -30 12.5t-12 30.5z" />
    <glyph glyph-name="uni1EE5" unicode="&#x1ee5;" horiz-adv-x="507" 
d="M440 0h-44l-3 60h-3q-3 -5 -14 -16.5t-30.5 -23.5t-48 -21t-66.5 -9q-41 0 -71 14t-48 39.5t-24 61t0 78.5l33 237h69l-32 -229q-4 -30 -1 -56.5t14.5 -45.5t31.5 -30t50 -11q32 0 57 11.5t43 29.5t28.5 39t13.5 39l35 253h69zM178 -132q0 23 17 39.5t38 16.5
q19 0 31 -12.5t12 -31.5q0 -23 -16.5 -39t-39.5 -16q-18 0 -30 12.5t-12 30.5z" />
    <glyph glyph-name="uni1EE6" unicode="&#x1ee6;" horiz-adv-x="630" 
d="M313 -14q-57 0 -99 19.5t-68 54.5t-35.5 83.5t-1.5 107.5l49 349h70l-49 -349q-6 -43 -0.5 -79.5t23 -63t47.5 -41.5t73 -15t77.5 15t59.5 41.5t40.5 63t21.5 79.5l49 349h70l-49 -349q-8 -59 -31 -107.5t-58.5 -83.5t-83 -54.5t-105.5 -19.5zM325 803q14 12 25 16
q8 4 20 7.5t27 3.5q33 0 53 -16t20 -44q0 -17 -6 -29t-10.5 -18t-11.5 -12t-11.5 -9t-8 -6t-4.5 -9l-5 -19h-40l3 27q3 20 13.5 30t16.5 15t10 10t4 14q0 8 -6.5 13t-19.5 5q-9 0 -16.5 -2t-12.5 -5q-7 -2 -25 -15z" />
    <glyph glyph-name="uni1EE7" unicode="&#x1ee7;" horiz-adv-x="507" 
d="M440 0h-44l-3 60h-3q-3 -5 -14 -16.5t-30.5 -23.5t-48 -21t-66.5 -9q-41 0 -71 14t-48 39.5t-24 61t0 78.5l33 237h69l-32 -229q-4 -30 -1 -56.5t14.5 -45.5t31.5 -30t50 -11q32 0 57 11.5t43 29.5t28.5 39t13.5 39l35 253h69zM259 628q14 12 25 16q8 4 20 7.5t27 3.5
q33 0 53 -16t20 -44q0 -17 -6 -29t-10.5 -18t-11.5 -12t-11.5 -9t-8 -6t-4.5 -9l-5 -19h-40l3 27q3 20 13.5 30t16.5 15t10 10t4 14q0 8 -6.5 13t-19.5 5q-9 0 -16.5 -2t-12.5 -5q-7 -2 -25 -15z" />
    <glyph glyph-name="uni1EE8" unicode="&#x1ee8;" horiz-adv-x="630" 
d="M634 554l-43 -303q-8 -59 -31 -107.5t-58.5 -83.5t-83 -54.5t-105.5 -19.5q-57 0 -99 19.5t-68 54.5t-35.5 83.5t-1.5 107.5l49 349h70l-49 -349q-6 -43 -0.5 -79.5t23 -63t47.5 -41.5t73 -15t77.5 15t59.5 41.5t40.5 63t21.5 79.5l49 349h30q27 5 49 23q29 24 37 62h60
q-13 -61 -63 -102q-23 -19 -49 -29zM428 668h-50l73 145l83 -13z" />
    <glyph glyph-name="uni1EE9" unicode="&#x1ee9;" horiz-adv-x="507" 
d="M493 375l-53 -375h-44l-3 60h-3q-3 -5 -14 -16.5t-30.5 -23.5t-48 -21t-66.5 -9q-41 0 -71 14t-48 39.5t-24 61t0 78.5l33 237h69l-32 -229q-4 -30 -1 -56.5t14.5 -45.5t31.5 -30t50 -11q32 0 57 11.5t43 29.5t28.5 39t13.5 39l35 253h28q27 5 49 23q29 24 37 62h60
q-13 -61 -63 -102q-23 -18 -48 -28zM337 497h-50l73 145l83 -13z" />
    <glyph glyph-name="uni1EEA" unicode="&#x1eea;" horiz-adv-x="630" 
d="M634 554l-43 -303q-8 -59 -31 -107.5t-58.5 -83.5t-83 -54.5t-105.5 -19.5q-57 0 -99 19.5t-68 54.5t-35.5 83.5t-1.5 107.5l49 349h70l-49 -349q-6 -43 -0.5 -79.5t23 -63t47.5 -41.5t73 -15t77.5 15t59.5 41.5t40.5 63t21.5 79.5l49 349h30q27 5 49 23q29 24 37 62h60
q-13 -61 -63 -102q-23 -19 -49 -29zM325 800l86 13l32 -145h-50z" />
    <glyph glyph-name="uni1EEB" unicode="&#x1eeb;" horiz-adv-x="507" 
d="M493 375l-53 -375h-44l-3 60h-3q-3 -5 -14 -16.5t-30.5 -23.5t-48 -21t-66.5 -9q-41 0 -71 14t-48 39.5t-24 61t0 78.5l33 237h69l-32 -229q-4 -30 -1 -56.5t14.5 -45.5t31.5 -30t50 -11q32 0 57 11.5t43 29.5t28.5 39t13.5 39l35 253h28q27 5 49 23q29 24 37 62h60
q-13 -61 -63 -102q-23 -18 -48 -28zM230 629l86 13l32 -145h-50z" />
    <glyph glyph-name="uni1EEC" unicode="&#x1eec;" horiz-adv-x="630" 
d="M634 554l-43 -303q-8 -59 -31 -107.5t-58.5 -83.5t-83 -54.5t-105.5 -19.5q-57 0 -99 19.5t-68 54.5t-35.5 83.5t-1.5 107.5l49 349h70l-49 -349q-6 -43 -0.5 -79.5t23 -63t47.5 -41.5t73 -15t77.5 15t59.5 41.5t40.5 63t21.5 79.5l49 349h30q27 5 49 23q29 24 37 62h60
q-13 -61 -63 -102q-23 -19 -49 -29zM325 803q14 12 25 16q8 4 20 7.5t27 3.5q33 0 53 -16t20 -44q0 -17 -6 -29t-10.5 -18t-11.5 -12t-11.5 -9t-8 -6t-4.5 -9l-5 -19h-40l3 27q3 20 13.5 30t16.5 15t10 10t4 14q0 8 -6.5 13t-19.5 5q-9 0 -16.5 -2t-12.5 -5q-7 -2 -25 -15z
" />
    <glyph glyph-name="uni1EED" unicode="&#x1eed;" horiz-adv-x="507" 
d="M493 375l-53 -375h-44l-3 60h-3q-3 -5 -14 -16.5t-30.5 -23.5t-48 -21t-66.5 -9q-41 0 -71 14t-48 39.5t-24 61t0 78.5l33 237h69l-32 -229q-4 -30 -1 -56.5t14.5 -45.5t31.5 -30t50 -11q32 0 57 11.5t43 29.5t28.5 39t13.5 39l35 253h28q27 5 49 23q29 24 37 62h60
q-13 -61 -63 -102q-23 -18 -48 -28zM267 628q14 12 25 16q8 4 20 7.5t27 3.5q33 0 53 -16t20 -44q0 -17 -6 -29t-10.5 -18t-11.5 -12t-11.5 -9t-8 -6t-4.5 -9l-5 -19h-40l3 27q3 20 13.5 30t16.5 15t10 10t4 14q0 8 -6.5 13t-19.5 5q-9 0 -16.5 -2t-12.5 -5q-7 -2 -25 -15z
" />
    <glyph glyph-name="uni1EEE" unicode="&#x1eee;" horiz-adv-x="630" 
d="M634 554l-43 -303q-8 -59 -31 -107.5t-58.5 -83.5t-83 -54.5t-105.5 -19.5q-57 0 -99 19.5t-68 54.5t-35.5 83.5t-1.5 107.5l49 349h70l-49 -349q-6 -43 -0.5 -79.5t23 -63t47.5 -41.5t73 -15t77.5 15t59.5 41.5t40.5 63t21.5 79.5l49 349h30q27 5 49 23q29 24 37 62h60
q-13 -61 -63 -102q-23 -19 -49 -29zM492 669q-23 0 -41.5 9t-34 20.5t-30.5 20.5t-31 9q-23 0 -33.5 -13.5t-18.5 -30.5l-7 -16l-48 6l9 26q11 32 33.5 57.5t64.5 25.5q22 0 40 -9.5t34 -20.5t31 -20.5t32 -9.5q24 0 35.5 13.5t17.5 31.5l5 15l49 -5l-8 -25
q-11 -33 -34 -58.5t-65 -25.5z" />
    <glyph glyph-name="uni1EEF" unicode="&#x1eef;" horiz-adv-x="507" 
d="M493 375l-53 -375h-44l-3 60h-3q-3 -5 -14 -16.5t-30.5 -23.5t-48 -21t-66.5 -9q-41 0 -71 14t-48 39.5t-24 61t0 78.5l33 237h69l-32 -229q-4 -30 -1 -56.5t14.5 -45.5t31.5 -30t50 -11q32 0 57 11.5t43 29.5t28.5 39t13.5 39l35 253h28q27 5 49 23q29 24 37 62h60
q-13 -61 -63 -102q-23 -18 -48 -28zM396 499q-23 0 -41.5 9t-34 20.5t-30.5 20.5t-31 9q-23 0 -33.5 -13.5t-18.5 -30.5l-7 -16l-48 6l9 26q11 32 33.5 57.5t64.5 25.5q22 0 40 -9.5t34 -20.5t31 -20.5t32 -9.5q24 0 35.5 13.5t17.5 31.5l5 15l49 -5l-8 -25
q-11 -33 -34 -58.5t-65 -25.5z" />
    <glyph glyph-name="uni1EF0" unicode="&#x1ef0;" horiz-adv-x="630" 
d="M634 554l-43 -303q-8 -59 -31 -107.5t-58.5 -83.5t-83 -54.5t-105.5 -19.5q-57 0 -99 19.5t-68 54.5t-35.5 83.5t-1.5 107.5l49 349h70l-49 -349q-6 -43 -0.5 -79.5t23 -63t47.5 -41.5t73 -15t77.5 15t59.5 41.5t40.5 63t21.5 79.5l49 349h30q27 5 49 23q29 24 37 62h60
q-13 -61 -63 -102q-23 -19 -49 -29zM289 -132q0 23 17 39.5t38 16.5q19 0 31 -12.5t12 -31.5q0 -23 -16.5 -39t-39.5 -16q-18 0 -30 12.5t-12 30.5z" />
    <glyph glyph-name="uni1EF1" unicode="&#x1ef1;" horiz-adv-x="507" 
d="M493 375l-53 -375h-44l-3 60h-3q-3 -5 -14 -16.5t-30.5 -23.5t-48 -21t-66.5 -9q-41 0 -71 14t-48 39.5t-24 61t0 78.5l33 237h69l-32 -229q-4 -30 -1 -56.5t14.5 -45.5t31.5 -30t50 -11q32 0 57 11.5t43 29.5t28.5 39t13.5 39l35 253h28q27 5 49 23q29 24 37 62h60
q-13 -61 -63 -102q-23 -18 -48 -28zM191 -132q0 23 17 39.5t38 16.5q19 0 31 -12.5t12 -31.5q0 -23 -16.5 -39t-39.5 -16q-18 0 -30 12.5t-12 30.5z" />
    <glyph glyph-name="Ygrave" unicode="&#x1ef2;" horiz-adv-x="530" 
d="M524 600h81l-273 -370l-32 -230h-70l32 230l-169 370h82l118 -268l13 -38h2l24 38zM269 800l86 13l32 -145h-50z" />
    <glyph glyph-name="ygrave" unicode="&#x1ef3;" horiz-adv-x="504" 
d="M496 420l-57 -409q-6 -42 -23 -76.5t-44.5 -60t-65 -39.5t-84.5 -14q-46 0 -76 10t-49 22q-22 14 -34 33l45 47q11 -16 29 -27q15 -10 37 -18t54 -8q63 0 98 33.5t43 95.5l5 37q-8 -8 -20 -18t-29.5 -18.5t-39.5 -14t-49 -5.5q-44 0 -75.5 14t-50.5 39.5t-25 61t0 78.5
l33 237h69l-32 -229q-4 -30 -1 -56.5t14.5 -45.5t31.5 -30t50 -11q32 0 57 11.5t42.5 29.5t28 39t13.5 39l36 253h69zM207 630l86 13l32 -145h-50z" />
    <glyph glyph-name="uni1EF4" unicode="&#x1ef4;" horiz-adv-x="530" 
d="M524 600h81l-273 -370l-32 -230h-70l32 230l-169 370h82l118 -268l13 -38h2l24 38zM192 -132q0 23 17 39.5t38 16.5q19 0 31 -12.5t12 -31.5q0 -23 -16.5 -39t-39.5 -16q-18 0 -30 12.5t-12 30.5z" />
    <glyph glyph-name="uni1EF5" unicode="&#x1ef5;" horiz-adv-x="504" 
d="M496 420l-57 -409q-6 -42 -23 -76.5t-44.5 -60t-65 -39.5t-84.5 -14q-46 0 -76 10t-49 22q-22 14 -34 33l45 47q11 -16 29 -27q15 -10 37 -18t54 -8q63 0 98 33.5t43 95.5l5 37q-8 -8 -20 -18t-29.5 -18.5t-39.5 -14t-49 -5.5q-44 0 -75.5 14t-50.5 39.5t-25 61t0 78.5
l33 237h69l-32 -229q-4 -30 -1 -56.5t14.5 -45.5t31.5 -30t50 -11q32 0 57 11.5t42.5 29.5t28 39t13.5 39l36 253h69zM441 -132q0 23 17 39.5t38 16.5q19 0 31 -12.5t12 -31.5q0 -23 -16.5 -39t-39.5 -16q-18 0 -30 12.5t-12 30.5z" />
    <glyph glyph-name="uni1EF6" unicode="&#x1ef6;" horiz-adv-x="530" 
d="M524 600h81l-273 -370l-32 -230h-70l32 230l-169 370h82l118 -268l13 -38h2l24 38zM269 803q14 12 25 16q8 4 20 7.5t27 3.5q33 0 53 -16t20 -44q0 -17 -6 -29t-10.5 -18t-11.5 -12t-11.5 -9t-8 -6t-4.5 -9l-5 -19h-40l3 27q3 20 13.5 30t16.5 15t10 10t4 14q0 8 -6.5 13
t-19.5 5q-9 0 -16.5 -2t-12.5 -5q-7 -2 -25 -15z" />
    <glyph glyph-name="uni1EF7" unicode="&#x1ef7;" horiz-adv-x="504" 
d="M496 420l-57 -409q-6 -42 -23 -76.5t-44.5 -60t-65 -39.5t-84.5 -14q-46 0 -76 10t-49 22q-22 14 -34 33l45 47q11 -16 29 -27q15 -10 37 -18t54 -8q63 0 98 33.5t43 95.5l5 37q-8 -8 -20 -18t-29.5 -18.5t-39.5 -14t-49 -5.5q-44 0 -75.5 14t-50.5 39.5t-25 61t0 78.5
l33 237h69l-32 -229q-4 -30 -1 -56.5t14.5 -45.5t31.5 -30t50 -11q32 0 57 11.5t42.5 29.5t28 39t13.5 39l36 253h69zM226 633q14 12 25 16q8 4 20 7.5t27 3.5q33 0 53 -16t20 -44q0 -17 -6 -29t-10.5 -18t-11.5 -12t-11.5 -9t-8 -6t-4.5 -9l-5 -19h-40l3 27q3 20 13.5 30
t16.5 15t10 10t4 14q0 8 -6.5 13t-19.5 5q-9 0 -16.5 -2t-12.5 -5q-7 -2 -25 -15z" />
    <glyph glyph-name="uni1EF8" unicode="&#x1ef8;" horiz-adv-x="530" 
d="M524 600h81l-273 -370l-32 -230h-70l32 230l-169 370h82l118 -268l13 -38h2l24 38zM432 669q-23 0 -41.5 9t-34 20.5t-30.5 20.5t-31 9q-23 0 -33.5 -13.5t-18.5 -30.5l-7 -16l-48 6l9 26q11 32 33.5 57.5t64.5 25.5q22 0 40 -9.5t34 -20.5t31 -20.5t32 -9.5
q24 0 35.5 13.5t17.5 31.5l5 15l49 -5l-8 -25q-11 -33 -34 -58.5t-65 -25.5z" />
    <glyph glyph-name="uni1EF9" unicode="&#x1ef9;" horiz-adv-x="504" 
d="M496 420l-57 -409q-6 -42 -23 -76.5t-44.5 -60t-65 -39.5t-84.5 -14q-46 0 -76 10t-49 22q-22 14 -34 33l45 47q11 -16 29 -27q15 -10 37 -18t54 -8q63 0 98 33.5t43 95.5l5 37q-8 -8 -20 -18t-29.5 -18.5t-39.5 -14t-49 -5.5q-44 0 -75.5 14t-50.5 39.5t-25 61t0 78.5
l33 237h69l-32 -229q-4 -30 -1 -56.5t14.5 -45.5t31.5 -30t50 -11q32 0 57 11.5t42.5 29.5t28 39t13.5 39l36 253h69zM395 499q-23 0 -41.5 9t-34 20.5t-30.5 20.5t-31 9q-23 0 -33.5 -13.5t-18.5 -30.5l-7 -16l-48 6l9 26q11 32 33.5 57.5t64.5 25.5q22 0 40 -9.5t34 -20.5
t31 -20.5t32 -9.5q24 0 35.5 13.5t17.5 31.5l5 15l49 -5l-8 -25q-11 -33 -34 -58.5t-65 -25.5z" />
    <glyph glyph-name="abreve" unicode="&#x103;" 
d="M449 353l19 67h48l-59 -420h-48v67h-3q-16 -22 -40 -39q-20 -14 -52 -26t-77 -12q-38 0 -69 13.5t-53.5 38t-35 59t-12.5 76.5q0 55 19 101.5t50.5 80.5t73 52.5t86.5 18.5q46 0 75 -12.5t46 -26.5q19 -17 29 -38h3zM425 235q0 65 -34.5 101t-87.5 36q-33 0 -63 -14
t-52.5 -38.5t-36 -59t-13.5 -74.5q0 -61 32.5 -99.5t86.5 -38.5q33 0 63 13t53.5 37t37.5 58.5t14 78.5zM456 610q-3 -24 -14.5 -44.5t-28 -35.5t-37 -23.5t-41.5 -8.5t-39 8.5t-30.5 23.5t-18 35.5t-2.5 44.5h44q-4 -26 10.5 -46.5t41.5 -20.5q13 0 25 5.5t21.5 14.5t16 21
t8.5 26h44z" />
    <glyph glyph-name="Abreve" unicode="&#x102;" horiz-adv-x="595" 
d="M586 0h-72l-38 133h-320l-75 -133h-72l341 600h63zM193 198h265l-88 312zM508 780q-3 -24 -14.5 -44.5t-28 -35.5t-37 -23.5t-41.5 -8.5t-39 8.5t-30.5 23.5t-18 35.5t-2.5 44.5h44q-4 -26 10.5 -46.5t41.5 -20.5q13 0 25 5.5t21.5 14.5t16 21t8.5 26h44z" />
    <glyph glyph-name="itilde" unicode="&#x129;" horiz-adv-x="207" 
d="M128 420h69l-59 -420h-69zM250 499q-23 0 -41.5 9t-34 20.5t-30.5 20.5t-31 9q-23 0 -33.5 -13.5t-18.5 -30.5l-7 -16l-48 6l9 26q11 32 33.5 57.5t64.5 25.5q22 0 40 -9.5t34 -20.5t31 -20.5t32 -9.5q24 0 35.5 13.5t17.5 31.5l5 15l49 -5l-8 -25q-11 -33 -34 -58.5
t-65 -25.5z" />
    <glyph glyph-name="uni1EDD" unicode="&#x1edd;" horiz-adv-x="501" 
d="M257 46q32 0 62.5 13t54 37.5t37.5 59t14 78.5q0 65 -35 102.5t-87 37.5q-32 0 -62.5 -13.5t-54 -38.5t-37.5 -60t-14 -78q0 -65 35 -101.5t87 -36.5zM441 378h1q24 -26 38 -61.5t14 -78.5q0 -56 -20.5 -102t-54 -78.5t-78 -50t-92.5 -17.5q-40 0 -73.5 13t-58 37.5
t-38 59t-13.5 77.5q0 57 20 103.5t54 79.5t78.5 51.5t92.5 18.5q37 0 69 -12q38 1 67 25t37 62h60q-13 -61 -63 -102q-19 -15 -40 -25zM239 630l86 13l32 -145h-50z" />
    <glyph glyph-name="cir.acute" unicode="&#xe00d;" horiz-adv-x="0" 
d="M295 730l-64 -61h-64l104 108h57l76 -108h-65zM416 751h-50l73 145l83 -13z" />
    <glyph glyph-name="cir.grave" unicode="&#xe00e;" horiz-adv-x="0" 
d="M295 728l-64 -61h-64l104 108h57l76 -108h-65zM111 886l86 13l32 -145h-50z" />
    <glyph glyph-name="cir.tilde" unicode="&#xe00f;" horiz-adv-x="0" 
d="M295 729l-64 -61h-64l104 108h57l76 -108h-65zM420 783q-23 0 -41.5 9t-34 20.5t-30.5 20.5t-31 9q-23 0 -33.5 -13.5t-18.5 -30.5l-7 -16l-48 6l9 26q11 32 33.5 57.5t64.5 25.5q22 0 40 -9.5t34 -20.5t31 -20.5t32 -9.5q24 0 35.5 13.5t17.5 31.5l5 15l49 -5l-8 -25
q-11 -33 -34 -58.5t-65 -25.5z" />
    <glyph glyph-name="breve.tilde" unicode="&#xe010;" horiz-adv-x="0" 
d="M390 780q-3 -24 -14.5 -44.5t-28 -35.5t-37 -23.5t-41.5 -8.5t-39 8.5t-30.5 23.5t-18 35.5t-2.5 44.5h44q-4 -26 10.5 -46.5t41.5 -20.5q13 0 25 5.5t21.5 14.5t16 21t8.5 26h44zM384 803q-23 0 -41.5 9t-34 20.5t-30.5 20.5t-31 9q-23 0 -33.5 -13.5t-18.5 -30.5
l-7 -16l-48 6l9 26q11 32 33.5 57.5t64.5 25.5q22 0 40 -9.5t34 -20.5t31 -20.5t32 -9.5q24 0 35.5 13.5t17.5 31.5l5 15l49 -5l-8 -25q-11 -33 -34 -58.5t-65 -25.5z" />
    <glyph glyph-name="breve.acute" unicode="&#xe011;" horiz-adv-x="0" 
d="M390 779q-3 -24 -14.5 -44.5t-28 -35.5t-37 -23.5t-41.5 -8.5t-39 8.5t-30.5 23.5t-18 35.5t-2.5 44.5h44q-4 -26 10.5 -46.5t41.5 -20.5q13 0 25 5.5t21.5 14.5t16 21t8.5 26h44zM297 783h-50l73 145l83 -13z" />
    <glyph glyph-name="breve.grave" unicode="&#xe012;" horiz-adv-x="0" 
d="M390 779q-3 -24 -14.5 -44.5t-28 -35.5t-37 -23.5t-41.5 -8.5t-39 8.5t-30.5 23.5t-18 35.5t-2.5 44.5h44q-4 -26 10.5 -46.5t41.5 -20.5q13 0 25 5.5t21.5 14.5t16 21t8.5 26h44zM199 920l86 13l32 -145h-50z" />
    <glyph glyph-name="breve.hook" unicode="&#xe013;" horiz-adv-x="0" 
d="M390 780q-3 -24 -14.5 -44.5t-28 -35.5t-37 -23.5t-41.5 -8.5t-39 8.5t-30.5 23.5t-18 35.5t-2.5 44.5h44q-4 -26 10.5 -46.5t41.5 -20.5q13 0 25 5.5t21.5 14.5t16 21t8.5 26h44zM212 777.75q14 9 25 12q8 3 20 5.625t27 2.625q33 0 53 -12t20 -33q0 -12.75 -6 -21.75
t-10.5 -13.5t-11.5 -9t-11.5 -6.75t-8 -4.5t-4.5 -6.75l-5 -14.25h-40l3 20.25q3 15 13.5 22.5t16.5 11.25t10 7.5t4 10.5q0 6 -6.5 9.75t-19.5 3.75q-9 0 -16.5 -1.5t-12.5 -3.75q-7 -1.5 -25 -11.25z" />
    <glyph glyph-name="cir.hook" unicode="&#xe014;" horiz-adv-x="0" 
d="M295 728l-64 -61h-64l104 108h57l76 -108h-65zM331 884q14 12 25 16q8 4 20 7.5t27 3.5q33 0 53 -16t20 -44q0 -17 -6 -29t-10.5 -18t-11.5 -12t-11.5 -9t-8 -6t-4.5 -9l-5 -19h-40l3 27q3 20 13.5 30t16.5 15t10 10t4 14q0 8 -6.5 13t-19.5 5q-9 0 -16.5 -2t-12.5 -5
q-7 -2 -25 -15z" />
    <glyph glyph-name="uniE015" unicode="&#xe015;" horiz-adv-x="279" 
d="M150 629l86 13l32 -145h-50z" />
    <glyph glyph-name="uniE016" unicode="&#xe016;" horiz-adv-x="279" 
d="M182 497h-50l73 145l83 -13z" />
    <glyph glyph-name="uniE017" unicode="&#xe017;" horiz-adv-x="371" 
d="M295 559l-64 -61h-64l104 108h57l76 -108h-65z" />
    <glyph glyph-name="uniE018" unicode="&#xe018;" horiz-adv-x="325" 
d="M260 715l64 62h64l-104 -109h-57l-76 109h65z" />
    <glyph glyph-name="uniE019" unicode="&#xe019;" horiz-adv-x="485" 
d="M408 499q-23 0 -41.5 9t-34 20.5t-30.5 20.5t-31 9q-23 0 -33.5 -13.5t-18.5 -30.5l-7 -16l-48 6l9 26q11 32 33.5 57.5t64.5 25.5q22 0 40 -9.5t34 -20.5t31 -20.5t32 -9.5q24 0 35.5 13.5t17.5 31.5l5 15l49 -5l-8 -25q-11 -33 -34 -58.5t-65 -25.5z" />
    <glyph glyph-name="uniE01A" unicode="&#xe01a;" horiz-adv-x="485" 
d="M150 629l86 13l32 -145h-50z" />
    <glyph glyph-name="uniE01B" unicode="&#xe01b;" horiz-adv-x="395" 
d="M306 419h-48l68 158h82zM153 419h-48l68 158h82z" />
    <glyph glyph-name="uniE01C" unicode="&#xe01c;" horiz-adv-x="396" 
d="M390 610q-3 -24 -14.5 -44.5t-28 -35.5t-37 -23.5t-41.5 -8.5t-39 8.5t-30.5 23.5t-18 35.5t-2.5 44.5h44q-4 -26 10.5 -46.5t41.5 -20.5q13 0 25 5.5t21.5 14.5t16 21t8.5 26h44z" />
    <glyph glyph-name="uniE01D" unicode="&#xe01d;" horiz-adv-x="396" 
d="M390 610q-3 -24 -14.5 -44.5t-28 -35.5t-37 -23.5t-41.5 -8.5t-39 8.5t-30.5 23.5t-18 35.5t-2.5 44.5h44q-4 -26 10.5 -46.5t41.5 -20.5q13 0 25 5.5t21.5 14.5t16 21t8.5 26h44z" />
    <glyph glyph-name="uniE01E" unicode="&#xe01e;" horiz-adv-x="288" 
d="M140 702q5 39 38 63t78 24q44 0 69.5 -24t20.5 -63q-6 -39 -38.5 -63t-76.5 -24q-45 0 -71 24t-20 63zM299 702q3 21 -10 32t-39 11t-43 -11t-20 -32t11 -32t40 -11t42 11t19 32z" />
    <glyph glyph-name="uniE01F" unicode="&#xe01f;" horiz-adv-x="417" 
d="M203 628q14 12 25 16q8 4 20 7.5t27 3.5q33 0 53 -16t20 -44q0 -17 -6 -29t-10.5 -18t-11.5 -12t-11.5 -9t-8 -6t-4.5 -9l-5 -19h-40l3 27q3 20 13.5 30t16.5 15t10 10t4 14q0 8 -6.5 13t-19.5 5q-9 0 -16.5 -2t-12.5 -5q-7 -2 -25 -15z" />
    <glyph glyph-name="uniE020" unicode="&#xe020;" horiz-adv-x="557" 
d="M249 550q-23 0 -37 15t-14 37q0 27 20.5 46.5t47.5 19.5q23 0 37 -15t14 -37q0 -27 -20.5 -46.5t-47.5 -19.5zM487 550q-23 0 -37 15t-14 37q0 27 20.5 46.5t47.5 19.5q23 0 37 -15t14 -37q0 -27 -20.5 -46.5t-47.5 -19.5z" />
    <glyph glyph-name="gravecomb" unicode="&#x300;" horiz-adv-x="0" 
d="M-342 629l86 13l32 -145h-50z" />
    <glyph glyph-name="acutecomb" unicode="&#x301;" horiz-adv-x="0" 
d="M-277 497h-50l73 145l83 -13z" />
    <glyph glyph-name="tildecomb" unicode="&#x303;" horiz-adv-x="0" 
d="M-127 499q-23 0 -41.5 9t-34 20.5t-30.5 20.5t-31 9q-23 0 -33.5 -13.5t-18.5 -30.5l-7 -16l-48 6l9 26q11 32 33.5 57.5t64.5 25.5q22 0 40 -9.5t34 -20.5t31 -20.5t32 -9.5q24 0 35.5 13.5t17.5 31.5l5 15l49 -5l-8 -25q-11 -33 -34 -58.5t-65 -25.5z" />
    <glyph glyph-name="dotbelowcomb" unicode="&#x323;" horiz-adv-x="0" 
d="M-273 -132q0 23 17 39.5t38 16.5q19 0 31 -12.5t12 -31.5q0 -23 -16.5 -39t-39.5 -16q-18 0 -30 12.5t-12 30.5z" />
    <glyph glyph-name="uni031B" unicode="&#x31b;" horiz-adv-x="0" 
d="M408 598q-13 -61 -63 -102q-51 -41 -117 -41l12 56q41 0 71 25q29 24 37 62h60z" />
    <glyph glyph-name="hookabovecomb" unicode="&#x309;" horiz-adv-x="417" 
d="M203 628q14 12 25 16q8 4 20 7.5t27 3.5q33 0 53 -16t20 -44q0 -17 -6 -29t-10.5 -18t-11.5 -12t-11.5 -9t-8 -6t-4.5 -9l-5 -19h-40l3 27q3 20 13.5 30t16.5 15t10 10t4 14q0 8 -6.5 13t-19.5 5q-9 0 -16.5 -2t-12.5 -5q-7 -2 -25 -15z" />
    </font>
</defs>
</svg>
