<?xml version="1.0" standalone="no"?>
<!DOCTYPE svg PUBLIC "-//W3C//DTD SVG 1.1//EN" "http://www.w3.org/Graphics/SVG/1.1/DTD/svg11.dtd" >
<svg xmlns="http://www.w3.org/2000/svg" xmlns:xlink="http://www.w3.org/1999/xlink" version="1.1">
<metadata>
Created by FontForge 20170910 at Tue May  5 16:32:28 2015
 By Jimmy Wärting
Copyright \(c\) 2014 by Daniel Hernandez &#38; Miguel Hernandez. All rights reserved.
</metadata>
<defs>
<font id="iCielTexta" horiz-adv-x="501" >
  <font-face 
    font-family="iCiel Texta"
    font-weight="400"
    font-stretch="normal"
    units-per-em="1000"
    panose-1="2 0 0 0 0 0 0 0 0 0"
    ascent="750"
    descent="-250"
    x-height="420"
    cap-height="600"
    bbox="-371 -192 986 959"
    underline-thickness="50"
    underline-position="-100"
    stemh="58"
    stemv="70"
    unicode-range="U+000D-E020"
  />
<missing-glyph horiz-adv-x="564" 
 />
    <glyph glyph-name=".notdef" horiz-adv-x="564" 
 />
    <glyph glyph-name="NULL" horiz-adv-x="0" 
 />
    <glyph glyph-name="NULL" horiz-adv-x="0" 
 />
    <glyph glyph-name="CR" unicode="&#xd;" horiz-adv-x="250" 
 />
    <glyph glyph-name="space" unicode=" " horiz-adv-x="224" 
 />
    <glyph glyph-name="exclam" unicode="!" horiz-adv-x="207" 
d="M146 600l-18 -433h-49l-19 433h86zM70 77c9 9 21 14 34 14s25 -5 35 -14c9 -10 14 -22 14 -35c0 -14 -5 -26 -14 -35c-10 -10 -22 -15 -35 -15s-25 5 -34 15c-9 9 -14 21 -14 35c0 13 5 25 14 35z" />
    <glyph glyph-name="quotedbl" unicode="&#x22;" horiz-adv-x="315" 
d="M139 684l-44 -209h-43l19 209h68zM280 684l-44 -209h-43l19 209h68z" />
    <glyph glyph-name="numbersign" unicode="#" horiz-adv-x="612" 
d="M498 583l-35 -162h117l-10 -45h-117l-37 -171h113l-9 -45h-114l-34 -160h-47l34 160h-162l-34 -160h-48l34 160h-117l10 45h117l37 171h-113l9 45h114l35 162h47l-35 -162h161l35 162h49zM243 376l-36 -171h161l37 171h-162z" />
    <glyph glyph-name="dollar" unicode="$" horiz-adv-x="505" 
d="M40 57l38 53c34 -33 83 -52 147 -57v227c-66 21 -113 44 -140 68c-29 27 -44 61 -44 104c0 45 16 82 49 110c33 29 78 45 135 50v104h59v-104c79 -5 134 -25 167 -58l-38 -58c-29 27 -72 44 -129 49v-207c69 -21 117 -46 146 -75c27 -27 40 -63 40 -107
c0 -47 -16 -85 -47 -114c-33 -31 -79 -50 -139 -55v-94h-59v94c-85 5 -146 28 -185 70zM374 215c-17 16 -47 32 -90 47v-209c76 9 114 43 114 102c0 25 -8 45 -24 60zM225 356v189c-75 -8 -112 -39 -112 -93c0 -39 37 -71 112 -96z" />
    <glyph glyph-name="percent" unicode="%" horiz-adv-x="651" 
d="M265 568c22 -28 33 -63 33 -106c0 -42 -11 -77 -33 -105c-24 -31 -56 -46 -95 -46c-40 0 -72 15 -96 46c-22 28 -33 63 -33 105c0 43 11 78 33 106c24 30 56 45 96 45c39 0 71 -15 95 -45zM103 462c0 -63 22 -94 67 -94c21 0 37 9 49 27c11 17 17 40 17 67
c0 63 -22 94 -66 94c-45 0 -67 -31 -67 -94zM577 249c23 -29 34 -64 34 -106c0 -41 -11 -76 -34 -105c-24 -31 -56 -46 -95 -46s-71 15 -95 46c-23 29 -34 64 -34 105c0 42 11 77 34 106c24 30 56 45 95 45s71 -15 95 -45zM432 211c-11 -17 -17 -40 -17 -68
c0 -27 6 -49 17 -66c13 -18 29 -27 50 -27s37 9 49 27c11 17 17 39 17 66c0 63 -22 95 -66 95c-21 0 -38 -9 -50 -27zM521 600h78l-477 -600h-76z" />
    <glyph glyph-name="ampersand" unicode="&#x26;" horiz-adv-x="585" 
d="M463 278l65 -17c-11 -58 -30 -107 -55 -148l113 -113h-102l-56 57c-46 -45 -103 -67 -172 -67c-64 0 -115 16 -154 48c-36 29 -54 67 -54 113c0 66 42 122 125 167l-15 16c-39 39 -58 84 -58 133c0 41 14 75 43 103c29 29 67 43 114 43s86 -13 115 -40
c28 -25 42 -59 42 -100c0 -67 -44 -123 -131 -169l143 -144c16 31 28 70 37 118zM384 102l-164 168c-64 -36 -96 -75 -96 -117c0 -31 13 -56 39 -75c25 -19 55 -28 90 -28c52 0 96 17 131 52zM222 366l15 -16c71 37 107 76 107 117c0 27 -8 48 -24 64c-16 15 -37 23 -63 23
c-25 0 -46 -8 -61 -23c-17 -16 -25 -37 -25 -64c0 -33 17 -67 51 -101z" />
    <glyph glyph-name="quotesingle" unicode="'" horiz-adv-x="174" 
d="M139 684l-44 -209h-43l19 209h68z" />
    <glyph glyph-name="parenleft" unicode="(" horiz-adv-x="259" 
d="M242 -94l-42 -43c-107 114 -160 255 -160 424s53 310 160 424l42 -43c-87 -100 -130 -227 -130 -381s43 -281 130 -381z" />
    <glyph glyph-name="parenright" unicode=")" horiz-adv-x="259" 
d="M17 668l42 43c107 -114 160 -255 160 -424s-53 -310 -160 -424l-42 43c87 100 130 227 130 381s-43 281 -130 381z" />
    <glyph glyph-name="asterisk" unicode="*" horiz-adv-x="387" 
d="M82 445l94 96l-131 21l22 62l115 -67l-19 134h62l-24 -135l119 68l22 -62l-134 -21l96 -96l-53 -37l-59 120l-59 -120z" />
    <glyph glyph-name="plus" unicode="+" horiz-adv-x="514" 
d="M287 515v-192h187v-58h-187v-184h-60v184h-187v58h187v192h60z" />
    <glyph glyph-name="comma" unicode="," horiz-adv-x="202" 
d="M26 -123l-12 40c49 11 75 36 78 74c-26 3 -39 18 -39 45c0 13 5 24 14 33s20 14 33 14s24 -5 33 -14s14 -20 14 -33v-8c0 -85 -40 -136 -121 -151z" />
    <glyph glyph-name="hyphen" unicode="-" horiz-adv-x="398" 
d="M59 200v58h280v-58h-280z" />
    <glyph glyph-name="period" unicode="." horiz-adv-x="200" 
d="M67 3c-9 9 -14 20 -14 33s5 24 14 33s20 14 33 14s24 -5 33 -14s14 -20 14 -33s-5 -24 -14 -33s-20 -13 -33 -13s-24 4 -33 13z" />
    <glyph glyph-name="slash" unicode="/" horiz-adv-x="567" 
d="M97 -111l-76 -1l451 895h73z" />
    <glyph glyph-name="zero" unicode="0" horiz-adv-x="598" 
d="M113 78c-44 58 -66 132 -66 221c0 90 22 164 66 222c47 61 109 92 186 92c78 0 140 -31 186 -92c44 -58 66 -132 66 -222c0 -89 -22 -163 -66 -221c-46 -61 -108 -92 -186 -92c-77 0 -139 31 -186 92zM434 125c31 45 46 103 46 174s-15 130 -46 175
c-33 49 -78 73 -135 73s-102 -24 -135 -73c-31 -45 -46 -104 -46 -175s15 -129 46 -174c33 -48 78 -72 135 -72s102 24 135 72z" />
    <glyph glyph-name="one" unicode="1" horiz-adv-x="294" 
d="M15 535v65h207v-600h-70v535h-137z" />
    <glyph glyph-name="two" unicode="2" horiz-adv-x="490" 
d="M46 0v47l252 261c41 43 62 83 62 120c0 34 -12 62 -35 85c-24 23 -56 34 -95 34c-53 0 -104 -24 -153 -73l-38 55c47 56 111 84 192 84c65 0 115 -17 150 -52c34 -33 51 -76 51 -130c0 -53 -21 -102 -64 -147l-212 -219h291v-65h-401z" />
    <glyph glyph-name="three" unicode="3" horiz-adv-x="489" 
d="M226 294h-66v59l175 182h-283v65h378v-59l-183 -187c62 -1 110 -17 143 -49s50 -76 50 -131c0 -54 -18 -98 -54 -133c-39 -37 -90 -55 -155 -55c-89 0 -153 28 -192 84l42 51c33 -46 83 -69 148 -69c43 0 77 12 103 36c25 23 37 51 37 86c0 80 -48 120 -143 120z" />
    <glyph glyph-name="four" unicode="4" horiz-adv-x="549" 
d="M24 142v52l338 406h52v-393h107v-65h-107v-142h-70v142h-320zM118 210v-3h226v274l-212 -258c-3 -3 -7 -8 -14 -13z" />
    <glyph glyph-name="five" unicode="5" horiz-adv-x="480" 
d="M410 535h-267l-5 -180c27 6 55 9 84 9c71 0 125 -17 163 -51c36 -32 54 -76 54 -132c0 -58 -18 -105 -55 -140c-37 -37 -89 -55 -155 -55c-89 0 -152 28 -191 84l42 51c33 -46 83 -69 148 -69c43 0 77 11 102 34s38 54 38 95c0 36 -13 65 -39 86c-27 21 -63 32 -109 32
c-72 0 -117 -9 -134 -26l-15 12l9 315h330v-65z" />
    <glyph glyph-name="six" unicode="6" horiz-adv-x="519" 
d="M119 298v-3c36 52 89 78 160 78c58 0 106 -18 144 -55c37 -35 55 -79 55 -131c0 -55 -19 -101 -57 -139c-39 -39 -88 -58 -147 -58c-67 0 -120 23 -159 69c-44 53 -66 132 -66 239c0 102 23 181 68 237c43 52 100 78 171 78c52 0 96 -14 132 -42c19 -14 32 -28 39 -42
l-42 -51c-29 46 -72 69 -129 69c-113 0 -169 -83 -169 -249zM179 274c-27 -22 -43 -52 -50 -89c20 -86 68 -129 145 -129c39 0 71 13 96 39c25 25 38 55 38 92c0 35 -12 64 -36 86c-24 23 -55 34 -94 34s-72 -11 -99 -33z" />
    <glyph glyph-name="seven" unicode="7" horiz-adv-x="434" 
d="M28 535v65h392v-47l-263 -553h-85l259 535h-303z" />
    <glyph glyph-name="eight" unicode="8" horiz-adv-x="514" 
d="M103 40c-37 34 -55 76 -55 127c0 68 30 117 91 148c-51 29 -76 72 -76 130c0 49 17 89 52 120c36 32 84 48 143 48s107 -16 142 -48c34 -31 51 -71 51 -120c0 -58 -25 -101 -76 -130c61 -31 91 -80 91 -148c0 -51 -18 -93 -54 -127c-39 -36 -91 -54 -154 -54
c-65 0 -116 18 -155 54zM358 249c-26 22 -59 33 -100 33c-42 0 -76 -11 -101 -33c-25 -21 -38 -49 -38 -82s13 -61 38 -82c25 -22 59 -33 101 -33c41 0 74 11 100 33c25 21 37 49 37 82s-12 61 -37 82zM349 373c21 19 31 43 31 73c0 29 -10 52 -31 71c-22 20 -52 30 -91 30
s-70 -10 -93 -30c-21 -19 -31 -42 -31 -71c0 -30 10 -54 31 -73c22 -20 53 -30 93 -30c39 0 69 10 91 30z" />
    <glyph glyph-name="nine" unicode="9" horiz-adv-x="516" 
d="M397 305v2c-37 -51 -91 -77 -160 -77c-58 0 -106 18 -144 55c-37 35 -55 79 -55 131c0 55 19 101 57 139c39 39 88 58 147 58c67 0 120 -23 159 -69c44 -53 66 -132 66 -239c0 -103 -21 -183 -63 -239c-41 -53 -96 -80 -166 -80c-52 0 -96 14 -132 42
c-18 14 -31 28 -39 42l42 51c29 -46 72 -69 129 -69c113 0 166 84 159 253zM336 328c26 21 43 50 50 86c-21 89 -69 133 -144 133c-39 0 -71 -13 -96 -38s-38 -56 -38 -93c0 -35 12 -64 36 -86c24 -23 55 -34 94 -34s71 11 98 32z" />
    <glyph glyph-name="colon" unicode=":" horiz-adv-x="212" 
d="M73 3c-9 9 -14 20 -14 33s5 24 14 33s20 14 33 14s24 -5 33 -14s14 -20 14 -33s-5 -24 -14 -33s-20 -13 -33 -13s-24 4 -33 13zM73 347c-9 9 -14 20 -14 33s5 24 14 33s20 14 33 14s24 -5 33 -14s14 -20 14 -33s-5 -24 -14 -33s-20 -13 -33 -13s-24 4 -33 13z" />
    <glyph glyph-name="semicolon" unicode=";" horiz-adv-x="234" 
d="M46 -123l-12 40c49 11 75 36 78 74c-26 3 -39 18 -39 45c0 13 5 24 14 33s20 14 33 14s24 -5 33 -14s14 -20 14 -33v-8c0 -85 -40 -136 -121 -151zM87 347c-9 9 -14 20 -14 33s5 24 14 33s20 14 33 14s24 -5 33 -14s14 -20 14 -33s-5 -24 -14 -33s-20 -13 -33 -13
s-24 4 -33 13z" />
    <glyph glyph-name="less" unicode="&#x3c;" horiz-adv-x="375" 
d="M37 284v30l272 197v-72l-193 -140l193 -140v-72z" />
    <glyph glyph-name="equal" unicode="=" horiz-adv-x="468" 
d="M62 359v58h344v-58h-344zM62 168v58h344v-58h-344z" />
    <glyph glyph-name="greater" unicode="&#x3e;" horiz-adv-x="375" 
d="M338 314v-30l-272 -197v72l193 140l-193 140v72z" />
    <glyph glyph-name="question" unicode="?" horiz-adv-x="417" 
d="M58 502l-29 58c39 35 92 53 159 53c59 0 106 -14 141 -42s52 -66 52 -114c0 -53 -27 -102 -80 -148c-55 -48 -83 -86 -85 -115l-2 -27h-49v39c0 39 24 81 72 128s72 85 72 116c0 29 -11 52 -33 70s-51 27 -88 27c-53 0 -96 -15 -130 -45zM158 77c9 9 21 14 34 14
s25 -5 35 -14c9 -10 14 -22 14 -35c0 -14 -5 -26 -14 -35c-10 -10 -22 -15 -35 -15s-25 5 -34 15c-9 9 -14 21 -14 35c0 13 5 25 14 35z" />
    <glyph glyph-name="at" unicode="@" horiz-adv-x="1008" 
d="M624 148h-6c-38 -61 -95 -91 -171 -91c-53 0 -95 17 -127 51c-33 34 -50 79 -50 136c0 74 23 135 70 184c44 46 97 69 160 69c76 0 125 -29 147 -88l20 78h51l-30 -255c-2 -12 -3 -25 -3 -40c0 -55 26 -83 77 -83c38 0 70 18 95 54c27 38 40 89 40 152
c0 96 -33 180 -98 252c-73 81 -168 121 -286 121c-119 0 -219 -41 -299 -123c-77 -79 -116 -175 -116 -287c0 -114 40 -211 121 -292c80 -81 177 -121 290 -121c84 0 154 19 211 57l24 -51c-56 -41 -134 -62 -235 -62c-135 0 -248 47 -339 141c-87 91 -131 199 -131 326
c0 130 44 240 131 329c90 93 204 140 343 140c128 0 236 -42 323 -126c85 -83 128 -183 128 -302c0 -77 -19 -140 -58 -190c-39 -51 -89 -76 -148 -76c-74 0 -119 32 -134 97zM581 172c31 37 47 81 47 134c0 41 -12 74 -36 98c-23 23 -52 34 -89 34c-43 0 -81 -17 -112 -51
c-33 -35 -49 -80 -49 -134c0 -43 11 -77 34 -101c21 -24 50 -36 87 -36c47 0 86 19 118 56z" />
    <glyph glyph-name="A" unicode="A" horiz-adv-x="595" 
d="M329 600l257 -600h-72l-57 133h-320l-56 -133h-72l257 600h63zM298 510l-133 -312h265z" />
    <glyph glyph-name="B" unicode="B" horiz-adv-x="604" 
d="M500 40c-37 -27 -88 -40 -153 -40h-265v600h253c65 0 115 -14 150 -41c37 -28 55 -68 55 -121c0 -67 -31 -110 -92 -131v-3c74 -19 111 -65 111 -138c0 -55 -20 -97 -59 -126zM352 271h-200v-206h197c41 0 73 9 98 26c27 18 40 44 40 79c0 31 -13 56 -39 74
c-25 17 -57 26 -96 27zM334 535h-182v-199h182c41 0 74 9 98 27c24 17 36 41 36 72c0 67 -45 100 -134 100z" />
    <glyph glyph-name="C" unicode="C" horiz-adv-x="565" 
d="M499 117l40 -54c-43 -51 -109 -77 -199 -77c-88 0 -160 30 -216 91c-55 59 -83 133 -83 222c0 90 28 164 83 223c56 61 128 91 216 91c90 0 156 -26 199 -77l-40 -54c-40 43 -93 65 -158 65c-67 0 -122 -24 -165 -73c-42 -47 -63 -106 -63 -175s21 -127 63 -174
c44 -49 99 -73 165 -73c65 0 118 22 158 65z" />
    <glyph glyph-name="D" unicode="D" horiz-adv-x="630" 
d="M503 81c-56 -54 -130 -81 -221 -81h-200v600h200c91 0 165 -27 221 -81c56 -55 84 -128 84 -219s-28 -164 -84 -219zM278 535h-126v-470h126c69 0 126 21 170 62c45 43 68 101 68 173s-23 130 -68 173c-44 41 -101 62 -170 62z" />
    <glyph glyph-name="E" unicode="E" horiz-adv-x="544" 
d="M452 336v-65h-300v-206h351v-65h-421v600h421v-65h-351v-199h300z" />
    <glyph glyph-name="F" unicode="F" horiz-adv-x="531" 
d="M452 336v-65h-300v-271h-70v600h421v-65h-351v-199h300z" />
    <glyph glyph-name="G" unicode="G" horiz-adv-x="638" 
d="M535 259v4h-212v65h282v-42c0 -92 -24 -165 -71 -218c-47 -55 -113 -82 -197 -82c-89 0 -161 30 -216 91c-53 58 -79 132 -79 222s27 164 81 223c56 61 129 91 218 91c97 0 168 -26 212 -79l-41 -53c-41 44 -98 66 -171 66c-69 0 -124 -24 -166 -73
c-41 -47 -61 -105 -61 -175s20 -128 59 -174c41 -49 96 -73 164 -73c59 0 107 19 143 57c37 38 55 88 55 150z" />
    <glyph glyph-name="H" unicode="H" horiz-adv-x="644" 
d="M562 600v-600h-70v263h-340v-263h-70v600h70v-272h340v272h70z" />
    <glyph glyph-name="I" unicode="I" horiz-adv-x="234" 
d="M152 600v-600h-70v600h70z" />
    <glyph glyph-name="J" unicode="J" horiz-adv-x="430" 
d="M18 35l34 53c29 -23 64 -35 104 -35c85 0 128 51 128 153v394h70v-408c0 -137 -64 -206 -192 -206c-63 0 -111 16 -144 49z" />
    <glyph glyph-name="K" unicode="K" horiz-adv-x="568" 
d="M152 600v-329l316 329h80v-12l-227 -236l231 -340v-12h-74c-97 143 -165 243 -206 301l-120 -126v-175h-70v600h70z" />
    <glyph glyph-name="L" unicode="L" horiz-adv-x="489" 
d="M464 0h-382v600h70v-535h312v-65z" />
    <glyph glyph-name="M" unicode="M" horiz-adv-x="723" 
d="M572 0v470l-200 -257h-20l-200 253v-466h-70v600h49l231 -294l231 294h48v-600h-69z" />
    <glyph glyph-name="N" unicode="N" horiz-adv-x="665" 
d="M583 600v-600h-50l-381 476v-476h-70v600h51l380 -474v474h70z" />
    <glyph glyph-name="O" unicode="O" horiz-adv-x="677" 
d="M123 77c-54 59 -81 133 -81 222c0 90 27 164 81 223c55 61 126 91 215 91s162 -30 217 -91c53 -58 80 -132 80 -223c0 -89 -27 -163 -80 -222c-55 -61 -128 -91 -217 -91c-88 0 -160 30 -215 91zM503 125c41 47 61 105 61 174c0 70 -20 128 -61 175
c-42 49 -97 73 -165 73c-67 0 -122 -24 -164 -73c-40 -47 -60 -105 -60 -175c0 -69 20 -127 60 -174c42 -48 97 -72 164 -72c68 0 123 24 165 72z" />
    <glyph glyph-name="P" unicode="P" horiz-adv-x="577" 
d="M82 600h236c72 0 128 -17 167 -51c41 -35 61 -84 61 -149c0 -67 -21 -118 -63 -155c-41 -35 -97 -53 -169 -53h-162v-192h-70v600zM316 535h-164v-278h164c106 0 159 47 159 141c0 91 -53 137 -159 137z" />
    <glyph glyph-name="Q" unicode="Q" horiz-adv-x="677" 
d="M123 77c-54 59 -81 133 -81 222c0 90 27 164 81 223c55 61 126 91 215 91s162 -30 217 -91c53 -58 80 -132 80 -223c0 -133 -52 -227 -156 -281l87 -140h-80l-72 117c-29 -6 -54 -9 -76 -9c-88 0 -160 30 -215 91zM503 125c41 47 61 105 61 174c0 70 -20 128 -61 175
c-42 49 -97 73 -165 73c-67 0 -122 -24 -164 -73c-40 -47 -60 -105 -60 -175c0 -69 20 -127 60 -174c42 -48 97 -72 164 -72c68 0 123 24 165 72z" />
    <glyph glyph-name="R" unicode="R" horiz-adv-x="598" 
d="M82 600h235c72 0 128 -17 168 -51c41 -35 61 -84 61 -149c0 -98 -45 -161 -136 -188v-3l149 -192v-17h-73l-155 199h-179v-199h-70v600zM316 535h-164v-271h172c100 0 150 45 150 134c0 91 -53 137 -158 137z" />
    <glyph glyph-name="S" unicode="S" horiz-adv-x="509" 
d="M42 57l38 53c40 -39 97 -58 172 -58c99 0 148 34 148 103c0 28 -11 51 -32 68c-23 17 -65 35 -126 53c-71 22 -122 45 -151 70c-32 27 -48 62 -48 106c0 49 19 88 57 117s90 44 156 44c93 0 159 -20 197 -59l-38 -58c-35 34 -88 51 -159 51c-42 0 -76 -8 -101 -24
c-27 -17 -40 -41 -40 -71c0 -25 11 -45 34 -60c22 -15 63 -32 124 -50c74 -21 126 -47 157 -76c28 -27 42 -64 42 -110c0 -51 -18 -91 -55 -121c-39 -33 -94 -49 -164 -49c-97 0 -167 24 -211 71z" />
    <glyph glyph-name="T" unicode="T" horiz-adv-x="519" 
d="M25 535v65h469v-65h-200v-535h-70v535h-199z" />
    <glyph glyph-name="U" unicode="U" horiz-adv-x="630" 
d="M138 60c-43 47 -64 111 -64 191v349h70v-349c0 -60 14 -108 43 -143c30 -37 73 -56 128 -56s98 19 129 56c28 35 42 83 42 143v349h70v-349c0 -80 -21 -144 -63 -191c-43 -49 -102 -74 -178 -74c-75 0 -134 25 -177 74z" />
    <glyph glyph-name="V" unicode="V" horiz-adv-x="595" 
d="M266 0l-257 600h72l216 -510l217 510h72l-257 -600h-63z" />
    <glyph glyph-name="W" unicode="W" horiz-adv-x="806" 
d="M535 0l-132 492l-132 -492h-55l-200 600h72l150 -493l131 493h68l130 -493l151 493h72l-200 -600h-55z" />
    <glyph glyph-name="X" unicode="X" horiz-adv-x="527" 
d="M506 600l-192 -292l200 -308h-84l-145 224l-22 41l-23 -41l-143 -224h-83l198 308l-191 292h84l140 -215l19 -37l20 37l139 215h83z" />
    <glyph glyph-name="Y" unicode="Y" horiz-adv-x="530" 
d="M286 332l154 268h81l-221 -370v-230h-70v230l-221 370h82l156 -268l18 -38h2z" />
    <glyph glyph-name="Z" unicode="Z" horiz-adv-x="522" 
d="M30 0v47l366 488h-354v65h448v-47l-359 -488h351v-65h-452z" />
    <glyph glyph-name="bracketleft" unicode="[" horiz-adv-x="320" 
d="M64 -130v830h240v-58h-172v-714h172v-58h-240z" />
    <glyph glyph-name="backslash" unicode="\" horiz-adv-x="355" 
d="M251 -128l-217 926h71l216 -926h-70z" />
    <glyph glyph-name="bracketright" unicode="]" horiz-adv-x="320" 
d="M16 -130v58h172v714h-172v58h240v-830h-240z" />
    <glyph glyph-name="asciicircum" unicode="^" horiz-adv-x="437" 
d="M325 497l-108 147l-107 -147h-61l146 196h46l147 -196h-63z" />
    <glyph glyph-name="underscore" unicode="_" horiz-adv-x="550" 
d="M54 -98v58h442v-58h-442z" />
    <glyph glyph-name="grave" unicode="`" horiz-adv-x="279" 
d="M149 497l-87 132l84 13l53 -145h-50z" />
    <glyph glyph-name="A001" unicode="a" horiz-adv-x="461" 
d="M398 259v-259h-48l-8 58h-5c-31 -45 -79 -68 -144 -68c-50 0 -90 13 -120 39c-28 25 -42 56 -42 95c0 41 16 74 49 99c34 25 82 38 143 38c40 0 76 -6 109 -17v15c0 73 -40 110 -120 110c-45 0 -84 -11 -119 -34l-27 57c41 25 91 38 151 38c121 0 181 -57 181 -171z
M332 159v30c-29 14 -64 21 -103 21c-85 0 -128 -28 -128 -84c0 -23 8 -42 25 -57c19 -16 44 -24 76 -24c37 0 69 11 94 34c24 22 36 49 36 80z" />
    <glyph glyph-name="B009" unicode="b" horiz-adv-x="523" 
d="M67 0v605h69v-248h3c21 49 71 73 150 73c55 0 101 -20 138 -61s56 -94 56 -159s-19 -119 -57 -160c-37 -40 -83 -60 -139 -60c-51 0 -93 14 -126 42c-16 13 -27 27 -33 41h-3l-8 -73h-50zM174 91c27 -29 60 -43 100 -43s73 15 99 45c27 31 40 70 40 117s-13 86 -40 117
c-26 30 -59 45 -99 45s-73 -14 -100 -43c-28 -30 -42 -70 -42 -119s14 -89 42 -119z" />
    <glyph glyph-name="C010" unicode="c" horiz-adv-x="411" 
d="M98 50c-39 41 -58 94 -58 159s19 119 58 160s89 61 150 61c63 0 105 -12 128 -37l-21 -52c-27 21 -61 31 -103 31c-41 0 -74 -14 -101 -42c-27 -30 -41 -70 -41 -121s14 -91 41 -120c26 -27 60 -41 101 -41c42 0 76 10 103 31l19 -52c-22 -25 -64 -37 -126 -37
s-112 20 -150 60z" />
    <glyph glyph-name="D012" unicode="d" horiz-adv-x="524" 
d="M385 364h3v241h69v-605h-48l-10 67h-3c-26 -51 -79 -77 -158 -77c-57 0 -104 20 -141 60c-38 41 -57 95 -57 160s19 118 57 159c37 41 83 61 139 61c76 0 126 -22 149 -66zM351 329c-27 29 -60 43 -101 43c-40 0 -73 -15 -100 -45c-27 -31 -40 -70 -40 -117
s13 -86 40 -117c27 -30 60 -45 100 -45c41 0 74 14 101 43c28 30 42 70 42 119s-14 89 -42 119z" />
    <glyph glyph-name="E013" unicode="e" horiz-adv-x="457" 
d="M375 88l26 -50c-29 -33 -79 -49 -149 -49c-65 0 -116 20 -155 61c-38 40 -57 93 -57 159c0 65 18 117 54 158c36 42 84 63 143 63s105 -20 138 -61c31 -38 47 -87 47 -148v-17h-313c1 -50 15 -89 44 -117c26 -26 60 -39 103 -39c51 0 91 13 119 40zM113 260h238
c-10 74 -48 111 -115 111c-69 0 -110 -37 -123 -111z" />
    <glyph glyph-name="F019" unicode="f" horiz-adv-x="304" 
d="M292 364h-125v-364h-69v364h-79v56h79v52c0 43 13 78 38 103s59 38 103 38c38 0 67 -7 88 -20l-21 -56c-19 10 -41 15 -66 15c-49 0 -73 -26 -73 -79v-53h125v-56z" />
    <glyph glyph-name="G022" unicode="g" horiz-adv-x="465" 
d="M437 365h-66v-3c17 -11 26 -39 26 -82c0 -37 -13 -69 -40 -96c-31 -30 -71 -45 -122 -45c-39 0 -73 10 -101 29c-23 -9 -35 -23 -35 -42c0 -16 9 -28 26 -35c23 -11 66 -18 129 -21c127 -6 191 -47 191 -124c0 -38 -18 -70 -55 -95c-39 -28 -91 -42 -156 -42
c-131 0 -196 41 -196 124c0 43 26 76 77 99c-51 17 -76 47 -76 92c0 39 20 66 59 82c-14 23 -21 49 -21 76c0 41 13 75 40 102c29 29 69 44 118 44c22 0 42 -3 60 -8h142v-55zM189 16c-56 -19 -84 -46 -84 -82c0 -20 10 -36 31 -49c23 -14 55 -21 98 -21c47 0 83 8 108 23
c23 15 35 33 35 56c0 43 -41 66 -123 69c-30 1 -52 3 -65 4zM161 347c-17 -17 -26 -39 -26 -64c0 -26 9 -47 26 -64c19 -17 43 -26 74 -26c32 0 57 9 76 26c18 17 27 38 27 64c0 25 -9 47 -27 64c-19 18 -44 27 -76 27c-31 0 -55 -9 -74 -27z" />
    <glyph glyph-name="H023" unicode="h" horiz-adv-x="509" 
d="M67 0v605h69v-226h3c29 34 74 51 134 51c54 0 97 -18 128 -54c31 -35 46 -81 46 -139v-237h-69v228c0 43 -10 77 -30 103c-21 27 -51 41 -89 41c-39 0 -70 -14 -93 -42c-19 -23 -29 -50 -30 -79v-251h-69z" />
    <glyph glyph-name="I020" unicode="i" horiz-adv-x="207" 
d="M70 525c-9 9 -14 20 -14 33s5 24 14 33s20 14 33 14s24 -5 33 -14s14 -20 14 -33s-5 -24 -14 -33s-20 -13 -33 -13s-24 4 -33 13zM69 0v420h69v-420h-69z" />
    <glyph glyph-name="J028" unicode="j" horiz-adv-x="207" 
d="M7 -156v58h8c36 0 54 18 54 55v463h69v-466c0 -73 -36 -110 -108 -110h-23zM70 525c-9 9 -14 20 -14 33s5 24 14 33s20 14 33 14s24 -5 33 -14s14 -20 14 -33s-5 -24 -14 -33s-20 -13 -33 -13s-24 4 -33 13z" />
    <glyph glyph-name="K029" unicode="k" horiz-adv-x="440" 
d="M337 420h91l-194 -182l194 -238h-85l-158 192l-49 -46v-146h-69v605h69v-370h2z" />
    <glyph glyph-name="L021" unicode="l" horiz-adv-x="209" 
d="M70 0v605h69v-605h-69z" />
    <glyph glyph-name="M031" unicode="m" horiz-adv-x="813" 
d="M67 0v420h49l6 -62h5c32 48 80 72 143 72c70 0 120 -27 151 -80h5c32 53 83 80 153 80c54 0 96 -18 127 -54c30 -35 45 -81 45 -139v-237h-69v229c0 43 -10 77 -29 102c-21 27 -51 41 -89 41c-39 0 -69 -13 -91 -40c-19 -22 -28 -48 -29 -79v-253h-69v246
c0 37 -10 67 -30 90c-22 24 -52 36 -90 36s-68 -13 -89 -40c-18 -21 -28 -47 -30 -76v-256h-69z" />
    <glyph glyph-name="N033" unicode="n" horiz-adv-x="510" 
d="M67 0v420h49l6 -62h5c30 48 79 72 147 72c54 0 97 -18 128 -54c31 -35 46 -81 46 -139v-237h-69v229c0 42 -10 76 -30 102c-22 27 -52 41 -90 41c-39 0 -70 -14 -93 -42c-19 -23 -29 -49 -30 -78v-252h-69z" />
    <glyph glyph-name="O035" unicode="o" 
d="M400 49c-40 -39 -90 -59 -150 -59s-110 20 -149 59c-41 41 -62 94 -62 159c0 66 21 120 62 161c39 41 89 61 149 61c59 0 109 -20 150 -61c41 -42 62 -96 62 -161s-21 -118 -62 -159zM350 89c29 31 43 71 43 120s-14 89 -43 120c-27 30 -60 45 -100 45s-73 -15 -100 -45
c-29 -31 -43 -71 -43 -120s14 -89 43 -120c27 -29 60 -43 100 -43s73 14 100 43z" />
    <glyph glyph-name="P043" unicode="p" horiz-adv-x="523" 
d="M139 56h-3v-212h-69v576h49l8 -62h7c27 48 79 72 156 72c56 0 102 -20 139 -60c38 -41 57 -95 57 -160s-19 -118 -56 -159s-83 -61 -138 -61c-79 0 -129 22 -150 66zM174 91c27 -29 60 -43 100 -43s73 15 99 45c27 31 40 70 40 117s-13 86 -40 117c-26 30 -59 45 -99 45
s-73 -14 -100 -43c-28 -30 -42 -70 -42 -119s14 -89 42 -119z" />
    <glyph glyph-name="Q044" unicode="q" horiz-adv-x="524" 
d="M457 420v-576h-69v219h-3c-21 -49 -71 -73 -149 -73c-56 0 -102 20 -139 61c-38 41 -57 94 -57 159s19 119 57 160c37 40 84 60 141 60c51 0 92 -14 123 -41c16 -13 27 -27 33 -41h4l9 72h50zM351 329c-27 29 -60 43 -101 43c-40 0 -73 -15 -100 -45
c-27 -31 -40 -70 -40 -117s13 -86 40 -117c27 -30 60 -45 100 -45c41 0 74 14 101 43c28 30 42 70 42 119s-14 89 -42 119z" />
    <glyph glyph-name="R045" unicode="r" horiz-adv-x="284" 
d="M272 421v-56h-23c-31 0 -57 -11 -79 -33c-23 -23 -34 -51 -34 -84v-248h-69v420h49l6 -74h4c21 50 61 75 122 75h24z" />
    <glyph glyph-name="S046" unicode="s" horiz-adv-x="409" 
d="M39 42l31 48c38 -27 86 -41 143 -41c64 0 96 21 96 62c0 21 -14 37 -42 50c-9 4 -40 14 -93 29c-90 25 -135 66 -135 121c0 35 12 63 37 84c27 23 67 35 118 35c71 0 126 -11 166 -34l-28 -59c-35 23 -79 34 -132 34c-65 0 -97 -19 -97 -58c0 -19 14 -35 42 -46
c6 -3 37 -12 93 -27c90 -25 135 -67 135 -126c0 -36 -12 -65 -37 -86c-28 -25 -70 -38 -125 -38c-79 0 -137 17 -172 52z" />
    <glyph glyph-name="T048" unicode="t" horiz-adv-x="320" 
d="M15 420h79v128h69v-128h125v-56h-125v-247c0 -45 21 -68 62 -68c21 0 41 6 62 19l23 -50c-24 -19 -54 -28 -91 -28c-83 0 -125 43 -125 128v246h-79v56z" />
    <glyph glyph-name="U032" unicode="u" horiz-adv-x="507" 
d="M440 420v-420h-44l-12 60h-3c-27 -47 -77 -70 -149 -70c-54 0 -96 18 -126 54c-29 34 -44 80 -44 139v237h69v-229c0 -43 9 -77 28 -102c20 -27 49 -41 87 -41c39 0 71 14 94 41c19 23 30 49 31 78v253h69z" />
    <glyph glyph-name="V054" unicode="v" horiz-adv-x="456" 
d="M444 420l-192 -420h-48l-192 420h77l130 -311c5 -11 7 -20 7 -28h4c0 7 3 16 8 28l130 311h76z" />
    <glyph glyph-name="W055" unicode="w" horiz-adv-x="652" 
d="M172 0l-155 420h72l100 -311c4 -12 6 -21 6 -28h8c0 -2 2 7 7 28l89 311h58l89 -311c4 -9 6 -18 6 -28h8c0 7 2 16 6 28l102 311h67l-155 -420h-60l-87 310c-3 9 -5 18 -5 27h-4c0 -7 -2 -16 -6 -27l-87 -310h-59z" />
    <glyph glyph-name="X056" unicode="x" horiz-adv-x="432" 
d="M15 0l160 219l-149 201h80l109 -157h3l110 157h79l-150 -201l161 -219h-80l-120 175h-3l-122 -175h-78z" />
    <glyph glyph-name="Y057" unicode="y" horiz-adv-x="453" 
d="M440 420l-254 -576h-72l82 176l-183 400h76l132 -311c5 -14 7 -23 7 -28h4c0 7 2 16 6 28l131 311h71z" />
    <glyph glyph-name="Z060" unicode="z" horiz-adv-x="421" 
d="M385 0h-349v35l256 328h-255v57h348v-32l-253 -331h253v-57z" />
    <glyph glyph-name="braceleft" unicode="{" horiz-adv-x="272" 
d="M15 317h25c45 0 68 33 68 98v173c0 77 39 119 118 127l11 -59c-21 -3 -35 -10 -43 -20c-9 -11 -13 -30 -13 -56v-170c0 -65 -20 -105 -61 -120v-9c41 -14 61 -53 61 -117v-173c0 -45 19 -70 56 -75l-11 -58c-79 6 -118 48 -118 125v175c0 66 -23 99 -68 99h-25v60z" />
    <glyph glyph-name="bar" unicode="|" horiz-adv-x="193" 
d="M129 687v-815h-65v815h65z" />
    <glyph glyph-name="braceright" unicode="}" horiz-adv-x="272" 
d="M232 317h25v-60h-25c-45 0 -68 -33 -68 -99v-175c0 -77 -39 -119 -118 -125l-11 58c37 5 56 30 56 75v173c0 64 20 103 61 117v9c-41 15 -61 55 -61 120v170c0 26 -4 45 -13 56c-8 10 -22 17 -43 20l11 59c79 -8 118 -50 118 -127v-173c0 -65 23 -98 68 -98z" />
    <glyph glyph-name="asciitilde" unicode="~" horiz-adv-x="481" 
d="M396 338l24 -42c-27 -25 -63 -38 -106 -38c-19 0 -42 5 -71 16s-54 16 -75 16c-31 0 -58 -8 -83 -25l-23 42c28 25 63 38 105 38c19 0 42 -5 71 -16s54 -16 75 -16c31 0 59 8 83 25z" />
    <glyph glyph-name="nbspace" unicode="&#xa0;" horiz-adv-x="224" 
 />
    <glyph glyph-name="exclamdown" unicode="&#xa1;" horiz-adv-x="196" 
d="M122 256l18 -433h-86l19 433h49zM64 417c9 9 21 14 34 14s25 -5 35 -14c9 -10 14 -22 14 -36c0 -13 -5 -25 -14 -35c-10 -9 -22 -14 -35 -14s-25 5 -34 14c-9 10 -14 22 -14 35c0 14 5 26 14 36z" />
    <glyph glyph-name="cent" unicode="&#xa2;" horiz-adv-x="428" 
d="M178 0l11 87c-44 13 -79 38 -106 75c-27 38 -40 83 -40 135c0 63 19 115 57 156s87 62 146 65l11 82h51l-11 -85c37 -6 66 -17 87 -34l-21 -52c-19 14 -43 23 -74 28l-42 -321h13c42 0 76 10 103 31l19 -52c-29 -25 -71 -37 -126 -37h-17l-10 -78h-51zM197 149l41 309
c-36 -5 -65 -22 -88 -50c-25 -30 -37 -67 -37 -111c0 -73 28 -122 84 -148z" />
    <glyph glyph-name="sterling" unicode="&#xa3;" horiz-adv-x="495" 
d="M440 65v-65h-372v65h1l-1 1c39 15 59 51 59 108c0 15 -7 45 -21 91h-64v56h48c-9 33 -13 64 -13 94c0 53 18 97 54 133c39 39 93 59 160 59c77 0 131 -21 163 -62l-42 -52c-27 31 -67 47 -121 47c-45 0 -79 -13 -104 -39c-22 -23 -33 -54 -33 -91c0 -27 4 -57 12 -89h218
v-56h-201c12 -43 18 -72 18 -89c0 -43 -13 -80 -38 -111h277z" />
    <glyph glyph-name="yen" unicode="&#xa5;" horiz-adv-x="573" 
d="M308 332l154 268h81l-188 -315h134v-56h-167v-87h167v-56h-167v-86h-70v86h-168v56h168v87h-168v56h135l-188 315h82l156 -268l18 -38h2z" />
    <glyph glyph-name="brokenbar" unicode="&#xa6;" horiz-adv-x="202" 
d="M133 330h-64v343h64v-343zM133 -153h-64v343h64v-343z" />
    <glyph glyph-name="section" unicode="&#xa7;" horiz-adv-x="510" 
d="M39 45l39 57c46 -33 105 -49 176 -49c91 0 136 20 136 61c0 22 -11 39 -32 51c-15 8 -51 21 -110 39c-103 30 -154 70 -154 119c0 27 12 47 36 62c-51 26 -77 59 -77 100c0 38 17 68 51 91c37 25 89 37 158 37c91 0 155 -15 194 -46l-39 -58c-34 27 -86 41 -155 41
c-86 0 -129 -21 -129 -62c0 -20 10 -36 31 -48c17 -11 46 -22 89 -33c117 -31 175 -73 175 -126c0 -28 -11 -50 -33 -67c50 -27 75 -61 75 -100c0 -36 -17 -65 -50 -88c-38 -26 -93 -39 -164 -39c-97 0 -170 19 -217 58zM186 363c-15 -7 -23 -19 -23 -37
c0 -23 37 -45 110 -66c27 -8 48 -15 64 -21c13 9 20 22 20 39c0 25 -43 50 -128 73c-25 7 -40 11 -43 12z" />
    <glyph glyph-name="dieresis" unicode="&#xa8;" horiz-adv-x="455" 
d="M112 748c9 9 20 14 32 14s23 -5 32 -14s14 -20 14 -33s-5 -24 -14 -33s-20 -14 -32 -14s-23 5 -32 14s-14 20 -14 33s5 24 14 33zM274 748c9 9 19 14 32 14c12 0 23 -5 32 -14s14 -20 14 -33s-5 -24 -14 -33s-20 -14 -32 -14c-13 0 -23 5 -32 14s-14 20 -14 33
s5 24 14 33z" />
    <glyph glyph-name="copyright" unicode="&#xa9;" horiz-adv-x="689" 
d="M565 515c53 -57 79 -129 79 -216s-26 -158 -79 -215c-56 -60 -129 -90 -220 -90s-164 30 -220 90c-53 57 -80 129 -80 215c0 87 27 159 80 216c56 60 129 90 220 90s164 -30 220 -90zM158 486c-45 -49 -68 -112 -68 -187s23 -136 68 -185c47 -52 110 -78 187 -78
s140 26 188 78c45 49 68 110 68 185s-23 138 -68 187c-48 51 -111 77 -188 77s-140 -26 -187 -77zM452 424l-25 -38c-18 19 -43 29 -75 29c-33 0 -60 -11 -80 -33c-19 -21 -29 -49 -29 -82s10 -60 29 -81c20 -22 47 -33 80 -33c32 0 57 10 75 29l25 -38
c-21 -25 -55 -37 -102 -37c-48 0 -87 16 -116 47c-27 29 -41 67 -41 113c0 47 14 85 41 114c29 31 68 47 116 47c47 0 81 -12 102 -37z" />
    <glyph glyph-name="ordfeminine" unicode="&#xaa;" horiz-adv-x="400" 
d="M76 448c24 18 57 27 99 27c51 0 86 -10 105 -31v14c0 37 -6 63 -17 79c-14 18 -39 27 -75 27c-18 0 -50 -8 -96 -23l-18 47c41 17 82 26 124 26c52 0 89 -14 112 -43c19 -25 29 -63 29 -115v-182h-43l-9 38h-3c-18 -31 -57 -46 -118 -46c-37 0 -68 10 -91 30
c-24 20 -36 45 -36 76c0 32 12 57 37 76zM181 309c29 0 53 7 72 20c18 12 27 27 27 44c0 18 -9 33 -26 44s-40 16 -68 16c-60 0 -90 -20 -90 -61c0 -42 28 -63 85 -63z" />
    <glyph glyph-name="guillemotleft" unicode="&#xab;" horiz-adv-x="452" 
d="M42 197v23l120 188h60v-10l-117 -186v-5l117 -189v-10h-60zM229 197v23l120 188h59v-10l-117 -186v-5l117 -189v-10h-59z" />
    <glyph glyph-name="logicalnot" unicode="&#xac;" horiz-adv-x="544" 
d="M48 288v58h431v-346h-59v288h-372z" />
    <glyph glyph-name="registered" unicode="&#xae;" horiz-adv-x="550" 
d="M441 216c-43 -46 -98 -69 -167 -69c-68 0 -123 23 -165 69c-40 44 -60 99 -60 164c0 66 20 121 60 164c41 46 96 69 165 69s124 -23 167 -69c40 -43 60 -98 60 -164s-20 -121 -60 -164zM406 516c-34 36 -78 54 -132 54s-97 -18 -130 -53s-50 -81 -50 -137
c0 -54 17 -99 50 -135c33 -37 77 -55 130 -55c54 0 98 18 132 55c33 35 50 80 50 135s-17 100 -50 136zM191 485h91c25 0 46 -6 61 -19s23 -31 23 -52c0 -29 -14 -50 -41 -62l43 -60v-9h-37l-44 61h-60v-61h-36v202zM282 450h-55v-72h54c31 0 47 12 47 36s-15 36 -46 36z
" />
    <glyph glyph-name="macron" unicode="&#xaf;" horiz-adv-x="526" 
d="M121 668v46h295v-46h-295z" />
    <glyph glyph-name="degree" unicode="&#xb0;" horiz-adv-x="300" 
d="M231 641c21 -21 31 -46 31 -77s-10 -56 -31 -76c-21 -21 -48 -31 -81 -31s-60 10 -81 31c-21 20 -31 45 -31 76s10 56 31 77s48 31 81 31s60 -10 81 -31zM100 613c-13 -13 -19 -30 -19 -49s6 -34 19 -47s29 -20 50 -20s37 7 50 20s19 28 19 47s-6 36 -19 49
s-29 20 -50 20s-37 -7 -50 -20z" />
    <glyph glyph-name="plusminus" unicode="&#xb1;" horiz-adv-x="525" 
d="M294 169h-59v172h-172v58h172v176h59v-176h168v-58h-168v-172zM462 98v-58h-399v58h399z" />
    <glyph glyph-name="twosuperior" unicode="&#xb2;" horiz-adv-x="347" 
d="M53 342v44l143 123c24 21 36 42 36 64c0 39 -22 59 -66 59c-33 0 -62 -12 -87 -37l-26 38c29 29 67 44 114 44c78 0 117 -34 117 -103c0 -37 -15 -68 -46 -93l-113 -95h167v-44h-239z" />
    <glyph glyph-name="threesuperior" unicode="&#xb3;" horiz-adv-x="336" 
d="M54 624v44h224v-33l-75 -97c60 -7 90 -40 90 -97c0 -31 -11 -56 -32 -75c-23 -21 -56 -32 -97 -32c-51 0 -91 15 -122 46l28 37c25 -26 56 -39 93 -39c25 0 45 6 59 19c13 12 20 27 20 45c0 37 -23 57 -68 58h-37v32l72 92h-155z" />
    <glyph glyph-name="acute" unicode="&#xb4;" horiz-adv-x="279" 
d="M199 629l-87 -132h-50l53 145z" />
    <glyph glyph-name="mu" unicode="&#xb5;" 
d="M439 420v-420h-44l-12 60h-3c-27 -47 -77 -70 -149 -70c-41 0 -76 11 -103 32l1 -150h-68v548h69v-229c0 -43 9 -77 28 -102c20 -27 49 -41 87 -41c39 0 71 14 94 41c19 23 30 49 31 78v253h69z" />
    <glyph glyph-name="paragraph" unicode="&#xb6;" horiz-adv-x="521" 
d="M381 -82v204h-64c-85 0 -153 20 -204 61c-54 43 -81 104 -81 183c0 75 26 134 79 176c50 39 118 59 203 59h137v-683h-70z" />
    <glyph glyph-name="periodcentered" unicode="&#xb7;" horiz-adv-x="207" 
d="M69 395c9 9 21 14 34 14c14 0 26 -5 35 -14c9 -10 14 -22 14 -36c0 -13 -5 -25 -14 -35c-9 -9 -21 -14 -35 -14c-13 0 -25 5 -34 14c-9 10 -14 22 -14 35c0 14 5 26 14 36z" />
    <glyph glyph-name="cedilla" unicode="&#xb8;" horiz-adv-x="206" 
d="M76 -63l-13 16l24 50h39l-15 -34c43 -1 64 -23 64 -64c0 -47 -26 -70 -78 -70c-33 0 -57 9 -72 28l19 28c13 -13 31 -20 52 -20c28 0 42 12 42 35c0 21 -14 32 -42 32c-9 0 -15 0 -20 -1z" />
    <glyph glyph-name="onesuperior" unicode="&#xb9;" horiz-adv-x="208" 
d="M25 624v44h119v-326h-50v282h-69z" />
    <glyph glyph-name="ordmasculine" unicode="&#xba;" horiz-adv-x="410" 
d="M324 566c31 -32 46 -74 46 -127c0 -51 -15 -93 -46 -124s-70 -46 -119 -46c-48 0 -87 15 -118 46c-31 32 -47 73 -47 124c0 53 16 95 47 127c31 31 70 47 118 47c49 0 88 -16 119 -47zM128 529c-20 -23 -30 -52 -30 -89c0 -36 10 -65 30 -87c19 -22 45 -33 77 -33
c33 0 59 11 78 33c20 22 30 51 30 87c0 37 -10 66 -30 89c-19 22 -45 33 -78 33c-32 0 -58 -11 -77 -33z" />
    <glyph glyph-name="guillemotright" unicode="&#xbb;" horiz-adv-x="451" 
d="M224 220v-23l-120 -189h-61v10l118 189v5l-118 186v10h61zM410 220v-23l-120 -189h-61v10l118 189v5l-118 186v10h61z" />
    <glyph glyph-name="onequarter" unicode="&#xbc;" horiz-adv-x="621" 
d="M311 88v31l178 207h37v-196h60v-42h-60v-88h-48v88h-167zM93 0h-60l465 600h62zM40 556v44h120v-326h-50v282h-70zM478 250l-75 -89c-9 -11 -20 -22 -32 -34l47 3h60v120z" />
    <glyph glyph-name="onehalf" unicode="&#xbd;" horiz-adv-x="683" 
d="M93 0h-60l465 600h62zM407 44v-44h239v44h-167l113 95c31 25 46 56 46 93c0 69 -39 103 -117 103c-47 0 -85 -15 -114 -44l26 -38c25 25 54 37 87 37c44 0 66 -20 66 -59c0 -22 -12 -43 -36 -64zM43 556v44h119v-326h-50v282h-69z" />
    <glyph glyph-name="threequarters" unicode="&#xbe;" horiz-adv-x="709" 
d="M399 88v31l178 207h37v-196h60v-42h-60v-88h-48v88h-167zM185 0h-60l465 600h62zM48 556v44h224v-33l-75 -97c60 -7 90 -40 90 -97c0 -31 -11 -56 -32 -75c-23 -21 -56 -32 -97 -32c-51 0 -91 15 -122 46l28 37c25 -26 56 -39 93 -39c25 0 45 6 59 19c13 12 20 27 20 45
c0 37 -23 57 -68 58h-37v32l72 92h-155zM566 250l-75 -89c-9 -11 -20 -22 -32 -34l47 3h60v120z" />
    <glyph glyph-name="questiondown" unicode="&#xbf;" horiz-adv-x="410" 
d="M356 -76l29 -58c-39 -35 -92 -53 -159 -53c-59 0 -106 14 -141 42s-52 66 -52 114c0 53 27 102 80 148c55 48 83 86 85 115l2 27h49v-39c0 -39 -24 -81 -72 -128s-72 -85 -72 -116c0 -29 11 -52 33 -70s51 -27 88 -27c53 0 96 15 130 45zM256 349c-9 -9 -21 -14 -34 -14
s-25 5 -35 14c-9 10 -14 22 -14 35c0 14 5 26 14 36c10 9 22 14 35 14s25 -5 34 -14c9 -10 14 -22 14 -36c0 -13 -5 -25 -14 -35z" />
    <glyph glyph-name="Agrave" unicode="&#xc0;" horiz-adv-x="595" 
d="M329 600l257 -600h-72l-57 133h-320l-56 -133h-72l257 600h63zM298 510l-133 -312h265zM271 635l-87 132l84 13l53 -145h-50z" />
    <glyph glyph-name="Aacute" unicode="&#xc1;" horiz-adv-x="595" 
d="M329 600l257 -600h-72l-57 133h-320l-56 -133h-72l257 600h63zM298 510l-133 -312h265zM411 767l-87 -132h-50l53 145z" />
    <glyph glyph-name="Acircumflex" unicode="&#xc2;" horiz-adv-x="595" 
d="M329 600l257 -600h-72l-57 133h-320l-56 -133h-72l257 600h63zM298 510l-133 -312h265zM351 668l-53 61l-55 -61h-64l89 108h57l91 -108h-65z" />
    <glyph glyph-name="Atilde" unicode="&#xc3;" horiz-adv-x="595" 
d="M329 600l257 -600h-72l-57 133h-320l-56 -133h-72l257 600h63zM298 510l-133 -312h265zM296 698c-31 19 -53 29 -66 29c-22 0 -37 -15 -46 -44l-4 -16l-49 6l5 26c11 55 40 83 87 83c21 0 47 -10 78 -30s53 -30 67 -30c25 0 41 15 47 45l3 15l49 -5l-4 -25
c-10 -56 -39 -84 -87 -84c-22 0 -49 10 -80 30z" />
    <glyph glyph-name="Adieresis" unicode="&#xc4;" horiz-adv-x="595" 
d="M329 600l257 -600h-72l-57 133h-320l-56 -133h-72l257 600h63zM298 510l-133 -312h265zM184 748c9 9 20 14 32 14s23 -5 32 -14s14 -20 14 -33s-5 -24 -14 -33s-20 -14 -32 -14s-23 5 -32 14s-14 20 -14 33s5 24 14 33zM346 748c9 9 19 14 32 14c12 0 23 -5 32 -14
s14 -20 14 -33s-5 -24 -14 -33s-20 -14 -32 -14c-13 0 -23 5 -32 14s-14 20 -14 33s5 24 14 33z" />
    <glyph glyph-name="Aring" unicode="&#xc5;" horiz-adv-x="595" 
d="M329 600l257 -600h-72l-57 133h-320l-56 -133h-72l257 600h63zM298 510l-133 -312h265zM224 765c19 16 44 24 74 24c29 0 54 -8 73 -24s29 -37 29 -63s-10 -47 -29 -63s-44 -24 -73 -24c-30 0 -55 8 -74 24c-20 16 -30 37 -30 63s10 47 30 63zM298 745
c-38 0 -57 -14 -57 -43s19 -43 57 -43c37 0 55 14 55 43s-18 43 -55 43z" />
    <glyph glyph-name="AE" unicode="&#xc6;" horiz-adv-x="878" 
d="M-5 0l412 600h430v-65h-351v-199h300v-65h-300v-206h351v-65h-421v133h-246l-89 -133h-86zM409 490l-196 -292h203v292h-7z" />
    <glyph glyph-name="Ccedilla" unicode="&#xc7;" horiz-adv-x="565" 
d="M296 -63l-13 16l17 36c-77 9 -140 42 -188 101c-47 57 -71 127 -71 209c0 90 28 164 83 223c56 61 128 91 216 91c90 0 156 -26 199 -77l-40 -54c-40 43 -93 65 -158 65c-67 0 -122 -24 -165 -73c-42 -47 -63 -106 -63 -175s21 -127 63 -174c44 -49 99 -73 165 -73
c65 0 118 22 158 65l40 -54c-43 -51 -109 -77 -199 -77h-2l-7 -17c43 -1 64 -23 64 -64c0 -47 -26 -70 -78 -70c-33 0 -57 9 -72 28l19 28c13 -13 31 -20 52 -20c28 0 42 12 42 35c0 21 -14 32 -42 32c-9 0 -15 0 -20 -1z" />
    <glyph glyph-name="Egrave" unicode="&#xc8;" horiz-adv-x="544" 
d="M452 336v-65h-300v-206h351v-65h-421v600h421v-65h-351v-199h300zM277 635l-87 132l84 13l53 -145h-50z" />
    <glyph glyph-name="Eacute" unicode="&#xc9;" horiz-adv-x="544" 
d="M452 336v-65h-300v-206h351v-65h-421v600h421v-65h-351v-199h300zM403 767l-87 -132h-50l53 145z" />
    <glyph glyph-name="Ecircumflex" unicode="&#xca;" horiz-adv-x="544" 
d="M452 336v-65h-300v-206h351v-65h-421v600h421v-65h-351v-199h300zM353 668l-53 61l-55 -61h-64l89 108h57l91 -108h-65z" />
    <glyph glyph-name="Edieresis" unicode="&#xcb;" horiz-adv-x="544" 
d="M452 336v-65h-300v-206h351v-65h-421v600h421v-65h-351v-199h300zM181 748c9 9 20 14 32 14s23 -5 32 -14s14 -20 14 -33s-5 -24 -14 -33s-20 -14 -32 -14s-23 5 -32 14s-14 20 -14 33s5 24 14 33zM343 748c9 9 19 14 32 14c12 0 23 -5 32 -14s14 -20 14 -33
s-5 -24 -14 -33s-20 -14 -32 -14c-13 0 -23 5 -32 14s-14 20 -14 33s5 24 14 33z" />
    <glyph glyph-name="Igrave" unicode="&#xcc;" horiz-adv-x="234" 
d="M152 600v-600h-70v600h70zM90 635l-87 132l84 13l53 -145h-50z" />
    <glyph glyph-name="Iacute" unicode="&#xcd;" horiz-adv-x="234" 
d="M152 600v-600h-70v600h70zM230 767l-87 -132h-50l53 145z" />
    <glyph glyph-name="Icircumflex" unicode="&#xce;" horiz-adv-x="234" 
d="M152 600v-600h-70v600h70zM172 668l-53 61l-55 -61h-64l89 108h57l91 -108h-65z" />
    <glyph glyph-name="Idieresis" unicode="&#xcf;" horiz-adv-x="234" 
d="M152 600v-600h-70v600h70zM4 748c9 9 20 14 32 14s23 -5 32 -14s14 -20 14 -33s-5 -24 -14 -33s-20 -14 -32 -14s-23 5 -32 14s-14 20 -14 33s5 24 14 33zM166 748c9 9 19 14 32 14c12 0 23 -5 32 -14s14 -20 14 -33s-5 -24 -14 -33s-20 -14 -32 -14c-13 0 -23 5 -32 14
s-14 20 -14 33s5 24 14 33z" />
    <glyph glyph-name="Eth" unicode="&#xd0;" horiz-adv-x="631" 
d="M24 272v64h59v264h200c91 0 165 -27 221 -81c56 -55 84 -128 84 -219s-28 -164 -84 -219c-56 -54 -130 -81 -221 -81h-200v272h-59zM279 535h-126v-199h178v-64h-178v-207h126c69 0 126 21 170 62c45 43 68 101 68 173s-23 130 -68 173c-44 41 -101 62 -170 62z" />
    <glyph glyph-name="Ntilde" unicode="&#xd1;" horiz-adv-x="665" 
d="M583 600v-600h-50l-381 476v-476h-70v600h51l380 -474v474h70zM332 699c-31 19 -53 29 -66 29c-22 0 -37 -15 -46 -44l-4 -16l-49 6l5 26c11 55 40 83 87 83c21 0 47 -10 78 -30s53 -30 67 -30c25 0 41 15 47 45l3 15l49 -5l-4 -25c-10 -56 -39 -84 -87 -84
c-22 0 -49 10 -80 30z" />
    <glyph glyph-name="Ograve" unicode="&#xd2;" horiz-adv-x="677" 
d="M123 77c-54 59 -81 133 -81 222c0 90 27 164 81 223c55 61 126 91 215 91s162 -30 217 -91c53 -58 80 -132 80 -223c0 -89 -27 -163 -80 -222c-55 -61 -128 -91 -217 -91c-88 0 -160 30 -215 91zM503 125c41 47 61 105 61 174c0 70 -20 128 -61 175
c-42 49 -97 73 -165 73c-67 0 -122 -24 -164 -73c-40 -47 -60 -105 -60 -175c0 -69 20 -127 60 -174c42 -48 97 -72 164 -72c68 0 123 24 165 72zM316 668l-87 132l84 13l53 -145h-50z" />
    <glyph glyph-name="Oacute" unicode="&#xd3;" horiz-adv-x="677" 
d="M123 77c-54 59 -81 133 -81 222c0 90 27 164 81 223c55 61 126 91 215 91s162 -30 217 -91c53 -58 80 -132 80 -223c0 -89 -27 -163 -80 -222c-55 -61 -128 -91 -217 -91c-88 0 -160 30 -215 91zM503 125c41 47 61 105 61 174c0 70 -20 128 -61 175
c-42 49 -97 73 -165 73c-67 0 -122 -24 -164 -73c-40 -47 -60 -105 -60 -175c0 -69 20 -127 60 -174c42 -48 97 -72 164 -72c68 0 123 24 165 72zM447 800l-87 -132h-50l53 145z" />
    <glyph glyph-name="Ocircumflex" unicode="&#xd4;" horiz-adv-x="677" 
d="M123 77c-54 59 -81 133 -81 222c0 90 27 164 81 223c55 61 126 91 215 91s162 -30 217 -91c53 -58 80 -132 80 -223c0 -89 -27 -163 -80 -222c-55 -61 -128 -91 -217 -91c-88 0 -160 30 -215 91zM503 125c41 47 61 105 61 174c0 70 -20 128 -61 175
c-42 49 -97 73 -165 73c-67 0 -122 -24 -164 -73c-40 -47 -60 -105 -60 -175c0 -69 20 -127 60 -174c42 -48 97 -72 164 -72c68 0 123 24 165 72zM393 668l-53 61l-55 -61h-64l89 108h57l91 -108h-65z" />
    <glyph glyph-name="Otilde" unicode="&#xd5;" horiz-adv-x="677" 
d="M123 77c-54 59 -81 133 -81 222c0 90 27 164 81 223c55 61 126 91 215 91s162 -30 217 -91c53 -58 80 -132 80 -223c0 -89 -27 -163 -80 -222c-55 -61 -128 -91 -217 -91c-88 0 -160 30 -215 91zM503 125c41 47 61 105 61 174c0 70 -20 128 -61 175
c-42 49 -97 73 -165 73c-67 0 -122 -24 -164 -73c-40 -47 -60 -105 -60 -175c0 -69 20 -127 60 -174c42 -48 97 -72 164 -72c68 0 123 24 165 72zM334 698c-31 19 -53 29 -66 29c-22 0 -37 -15 -46 -44l-4 -16l-49 6l5 26c11 55 40 83 87 83c21 0 47 -10 78 -30
s53 -30 67 -30c25 0 41 15 47 45l3 15l49 -5l-4 -25c-10 -56 -39 -84 -87 -84c-22 0 -49 10 -80 30z" />
    <glyph glyph-name="Odieresis" unicode="&#xd6;" horiz-adv-x="677" 
d="M123 77c-54 59 -81 133 -81 222c0 90 27 164 81 223c55 61 126 91 215 91s162 -30 217 -91c53 -58 80 -132 80 -223c0 -89 -27 -163 -80 -222c-55 -61 -128 -91 -217 -91c-88 0 -160 30 -215 91zM503 125c41 47 61 105 61 174c0 70 -20 128 -61 175
c-42 49 -97 73 -165 73c-67 0 -122 -24 -164 -73c-40 -47 -60 -105 -60 -175c0 -69 20 -127 60 -174c42 -48 97 -72 164 -72c68 0 123 24 165 72zM225 748c9 9 20 14 32 14s23 -5 32 -14s14 -20 14 -33s-5 -24 -14 -33s-20 -14 -32 -14s-23 5 -32 14s-14 20 -14 33
s5 24 14 33zM387 748c9 9 19 14 32 14c12 0 23 -5 32 -14s14 -20 14 -33s-5 -24 -14 -33s-20 -14 -32 -14c-13 0 -23 5 -32 14s-14 20 -14 33s5 24 14 33z" />
    <glyph glyph-name="multiply" unicode="&#xd7;" horiz-adv-x="494" 
d="M99 102l-41 40l150 157l-150 158l41 40l149 -157l149 157l40 -40l-150 -158l150 -157l-40 -40l-149 156z" />
    <glyph glyph-name="Oslash" unicode="&#xd8;" horiz-adv-x="681" 
d="M142 59l-57 -59h-78l98 100c-41 55 -61 121 -61 199c0 90 27 164 81 223c55 61 126 91 215 91c77 0 142 -24 196 -71l56 58h77l-96 -98c43 -56 64 -124 64 -203c0 -89 -27 -163 -80 -222c-55 -61 -128 -91 -217 -91c-79 0 -145 24 -198 73zM505 125c41 47 61 105 61 174
c0 56 -14 106 -43 151l-332 -341c41 -37 90 -56 149 -56c68 0 123 24 165 72zM156 152l331 340c-41 37 -90 55 -147 55c-67 0 -122 -24 -164 -73c-40 -47 -60 -105 -60 -175c0 -56 13 -105 40 -147z" />
    <glyph glyph-name="Ugrave" unicode="&#xd9;" horiz-adv-x="630" 
d="M138 60c-43 47 -64 111 -64 191v349h70v-349c0 -60 14 -108 43 -143c30 -37 73 -56 128 -56s98 19 129 56c28 35 42 83 42 143v349h70v-349c0 -80 -21 -144 -63 -191c-43 -49 -102 -74 -178 -74c-75 0 -134 25 -177 74zM290 635l-87 132l84 13l53 -145h-50z" />
    <glyph glyph-name="Uacute" unicode="&#xda;" horiz-adv-x="630" 
d="M138 60c-43 47 -64 111 -64 191v349h70v-349c0 -60 14 -108 43 -143c30 -37 73 -56 128 -56s98 19 129 56c28 35 42 83 42 143v349h70v-349c0 -80 -21 -144 -63 -191c-43 -49 -102 -74 -178 -74c-75 0 -134 25 -177 74zM424 767l-87 -132h-50l53 145z" />
    <glyph glyph-name="Ucircumflex" unicode="&#xdb;" horiz-adv-x="630" 
d="M138 60c-43 47 -64 111 -64 191v349h70v-349c0 -60 14 -108 43 -143c30 -37 73 -56 128 -56s98 19 129 56c28 35 42 83 42 143v349h70v-349c0 -80 -21 -144 -63 -191c-43 -49 -102 -74 -178 -74c-75 0 -134 25 -177 74zM370 634l-53 61l-55 -61h-64l89 108h57l91 -108
h-65z" />
    <glyph glyph-name="Udieresis" unicode="&#xdc;" horiz-adv-x="630" 
d="M138 60c-43 47 -64 111 -64 191v349h70v-349c0 -60 14 -108 43 -143c30 -37 73 -56 128 -56s98 19 129 56c28 35 42 83 42 143v349h70v-349c0 -80 -21 -144 -63 -191c-43 -49 -102 -74 -178 -74c-75 0 -134 25 -177 74zM203 748c9 9 20 14 32 14s23 -5 32 -14
s14 -20 14 -33s-5 -24 -14 -33s-20 -14 -32 -14s-23 5 -32 14s-14 20 -14 33s5 24 14 33zM365 748c9 9 19 14 32 14c12 0 23 -5 32 -14s14 -20 14 -33s-5 -24 -14 -33s-20 -14 -32 -14c-13 0 -23 5 -32 14s-14 20 -14 33s5 24 14 33z" />
    <glyph glyph-name="Yacute" unicode="&#xdd;" horiz-adv-x="530" 
d="M286 332l154 268h81l-221 -370v-230h-70v230l-221 370h82l156 -268l18 -38h2zM376 800l-87 -132h-50l53 145z" />
    <glyph glyph-name="Thorn" unicode="&#xde;" horiz-adv-x="575" 
d="M152 600v-98h166c72 0 128 -17 167 -51c41 -35 61 -84 61 -149c0 -67 -21 -118 -63 -155c-41 -35 -97 -53 -169 -53h-162v-94h-70v600h70zM316 436h-164v-276h164c105 0 158 47 158 140c0 91 -53 136 -158 136z" />
    <glyph glyph-name="germandbls" unicode="&#xdf;" horiz-adv-x="498" 
d="M237 281v50c75 11 112 50 112 117c0 29 -9 52 -27 71c-19 19 -44 28 -75 28c-33 0 -59 -11 -79 -32c-21 -23 -32 -54 -32 -95v-420h-69v407c0 134 62 201 187 201c52 0 93 -15 124 -45s46 -69 46 -118c0 -59 -25 -101 -74 -127c35 -9 62 -29 82 -59c18 -27 27 -58 27 -93
c0 -55 -17 -98 -51 -129c-35 -31 -84 -47 -147 -47c-31 0 -55 3 -74 10l9 54c15 -4 36 -6 63 -6c38 0 69 11 92 32s35 49 35 83c0 37 -12 67 -36 88c-23 20 -53 30 -91 30h-22z" />
    <glyph glyph-name="Agrave006" unicode="&#xe0;" horiz-adv-x="461" 
d="M398 259v-259h-48l-8 58h-5c-31 -45 -79 -68 -144 -68c-50 0 -90 13 -120 39c-28 25 -42 56 -42 95c0 41 16 74 49 99c34 25 82 38 143 38c40 0 76 -6 109 -17v15c0 73 -40 110 -120 110c-45 0 -84 -11 -119 -34l-27 57c41 25 91 38 151 38c121 0 181 -57 181 -171z
M332 159v30c-29 14 -64 21 -103 21c-85 0 -128 -28 -128 -84c0 -23 8 -42 25 -57c19 -16 44 -24 76 -24c37 0 69 11 94 34c24 22 36 49 36 80zM206 497l-87 132l84 13l53 -145h-50z" />
    <glyph glyph-name="Aacute002" unicode="&#xe1;" horiz-adv-x="461" 
d="M398 259v-259h-48l-8 58h-5c-31 -45 -79 -68 -144 -68c-50 0 -90 13 -120 39c-28 25 -42 56 -42 95c0 41 16 74 49 99c34 25 82 38 143 38c40 0 76 -6 109 -17v15c0 73 -40 110 -120 110c-45 0 -84 -11 -119 -34l-27 57c41 25 91 38 151 38c121 0 181 -57 181 -171z
M332 159v30c-29 14 -64 21 -103 21c-85 0 -128 -28 -128 -84c0 -23 8 -42 25 -57c19 -16 44 -24 76 -24c37 0 69 11 94 34c24 22 36 49 36 80zM348 629l-87 -132h-50l53 145z" />
    <glyph glyph-name="Acircumflex003" unicode="&#xe2;" horiz-adv-x="461" 
d="M398 259v-259h-48l-8 58h-5c-31 -45 -79 -68 -144 -68c-50 0 -90 13 -120 39c-28 25 -42 56 -42 95c0 41 16 74 49 99c34 25 82 38 143 38c40 0 76 -6 109 -17v15c0 73 -40 110 -120 110c-45 0 -84 -11 -119 -34l-27 57c41 25 91 38 151 38c121 0 181 -57 181 -171z
M332 159v30c-29 14 -64 21 -103 21c-85 0 -128 -28 -128 -84c0 -23 8 -42 25 -57c19 -16 44 -24 76 -24c37 0 69 11 94 34c24 22 36 49 36 80zM277 497l-53 61l-55 -61h-64l89 108h57l91 -108h-65z" />
    <glyph glyph-name="Atilde008" unicode="&#xe3;" horiz-adv-x="461" 
d="M398 259v-259h-48l-8 58h-5c-31 -45 -79 -68 -144 -68c-50 0 -90 13 -120 39c-28 25 -42 56 -42 95c0 41 16 74 49 99c34 25 82 38 143 38c40 0 76 -6 109 -17v15c0 73 -40 110 -120 110c-45 0 -84 -11 -119 -34l-27 57c41 25 91 38 151 38c121 0 181 -57 181 -171z
M332 159v30c-29 14 -64 21 -103 21c-85 0 -128 -28 -128 -84c0 -23 8 -42 25 -57c19 -16 44 -24 76 -24c37 0 69 11 94 34c24 22 36 49 36 80zM219 529c-31 19 -53 29 -66 29c-22 0 -37 -15 -46 -44l-4 -16l-49 6l5 26c11 55 40 83 87 83c21 0 47 -10 78 -30s53 -30 67 -30
c25 0 41 15 47 45l3 15l49 -5l-4 -25c-10 -56 -39 -84 -87 -84c-22 0 -49 10 -80 30z" />
    <glyph glyph-name="Adieresis004" unicode="&#xe4;" horiz-adv-x="461" 
d="M398 259v-259h-48l-8 58h-5c-31 -45 -79 -68 -144 -68c-50 0 -90 13 -120 39c-28 25 -42 56 -42 95c0 41 16 74 49 99c34 25 82 38 143 38c40 0 76 -6 109 -17v15c0 73 -40 110 -120 110c-45 0 -84 -11 -119 -34l-27 57c41 25 91 38 151 38c121 0 181 -57 181 -171z
M332 159v30c-29 14 -64 21 -103 21c-85 0 -128 -28 -128 -84c0 -23 8 -42 25 -57c19 -16 44 -24 76 -24c37 0 69 11 94 34c24 22 36 49 36 80zM112 577c9 9 20 14 32 14s23 -5 32 -14s14 -20 14 -33s-5 -24 -14 -33s-20 -14 -32 -14s-23 5 -32 14s-14 20 -14 33s5 24 14 33z
M274 577c9 9 19 14 32 14c12 0 23 -5 32 -14s14 -20 14 -33s-5 -24 -14 -33s-20 -14 -32 -14c-13 0 -23 5 -32 14s-14 20 -14 33s5 24 14 33z" />
    <glyph glyph-name="Aring007" unicode="&#xe5;" horiz-adv-x="461" 
d="M398 259v-259h-48l-8 58h-5c-31 -45 -79 -68 -144 -68c-50 0 -90 13 -120 39c-28 25 -42 56 -42 95c0 41 16 74 49 99c34 25 82 38 143 38c40 0 76 -6 109 -17v15c0 73 -40 110 -120 110c-45 0 -84 -11 -119 -34l-27 57c41 25 91 38 151 38c121 0 181 -57 181 -171z
M332 159v30c-29 14 -64 21 -103 21c-85 0 -128 -28 -128 -84c0 -23 8 -42 25 -57c19 -16 44 -24 76 -24c37 0 69 11 94 34c24 22 36 49 36 80zM153 647c19 16 44 24 74 24c29 0 54 -8 73 -24s29 -37 29 -63s-10 -47 -29 -63s-44 -24 -73 -24c-30 0 -55 8 -74 24
c-20 16 -30 37 -30 63s10 47 30 63zM227 627c-38 0 -57 -14 -57 -43s19 -43 57 -43c37 0 55 14 55 43s-18 43 -55 43z" />
    <glyph glyph-name="AE005" unicode="&#xe6;" horiz-adv-x="749" 
d="M667 88l26 -50c-29 -33 -79 -49 -149 -49c-79 0 -137 28 -175 85c-34 -56 -91 -84 -170 -84c-55 0 -98 13 -127 39c-27 24 -41 56 -41 95c0 41 16 74 47 99c33 25 80 38 141 38c42 0 80 -6 113 -18v16c0 73 -40 110 -120 110c-45 0 -84 -11 -119 -34l-27 57
c41 25 91 38 151 38c78 0 131 -25 159 -74c37 49 88 74 153 74c59 0 105 -20 138 -61c31 -38 47 -87 47 -148v-17h-313c1 -50 15 -89 44 -117c26 -26 60 -39 103 -39c51 0 91 13 119 40zM298 79c23 21 34 48 34 80v29c-31 14 -67 21 -107 21c-83 0 -124 -28 -124 -85
c0 -53 33 -79 99 -79c41 0 73 11 98 34zM405 260h238c-10 74 -48 111 -115 111c-69 0 -110 -37 -123 -111z" />
    <glyph glyph-name="Ccedilla011" unicode="&#xe7;" horiz-adv-x="411" 
d="M219 -70l-13 16l21 45c-56 5 -101 27 -135 66c-35 39 -52 90 -52 152c0 65 19 119 58 160s89 61 150 61c63 0 105 -12 128 -37l-21 -52c-27 21 -61 31 -103 31c-41 0 -74 -14 -101 -42c-27 -30 -41 -70 -41 -121s14 -91 41 -120c26 -27 60 -41 101 -41c42 0 76 10 103 31
l19 -52c-19 -21 -55 -33 -108 -36l-12 -29c43 -1 64 -23 64 -64c0 -47 -26 -70 -78 -70c-33 0 -57 9 -72 28l19 28c13 -13 31 -20 52 -20c28 0 42 12 42 35c0 21 -14 32 -42 32c-9 0 -15 0 -20 -1z" />
    <glyph glyph-name="Egrave017" unicode="&#xe8;" horiz-adv-x="457" 
d="M375 88l26 -50c-29 -33 -79 -49 -149 -49c-65 0 -116 20 -155 61c-38 40 -57 93 -57 159c0 65 18 117 54 158c36 42 84 63 143 63s105 -20 138 -61c31 -38 47 -87 47 -148v-17h-313c1 -50 15 -89 44 -117c26 -26 60 -39 103 -39c51 0 91 13 119 40zM113 260h238
c-10 74 -48 111 -115 111c-69 0 -110 -37 -123 -111zM211 497l-87 132l84 13l53 -145h-50z" />
    <glyph glyph-name="Eacute014" unicode="&#xe9;" horiz-adv-x="457" 
d="M375 88l26 -50c-29 -33 -79 -49 -149 -49c-65 0 -116 20 -155 61c-38 40 -57 93 -57 159c0 65 18 117 54 158c36 42 84 63 143 63s105 -20 138 -61c31 -38 47 -87 47 -148v-17h-313c1 -50 15 -89 44 -117c26 -26 60 -39 103 -39c51 0 91 13 119 40zM113 260h238
c-10 74 -48 111 -115 111c-69 0 -110 -37 -123 -111zM347 629l-87 -132h-50l53 145z" />
    <glyph glyph-name="Ecircumflex015" unicode="&#xea;" horiz-adv-x="457" 
d="M375 88l26 -50c-29 -33 -79 -49 -149 -49c-65 0 -116 20 -155 61c-38 40 -57 93 -57 159c0 65 18 117 54 158c36 42 84 63 143 63s105 -20 138 -61c31 -38 47 -87 47 -148v-17h-313c1 -50 15 -89 44 -117c26 -26 60 -39 103 -39c51 0 91 13 119 40zM113 260h238
c-10 74 -48 111 -115 111c-69 0 -110 -37 -123 -111zM289 496l-53 61l-55 -61h-64l89 108h57l91 -108h-65z" />
    <glyph glyph-name="Edieresis016" unicode="&#xeb;" horiz-adv-x="457" 
d="M375 88l26 -50c-29 -33 -79 -49 -149 -49c-65 0 -116 20 -155 61c-38 40 -57 93 -57 159c0 65 18 117 54 158c36 42 84 63 143 63s105 -20 138 -61c31 -38 47 -87 47 -148v-17h-313c1 -50 15 -89 44 -117c26 -26 60 -39 103 -39c51 0 91 13 119 40zM113 260h238
c-10 74 -48 111 -115 111c-69 0 -110 -37 -123 -111zM124 577c9 9 20 14 32 14s23 -5 32 -14s14 -20 14 -33s-5 -24 -14 -33s-20 -14 -32 -14s-23 5 -32 14s-14 20 -14 33s5 24 14 33zM286 577c9 9 19 14 32 14c12 0 23 -5 32 -14s14 -20 14 -33s-5 -24 -14 -33
s-20 -14 -32 -14c-13 0 -23 5 -32 14s-14 20 -14 33s5 24 14 33z" />
    <glyph glyph-name="Igrave027" unicode="&#xec;" horiz-adv-x="207" 
d="M69 0v420h69v-420h-69zM75 497l-87 132l84 13l53 -145h-50z" />
    <glyph glyph-name="Iacute024" unicode="&#xed;" horiz-adv-x="207" 
d="M216 629l-87 -132h-50l53 145zM69 0v420h69v-420h-69z" />
    <glyph glyph-name="Icircumflex025" unicode="&#xee;" horiz-adv-x="207" 
d="M69 0v420h69v-420h-69zM158 530l-53 61l-55 -61h-64l89 108h57l91 -108h-65z" />
    <glyph glyph-name="Idieresis026" unicode="&#xef;" horiz-adv-x="207" 
d="M-8 609c9 9 20 14 32 14s23 -5 32 -14s14 -20 14 -33s-5 -24 -14 -33s-20 -14 -32 -14s-23 5 -32 14s-14 20 -14 33s5 24 14 33zM154 609c9 9 19 14 32 14c12 0 23 -5 32 -14s14 -20 14 -33s-5 -24 -14 -33s-20 -14 -32 -14c-13 0 -23 5 -32 14s-14 20 -14 33s5 24 14 33
zM69 0v420h69v-420h-69z" />
    <glyph glyph-name="Eth018" unicode="&#xf0;" 
d="M96 50c-37 39 -56 93 -56 160s19 120 56 159c37 41 89 61 154 61c17 0 36 -2 57 -7v5c-9 11 -17 24 -26 37l-48 75l-121 -75l-24 42l119 73l-86 137v11h65l73 -116l124 76l24 -41l-122 -76l129 -204c31 -51 46 -104 46 -157c0 -67 -18 -121 -55 -160
c-38 -40 -90 -60 -155 -60s-117 20 -154 60zM350 331c-25 27 -59 41 -100 41s-75 -14 -100 -41c-27 -29 -40 -70 -40 -121s13 -91 40 -120c26 -28 59 -42 100 -42s74 14 100 42c27 29 40 69 40 120s-13 92 -40 121z" />
    <glyph glyph-name="Ntilde034" unicode="&#xf1;" horiz-adv-x="510" 
d="M67 0v420h49l6 -62h5c30 48 79 72 147 72c54 0 97 -18 128 -54c31 -35 46 -81 46 -139v-237h-69v229c0 42 -10 76 -30 102c-22 27 -52 41 -90 41c-39 0 -70 -14 -93 -42c-19 -23 -29 -49 -30 -78v-252h-69zM251 560c-31 19 -53 29 -66 29c-22 0 -37 -15 -46 -44l-4 -16
l-49 6l5 26c11 55 40 83 87 83c21 0 47 -10 78 -30s53 -30 67 -30c25 0 41 15 47 45l3 15l49 -5l-4 -25c-10 -56 -39 -84 -87 -84c-22 0 -49 10 -80 30z" />
    <glyph glyph-name="Ograve040" unicode="&#xf2;" 
d="M400 49c-40 -39 -90 -59 -150 -59s-110 20 -149 59c-41 41 -62 94 -62 159c0 66 21 120 62 161c39 41 89 61 149 61c59 0 109 -20 150 -61c41 -42 62 -96 62 -161s-21 -118 -62 -159zM350 89c29 31 43 71 43 120s-14 89 -43 120c-27 30 -60 45 -100 45s-73 -15 -100 -45
c-29 -31 -43 -71 -43 -120s14 -89 43 -120c27 -29 60 -43 100 -43s73 14 100 43zM224 497l-87 132l84 13l53 -145h-50z" />
    <glyph glyph-name="Oacute036" unicode="&#xf3;" 
d="M400 49c-40 -39 -90 -59 -150 -59s-110 20 -149 59c-41 41 -62 94 -62 159c0 66 21 120 62 161c39 41 89 61 149 61c59 0 109 -20 150 -61c41 -42 62 -96 62 -161s-21 -118 -62 -159zM350 89c29 31 43 71 43 120s-14 89 -43 120c-27 30 -60 45 -100 45s-73 -15 -100 -45
c-29 -31 -43 -71 -43 -120s14 -89 43 -120c27 -29 60 -43 100 -43s73 14 100 43zM360 629l-87 -132h-50l53 145z" />
    <glyph glyph-name="Ocircumflex037" unicode="&#xf4;" 
d="M400 49c-40 -39 -90 -59 -150 -59s-110 20 -149 59c-41 41 -62 94 -62 159c0 66 21 120 62 161c39 41 89 61 149 61c59 0 109 -20 150 -61c41 -42 62 -96 62 -161s-21 -118 -62 -159zM350 89c29 31 43 71 43 120s-14 89 -43 120c-27 30 -60 45 -100 45s-73 -15 -100 -45
c-29 -31 -43 -71 -43 -120s14 -89 43 -120c27 -29 60 -43 100 -43s73 14 100 43zM304 500l-53 61l-55 -61h-64l89 108h57l91 -108h-65z" />
    <glyph glyph-name="Otilde042" unicode="&#xf5;" 
d="M400 49c-40 -39 -90 -59 -150 -59s-110 20 -149 59c-41 41 -62 94 -62 159c0 66 21 120 62 161c39 41 89 61 149 61c59 0 109 -20 150 -61c41 -42 62 -96 62 -161s-21 -118 -62 -159zM350 89c29 31 43 71 43 120s-14 89 -43 120c-27 30 -60 45 -100 45s-73 -15 -100 -45
c-29 -31 -43 -71 -43 -120s14 -89 43 -120c27 -29 60 -43 100 -43s73 14 100 43zM242 561c-31 19 -53 29 -66 29c-22 0 -37 -15 -46 -44l-4 -16l-49 6l5 26c11 55 40 83 87 83c21 0 47 -10 78 -30s53 -30 67 -30c25 0 41 15 47 45l3 15l49 -5l-4 -25
c-10 -56 -39 -84 -87 -84c-22 0 -49 10 -80 30z" />
    <glyph glyph-name="Odieresis038" unicode="&#xf6;" 
d="M400 49c-40 -39 -90 -59 -150 -59s-110 20 -149 59c-41 41 -62 94 -62 159c0 66 21 120 62 161c39 41 89 61 149 61c59 0 109 -20 150 -61c41 -42 62 -96 62 -161s-21 -118 -62 -159zM350 89c29 31 43 71 43 120s-14 89 -43 120c-27 30 -60 45 -100 45s-73 -15 -100 -45
c-29 -31 -43 -71 -43 -120s14 -89 43 -120c27 -29 60 -43 100 -43s73 14 100 43zM137 610c9 9 20 14 32 14s23 -5 32 -14s14 -20 14 -33s-5 -24 -14 -33s-20 -14 -32 -14s-23 5 -32 14s-14 20 -14 33s5 24 14 33zM299 610c9 9 19 14 32 14c12 0 23 -5 32 -14s14 -20 14 -33
s-5 -24 -14 -33s-20 -14 -32 -14c-13 0 -23 5 -32 14s-14 20 -14 33s5 24 14 33z" />
    <glyph glyph-name="divide" unicode="&#xf7;" horiz-adv-x="489" 
d="M210 184c9 9 21 14 35 14c13 0 25 -5 34 -14c10 -10 15 -22 15 -36s-5 -26 -15 -35c-9 -9 -21 -14 -34 -14c-14 0 -26 5 -35 14c-10 9 -15 21 -15 35s5 26 15 36zM210 485c9 9 21 14 35 14c13 0 25 -5 34 -14c10 -10 15 -22 15 -36s-5 -26 -15 -35c-9 -9 -21 -14 -34 -14
c-14 0 -26 5 -35 14c-10 9 -15 21 -15 35s5 26 15 36zM59 267v58h371v-58h-371z" />
    <glyph glyph-name="Oslash041" unicode="&#xf8;" horiz-adv-x="502" 
d="M401 49c-40 -39 -90 -59 -150 -59c-53 0 -98 15 -135 46l-34 -36h-56l62 64c-32 39 -48 87 -48 144c0 66 21 120 62 161c39 41 89 61 149 61c50 0 94 -15 131 -45l32 35h56l-60 -62c35 -42 53 -92 53 -150c0 -65 -21 -118 -62 -159zM351 89c29 31 43 71 43 120
c0 39 -10 73 -29 102l-208 -229c26 -24 57 -36 94 -36c40 0 73 14 100 43zM133 112l207 228c-26 23 -56 34 -89 34c-40 0 -73 -15 -100 -45c-29 -31 -43 -71 -43 -120c0 -37 8 -70 25 -97z" />
    <glyph glyph-name="Ugrave053" unicode="&#xf9;" horiz-adv-x="507" 
d="M440 420v-420h-44l-12 60h-3c-27 -47 -77 -70 -149 -70c-54 0 -96 18 -126 54c-29 34 -44 80 -44 139v237h69v-229c0 -43 9 -77 28 -102c20 -27 49 -41 87 -41c39 0 71 14 94 41c19 23 30 49 31 78v253h69zM226 497l-87 132l84 13l53 -145h-50z" />
    <glyph glyph-name="Uacute050" unicode="&#xfa;" horiz-adv-x="507" 
d="M361 629l-87 -132h-50l53 145zM440 420v-420h-44l-12 60h-3c-27 -47 -77 -70 -149 -70c-54 0 -96 18 -126 54c-29 34 -44 80 -44 139v237h69v-229c0 -43 9 -77 28 -102c20 -27 49 -41 87 -41c39 0 71 14 94 41c19 23 30 49 31 78v253h69z" />
    <glyph glyph-name="Ucircumflex051" unicode="&#xfb;" horiz-adv-x="507" 
d="M302 496l-53 61l-55 -61h-64l89 108h57l91 -108h-65zM440 420v-420h-44l-12 60h-3c-27 -47 -77 -70 -149 -70c-54 0 -96 18 -126 54c-29 34 -44 80 -44 139v237h69v-229c0 -43 9 -77 28 -102c20 -27 49 -41 87 -41c39 0 71 14 94 41c19 23 30 49 31 78v253h69z" />
    <glyph glyph-name="Udieresis052" unicode="&#xfc;" horiz-adv-x="507" 
d="M136 576c9 9 20 14 32 14s23 -5 32 -14s14 -20 14 -33s-5 -24 -14 -33s-20 -14 -32 -14s-23 5 -32 14s-14 20 -14 33s5 24 14 33zM298 576c9 9 19 14 32 14c12 0 23 -5 32 -14s14 -20 14 -33s-5 -24 -14 -33s-20 -14 -32 -14c-13 0 -23 5 -32 14s-14 20 -14 33
s5 24 14 33zM440 420v-420h-44l-12 60h-3c-27 -47 -77 -70 -149 -70c-54 0 -96 18 -126 54c-29 34 -44 80 -44 139v237h69v-229c0 -43 9 -77 28 -102c20 -27 49 -41 87 -41c39 0 71 14 94 41c19 23 30 49 31 78v253h69z" />
    <glyph glyph-name="Yacute058" unicode="&#xfd;" horiz-adv-x="453" 
d="M440 420l-254 -576h-72l82 176l-183 400h76l132 -311c5 -14 7 -23 7 -28h4c0 7 2 16 6 28l131 311h71zM340 629l-87 -132h-50l53 145z" />
    <glyph glyph-name="Thorn049" unicode="&#xfe;" horiz-adv-x="524" 
d="M139 86h-3v-242h-69v756h69v-264h3c6 16 16 32 31 47c31 31 70 47 118 47c57 0 103 -20 140 -60c37 -41 56 -95 56 -160s-19 -118 -57 -159c-37 -41 -83 -61 -139 -61c-49 0 -88 16 -118 48c-15 16 -26 32 -31 48zM175 91c27 -29 60 -43 100 -43s73 15 99 45
c27 31 40 70 40 117s-13 86 -40 117c-26 30 -59 45 -99 45s-73 -14 -100 -43c-28 -30 -42 -70 -42 -119s14 -89 42 -119z" />
    <glyph glyph-name="Ydieresis059" unicode="&#xff;" horiz-adv-x="453" 
d="M440 420l-254 -576h-72l82 176l-183 400h76l132 -311c5 -14 7 -23 7 -28h4c0 7 2 16 6 28l131 311h71zM116 576c9 9 20 14 32 14s23 -5 32 -14s14 -20 14 -33s-5 -24 -14 -33s-20 -14 -32 -14s-23 5 -32 14s-14 20 -14 33s5 24 14 33zM278 576c9 9 19 14 32 14
c12 0 23 -5 32 -14s14 -20 14 -33s-5 -24 -14 -33s-20 -14 -32 -14c-13 0 -23 5 -32 14s-14 20 -14 33s5 24 14 33z" />
    <glyph glyph-name="abreve110" unicode="&#x102;" horiz-adv-x="595" 
d="M329 600l257 -600h-72l-57 133h-320l-56 -133h-72l257 600h63zM298 510l-133 -312h265zM375 812h55c0 -39 -13 -73 -40 -100c-26 -27 -57 -40 -92 -40c-37 0 -68 13 -93 40c-26 27 -39 61 -39 100h55c0 -23 7 -42 22 -58c15 -17 33 -26 55 -26c21 0 40 8 55 25
s22 36 22 59z" />
    <glyph glyph-name="abreve" unicode="&#x103;" horiz-adv-x="461" 
d="M398 259v-259h-48l-8 58h-5c-31 -45 -79 -68 -144 -68c-50 0 -90 13 -120 39c-28 25 -42 56 -42 95c0 41 16 74 49 99c34 25 82 38 143 38c40 0 76 -6 109 -17v15c0 73 -40 110 -120 110c-45 0 -84 -11 -119 -34l-27 57c41 25 91 38 151 38c121 0 181 -57 181 -171z
M332 159v30c-29 14 -64 21 -103 21c-85 0 -128 -28 -128 -84c0 -23 8 -42 25 -57c19 -16 44 -24 76 -24c37 0 69 11 94 34c24 22 36 49 36 80zM291 638h55c0 -39 -13 -73 -40 -100c-26 -27 -57 -40 -92 -40c-37 0 -68 13 -93 40c-26 27 -39 61 -39 100h55
c0 -23 7 -42 22 -58c15 -17 33 -26 55 -26c21 0 40 8 55 25s22 36 22 59z" />
    <glyph glyph-name="dcroat062" unicode="&#x110;" horiz-adv-x="630" 
d="M295 276h-143v-211h126c69 0 126 21 170 62c45 43 68 101 68 173s-23 130 -68 173c-44 41 -101 62 -170 62h-126v-213h143v-46zM0 322h82v278h200c91 0 165 -27 221 -81c56 -55 84 -128 84 -219s-28 -164 -84 -219c-56 -54 -130 -81 -221 -81h-200v276h-82v46z" />
    <glyph glyph-name="dcroat" unicode="&#x111;" horiz-adv-x="524" 
d="M351 329c-27 29 -60 43 -101 43c-40 0 -73 -15 -100 -45c-27 -31 -40 -70 -40 -117s13 -86 40 -117c27 -30 60 -45 100 -45c41 0 74 14 101 43c28 30 42 70 42 119s-14 89 -42 119zM498 476h-41v-476h-48l-10 67h-3c-26 -51 -79 -77 -158 -77c-57 0 -104 20 -141 60
c-38 41 -57 95 -57 160s19 118 57 159c37 41 83 61 139 61c76 0 126 -22 149 -66h3v112h-185v46h185v83h69v-83h41v-46z" />
    <glyph glyph-name="Itilde" unicode="&#x128;" horiz-adv-x="234" 
d="M152 600v-600h-70v600h70zM114 703c-31 19 -53 29 -66 29c-22 0 -37 -15 -46 -44l-4 -16l-49 6l5 26c11 55 40 83 87 83c21 0 47 -10 78 -30s53 -30 67 -30c25 0 41 15 47 45l3 15l49 -5l-4 -25c-10 -56 -39 -84 -87 -84c-22 0 -49 10 -80 30z" />
    <glyph glyph-name="Itilde111" unicode="&#x129;" horiz-adv-x="207" 
d="M69 0v420h69v-420h-69zM100 531c-31 19 -53 29 -66 29c-22 0 -37 -15 -46 -44l-4 -16l-49 6l5 26c11 55 40 83 87 83c21 0 47 -10 78 -30s53 -30 67 -30c25 0 41 15 47 45l3 15l49 -5l-4 -25c-10 -56 -39 -84 -87 -84c-22 0 -49 10 -80 30z" />
    <glyph glyph-name="dotlessi" unicode="&#x131;" horiz-adv-x="207" 
d="M69 0v420h69v-420h-69z" />
    <glyph glyph-name="Lslash" unicode="&#x141;" horiz-adv-x="491" 
d="M18 237v50l66 40v273h70v-230l160 99v-50l-160 -99v-255h312v-65h-382v277z" />
    <glyph glyph-name="Lslash030" unicode="&#x142;" horiz-adv-x="227" 
d="M22 225v46l58 36v298h69v-255l58 36v-46l-58 -36v-304h-69v261z" />
    <glyph glyph-name="OE" unicode="&#x152;" horiz-adv-x="1027" 
d="M935 336v-65h-300v-206h351v-65h-421v88c-56 -68 -132 -102 -227 -102c-88 0 -160 30 -215 91c-54 59 -81 133 -81 222c0 90 27 164 81 223c55 61 126 91 215 91c95 0 171 -34 227 -102v89h421v-65h-351v-199h300zM503 125c41 47 61 105 61 174c0 70 -20 128 -61 175
c-42 49 -97 73 -165 73c-67 0 -122 -24 -164 -73c-40 -47 -60 -105 -60 -175c0 -69 20 -127 60 -174c42 -48 97 -72 164 -72c68 0 123 24 165 72z" />
    <glyph glyph-name="OE039" unicode="&#x153;" horiz-adv-x="809" 
d="M729 88l26 -50c-29 -33 -79 -49 -149 -49c-83 0 -143 31 -180 93c-39 -61 -98 -92 -176 -92c-60 0 -110 20 -149 59c-41 41 -62 94 -62 159c0 66 21 120 62 161c39 41 89 61 149 61c76 0 135 -31 176 -94c35 63 90 94 165 94c59 0 105 -20 138 -61c31 -38 47 -87 47 -148
v-17h-313c1 -50 15 -89 44 -117c26 -26 60 -39 103 -39c51 0 91 13 119 40zM350 89c29 31 43 71 43 120s-14 89 -43 120c-27 30 -60 45 -100 45s-73 -15 -100 -45c-29 -31 -43 -71 -43 -120s14 -89 43 -120c27 -29 60 -43 100 -43s73 14 100 43zM467 260h238
c-10 74 -48 111 -115 111c-69 0 -110 -37 -123 -111z" />
    <glyph glyph-name="Scaron" unicode="&#x160;" horiz-adv-x="509" 
d="M42 57l38 53c40 -39 97 -58 172 -58c99 0 148 34 148 103c0 28 -11 51 -32 68c-23 17 -65 35 -126 53c-71 22 -122 45 -151 70c-32 27 -48 62 -48 106c0 49 19 88 57 117s90 44 156 44c93 0 159 -20 197 -59l-38 -58c-35 34 -88 51 -159 51c-42 0 -76 -8 -101 -24
c-27 -17 -40 -41 -40 -71c0 -25 11 -45 34 -60c22 -15 63 -32 124 -50c74 -21 126 -47 157 -76c28 -27 42 -64 42 -110c0 -51 -18 -91 -55 -121c-39 -33 -94 -49 -164 -49c-97 0 -167 24 -211 71zM196 777l53 -62l55 62h64l-89 -109h-57l-91 109h65z" />
    <glyph glyph-name="Scaron047" unicode="&#x161;" horiz-adv-x="409" 
d="M39 42l31 48c38 -27 86 -41 143 -41c64 0 96 21 96 62c0 21 -14 37 -42 50c-9 4 -40 14 -93 29c-90 25 -135 66 -135 121c0 35 12 63 37 84c27 23 67 35 118 35c71 0 126 -11 166 -34l-28 -59c-35 23 -79 34 -132 34c-65 0 -97 -19 -97 -58c0 -19 14 -35 42 -46
c6 -3 37 -12 93 -27c90 -25 135 -67 135 -126c0 -36 -12 -65 -37 -86c-28 -25 -70 -38 -125 -38c-79 0 -137 17 -172 52zM155 606l53 -62l55 62h64l-89 -109h-57l-91 109h65z" />
    <glyph glyph-name="Utilde" unicode="&#x168;" horiz-adv-x="630" 
d="M138 60c-43 47 -64 111 -64 191v349h70v-349c0 -60 14 -108 43 -143c30 -37 73 -56 128 -56s98 19 129 56c28 35 42 83 42 143v349h70v-349c0 -80 -21 -144 -63 -191c-43 -49 -102 -74 -178 -74c-75 0 -134 25 -177 74zM312 702c-31 19 -53 29 -66 29
c-22 0 -37 -15 -46 -44l-4 -16l-49 6l5 26c11 55 40 83 87 83c21 0 47 -10 78 -30s53 -30 67 -30c25 0 41 15 47 45l3 15l49 -5l-4 -25c-10 -56 -39 -84 -87 -84c-22 0 -49 10 -80 30z" />
    <glyph glyph-name="Utilde063" unicode="&#x169;" horiz-adv-x="507" 
d="M440 420v-420h-44l-12 60h-3c-27 -47 -77 -70 -149 -70c-54 0 -96 18 -126 54c-29 34 -44 80 -44 139v237h69v-229c0 -43 9 -77 28 -102c20 -27 49 -41 87 -41c39 0 71 14 94 41c19 23 30 49 31 78v253h69zM248 530c-31 19 -53 29 -66 29c-22 0 -37 -15 -46 -44l-4 -16
l-49 6l5 26c11 55 40 83 87 83c21 0 47 -10 78 -30s53 -30 67 -30c25 0 41 15 47 45l3 15l49 -5l-4 -25c-10 -56 -39 -84 -87 -84c-22 0 -49 10 -80 30z" />
    <glyph glyph-name="Ydieresis" unicode="&#x178;" horiz-adv-x="530" 
d="M286 332l154 268h81l-221 -370v-230h-70v230l-221 370h82l156 -268l18 -38h2zM153 748c9 9 20 14 32 14s23 -5 32 -14s14 -20 14 -33s-5 -24 -14 -33s-20 -14 -32 -14s-23 5 -32 14s-14 20 -14 33s5 24 14 33zM315 748c9 9 19 14 32 14c12 0 23 -5 32 -14s14 -20 14 -33
s-5 -24 -14 -33s-20 -14 -32 -14c-13 0 -23 5 -32 14s-14 20 -14 33s5 24 14 33z" />
    <glyph glyph-name="Zcaron" unicode="&#x17d;" horiz-adv-x="522" 
d="M30 0v47l366 488h-354v65h448v-47l-359 -488h351v-65h-452zM202 777l53 -62l55 62h64l-89 -109h-57l-91 109h65z" />
    <glyph glyph-name="Zcaron061" unicode="&#x17e;" horiz-adv-x="421" 
d="M385 0h-349v35l256 328h-255v57h348v-32l-253 -331h253v-57zM155 606l53 -62l55 62h64l-89 -109h-57l-91 109h65z" />
    <glyph glyph-name="florin" unicode="&#x192;" horiz-adv-x="504" 
d="M164 115l50 250h-89v55h100l7 32c21 105 81 157 179 157c35 0 63 -6 82 -18l-29 -57c-14 8 -33 12 -57 12c-59 0 -94 -31 -107 -94l-7 -32h153v-55h-164l-53 -267c-13 -65 -50 -98 -110 -98c-31 0 -58 8 -79 23l21 52c15 -9 30 -14 46 -14c31 0 50 18 57 54z" />
    <glyph glyph-name="Ohorn" unicode="&#x1a0;" horiz-adv-x="677" 
d="M503 125c41 47 61 105 61 174c0 70 -20 128 -61 175c-42 49 -97 73 -165 73c-67 0 -122 -24 -164 -73c-40 -47 -60 -105 -60 -175c0 -69 20 -127 60 -174c42 -48 97 -72 164 -72c68 0 123 24 165 72zM512 561c15 -11 30 -24 43 -39c53 -58 80 -132 80 -223
c0 -89 -27 -163 -80 -222c-55 -61 -128 -91 -217 -91c-88 0 -160 30 -215 91c-54 59 -81 133 -81 222c0 90 27 164 81 223c55 61 126 91 215 91c36 0 69 -5 100 -15c25 1 45 10 60 25c16 16 24 37 24 62h60c0 -41 -14 -75 -41 -102c-9 -9 -18 -16 -29 -22z" />
    <glyph glyph-name="Ohorn064" unicode="&#x1a1;" 
d="M350 89c29 31 43 71 43 120s-14 89 -43 120c-27 30 -60 45 -100 45s-73 -15 -100 -45c-29 -31 -43 -71 -43 -120s14 -89 43 -120c27 -29 60 -43 100 -43s73 14 100 43zM393 375c3 -2 5 -4 7 -6c41 -42 62 -96 62 -161s-21 -118 -62 -159c-40 -39 -90 -59 -150 -59
s-110 20 -149 59c-41 41 -62 94 -62 159c0 66 21 120 62 161c39 41 89 61 149 61c27 0 53 -4 76 -13c26 1 47 9 63 25s24 37 24 62h60c0 -41 -14 -75 -41 -102c-11 -11 -24 -20 -39 -27z" />
    <glyph glyph-name="Uhorn" unicode="&#x1af;" horiz-adv-x="630" 
d="M556 551v-300c0 -80 -21 -144 -63 -191c-43 -49 -102 -74 -178 -74c-75 0 -134 25 -177 74c-43 47 -64 111 -64 191v349h70v-349c0 -60 14 -108 43 -143c30 -37 73 -56 128 -56s98 19 129 56c28 35 42 83 42 143v349h36c17 3 32 11 44 23c16 16 24 37 24 62h60
c0 -41 -14 -75 -41 -102c-15 -15 -33 -25 -53 -32z" />
    <glyph glyph-name="Uhorn065" unicode="&#x1b0;" horiz-adv-x="507" 
d="M440 373v-373h-44l-12 60h-3c-27 -47 -77 -70 -149 -70c-54 0 -96 18 -126 54c-29 34 -44 80 -44 139v237h69v-229c0 -43 9 -77 28 -102c20 -27 49 -41 87 -41c39 0 71 14 94 41c19 23 30 49 31 78v253h30c16 4 29 11 40 22c16 16 24 37 24 62h60c0 -41 -14 -75 -41 -102
c-13 -13 -27 -22 -44 -29z" />
    <glyph glyph-name="circumflex" unicode="&#x2c6;" horiz-adv-x="371" 
d="M245 498l-53 61l-55 -61h-64l89 108h57l91 -108h-65z" />
    <glyph glyph-name="caron" unicode="&#x2c7;" horiz-adv-x="325" 
d="M107 777l53 -62l55 62h64l-89 -109h-57l-91 109h65z" />
    <glyph glyph-name="breve" unicode="&#x2d8;" horiz-adv-x="396" 
d="M275 808h55c0 -39 -13 -73 -40 -100c-26 -27 -57 -40 -92 -40c-37 0 -68 13 -93 40c-26 27 -39 61 -39 100h55c0 -23 7 -42 22 -58c15 -17 33 -26 55 -26c21 0 40 8 55 25s22 36 22 59z" />
    <glyph glyph-name="dotaccent" unicode="&#x2d9;" horiz-adv-x="331" 
d="M124 567c-11 11 -17 25 -17 42s6 31 17 42s25 17 42 17s31 -6 42 -17s17 -25 17 -42s-6 -31 -17 -42s-25 -17 -42 -17s-31 6 -42 17z" />
    <glyph glyph-name="ring" unicode="&#x2da;" horiz-adv-x="288" 
d="M71 765c19 16 44 24 74 24c29 0 54 -8 73 -24s29 -37 29 -63s-10 -47 -29 -63s-44 -24 -73 -24c-30 0 -55 8 -74 24c-20 16 -30 37 -30 63s10 47 30 63zM145 745c-38 0 -57 -14 -57 -43s19 -43 57 -43c37 0 55 14 55 43s-18 43 -55 43z" />
    <glyph glyph-name="ogonek" unicode="&#x2db;" horiz-adv-x="192" 
d="M143 -83l22 -29c-14 -17 -34 -25 -61 -25c-47 0 -71 23 -71 68c0 29 15 53 45 72c15 10 29 17 44 21l8 -24c-37 -13 -55 -33 -55 -61c0 -24 12 -36 35 -36c13 0 24 5 33 14z" />
    <glyph glyph-name="tilde" unicode="&#x2dc;" horiz-adv-x="485" 
d="M234 698c-31 19 -53 29 -66 29c-22 0 -37 -15 -46 -44l-4 -16l-49 6l5 26c11 55 40 83 87 83c21 0 47 -10 78 -30s53 -30 67 -30c25 0 41 15 47 45l3 15l49 -5l-4 -25c-10 -56 -39 -84 -87 -84c-22 0 -49 10 -80 30z" />
    <glyph glyph-name="hungarumlaut" unicode="&#x2dd;" horiz-adv-x="395" 
d="M327 577l-80 -158h-48l46 158h82zM174 577l-80 -158h-48l46 158h82z" />
    <glyph glyph-name="gravecomb" unicode="&#x300;" horiz-adv-x="0" 
d="M-255 497l-87 132l84 13l53 -145h-50z" />
    <glyph glyph-name="acutecomb" unicode="&#x301;" horiz-adv-x="0" 
d="M-190 629l-87 -132h-50l53 145z" />
    <glyph glyph-name="tildecomb" unicode="&#x303;" horiz-adv-x="0" 
d="M-206 698c-31 19 -53 29 -66 29c-22 0 -37 -15 -46 -44l-4 -16l-49 6l5 26c11 55 40 83 87 83c21 0 47 -10 78 -30s53 -30 67 -30c25 0 41 15 47 45l3 15l49 -5l-4 -25c-10 -56 -39 -84 -87 -84c-22 0 -49 10 -80 30z" />
    <glyph glyph-name="hookabovecomb" unicode="&#x309;" horiz-adv-x="417" 
d="M146 584l-24 49c23 20 48 30 75 30c24 0 44 -6 59 -18c16 -13 24 -30 24 -52c0 -23 -9 -41 -26 -54c-10 -7 -15 -14 -16 -19l-2 -24h-47v29c0 18 7 33 22 46c9 7 13 13 13 20c0 5 -2 9 -6 12c-5 4 -12 6 -21 6c-15 0 -32 -8 -51 -25z" />
    <glyph glyph-name="uni031B" unicode="&#x31b;" horiz-adv-x="0" 
d="M221 598h60c0 -41 -14 -75 -41 -102c-28 -27 -64 -41 -109 -41v56c27 0 49 8 66 25c16 16 24 37 24 62z" />
    <glyph glyph-name="dotbelowcomb" unicode="&#x323;" horiz-adv-x="0" 
d="M-259 -94c9 9 21 14 34 14c14 0 26 -5 35 -14c9 -10 14 -22 14 -36c0 -13 -5 -25 -14 -35c-9 -9 -21 -14 -35 -14c-13 0 -25 5 -34 14c-9 10 -14 22 -14 35c0 14 5 26 14 36z" />
    <glyph glyph-name="pi" unicode="&#x3c0;" horiz-adv-x="487" 
d="M30 420h427v-57h-64v-363h-69v363h-161v-363h-69v363h-64v57z" />
    <glyph glyph-name="A.dotbl" unicode="&#x1ea0;" horiz-adv-x="595" 
d="M329 600l257 -600h-72l-57 133h-320l-56 -133h-72l257 600h63zM298 510l-133 -312h265zM263 -94c9 9 21 14 34 14c14 0 26 -5 35 -14c9 -10 14 -22 14 -36c0 -13 -5 -25 -14 -35c-9 -9 -21 -14 -35 -14c-13 0 -25 5 -34 14c-9 10 -14 22 -14 35c0 14 5 26 14 36z" />
    <glyph glyph-name="A.dotbl066" unicode="&#x1ea1;" horiz-adv-x="461" 
d="M398 259v-259h-48l-8 58h-5c-31 -45 -79 -68 -144 -68c-50 0 -90 13 -120 39c-28 25 -42 56 -42 95c0 41 16 74 49 99c34 25 82 38 143 38c40 0 76 -6 109 -17v15c0 73 -40 110 -120 110c-45 0 -84 -11 -119 -34l-27 57c41 25 91 38 151 38c121 0 181 -57 181 -171z
M332 159v30c-29 14 -64 21 -103 21c-85 0 -128 -28 -128 -84c0 -23 8 -42 25 -57c19 -16 44 -24 76 -24c37 0 69 11 94 34c24 22 36 49 36 80zM180 -94c9 9 21 14 34 14c14 0 26 -5 35 -14c9 -10 14 -22 14 -36c0 -13 -5 -25 -14 -35c-9 -9 -21 -14 -35 -14
c-13 0 -25 5 -34 14c-9 10 -14 22 -14 35c0 14 5 26 14 36z" />
    <glyph glyph-name="A.hook" unicode="&#x1ea2;" horiz-adv-x="595" 
d="M329 600l257 -600h-72l-57 133h-320l-56 -133h-72l257 600h63zM298 510l-133 -312h265zM232 760l-24 49c23 20 48 30 75 30c24 0 44 -6 59 -18c16 -13 24 -30 24 -52c0 -23 -9 -41 -26 -54c-10 -7 -15 -14 -16 -19l-2 -24h-47v29c0 18 7 33 22 46c9 7 13 13 13 20
c0 5 -2 9 -6 12c-5 4 -12 6 -21 6c-15 0 -32 -8 -51 -25z" />
    <glyph glyph-name="A.hook067" unicode="&#x1ea3;" horiz-adv-x="461" 
d="M398 259v-259h-48l-8 58h-5c-31 -45 -79 -68 -144 -68c-50 0 -90 13 -120 39c-28 25 -42 56 -42 95c0 41 16 74 49 99c34 25 82 38 143 38c40 0 76 -6 109 -17v15c0 73 -40 110 -120 110c-45 0 -84 -11 -119 -34l-27 57c41 25 91 38 151 38c121 0 181 -57 181 -171z
M332 159v30c-29 14 -64 21 -103 21c-85 0 -128 -28 -128 -84c0 -23 8 -42 25 -57c19 -16 44 -24 76 -24c37 0 69 11 94 34c24 22 36 49 36 80zM159 584l-24 49c23 20 48 30 75 30c24 0 44 -6 59 -18c16 -13 24 -30 24 -52c0 -23 -9 -41 -26 -54c-10 -7 -15 -14 -16 -19
l-2 -24h-47v29c0 18 7 33 22 46c9 7 13 13 13 20c0 5 -2 9 -6 12c-5 4 -12 6 -21 6c-15 0 -32 -8 -51 -25z" />
    <glyph glyph-name="Acir.acute" unicode="&#x1ea4;" horiz-adv-x="595" 
d="M329 600l257 -600h-72l-57 133h-320l-56 -133h-72l257 600h63zM298 510l-133 -312h265zM357 672l-53 61l-55 -61h-64l89 108h57l91 -108h-65zM520 883l-87 -132h-50l53 145z" />
    <glyph glyph-name="Acir.acute068" unicode="&#x1ea5;" horiz-adv-x="461" 
d="M398 259v-259h-48l-8 58h-5c-31 -45 -79 -68 -144 -68c-50 0 -90 13 -120 39c-28 25 -42 56 -42 95c0 41 16 74 49 99c34 25 82 38 143 38c40 0 76 -6 109 -17v15c0 73 -40 110 -120 110c-45 0 -84 -11 -119 -34l-27 57c41 25 91 38 151 38c121 0 181 -57 181 -171z
M332 159v30c-29 14 -64 21 -103 21c-85 0 -128 -28 -128 -84c0 -23 8 -42 25 -57c19 -16 44 -24 76 -24c37 0 69 11 94 34c24 22 36 49 36 80zM268 498l-53 61l-55 -61h-64l89 108h57l91 -108h-65zM434 700l-87 -132h-50l53 145z" />
    <glyph glyph-name="Acir.grave" unicode="&#x1ea6;" horiz-adv-x="595" 
d="M329 600l257 -600h-72l-57 133h-320l-56 -133h-72l257 600h63zM298 510l-133 -312h265zM355 672l-53 61l-55 -61h-64l89 108h57l91 -108h-65zM164 755l-87 132l84 13l53 -145h-50z" />
    <glyph glyph-name="Acir.grave069" unicode="&#x1ea7;" horiz-adv-x="461" 
d="M398 259v-259h-48l-8 58h-5c-31 -45 -79 -68 -144 -68c-50 0 -90 13 -120 39c-28 25 -42 56 -42 95c0 41 16 74 49 99c34 25 82 38 143 38c40 0 76 -6 109 -17v15c0 73 -40 110 -120 110c-45 0 -84 -11 -119 -34l-27 57c41 25 91 38 151 38c121 0 181 -57 181 -171z
M332 159v30c-29 14 -64 21 -103 21c-85 0 -128 -28 -128 -84c0 -23 8 -42 25 -57c19 -16 44 -24 76 -24c37 0 69 11 94 34c24 22 36 49 36 80zM268 498l-53 61l-55 -61h-64l89 108h57l91 -108h-65zM83 578l-87 132l84 13l53 -145h-50z" />
    <glyph glyph-name="Acir.hook" unicode="&#x1ea8;" horiz-adv-x="595" 
d="M329 600l257 -600h-72l-57 133h-320l-56 -133h-72l257 600h63zM298 510l-133 -312h265zM351 671l-53 61l-55 -61h-64l89 108h57l91 -108h-65zM344 830l-24 49c23 20 48 30 75 30c24 0 44 -6 59 -18c16 -13 24 -30 24 -52c0 -23 -9 -41 -26 -54c-10 -7 -15 -14 -16 -19
l-2 -24h-47v29c0 18 7 33 22 46c9 7 13 13 13 20c0 5 -2 9 -6 12c-5 4 -12 6 -21 6c-15 0 -32 -8 -51 -25z" />
    <glyph glyph-name="Acir.hook070" unicode="&#x1ea9;" horiz-adv-x="461" 
d="M398 259v-259h-48l-8 58h-5c-31 -45 -79 -68 -144 -68c-50 0 -90 13 -120 39c-28 25 -42 56 -42 95c0 41 16 74 49 99c34 25 82 38 143 38c40 0 76 -6 109 -17v15c0 73 -40 110 -120 110c-45 0 -84 -11 -119 -34l-27 57c41 25 91 38 151 38c121 0 181 -57 181 -171z
M332 159v30c-29 14 -64 21 -103 21c-85 0 -128 -28 -128 -84c0 -23 8 -42 25 -57c19 -16 44 -24 76 -24c37 0 69 11 94 34c24 22 36 49 36 80zM268 498l-53 61l-55 -61h-64l89 108h57l91 -108h-65zM269 646l-24 49c23 20 48 30 75 30c24 0 44 -6 59 -18
c16 -13 24 -30 24 -52c0 -23 -9 -41 -26 -54c-10 -7 -15 -14 -16 -19l-2 -24h-47v29c0 18 7 33 22 46c9 7 13 13 13 20c0 5 -2 9 -6 12c-5 4 -12 6 -21 6c-15 0 -32 -8 -51 -25z" />
    <glyph glyph-name="Acir.tilde" unicode="&#x1eaa;" horiz-adv-x="595" 
d="M329 600l257 -600h-72l-57 133h-320l-56 -133h-72l257 600h63zM298 510l-133 -312h265zM351 672l-53 61l-55 -61h-64l89 108h57l91 -108h-65zM315 815c-31 19 -53 29 -66 29c-22 0 -37 -15 -46 -44l-4 -16l-49 6l5 26c11 55 40 83 87 83c21 0 47 -10 78 -30
s53 -30 67 -30c25 0 41 15 47 45l3 15l49 -5l-4 -25c-10 -56 -39 -84 -87 -84c-22 0 -49 10 -80 30z" />
    <glyph glyph-name="Acir.tilde071" unicode="&#x1eab;" horiz-adv-x="461" 
d="M398 259v-259h-48l-8 58h-5c-31 -45 -79 -68 -144 -68c-50 0 -90 13 -120 39c-28 25 -42 56 -42 95c0 41 16 74 49 99c34 25 82 38 143 38c40 0 76 -6 109 -17v15c0 73 -40 110 -120 110c-45 0 -84 -11 -119 -34l-27 57c41 25 91 38 151 38c121 0 181 -57 181 -171z
M332 159v30c-29 14 -64 21 -103 21c-85 0 -128 -28 -128 -84c0 -23 8 -42 25 -57c19 -16 44 -24 76 -24c37 0 69 11 94 34c24 22 36 49 36 80zM268 498l-53 61l-55 -61h-64l89 108h57l91 -108h-65zM249 625c-31 19 -53 29 -66 29c-22 0 -37 -15 -46 -44l-4 -16l-49 6l5 26
c11 55 40 83 87 83c21 0 47 -10 78 -30s53 -30 67 -30c25 0 41 15 47 45l3 15l49 -5l-4 -25c-10 -56 -39 -84 -87 -84c-22 0 -49 10 -80 30z" />
    <glyph glyph-name="Acir.dotbl" unicode="&#x1eac;" horiz-adv-x="595" 
d="M329 600l257 -600h-72l-57 133h-320l-56 -133h-72l257 600h63zM298 510l-133 -312h265zM351 673l-53 61l-55 -61h-64l89 108h57l91 -108h-65zM263 -94c9 9 21 14 34 14c14 0 26 -5 35 -14c9 -10 14 -22 14 -36c0 -13 -5 -25 -14 -35c-9 -9 -21 -14 -35 -14
c-13 0 -25 5 -34 14c-9 10 -14 22 -14 35c0 14 5 26 14 36z" />
    <glyph glyph-name="Acir.dotbl072" unicode="&#x1ead;" horiz-adv-x="461" 
d="M398 259v-259h-48l-8 58h-5c-31 -45 -79 -68 -144 -68c-50 0 -90 13 -120 39c-28 25 -42 56 -42 95c0 41 16 74 49 99c34 25 82 38 143 38c40 0 76 -6 109 -17v15c0 73 -40 110 -120 110c-45 0 -84 -11 -119 -34l-27 57c41 25 91 38 151 38c121 0 181 -57 181 -171z
M332 159v30c-29 14 -64 21 -103 21c-85 0 -128 -28 -128 -84c0 -23 8 -42 25 -57c19 -16 44 -24 76 -24c37 0 69 11 94 34c24 22 36 49 36 80zM268 498l-53 61l-55 -61h-64l89 108h57l91 -108h-65zM180 -94c9 9 21 14 34 14c14 0 26 -5 35 -14c9 -10 14 -22 14 -36
c0 -13 -5 -25 -14 -35c-9 -9 -21 -14 -35 -14c-13 0 -25 5 -34 14c-9 10 -14 22 -14 35c0 14 5 26 14 36z" />
    <glyph glyph-name="Abrv.acute" unicode="&#x1eae;" horiz-adv-x="595" 
d="M329 600l257 -600h-72l-57 133h-320l-56 -133h-72l257 600h63zM298 510l-133 -312h265zM377 814h55c0 -39 -13 -73 -40 -100c-26 -27 -57 -40 -92 -40c-37 0 -68 13 -93 40c-26 27 -39 61 -39 100h55c0 -23 7 -42 22 -58c15 -17 33 -26 55 -26c21 0 40 8 55 25
s22 36 22 59zM420 946l-87 -132h-50l53 145z" />
    <glyph glyph-name="Abrv.acute073" unicode="&#x1eaf;" horiz-adv-x="461" 
d="M398 259v-259h-48l-8 58h-5c-31 -45 -79 -68 -144 -68c-50 0 -90 13 -120 39c-28 25 -42 56 -42 95c0 41 16 74 49 99c34 25 82 38 143 38c40 0 76 -6 109 -17v15c0 73 -40 110 -120 110c-45 0 -84 -11 -119 -34l-27 57c41 25 91 38 151 38c121 0 181 -57 181 -171z
M332 159v30c-29 14 -64 21 -103 21c-85 0 -128 -28 -128 -84c0 -23 8 -42 25 -57c19 -16 44 -24 76 -24c37 0 69 11 94 34c24 22 36 49 36 80zM291 638h55c0 -39 -13 -73 -40 -100c-26 -27 -57 -40 -92 -40c-37 0 -68 13 -93 40c-26 27 -39 61 -39 100h55
c0 -23 7 -42 22 -58c15 -17 33 -26 55 -26c21 0 40 8 55 25s22 36 22 59zM325 765l-87 -132h-50l53 145z" />
    <glyph glyph-name="Abrv.grave" unicode="&#x1eb0;" horiz-adv-x="595" 
d="M329 600l257 -600h-72l-57 133h-320l-56 -133h-72l257 600h63zM298 510l-133 -312h265zM377 813h55c0 -39 -13 -73 -40 -100c-26 -27 -57 -40 -92 -40c-37 0 -68 13 -93 40c-26 27 -39 61 -39 100h55c0 -23 7 -42 22 -58c15 -17 33 -26 55 -26c21 0 40 8 55 25
s22 36 22 59zM283 814l-87 132l84 13l53 -145h-50z" />
    <glyph glyph-name="Abrv.grave074" unicode="&#x1eb1;" horiz-adv-x="461" 
d="M398 259v-259h-48l-8 58h-5c-31 -45 -79 -68 -144 -68c-50 0 -90 13 -120 39c-28 25 -42 56 -42 95c0 41 16 74 49 99c34 25 82 38 143 38c40 0 76 -6 109 -17v15c0 73 -40 110 -120 110c-45 0 -84 -11 -119 -34l-27 57c41 25 91 38 151 38c121 0 181 -57 181 -171z
M332 159v30c-29 14 -64 21 -103 21c-85 0 -128 -28 -128 -84c0 -23 8 -42 25 -57c19 -16 44 -24 76 -24c37 0 69 11 94 34c24 22 36 49 36 80zM292 638h55c0 -39 -13 -73 -40 -100c-26 -27 -57 -40 -92 -40c-37 0 -68 13 -93 40c-26 27 -39 61 -39 100h55
c0 -23 7 -42 22 -58c15 -17 33 -26 55 -26c21 0 40 8 55 25s22 36 22 59zM199 636l-87 132l84 13l53 -145h-50z" />
    <glyph glyph-name="Abrv.hook" unicode="&#x1eb2;" horiz-adv-x="595" 
d="M329 600l257 -600h-72l-57 133h-320l-56 -133h-72l257 600h63zM298 510l-133 -312h265zM375 812h55c0 -39 -13 -73 -40 -100c-26 -27 -57 -40 -92 -40c-37 0 -68 13 -93 40c-26 27 -39 61 -39 100h55c0 -23 7 -42 22 -58c15 -17 33 -26 55 -26c21 0 40 8 55 25
s22 36 22 59zM235 875l-24 37c23 15 48 22 75 22c24 0 44 -4 59 -13c16 -9 24 -22 24 -39s-9 -31 -26 -41c-10 -5 -15 -10 -16 -14l-2 -18h-47v22c0 13 7 25 22 34c9 5 13 10 13 15c0 4 -2 7 -6 9c-5 3 -12 5 -21 5c-15 0 -32 -6 -51 -19z" />
    <glyph glyph-name="Abrv.hook075" unicode="&#x1eb3;" horiz-adv-x="461" 
d="M398 259v-259h-48l-8 58h-5c-31 -45 -79 -68 -144 -68c-50 0 -90 13 -120 39c-28 25 -42 56 -42 95c0 41 16 74 49 99c34 25 82 38 143 38c40 0 76 -6 109 -17v15c0 73 -40 110 -120 110c-45 0 -84 -11 -119 -34l-27 57c41 25 91 38 151 38c121 0 181 -57 181 -171z
M332 159v30c-29 14 -64 21 -103 21c-85 0 -128 -28 -128 -84c0 -23 8 -42 25 -57c19 -16 44 -24 76 -24c37 0 69 11 94 34c24 22 36 49 36 80zM291 638h55c0 -39 -13 -73 -40 -100c-26 -27 -57 -40 -92 -40c-37 0 -68 13 -93 40c-26 27 -39 61 -39 100h55
c0 -23 7 -42 22 -58c15 -17 33 -26 55 -26c21 0 40 8 55 25s22 36 22 59zM150 716l-24 49c23 20 48 30 75 30c24 0 44 -6 59 -18c16 -13 24 -30 24 -52c0 -23 -9 -41 -26 -54c-10 -7 -15 -14 -16 -19l-2 -24h-47v29c0 18 7 33 22 46c9 7 13 13 13 20c0 5 -2 9 -6 12
c-5 4 -12 6 -21 6c-15 0 -32 -8 -51 -25z" />
    <glyph glyph-name="Abrv.tilde" unicode="&#x1eb4;" horiz-adv-x="595" 
d="M329 600l257 -600h-72l-57 133h-320l-56 -133h-72l257 600h63zM298 510l-133 -312h265zM372 810h55c0 -39 -13 -73 -40 -100c-26 -27 -57 -40 -92 -40c-37 0 -68 13 -93 40c-26 27 -39 61 -39 100h55c0 -23 7 -42 22 -58c15 -17 33 -26 55 -26c21 0 40 8 55 25
s22 36 22 59zM301 859c-31 19 -53 29 -66 29c-22 0 -37 -15 -46 -44l-4 -16l-49 6l5 26c11 55 40 83 87 83c21 0 47 -10 78 -30s53 -30 67 -30c25 0 41 15 47 45l3 15l49 -5l-4 -25c-10 -56 -39 -84 -87 -84c-22 0 -49 10 -80 30z" />
    <glyph glyph-name="Abrv.tilde076" unicode="&#x1eb5;" horiz-adv-x="461" 
d="M398 259v-259h-48l-8 58h-5c-31 -45 -79 -68 -144 -68c-50 0 -90 13 -120 39c-28 25 -42 56 -42 95c0 41 16 74 49 99c34 25 82 38 143 38c40 0 76 -6 109 -17v15c0 73 -40 110 -120 110c-45 0 -84 -11 -119 -34l-27 57c41 25 91 38 151 38c121 0 181 -57 181 -171z
M332 159v30c-29 14 -64 21 -103 21c-85 0 -128 -28 -128 -84c0 -23 8 -42 25 -57c19 -16 44 -24 76 -24c37 0 69 11 94 34c24 22 36 49 36 80zM291 638h55c0 -39 -13 -73 -40 -100c-26 -27 -57 -40 -92 -40c-37 0 -68 13 -93 40c-26 27 -39 61 -39 100h55
c0 -23 7 -42 22 -58c15 -17 33 -26 55 -26c21 0 40 8 55 25s22 36 22 59zM220 703c-31 19 -53 29 -66 29c-22 0 -37 -15 -46 -44l-4 -16l-49 6l5 26c11 55 40 83 87 83c21 0 47 -10 78 -30s53 -30 67 -30c25 0 41 15 47 45l3 15l49 -5l-4 -25c-10 -56 -39 -84 -87 -84
c-22 0 -49 10 -80 30z" />
    <glyph glyph-name="Abrv.dotbl" unicode="&#x1eb6;" horiz-adv-x="595" 
d="M329 600l257 -600h-72l-57 133h-320l-56 -133h-72l257 600h63zM298 510l-133 -312h265zM375 813h55c0 -39 -13 -73 -40 -100c-26 -27 -57 -40 -92 -40c-37 0 -68 13 -93 40c-26 27 -39 61 -39 100h55c0 -23 7 -42 22 -58c15 -17 33 -26 55 -26c21 0 40 8 55 25
s22 36 22 59zM263 -94c9 9 21 14 34 14c14 0 26 -5 35 -14c9 -10 14 -22 14 -36c0 -13 -5 -25 -14 -35c-9 -9 -21 -14 -35 -14c-13 0 -25 5 -34 14c-9 10 -14 22 -14 35c0 14 5 26 14 36z" />
    <glyph glyph-name="Abrv.dotbl077" unicode="&#x1eb7;" horiz-adv-x="461" 
d="M398 259v-259h-48l-8 58h-5c-31 -45 -79 -68 -144 -68c-50 0 -90 13 -120 39c-28 25 -42 56 -42 95c0 41 16 74 49 99c34 25 82 38 143 38c40 0 76 -6 109 -17v15c0 73 -40 110 -120 110c-45 0 -84 -11 -119 -34l-27 57c41 25 91 38 151 38c121 0 181 -57 181 -171z
M332 159v30c-29 14 -64 21 -103 21c-85 0 -128 -28 -128 -84c0 -23 8 -42 25 -57c19 -16 44 -24 76 -24c37 0 69 11 94 34c24 22 36 49 36 80zM291 638h55c0 -39 -13 -73 -40 -100c-26 -27 -57 -40 -92 -40c-37 0 -68 13 -93 40c-26 27 -39 61 -39 100h55
c0 -23 7 -42 22 -58c15 -17 33 -26 55 -26c21 0 40 8 55 25s22 36 22 59zM180 -94c9 9 21 14 34 14c14 0 26 -5 35 -14c9 -10 14 -22 14 -36c0 -13 -5 -25 -14 -35c-9 -9 -21 -14 -35 -14c-13 0 -25 5 -34 14c-9 10 -14 22 -14 35c0 14 5 26 14 36z" />
    <glyph glyph-name="E.dotbl" unicode="&#x1eb8;" horiz-adv-x="544" 
d="M452 336v-65h-300v-206h351v-65h-421v600h421v-65h-351v-199h300zM258 -94c9 9 21 14 34 14c14 0 26 -5 35 -14c9 -10 14 -22 14 -36c0 -13 -5 -25 -14 -35c-9 -9 -21 -14 -35 -14c-13 0 -25 5 -34 14c-9 10 -14 22 -14 35c0 14 5 26 14 36z" />
    <glyph glyph-name="E.dotbl078" unicode="&#x1eb9;" horiz-adv-x="457" 
d="M375 88l26 -50c-29 -33 -79 -49 -149 -49c-65 0 -116 20 -155 61c-38 40 -57 93 -57 159c0 65 18 117 54 158c36 42 84 63 143 63s105 -20 138 -61c31 -38 47 -87 47 -148v-17h-313c1 -50 15 -89 44 -117c26 -26 60 -39 103 -39c51 0 91 13 119 40zM113 260h238
c-10 74 -48 111 -115 111c-69 0 -110 -37 -123 -111zM197 -94c9 9 21 14 34 14c14 0 26 -5 35 -14c9 -10 14 -22 14 -36c0 -13 -5 -25 -14 -35c-9 -9 -21 -14 -35 -14c-13 0 -25 5 -34 14c-9 10 -14 22 -14 35c0 14 5 26 14 36z" />
    <glyph glyph-name="E.hook" unicode="&#x1eba;" horiz-adv-x="544" 
d="M452 336v-65h-300v-206h351v-65h-421v600h421v-65h-351v-199h300zM238 810l-24 49c23 20 48 30 75 30c24 0 44 -6 59 -18c16 -13 24 -30 24 -52c0 -23 -9 -41 -26 -54c-10 -7 -15 -14 -16 -19l-2 -24h-47v29c0 18 7 33 22 46c9 7 13 13 13 20c0 5 -2 9 -6 12
c-5 4 -12 6 -21 6c-15 0 -32 -8 -51 -25z" />
    <glyph glyph-name="E.hook079" unicode="&#x1ebb;" horiz-adv-x="457" 
d="M375 88l26 -50c-29 -33 -79 -49 -149 -49c-65 0 -116 20 -155 61c-38 40 -57 93 -57 159c0 65 18 117 54 158c36 42 84 63 143 63s105 -20 138 -61c31 -38 47 -87 47 -148v-17h-313c1 -50 15 -89 44 -117c26 -26 60 -39 103 -39c51 0 91 13 119 40zM113 260h238
c-10 74 -48 111 -115 111c-69 0 -110 -37 -123 -111zM176 584l-24 49c23 20 48 30 75 30c24 0 44 -6 59 -18c16 -13 24 -30 24 -52c0 -23 -9 -41 -26 -54c-10 -7 -15 -14 -16 -19l-2 -24h-47v29c0 18 7 33 22 46c9 7 13 13 13 20c0 5 -2 9 -6 12c-5 4 -12 6 -21 6
c-15 0 -32 -8 -51 -25z" />
    <glyph glyph-name="E.tilde" unicode="&#x1ebc;" horiz-adv-x="544" 
d="M452 336v-65h-300v-206h351v-65h-421v600h421v-65h-351v-199h300zM290 703c-31 19 -53 29 -66 29c-22 0 -37 -15 -46 -44l-4 -16l-49 6l5 26c11 55 40 83 87 83c21 0 47 -10 78 -30s53 -30 67 -30c25 0 41 15 47 45l3 15l49 -5l-4 -25c-10 -56 -39 -84 -87 -84
c-22 0 -49 10 -80 30z" />
    <glyph glyph-name="E.tilde080" unicode="&#x1ebd;" horiz-adv-x="457" 
d="M375 88l26 -50c-29 -33 -79 -49 -149 -49c-65 0 -116 20 -155 61c-38 40 -57 93 -57 159c0 65 18 117 54 158c36 42 84 63 143 63s105 -20 138 -61c31 -38 47 -87 47 -148v-17h-313c1 -50 15 -89 44 -117c26 -26 60 -39 103 -39c51 0 91 13 119 40zM113 260h238
c-10 74 -48 111 -115 111c-69 0 -110 -37 -123 -111zM239 530c-31 19 -53 29 -66 29c-22 0 -37 -15 -46 -44l-4 -16l-49 6l5 26c11 55 40 83 87 83c21 0 47 -10 78 -30s53 -30 67 -30c25 0 41 15 47 45l3 15l49 -5l-4 -25c-10 -56 -39 -84 -87 -84c-22 0 -49 10 -80 30z" />
    <glyph glyph-name="Ecir.acute" unicode="&#x1ebe;" horiz-adv-x="544" 
d="M452 336v-65h-300v-206h351v-65h-421v600h421v-65h-351v-199h300zM352 672l-53 61l-55 -61h-64l89 108h57l91 -108h-65zM515 883l-87 -132h-50l53 145z" />
    <glyph glyph-name="Ecir.acute081" unicode="&#x1ebf;" horiz-adv-x="457" 
d="M375 88l26 -50c-29 -33 -79 -49 -149 -49c-65 0 -116 20 -155 61c-38 40 -57 93 -57 159c0 65 18 117 54 158c36 42 84 63 143 63s105 -20 138 -61c31 -38 47 -87 47 -148v-17h-313c1 -50 15 -89 44 -117c26 -26 60 -39 103 -39c51 0 91 13 119 40zM113 260h238
c-10 74 -48 111 -115 111c-69 0 -110 -37 -123 -111zM285 498l-53 61l-55 -61h-64l89 108h57l91 -108h-65zM459 703l-87 -132h-50l53 145z" />
    <glyph glyph-name="Ecir.grave" unicode="&#x1ec0;" horiz-adv-x="544" 
d="M452 336v-65h-300v-206h351v-65h-421v600h421v-65h-351v-199h300zM352 671l-53 61l-55 -61h-64l89 108h57l91 -108h-65zM161 754l-87 132l84 13l53 -145h-50z" />
    <glyph glyph-name="Ecir.grave082" unicode="&#x1ec1;" horiz-adv-x="457" 
d="M375 88l26 -50c-29 -33 -79 -49 -149 -49c-65 0 -116 20 -155 61c-38 40 -57 93 -57 159c0 65 18 117 54 158c36 42 84 63 143 63s105 -20 138 -61c31 -38 47 -87 47 -148v-17h-313c1 -50 15 -89 44 -117c26 -26 60 -39 103 -39c51 0 91 13 119 40zM113 260h238
c-10 74 -48 111 -115 111c-69 0 -110 -37 -123 -111zM285 498l-53 61l-55 -61h-64l89 108h57l91 -108h-65zM85 571l-87 132l84 13l53 -145h-50z" />
    <glyph glyph-name="Ecir.hook" unicode="&#x1ec2;" horiz-adv-x="544" 
d="M452 336v-65h-300v-206h351v-65h-421v600h421v-65h-351v-199h300zM346 671l-53 61l-55 -61h-64l89 108h57l91 -108h-65zM339 830l-24 49c23 20 48 30 75 30c24 0 44 -6 59 -18c16 -13 24 -30 24 -52c0 -23 -9 -41 -26 -54c-10 -7 -15 -14 -16 -19l-2 -24h-47v29
c0 18 7 33 22 46c9 7 13 13 13 20c0 5 -2 9 -6 12c-5 4 -12 6 -21 6c-15 0 -32 -8 -51 -25z" />
    <glyph glyph-name="Ecir.hook083" unicode="&#x1ec3;" horiz-adv-x="457" 
d="M375 88l26 -50c-29 -33 -79 -49 -149 -49c-65 0 -116 20 -155 61c-38 40 -57 93 -57 159c0 65 18 117 54 158c36 42 84 63 143 63s105 -20 138 -61c31 -38 47 -87 47 -148v-17h-313c1 -50 15 -89 44 -117c26 -26 60 -39 103 -39c51 0 91 13 119 40zM113 260h238
c-10 74 -48 111 -115 111c-69 0 -110 -37 -123 -111zM285 498l-53 61l-55 -61h-64l89 108h57l91 -108h-65zM288 653l-24 49c23 20 48 30 75 30c24 0 44 -6 59 -18c16 -13 24 -30 24 -52c0 -23 -9 -41 -26 -54c-10 -7 -15 -14 -16 -19l-2 -24h-47v29c0 18 7 33 22 46
c9 7 13 13 13 20c0 5 -2 9 -6 12c-5 4 -12 6 -21 6c-15 0 -32 -8 -51 -25z" />
    <glyph glyph-name="Ecir.tilde" unicode="&#x1ec4;" horiz-adv-x="544" 
d="M452 336v-65h-300v-206h351v-65h-421v600h421v-65h-351v-199h300zM301 674l-53 61l-55 -61h-64l89 108h57l91 -108h-65zM265 817c-31 19 -53 29 -66 29c-22 0 -37 -15 -46 -44l-4 -16l-49 6l5 26c11 55 40 83 87 83c21 0 47 -10 78 -30s53 -30 67 -30c25 0 41 15 47 45
l3 15l49 -5l-4 -25c-10 -56 -39 -84 -87 -84c-22 0 -49 10 -80 30z" />
    <glyph glyph-name="Ecir.tilde084" unicode="&#x1ec5;" horiz-adv-x="457" 
d="M375 88l26 -50c-29 -33 -79 -49 -149 -49c-65 0 -116 20 -155 61c-38 40 -57 93 -57 159c0 65 18 117 54 158c36 42 84 63 143 63s105 -20 138 -61c31 -38 47 -87 47 -148v-17h-313c1 -50 15 -89 44 -117c26 -26 60 -39 103 -39c51 0 91 13 119 40zM113 260h238
c-10 74 -48 111 -115 111c-69 0 -110 -37 -123 -111zM285 498l-53 61l-55 -61h-64l89 108h57l91 -108h-65zM263 642c-31 19 -53 29 -66 29c-22 0 -37 -15 -46 -44l-4 -16l-49 6l5 26c11 55 40 83 87 83c21 0 47 -10 78 -30s53 -30 67 -30c25 0 41 15 47 45l3 15l49 -5
l-4 -25c-10 -56 -39 -84 -87 -84c-22 0 -49 10 -80 30z" />
    <glyph glyph-name="Ecir.dotbl" unicode="&#x1ec6;" horiz-adv-x="544" 
d="M452 336v-65h-300v-206h351v-65h-421v600h421v-65h-351v-199h300zM346 673l-53 61l-55 -61h-64l89 108h57l91 -108h-65zM258 -94c9 9 21 14 34 14c14 0 26 -5 35 -14c9 -10 14 -22 14 -36c0 -13 -5 -25 -14 -35c-9 -9 -21 -14 -35 -14c-13 0 -25 5 -34 14
c-9 10 -14 22 -14 35c0 14 5 26 14 36z" />
    <glyph glyph-name="Ecir.dotbl085" unicode="&#x1ec7;" horiz-adv-x="457" 
d="M375 88l26 -50c-29 -33 -79 -49 -149 -49c-65 0 -116 20 -155 61c-38 40 -57 93 -57 159c0 65 18 117 54 158c36 42 84 63 143 63s105 -20 138 -61c31 -38 47 -87 47 -148v-17h-313c1 -50 15 -89 44 -117c26 -26 60 -39 103 -39c51 0 91 13 119 40zM113 260h238
c-10 74 -48 111 -115 111c-69 0 -110 -37 -123 -111zM285 498l-53 61l-55 -61h-64l89 108h57l91 -108h-65zM218 -94c9 9 21 14 34 14c14 0 26 -5 35 -14c9 -10 14 -22 14 -36c0 -13 -5 -25 -14 -35c-9 -9 -21 -14 -35 -14c-13 0 -25 5 -34 14c-9 10 -14 22 -14 35
c0 14 5 26 14 36z" />
    <glyph glyph-name="I.hook" unicode="&#x1ec8;" horiz-adv-x="234" 
d="M152 600v-600h-70v600h70zM47 760l-24 49c23 20 48 30 75 30c24 0 44 -6 59 -18c16 -13 24 -30 24 -52c0 -23 -9 -41 -26 -54c-10 -7 -15 -14 -16 -19l-2 -24h-47v29c0 18 7 33 22 46c9 7 13 13 13 20c0 5 -2 9 -6 12c-5 4 -12 6 -21 6c-15 0 -32 -8 -51 -25z" />
    <glyph glyph-name="I.hook086" unicode="&#x1ec9;" horiz-adv-x="207" 
d="M69 0v420h69v-420h-69zM36 585l-24 49c23 20 48 30 75 30c24 0 44 -6 59 -18c16 -13 24 -30 24 -52c0 -23 -9 -41 -26 -54c-10 -7 -15 -14 -16 -19l-2 -24h-47v29c0 18 7 33 22 46c9 7 13 13 13 20c0 5 -2 9 -6 12c-5 4 -12 6 -21 6c-15 0 -32 -8 -51 -25z" />
    <glyph glyph-name="I.dotbl" unicode="&#x1eca;" horiz-adv-x="234" 
d="M152 600v-600h-70v600h70zM83 -94c9 9 21 14 34 14c14 0 26 -5 35 -14c9 -10 14 -22 14 -36c0 -13 -5 -25 -14 -35c-9 -9 -21 -14 -35 -14c-13 0 -25 5 -34 14c-9 10 -14 22 -14 35c0 14 5 26 14 36z" />
    <glyph glyph-name="I.dotbl087" unicode="&#x1ecb;" horiz-adv-x="207" 
d="M70 525c-9 9 -14 20 -14 33s5 24 14 33s20 14 33 14s24 -5 33 -14s14 -20 14 -33s-5 -24 -14 -33s-20 -13 -33 -13s-24 4 -33 13zM69 0v420h69v-420h-69zM69 -94c9 9 21 14 34 14c14 0 26 -5 35 -14c9 -10 14 -22 14 -36c0 -13 -5 -25 -14 -35c-9 -9 -21 -14 -35 -14
c-13 0 -25 5 -34 14c-9 10 -14 22 -14 35c0 14 5 26 14 36z" />
    <glyph glyph-name="O.dotbl" unicode="&#x1ecc;" horiz-adv-x="677" 
d="M123 77c-54 59 -81 133 -81 222c0 90 27 164 81 223c55 61 126 91 215 91s162 -30 217 -91c53 -58 80 -132 80 -223c0 -89 -27 -163 -80 -222c-55 -61 -128 -91 -217 -91c-88 0 -160 30 -215 91zM503 125c41 47 61 105 61 174c0 70 -20 128 -61 175
c-42 49 -97 73 -165 73c-67 0 -122 -24 -164 -73c-40 -47 -60 -105 -60 -175c0 -69 20 -127 60 -174c42 -48 97 -72 164 -72c68 0 123 24 165 72zM304 -94c9 9 21 14 34 14c14 0 26 -5 35 -14c9 -10 14 -22 14 -36c0 -13 -5 -25 -14 -35c-9 -9 -21 -14 -35 -14
c-13 0 -25 5 -34 14c-9 10 -14 22 -14 35c0 14 5 26 14 36z" />
    <glyph glyph-name="O.dotbl088" unicode="&#x1ecd;" 
d="M400 49c-40 -39 -90 -59 -150 -59s-110 20 -149 59c-41 41 -62 94 -62 159c0 66 21 120 62 161c39 41 89 61 149 61c59 0 109 -20 150 -61c41 -42 62 -96 62 -161s-21 -118 -62 -159zM350 89c29 31 43 71 43 120s-14 89 -43 120c-27 30 -60 45 -100 45s-73 -15 -100 -45
c-29 -31 -43 -71 -43 -120s14 -89 43 -120c27 -29 60 -43 100 -43s73 14 100 43zM216 -94c9 9 21 14 34 14c14 0 26 -5 35 -14c9 -10 14 -22 14 -36c0 -13 -5 -25 -14 -35c-9 -9 -21 -14 -35 -14c-13 0 -25 5 -34 14c-9 10 -14 22 -14 35c0 14 5 26 14 36z" />
    <glyph glyph-name="O.hook" unicode="&#x1ece;" horiz-adv-x="677" 
d="M123 77c-54 59 -81 133 -81 222c0 90 27 164 81 223c55 61 126 91 215 91s162 -30 217 -91c53 -58 80 -132 80 -223c0 -89 -27 -163 -80 -222c-55 -61 -128 -91 -217 -91c-88 0 -160 30 -215 91zM503 125c41 47 61 105 61 174c0 70 -20 128 -61 175
c-42 49 -97 73 -165 73c-67 0 -122 -24 -164 -73c-40 -47 -60 -105 -60 -175c0 -69 20 -127 60 -174c42 -48 97 -72 164 -72c68 0 123 24 165 72zM287 760l-24 49c23 20 48 30 75 30c24 0 44 -6 59 -18c16 -13 24 -30 24 -52c0 -23 -9 -41 -26 -54c-10 -7 -15 -14 -16 -19
l-2 -24h-47v29c0 18 7 33 22 46c9 7 13 13 13 20c0 5 -2 9 -6 12c-5 4 -12 6 -21 6c-15 0 -32 -8 -51 -25z" />
    <glyph glyph-name="O.hook089" unicode="&#x1ecf;" 
d="M400 49c-40 -39 -90 -59 -150 -59s-110 20 -149 59c-41 41 -62 94 -62 159c0 66 21 120 62 161c39 41 89 61 149 61c59 0 109 -20 150 -61c41 -42 62 -96 62 -161s-21 -118 -62 -159zM350 89c29 31 43 71 43 120s-14 89 -43 120c-27 30 -60 45 -100 45s-73 -15 -100 -45
c-29 -31 -43 -71 -43 -120s14 -89 43 -120c27 -29 60 -43 100 -43s73 14 100 43zM196 584l-24 49c23 20 48 30 75 30c24 0 44 -6 59 -18c16 -13 24 -30 24 -52c0 -23 -9 -41 -26 -54c-10 -7 -15 -14 -16 -19l-2 -24h-47v29c0 18 7 33 22 46c9 7 13 13 13 20c0 5 -2 9 -6 12
c-5 4 -12 6 -21 6c-15 0 -32 -8 -51 -25z" />
    <glyph glyph-name="Ocir.acute" unicode="&#x1ed0;" horiz-adv-x="677" 
d="M123 77c-54 59 -81 133 -81 222c0 90 27 164 81 223c55 61 126 91 215 91s162 -30 217 -91c53 -58 80 -132 80 -223c0 -89 -27 -163 -80 -222c-55 -61 -128 -91 -217 -91c-88 0 -160 30 -215 91zM503 125c41 47 61 105 61 174c0 70 -20 128 -61 175
c-42 49 -97 73 -165 73c-67 0 -122 -24 -164 -73c-40 -47 -60 -105 -60 -175c0 -69 20 -127 60 -174c42 -48 97 -72 164 -72c68 0 123 24 165 72zM398 672l-53 61l-55 -61h-64l89 108h57l91 -108h-65zM561 883l-87 -132h-50l53 145z" />
    <glyph glyph-name="Ocir.acute090" unicode="&#x1ed1;" 
d="M400 49c-40 -39 -90 -59 -150 -59s-110 20 -149 59c-41 41 -62 94 -62 159c0 66 21 120 62 161c39 41 89 61 149 61c59 0 109 -20 150 -61c41 -42 62 -96 62 -161s-21 -118 -62 -159zM350 89c29 31 43 71 43 120s-14 89 -43 120c-27 30 -60 45 -100 45s-73 -15 -100 -45
c-29 -31 -43 -71 -43 -120s14 -89 43 -120c27 -29 60 -43 100 -43s73 14 100 43zM304 498l-53 61l-55 -61h-64l89 108h57l91 -108h-65zM476 705l-87 -132h-50l53 145z" />
    <glyph glyph-name="Ocir.grave" unicode="&#x1ed2;" horiz-adv-x="677" 
d="M123 77c-54 59 -81 133 -81 222c0 90 27 164 81 223c55 61 126 91 215 91s162 -30 217 -91c53 -58 80 -132 80 -223c0 -89 -27 -163 -80 -222c-55 -61 -128 -91 -217 -91c-88 0 -160 30 -215 91zM503 125c41 47 61 105 61 174c0 70 -20 128 -61 175
c-42 49 -97 73 -165 73c-67 0 -122 -24 -164 -73c-40 -47 -60 -105 -60 -175c0 -69 20 -127 60 -174c42 -48 97 -72 164 -72c68 0 123 24 165 72zM398 671l-53 61l-55 -61h-64l89 108h57l91 -108h-65zM207 754l-87 132l84 13l53 -145h-50z" />
    <glyph glyph-name="Ocir.grave091" unicode="&#x1ed3;" 
d="M400 49c-40 -39 -90 -59 -150 -59s-110 20 -149 59c-41 41 -62 94 -62 159c0 66 21 120 62 161c39 41 89 61 149 61c59 0 109 -20 150 -61c41 -42 62 -96 62 -161s-21 -118 -62 -159zM350 89c29 31 43 71 43 120s-14 89 -43 120c-27 30 -60 45 -100 45s-73 -15 -100 -45
c-29 -31 -43 -71 -43 -120s14 -89 43 -120c27 -29 60 -43 100 -43s73 14 100 43zM304 498l-53 61l-55 -61h-64l89 108h57l91 -108h-65zM131 585l-87 132l84 13l53 -145h-50z" />
    <glyph glyph-name="Ocir.hook" unicode="&#x1ed4;" horiz-adv-x="677" 
d="M123 77c-54 59 -81 133 -81 222c0 90 27 164 81 223c55 61 126 91 215 91s162 -30 217 -91c53 -58 80 -132 80 -223c0 -89 -27 -163 -80 -222c-55 -61 -128 -91 -217 -91c-88 0 -160 30 -215 91zM503 125c41 47 61 105 61 174c0 70 -20 128 -61 175
c-42 49 -97 73 -165 73c-67 0 -122 -24 -164 -73c-40 -47 -60 -105 -60 -175c0 -69 20 -127 60 -174c42 -48 97 -72 164 -72c68 0 123 24 165 72zM392 671l-53 61l-55 -61h-64l89 108h57l91 -108h-65zM385 830l-24 49c23 20 48 30 75 30c24 0 44 -6 59 -18
c16 -13 24 -30 24 -52c0 -23 -9 -41 -26 -54c-10 -7 -15 -14 -16 -19l-2 -24h-47v29c0 18 7 33 22 46c9 7 13 13 13 20c0 5 -2 9 -6 12c-5 4 -12 6 -21 6c-15 0 -32 -8 -51 -25z" />
    <glyph glyph-name="Ocir.hook092" unicode="&#x1ed5;" 
d="M400 49c-40 -39 -90 -59 -150 -59s-110 20 -149 59c-41 41 -62 94 -62 159c0 66 21 120 62 161c39 41 89 61 149 61c59 0 109 -20 150 -61c41 -42 62 -96 62 -161s-21 -118 -62 -159zM350 89c29 31 43 71 43 120s-14 89 -43 120c-27 30 -60 45 -100 45s-73 -15 -100 -45
c-29 -31 -43 -71 -43 -120s14 -89 43 -120c27 -29 60 -43 100 -43s73 14 100 43zM304 498l-53 61l-55 -61h-64l89 108h57l91 -108h-65zM311 645l-24 49c23 20 48 30 75 30c24 0 44 -6 59 -18c16 -13 24 -30 24 -52c0 -23 -9 -41 -26 -54c-10 -7 -15 -14 -16 -19l-2 -24h-47
v29c0 18 7 33 22 46c9 7 13 13 13 20c0 5 -2 9 -6 12c-5 4 -12 6 -21 6c-15 0 -32 -8 -51 -25z" />
    <glyph glyph-name="Ocir.tilde" unicode="&#x1ed6;" horiz-adv-x="677" 
d="M123 77c-54 59 -81 133 -81 222c0 90 27 164 81 223c55 61 126 91 215 91s162 -30 217 -91c53 -58 80 -132 80 -223c0 -89 -27 -163 -80 -222c-55 -61 -128 -91 -217 -91c-88 0 -160 30 -215 91zM503 125c41 47 61 105 61 174c0 70 -20 128 -61 175
c-42 49 -97 73 -165 73c-67 0 -122 -24 -164 -73c-40 -47 -60 -105 -60 -175c0 -69 20 -127 60 -174c42 -48 97 -72 164 -72c68 0 123 24 165 72zM404 674l-53 61l-55 -61h-64l89 108h57l91 -108h-65zM368 817c-31 19 -53 29 -66 29c-22 0 -37 -15 -46 -44l-4 -16l-49 6
l5 26c11 55 40 83 87 83c21 0 47 -10 78 -30s53 -30 67 -30c25 0 41 15 47 45l3 15l49 -5l-4 -25c-10 -56 -39 -84 -87 -84c-22 0 -49 10 -80 30z" />
    <glyph glyph-name="Ocir.tilde093" unicode="&#x1ed7;" 
d="M400 49c-40 -39 -90 -59 -150 -59s-110 20 -149 59c-41 41 -62 94 -62 159c0 66 21 120 62 161c39 41 89 61 149 61c59 0 109 -20 150 -61c41 -42 62 -96 62 -161s-21 -118 -62 -159zM350 89c29 31 43 71 43 120s-14 89 -43 120c-27 30 -60 45 -100 45s-73 -15 -100 -45
c-29 -31 -43 -71 -43 -120s14 -89 43 -120c27 -29 60 -43 100 -43s73 14 100 43zM304 498l-53 61l-55 -61h-64l89 108h57l91 -108h-65zM289 657c-31 19 -53 29 -66 29c-22 0 -37 -15 -46 -44l-4 -16l-49 6l5 26c11 55 40 83 87 83c21 0 47 -10 78 -30s53 -30 67 -30
c25 0 41 15 47 45l3 15l49 -5l-4 -25c-10 -56 -39 -84 -87 -84c-22 0 -49 10 -80 30z" />
    <glyph glyph-name="Ocir.dotbl" unicode="&#x1ed8;" horiz-adv-x="677" 
d="M123 77c-54 59 -81 133 -81 222c0 90 27 164 81 223c55 61 126 91 215 91s162 -30 217 -91c53 -58 80 -132 80 -223c0 -89 -27 -163 -80 -222c-55 -61 -128 -91 -217 -91c-88 0 -160 30 -215 91zM503 125c41 47 61 105 61 174c0 70 -20 128 -61 175
c-42 49 -97 73 -165 73c-67 0 -122 -24 -164 -73c-40 -47 -60 -105 -60 -175c0 -69 20 -127 60 -174c42 -48 97 -72 164 -72c68 0 123 24 165 72zM392 674l-53 61l-55 -61h-64l89 108h57l91 -108h-65zM304 -94c9 9 21 14 34 14c14 0 26 -5 35 -14c9 -10 14 -22 14 -36
c0 -13 -5 -25 -14 -35c-9 -9 -21 -14 -35 -14c-13 0 -25 5 -34 14c-9 10 -14 22 -14 35c0 14 5 26 14 36z" />
    <glyph glyph-name="Ocir.dotbl094" unicode="&#x1ed9;" 
d="M400 49c-40 -39 -90 -59 -150 -59s-110 20 -149 59c-41 41 -62 94 -62 159c0 66 21 120 62 161c39 41 89 61 149 61c59 0 109 -20 150 -61c41 -42 62 -96 62 -161s-21 -118 -62 -159zM350 89c29 31 43 71 43 120s-14 89 -43 120c-27 30 -60 45 -100 45s-73 -15 -100 -45
c-29 -31 -43 -71 -43 -120s14 -89 43 -120c27 -29 60 -43 100 -43s73 14 100 43zM304 498l-53 61l-55 -61h-64l89 108h57l91 -108h-65zM216 -94c9 9 21 14 34 14c14 0 26 -5 35 -14c9 -10 14 -22 14 -36c0 -13 -5 -25 -14 -35c-9 -9 -21 -14 -35 -14c-13 0 -25 5 -34 14
c-9 10 -14 22 -14 35c0 14 5 26 14 36z" />
    <glyph glyph-name="ohorn.acute095" unicode="&#x1eda;" horiz-adv-x="677" 
d="M503 125c41 47 61 105 61 174c0 70 -20 128 -61 175c-42 49 -97 73 -165 73c-67 0 -122 -24 -164 -73c-40 -47 -60 -105 -60 -175c0 -69 20 -127 60 -174c42 -48 97 -72 164 -72c68 0 123 24 165 72zM512 561c15 -11 30 -24 43 -39c53 -58 80 -132 80 -223
c0 -89 -27 -163 -80 -222c-55 -61 -128 -91 -217 -91c-88 0 -160 30 -215 91c-54 59 -81 133 -81 222c0 90 27 164 81 223c55 61 126 91 215 91c36 0 69 -5 100 -15c25 1 45 10 60 25c16 16 24 37 24 62h60c0 -41 -14 -75 -41 -102c-9 -9 -18 -16 -29 -22zM436 804l-87 -132
h-50l53 145z" />
    <glyph glyph-name="ohorn.acute" unicode="&#x1edb;" 
d="M350 89c29 31 43 71 43 120s-14 89 -43 120c-27 30 -60 45 -100 45s-73 -15 -100 -45c-29 -31 -43 -71 -43 -120s14 -89 43 -120c27 -29 60 -43 100 -43s73 14 100 43zM393 375c3 -2 5 -4 7 -6c41 -42 62 -96 62 -161s-21 -118 -62 -159c-40 -39 -90 -59 -150 -59
s-110 20 -149 59c-41 41 -62 94 -62 159c0 66 21 120 62 161c39 41 89 61 149 61c27 0 53 -4 76 -13c26 1 47 9 63 25s24 37 24 62h60c0 -41 -14 -75 -41 -102c-11 -11 -24 -20 -39 -27zM361 631l-87 -132h-50l53 145z" />
    <glyph glyph-name="Ohorn.grave" unicode="&#x1edc;" horiz-adv-x="677" 
d="M503 125c41 47 61 105 61 174c0 70 -20 128 -61 175c-42 49 -97 73 -165 73c-67 0 -122 -24 -164 -73c-40 -47 -60 -105 -60 -175c0 -69 20 -127 60 -174c42 -48 97 -72 164 -72c68 0 123 24 165 72zM512 561c15 -11 30 -24 43 -39c53 -58 80 -132 80 -223
c0 -89 -27 -163 -80 -222c-55 -61 -128 -91 -217 -91c-88 0 -160 30 -215 91c-54 59 -81 133 -81 222c0 90 27 164 81 223c55 61 126 91 215 91c36 0 69 -5 100 -15c25 1 45 10 60 25c16 16 24 37 24 62h60c0 -41 -14 -75 -41 -102c-9 -9 -18 -16 -29 -22zM307 672l-87 132
l84 13l53 -145h-50z" />
    <glyph glyph-name="Ohorn.grave112" unicode="&#x1edd;" 
d="M350 89c29 31 43 71 43 120s-14 89 -43 120c-27 30 -60 45 -100 45s-73 -15 -100 -45c-29 -31 -43 -71 -43 -120s14 -89 43 -120c27 -29 60 -43 100 -43s73 14 100 43zM393 375c3 -2 5 -4 7 -6c41 -42 62 -96 62 -161s-21 -118 -62 -159c-40 -39 -90 -59 -150 -59
s-110 20 -149 59c-41 41 -62 94 -62 159c0 66 21 120 62 161c39 41 89 61 149 61c27 0 53 -4 76 -13c26 1 47 9 63 25s24 37 24 62h60c0 -41 -14 -75 -41 -102c-11 -11 -24 -20 -39 -27zM248 497l-87 132l84 13l53 -145h-50z" />
    <glyph glyph-name="Ohorn.hook" unicode="&#x1ede;" horiz-adv-x="677" 
d="M503 125c41 47 61 105 61 174c0 70 -20 128 -61 175c-42 49 -97 73 -165 73c-67 0 -122 -24 -164 -73c-40 -47 -60 -105 -60 -175c0 -69 20 -127 60 -174c42 -48 97 -72 164 -72c68 0 123 24 165 72zM512 561c15 -11 30 -24 43 -39c53 -58 80 -132 80 -223
c0 -89 -27 -163 -80 -222c-55 -61 -128 -91 -217 -91c-88 0 -160 30 -215 91c-54 59 -81 133 -81 222c0 90 27 164 81 223c55 61 126 91 215 91c36 0 69 -5 100 -15c25 1 45 10 60 25c16 16 24 37 24 62h60c0 -41 -14 -75 -41 -102c-9 -9 -18 -16 -29 -22zM265 760l-24 49
c23 20 48 30 75 30c24 0 44 -6 59 -18c16 -13 24 -30 24 -52c0 -23 -9 -41 -26 -54c-10 -7 -15 -14 -16 -19l-2 -24h-47v29c0 18 7 33 22 46c9 7 13 13 13 20c0 5 -2 9 -6 12c-5 4 -12 6 -21 6c-15 0 -32 -8 -51 -25z" />
    <glyph glyph-name="Ohorn.hook096" unicode="&#x1edf;" 
d="M350 89c29 31 43 71 43 120s-14 89 -43 120c-27 30 -60 45 -100 45s-73 -15 -100 -45c-29 -31 -43 -71 -43 -120s14 -89 43 -120c27 -29 60 -43 100 -43s73 14 100 43zM393 375c3 -2 5 -4 7 -6c41 -42 62 -96 62 -161s-21 -118 -62 -159c-40 -39 -90 -59 -150 -59
s-110 20 -149 59c-41 41 -62 94 -62 159c0 66 21 120 62 161c39 41 89 61 149 61c27 0 53 -4 76 -13c26 1 47 9 63 25s24 37 24 62h60c0 -41 -14 -75 -41 -102c-11 -11 -24 -20 -39 -27zM184 584l-24 49c23 20 48 30 75 30c24 0 44 -6 59 -18c16 -13 24 -30 24 -52
c0 -23 -9 -41 -26 -54c-10 -7 -15 -14 -16 -19l-2 -24h-47v29c0 18 7 33 22 46c9 7 13 13 13 20c0 5 -2 9 -6 12c-5 4 -12 6 -21 6c-15 0 -32 -8 -51 -25z" />
    <glyph glyph-name="Ohorn.tilde" unicode="&#x1ee0;" horiz-adv-x="677" 
d="M503 125c41 47 61 105 61 174c0 70 -20 128 -61 175c-42 49 -97 73 -165 73c-67 0 -122 -24 -164 -73c-40 -47 -60 -105 -60 -175c0 -69 20 -127 60 -174c42 -48 97 -72 164 -72c68 0 123 24 165 72zM512 561c15 -11 30 -24 43 -39c53 -58 80 -132 80 -223
c0 -89 -27 -163 -80 -222c-55 -61 -128 -91 -217 -91c-88 0 -160 30 -215 91c-54 59 -81 133 -81 222c0 90 27 164 81 223c55 61 126 91 215 91c36 0 69 -5 100 -15c25 1 45 10 60 25c16 16 24 37 24 62h60c0 -41 -14 -75 -41 -102c-9 -9 -18 -16 -29 -22zM312 703
c-31 19 -53 29 -66 29c-22 0 -37 -15 -46 -44l-4 -16l-49 6l5 26c11 55 40 83 87 83c21 0 47 -10 78 -30s53 -30 67 -30c25 0 41 15 47 45l3 15l49 -5l-4 -25c-10 -56 -39 -84 -87 -84c-22 0 -49 10 -80 30z" />
    <glyph glyph-name="Ohorn.tilde097" unicode="&#x1ee1;" 
d="M350 89c29 31 43 71 43 120s-14 89 -43 120c-27 30 -60 45 -100 45s-73 -15 -100 -45c-29 -31 -43 -71 -43 -120s14 -89 43 -120c27 -29 60 -43 100 -43s73 14 100 43zM393 375c3 -2 5 -4 7 -6c41 -42 62 -96 62 -161s-21 -118 -62 -159c-40 -39 -90 -59 -150 -59
s-110 20 -149 59c-41 41 -62 94 -62 159c0 66 21 120 62 161c39 41 89 61 149 61c27 0 53 -4 76 -13c26 1 47 9 63 25s24 37 24 62h60c0 -41 -14 -75 -41 -102c-11 -11 -24 -20 -39 -27zM237 530c-31 19 -53 29 -66 29c-22 0 -37 -15 -46 -44l-4 -16l-49 6l5 26
c11 55 40 83 87 83c21 0 47 -10 78 -30s53 -30 67 -30c25 0 41 15 47 45l3 15l49 -5l-4 -25c-10 -56 -39 -84 -87 -84c-22 0 -49 10 -80 30z" />
    <glyph glyph-name="Ohorn.dotbl" unicode="&#x1ee2;" horiz-adv-x="677" 
d="M503 125c41 47 61 105 61 174c0 70 -20 128 -61 175c-42 49 -97 73 -165 73c-67 0 -122 -24 -164 -73c-40 -47 -60 -105 -60 -175c0 -69 20 -127 60 -174c42 -48 97 -72 164 -72c68 0 123 24 165 72zM512 561c15 -11 30 -24 43 -39c53 -58 80 -132 80 -223
c0 -89 -27 -163 -80 -222c-55 -61 -128 -91 -217 -91c-88 0 -160 30 -215 91c-54 59 -81 133 -81 222c0 90 27 164 81 223c55 61 126 91 215 91c36 0 69 -5 100 -15c25 1 45 10 60 25c16 16 24 37 24 62h60c0 -41 -14 -75 -41 -102c-9 -9 -18 -16 -29 -22zM304 -94
c9 9 21 14 34 14c14 0 26 -5 35 -14c9 -10 14 -22 14 -36c0 -13 -5 -25 -14 -35c-9 -9 -21 -14 -35 -14c-13 0 -25 5 -34 14c-9 10 -14 22 -14 35c0 14 5 26 14 36z" />
    <glyph glyph-name="Ohorn.dotbl098" unicode="&#x1ee3;" 
d="M350 89c29 31 43 71 43 120s-14 89 -43 120c-27 30 -60 45 -100 45s-73 -15 -100 -45c-29 -31 -43 -71 -43 -120s14 -89 43 -120c27 -29 60 -43 100 -43s73 14 100 43zM393 375c3 -2 5 -4 7 -6c41 -42 62 -96 62 -161s-21 -118 -62 -159c-40 -39 -90 -59 -150 -59
s-110 20 -149 59c-41 41 -62 94 -62 159c0 66 21 120 62 161c39 41 89 61 149 61c27 0 53 -4 76 -13c26 1 47 9 63 25s24 37 24 62h60c0 -41 -14 -75 -41 -102c-11 -11 -24 -20 -39 -27zM223 -94c9 9 21 14 34 14c14 0 26 -5 35 -14c9 -10 14 -22 14 -36
c0 -13 -5 -25 -14 -35c-9 -9 -21 -14 -35 -14c-13 0 -25 5 -34 14c-9 10 -14 22 -14 35c0 14 5 26 14 36z" />
    <glyph glyph-name="U.dotbl" unicode="&#x1ee4;" horiz-adv-x="630" 
d="M138 60c-43 47 -64 111 -64 191v349h70v-349c0 -60 14 -108 43 -143c30 -37 73 -56 128 -56s98 19 129 56c28 35 42 83 42 143v349h70v-349c0 -80 -21 -144 -63 -191c-43 -49 -102 -74 -178 -74c-75 0 -134 25 -177 74zM281 -94c9 9 21 14 34 14c14 0 26 -5 35 -14
c9 -10 14 -22 14 -36c0 -13 -5 -25 -14 -35c-9 -9 -21 -14 -35 -14c-13 0 -25 5 -34 14c-9 10 -14 22 -14 35c0 14 5 26 14 36z" />
    <glyph glyph-name="U.dotbl099" unicode="&#x1ee5;" horiz-adv-x="507" 
d="M440 420v-420h-44l-12 60h-3c-27 -47 -77 -70 -149 -70c-54 0 -96 18 -126 54c-29 34 -44 80 -44 139v237h69v-229c0 -43 9 -77 28 -102c20 -27 49 -41 87 -41c39 0 71 14 94 41c19 23 30 49 31 78v253h69zM217 -94c9 9 21 14 34 14c14 0 26 -5 35 -14
c9 -10 14 -22 14 -36c0 -13 -5 -25 -14 -35c-9 -9 -21 -14 -35 -14c-13 0 -25 5 -34 14c-9 10 -14 22 -14 35c0 14 5 26 14 36z" />
    <glyph glyph-name="U.hook" unicode="&#x1ee6;" horiz-adv-x="630" 
d="M138 60c-43 47 -64 111 -64 191v349h70v-349c0 -60 14 -108 43 -143c30 -37 73 -56 128 -56s98 19 129 56c28 35 42 83 42 143v349h70v-349c0 -80 -21 -144 -63 -191c-43 -49 -102 -74 -178 -74c-75 0 -134 25 -177 74zM249 760l-24 49c23 20 48 30 75 30
c24 0 44 -6 59 -18c16 -13 24 -30 24 -52c0 -23 -9 -41 -26 -54c-10 -7 -15 -14 -16 -19l-2 -24h-47v29c0 18 7 33 22 46c9 7 13 13 13 20c0 5 -2 9 -6 12c-5 4 -12 6 -21 6c-15 0 -32 -8 -51 -25z" />
    <glyph glyph-name="U.hook100" unicode="&#x1ee7;" horiz-adv-x="507" 
d="M440 420v-420h-44l-12 60h-3c-27 -47 -77 -70 -149 -70c-54 0 -96 18 -126 54c-29 34 -44 80 -44 139v237h69v-229c0 -43 9 -77 28 -102c20 -27 49 -41 87 -41c39 0 71 14 94 41c19 23 30 49 31 78v253h69zM179 587l-24 49c23 20 48 30 75 30c24 0 44 -6 59 -18
c16 -13 24 -30 24 -52c0 -23 -9 -41 -26 -54c-10 -7 -15 -14 -16 -19l-2 -24h-47v29c0 18 7 33 22 46c9 7 13 13 13 20c0 5 -2 9 -6 12c-5 4 -12 6 -21 6c-15 0 -32 -8 -51 -25z" />
    <glyph glyph-name="Uhorn.acute" unicode="&#x1ee8;" horiz-adv-x="630" 
d="M556 551v-300c0 -80 -21 -144 -63 -191c-43 -49 -102 -74 -178 -74c-75 0 -134 25 -177 74c-43 47 -64 111 -64 191v349h70v-349c0 -60 14 -108 43 -143c30 -37 73 -56 128 -56s98 19 129 56c28 35 42 83 42 143v349h36c17 3 32 11 44 23c16 16 24 37 24 62h60
c0 -41 -14 -75 -41 -102c-15 -15 -33 -25 -53 -32zM412 804l-87 -132h-50l53 145z" />
    <glyph glyph-name="Uhorn.acute101" unicode="&#x1ee9;" horiz-adv-x="507" 
d="M440 373v-373h-44l-12 60h-3c-27 -47 -77 -70 -149 -70c-54 0 -96 18 -126 54c-29 34 -44 80 -44 139v237h69v-229c0 -43 9 -77 28 -102c20 -27 49 -41 87 -41c39 0 71 14 94 41c19 23 30 49 31 78v253h30c16 4 29 11 40 22c16 16 24 37 24 62h60c0 -41 -14 -75 -41 -102
c-13 -13 -27 -22 -44 -29zM358 631l-87 -132h-50l53 145z" />
    <glyph glyph-name="Uhorn.grave" unicode="&#x1eea;" horiz-adv-x="630" 
d="M556 551v-300c0 -80 -21 -144 -63 -191c-43 -49 -102 -74 -178 -74c-75 0 -134 25 -177 74c-43 47 -64 111 -64 191v349h70v-349c0 -60 14 -108 43 -143c30 -37 73 -56 128 -56s98 19 129 56c28 35 42 83 42 143v349h36c17 3 32 11 44 23c16 16 24 37 24 62h60
c0 -41 -14 -75 -41 -102c-15 -15 -33 -25 -53 -32zM296 672l-87 132l84 13l53 -145h-50z" />
    <glyph glyph-name="Uhorn.grave102" unicode="&#x1eeb;" horiz-adv-x="507" 
d="M440 373v-373h-44l-12 60h-3c-27 -47 -77 -70 -149 -70c-54 0 -96 18 -126 54c-29 34 -44 80 -44 139v237h69v-229c0 -43 9 -77 28 -102c20 -27 49 -41 87 -41c39 0 71 14 94 41c19 23 30 49 31 78v253h30c16 4 29 11 40 22c16 16 24 37 24 62h60c0 -41 -14 -75 -41 -102
c-13 -13 -27 -22 -44 -29zM227 499l-87 132l84 13l53 -145h-50z" />
    <glyph glyph-name="Uhorn.hook" unicode="&#x1eec;" horiz-adv-x="630" 
d="M556 551v-300c0 -80 -21 -144 -63 -191c-43 -49 -102 -74 -178 -74c-75 0 -134 25 -177 74c-43 47 -64 111 -64 191v349h70v-349c0 -60 14 -108 43 -143c30 -37 73 -56 128 -56s98 19 129 56c28 35 42 83 42 143v349h36c17 3 32 11 44 23c16 16 24 37 24 62h60
c0 -41 -14 -75 -41 -102c-15 -15 -33 -25 -53 -32zM245 760l-24 49c23 20 48 30 75 30c24 0 44 -6 59 -18c16 -13 24 -30 24 -52c0 -23 -9 -41 -26 -54c-10 -7 -15 -14 -16 -19l-2 -24h-47v29c0 18 7 33 22 46c9 7 13 13 13 20c0 5 -2 9 -6 12c-5 4 -12 6 -21 6
c-15 0 -32 -8 -51 -25z" />
    <glyph glyph-name="Uhorn.hook103" unicode="&#x1eed;" horiz-adv-x="507" 
d="M440 373v-373h-44l-12 60h-3c-27 -47 -77 -70 -149 -70c-54 0 -96 18 -126 54c-29 34 -44 80 -44 139v237h69v-229c0 -43 9 -77 28 -102c20 -27 49 -41 87 -41c39 0 71 14 94 41c19 23 30 49 31 78v253h30c16 4 29 11 40 22c16 16 24 37 24 62h60c0 -41 -14 -75 -41 -102
c-13 -13 -27 -22 -44 -29zM180 587l-24 49c23 20 48 30 75 30c24 0 44 -6 59 -18c16 -13 24 -30 24 -52c0 -23 -9 -41 -26 -54c-10 -7 -15 -14 -16 -19l-2 -24h-47v29c0 18 7 33 22 46c9 7 13 13 13 20c0 5 -2 9 -6 12c-5 4 -12 6 -21 6c-15 0 -32 -8 -51 -25z" />
    <glyph glyph-name="Uhorn.tilde" unicode="&#x1eee;" horiz-adv-x="630" 
d="M556 551v-300c0 -80 -21 -144 -63 -191c-43 -49 -102 -74 -178 -74c-75 0 -134 25 -177 74c-43 47 -64 111 -64 191v349h70v-349c0 -60 14 -108 43 -143c30 -37 73 -56 128 -56s98 19 129 56c28 35 42 83 42 143v349h36c17 3 32 11 44 23c16 16 24 37 24 62h60
c0 -41 -14 -75 -41 -102c-15 -15 -33 -25 -53 -32zM305 703c-31 19 -53 29 -66 29c-22 0 -37 -15 -46 -44l-4 -16l-49 6l5 26c11 55 40 83 87 83c21 0 47 -10 78 -30s53 -30 67 -30c25 0 41 15 47 45l3 15l49 -5l-4 -25c-10 -56 -39 -84 -87 -84c-22 0 -49 10 -80 30z" />
    <glyph glyph-name="Uhorn.tilde104" unicode="&#x1eef;" horiz-adv-x="507" 
d="M440 373v-373h-44l-12 60h-3c-27 -47 -77 -70 -149 -70c-54 0 -96 18 -126 54c-29 34 -44 80 -44 139v237h69v-229c0 -43 9 -77 28 -102c20 -27 49 -41 87 -41c39 0 71 14 94 41c19 23 30 49 31 78v253h30c16 4 29 11 40 22c16 16 24 37 24 62h60c0 -41 -14 -75 -41 -102
c-13 -13 -27 -22 -44 -29zM250 530c-31 19 -53 29 -66 29c-22 0 -37 -15 -46 -44l-4 -16l-49 6l5 26c11 55 40 83 87 83c21 0 47 -10 78 -30s53 -30 67 -30c25 0 41 15 47 45l3 15l49 -5l-4 -25c-10 -56 -39 -84 -87 -84c-22 0 -49 10 -80 30z" />
    <glyph glyph-name="Uhorn.dotbl" unicode="&#x1ef0;" horiz-adv-x="630" 
d="M556 551v-300c0 -80 -21 -144 -63 -191c-43 -49 -102 -74 -178 -74c-75 0 -134 25 -177 74c-43 47 -64 111 -64 191v349h70v-349c0 -60 14 -108 43 -143c30 -37 73 -56 128 -56s98 19 129 56c28 35 42 83 42 143v349h36c17 3 32 11 44 23c16 16 24 37 24 62h60
c0 -41 -14 -75 -41 -102c-15 -15 -33 -25 -53 -32zM297 -94c9 9 21 14 34 14c14 0 26 -5 35 -14c9 -10 14 -22 14 -36c0 -13 -5 -25 -14 -35c-9 -9 -21 -14 -35 -14c-13 0 -25 5 -34 14c-9 10 -14 22 -14 35c0 14 5 26 14 36z" />
    <glyph glyph-name="Uhorn.dotbl105" unicode="&#x1ef1;" horiz-adv-x="507" 
d="M440 373v-373h-44l-12 60h-3c-27 -47 -77 -70 -149 -70c-54 0 -96 18 -126 54c-29 34 -44 80 -44 139v237h69v-229c0 -43 9 -77 28 -102c20 -27 49 -41 87 -41c39 0 71 14 94 41c19 23 30 49 31 78v253h30c16 4 29 11 40 22c16 16 24 37 24 62h60c0 -41 -14 -75 -41 -102
c-13 -13 -27 -22 -44 -29zM242 -94c9 9 21 14 34 14c14 0 26 -5 35 -14c9 -10 14 -22 14 -36c0 -13 -5 -25 -14 -35c-9 -9 -21 -14 -35 -14c-13 0 -25 5 -34 14c-9 10 -14 22 -14 35c0 14 5 26 14 36z" />
    <glyph glyph-name="Ygrave" unicode="&#x1ef2;" horiz-adv-x="530" 
d="M286 332l154 268h81l-221 -370v-230h-70v230l-221 370h82l156 -268l18 -38h2zM237 672l-87 132l84 13l53 -145h-50z" />
    <glyph glyph-name="Ygrave106" unicode="&#x1ef3;" horiz-adv-x="453" 
d="M440 420l-254 -576h-72l82 176l-183 400h76l132 -311c5 -14 7 -23 7 -28h4c0 7 2 16 6 28l131 311h71zM222 497l-87 132l84 13l53 -145h-50z" />
    <glyph glyph-name="Y.dotbl" unicode="&#x1ef4;" horiz-adv-x="530" 
d="M286 332l154 268h81l-221 -370v-230h-70v230l-221 370h82l156 -268l18 -38h2zM231 -94c9 9 21 14 34 14c14 0 26 -5 35 -14c9 -10 14 -22 14 -36c0 -13 -5 -25 -14 -35c-9 -9 -21 -14 -35 -14c-13 0 -25 5 -34 14c-9 10 -14 22 -14 35c0 14 5 26 14 36z" />
    <glyph glyph-name="Y.dotbl107" unicode="&#x1ef5;" horiz-adv-x="453" 
d="M440 420l-254 -576h-72l82 176l-183 400h76l132 -311c5 -14 7 -23 7 -28h4c0 7 2 16 6 28l131 311h71zM290 -94c9 9 21 14 34 14c14 0 26 -5 35 -14c9 -10 14 -22 14 -36c0 -13 -5 -25 -14 -35c-9 -9 -21 -14 -35 -14c-13 0 -25 5 -34 14c-9 10 -14 22 -14 35
c0 14 5 26 14 36z" />
    <glyph glyph-name="Y.hook" unicode="&#x1ef6;" horiz-adv-x="530" 
d="M286 332l154 268h81l-221 -370v-230h-70v230l-221 370h82l156 -268l18 -38h2zM205 760l-24 49c23 20 48 30 75 30c24 0 44 -6 59 -18c16 -13 24 -30 24 -52c0 -23 -9 -41 -26 -54c-10 -7 -15 -14 -16 -19l-2 -24h-47v29c0 18 7 33 22 46c9 7 13 13 13 20c0 5 -2 9 -6 12
c-5 4 -12 6 -21 6c-15 0 -32 -8 -51 -25z" />
    <glyph glyph-name="Y.hook108" unicode="&#x1ef7;" horiz-adv-x="453" 
d="M440 420l-254 -576h-72l82 176l-183 400h76l132 -311c5 -14 7 -23 7 -28h4c0 7 2 16 6 28l131 311h71zM158 587l-24 49c23 20 48 30 75 30c24 0 44 -6 59 -18c16 -13 24 -30 24 -52c0 -23 -9 -41 -26 -54c-10 -7 -15 -14 -16 -19l-2 -24h-47v29c0 18 7 33 22 46
c9 7 13 13 13 20c0 5 -2 9 -6 12c-5 4 -12 6 -21 6c-15 0 -32 -8 -51 -25z" />
    <glyph glyph-name="Ytilde" unicode="&#x1ef8;" horiz-adv-x="530" 
d="M286 332l154 268h81l-221 -370v-230h-70v230l-221 370h82l156 -268l18 -38h2zM262 702c-31 19 -53 29 -66 29c-22 0 -37 -15 -46 -44l-4 -16l-49 6l5 26c11 55 40 83 87 83c21 0 47 -10 78 -30s53 -30 67 -30c25 0 41 15 47 45l3 15l49 -5l-4 -25
c-10 -56 -39 -84 -87 -84c-22 0 -49 10 -80 30z" />
    <glyph glyph-name="Ytilde109" unicode="&#x1ef9;" horiz-adv-x="453" 
d="M440 420l-254 -576h-72l82 176l-183 400h76l132 -311c5 -14 7 -23 7 -28h4c0 7 2 16 6 28l131 311h71zM224 531c-31 19 -53 29 -66 29c-22 0 -37 -15 -46 -44l-4 -16l-49 6l5 26c11 55 40 83 87 83c21 0 47 -10 78 -30s53 -30 67 -30c25 0 41 15 47 45l3 15l49 -5l-4 -25
c-10 -56 -39 -84 -87 -84c-22 0 -49 10 -80 30z" />
    <glyph glyph-name="endash" unicode="&#x2013;" horiz-adv-x="465" 
d="M61 259v58h335v-58h-335z" />
    <glyph glyph-name="emdash" unicode="&#x2014;" horiz-adv-x="718" 
d="M61 259v58h588v-58h-588z" />
    <glyph glyph-name="quoteleft" unicode="&#x2018;" horiz-adv-x="214" 
d="M48 441v8c0 85 40 136 121 151l12 -40c-50 -12 -76 -37 -78 -74c26 -3 39 -18 39 -45c0 -13 -5 -24 -14 -33s-20 -14 -33 -14s-24 5 -33 14s-14 20 -14 33z" />
    <glyph glyph-name="quoteright" unicode="&#x2019;" horiz-adv-x="218" 
d="M57 394l-12 40c49 11 75 35 78 73c-26 5 -39 20 -39 46c0 13 5 24 14 33s20 14 33 14s24 -5 33 -14s14 -20 14 -33v-8c0 -85 -40 -136 -121 -151z" />
    <glyph glyph-name="quotesinglbase" unicode="&#x201a;" horiz-adv-x="202" 
d="M26 -123l-12 40c49 11 75 36 78 74c-26 3 -39 18 -39 45c0 13 5 24 14 33s20 14 33 14s24 -5 33 -14s14 -20 14 -33v-8c0 -85 -40 -136 -121 -151z" />
    <glyph glyph-name="quotedblleft" unicode="&#x201c;" horiz-adv-x="359" 
d="M193 441v8c0 85 40 136 121 151l12 -40c-50 -12 -76 -37 -78 -74c26 -3 39 -18 39 -45c0 -13 -5 -24 -14 -33s-20 -14 -33 -14s-24 5 -33 14s-14 20 -14 33zM48 441v8c0 85 40 136 121 151l12 -40c-50 -12 -76 -37 -78 -74c26 -3 39 -18 39 -45c0 -13 -5 -24 -14 -33
s-20 -14 -33 -14s-24 5 -33 14s-14 20 -14 33z" />
    <glyph glyph-name="quotedblright" unicode="&#x201d;" horiz-adv-x="362" 
d="M177 553v-8c0 -85 -40 -136 -121 -151l-12 40c49 11 75 35 78 73c-26 5 -39 20 -39 46c0 13 5 24 14 33s20 14 33 14s24 -5 33 -14s14 -20 14 -33zM201 394l-12 40c49 11 75 35 78 73c-26 5 -39 20 -39 46c0 13 5 24 14 33s20 14 33 14s24 -5 33 -14s14 -20 14 -33v-8
c0 -85 -40 -136 -121 -151z" />
    <glyph glyph-name="quotedblbase" unicode="&#x201e;" horiz-adv-x="428" 
d="M26 -123l-12 40c49 11 75 36 78 74c-26 3 -39 18 -39 45c0 13 5 24 14 33s20 14 33 14s24 -5 33 -14s14 -20 14 -33v-8c0 -85 -40 -136 -121 -151zM252 -123l-12 40c49 11 75 36 78 74c-26 3 -39 18 -39 45c0 13 5 24 14 33s20 14 33 14s24 -5 33 -14s14 -20 14 -33v-8
c0 -85 -40 -136 -121 -151z" />
    <glyph glyph-name="dagger" unicode="&#x2020;" horiz-adv-x="390" 
d="M33 439v58h133v138h59v-138h132v-58h-132l-7 -265h-45l-7 265h-133z" />
    <glyph glyph-name="daggerdbl" unicode="&#x2021;" horiz-adv-x="424" 
d="M50 472v58h133v138h59v-138h132v-58h-132l-7 -138l7 -138h132v-58h-132v-138h-59v138h-133v58h133l6 138l-6 138h-133z" />
    <glyph glyph-name="bullet" unicode="&#x2022;" horiz-adv-x="311" 
d="M208 275c14 -15 21 -32 21 -52s-7 -37 -21 -51c-15 -14 -32 -21 -52 -21c-21 0 -38 7 -52 21c-15 14 -22 31 -22 51s7 37 22 52c14 14 31 21 52 21c20 0 37 -7 52 -21z" />
    <glyph glyph-name="ellipsis" unicode="&#x2026;" horiz-adv-x="707" 
d="M74 88c11 11 24 17 40 17s30 -6 41 -17s17 -25 17 -41s-6 -29 -17 -40s-25 -17 -41 -17s-29 6 -40 17s-17 24 -17 40s6 30 17 41zM313 88c11 11 24 17 40 17s30 -6 41 -17s17 -25 17 -41s-6 -29 -17 -40s-25 -17 -41 -17s-29 6 -40 17s-17 24 -17 40s6 30 17 41zM552 88
c11 11 24 17 40 17s30 -6 41 -17s17 -25 17 -41s-6 -29 -17 -40s-25 -17 -41 -17s-29 6 -40 17s-17 24 -17 40s6 30 17 41z" />
    <glyph glyph-name="perthousand" unicode="&#x2030;" horiz-adv-x="947" 
d="M265 568c22 -28 33 -63 33 -106c0 -42 -11 -77 -33 -105c-24 -31 -56 -46 -95 -46c-40 0 -72 15 -96 46c-22 28 -33 63 -33 105c0 43 11 78 33 106c24 30 56 45 96 45c39 0 71 -15 95 -45zM219 395c11 17 17 40 17 67c0 63 -22 94 -66 94c-45 0 -67 -31 -67 -94
s22 -94 67 -94c21 0 37 9 49 27zM521 600h78l-477 -600h-76zM577 249c23 -29 34 -64 34 -106c0 -41 -11 -76 -34 -105c-24 -31 -56 -46 -95 -46s-71 15 -95 46c-23 29 -34 64 -34 105c0 42 11 77 34 106c24 30 56 45 95 45s71 -15 95 -45zM432 211c-11 -17 -17 -40 -17 -68
c0 -27 6 -49 17 -66c13 -18 29 -27 50 -27s37 9 49 27c11 17 17 39 17 66c0 63 -22 95 -66 95c-21 0 -38 -9 -50 -27zM737 211c-11 -17 -17 -40 -17 -68c0 -27 6 -49 17 -66c13 -18 29 -27 50 -27s37 9 49 27c11 17 17 39 17 66c0 63 -22 95 -66 95c-21 0 -38 -9 -50 -27z
M882 249c23 -29 34 -64 34 -106c0 -41 -11 -76 -34 -105c-24 -31 -56 -46 -95 -46s-71 15 -95 46c-23 29 -34 64 -34 105c0 42 11 77 34 106c24 30 56 45 95 45s71 -15 95 -45z" />
    <glyph glyph-name="guilsinglleft" unicode="&#x2039;" horiz-adv-x="266" 
d="M42 197v23l120 188h60v-10l-117 -186v-5l117 -189v-10h-60z" />
    <glyph glyph-name="guilsinglright" unicode="&#x203a;" horiz-adv-x="265" 
d="M224 220v-23l-120 -189h-61v10l118 189v5l-118 186v10h61z" />
    <glyph glyph-name="fraction" unicode="&#x2044;" horiz-adv-x="581" 
d="M50 0h-60l540 700h62z" />
    <glyph glyph-name="Euro" unicode="&#x20ac;" horiz-adv-x="564" 
d="M395 257v-54h-206c23 -101 80 -152 171 -152c55 0 98 19 127 58l34 -50c-33 -48 -87 -72 -162 -72c-65 0 -119 21 -162 63c-39 37 -65 88 -80 153h-77v54h68c-1 10 -2 25 -2 45c0 11 1 28 2 49h-68v54h77c15 63 42 112 81 148c43 40 96 60 161 60c75 0 129 -24 163 -72
l-35 -53c-29 39 -72 59 -127 59c-90 0 -147 -47 -170 -142h205v-54h-214c-1 -21 -2 -38 -2 -49c0 -21 1 -36 2 -45h214z" />
    <glyph glyph-name="trademark" unicode="&#x2122;" horiz-adv-x="705" 
d="M383 281h-49v319h36l114 -149l117 149h34v-319h-48v230l-96 -124h-13l-95 122v-228zM275 600v-43h-97v-276h-48v276h-97v43h242z" />
    <glyph glyph-name="Omega" unicode="&#x2126;" horiz-adv-x="710" 
d="M52 0v61h141c-93 51 -139 134 -139 247c0 85 26 156 78 213c55 61 130 92 223 92s168 -31 224 -92c52 -57 78 -128 78 -213c0 -113 -47 -196 -140 -247h141v-61h-268v63c55 3 102 28 141 77c37 47 56 101 56 162c0 68 -20 125 -61 171c-43 49 -100 73 -171 73
c-70 0 -127 -24 -170 -73c-41 -46 -61 -103 -61 -171c0 -61 19 -115 56 -162c39 -49 86 -74 141 -77v-63h-269z" />
    <glyph glyph-name="partialdiff" unicode="&#x2202;" 
d="M96 50c-37 39 -56 93 -56 160s19 120 56 159c37 41 89 61 154 61c17 0 36 -2 57 -7v5c-9 11 -17 24 -26 37l-160 252v11h65l228 -361c31 -51 46 -104 46 -157c0 -67 -18 -121 -55 -160c-38 -40 -90 -60 -155 -60s-117 20 -154 60zM350 331c-25 27 -59 41 -100 41
s-75 -14 -100 -41c-27 -29 -40 -70 -40 -121s13 -91 40 -120c26 -28 59 -42 100 -42s74 14 100 42c27 29 40 69 40 120s-13 92 -40 121z" />
    <glyph glyph-name="Delta" unicode="&#x2206;" horiz-adv-x="618" 
d="M27 0v15l275 585h14l275 -585v-15h-564zM306 474l-181 -413h367l-183 413h-3z" />
    <glyph glyph-name="product" unicode="&#x220f;" horiz-adv-x="613" 
d="M546 600v-600h-70v539h-339v-539h-70v600h479z" />
    <glyph glyph-name="summation" unicode="&#x2211;" horiz-adv-x="442" 
d="M43 600h353v-61h-265l171 -223v-33l-169 -222h263v-61h-353v61l183 232v12l-183 234v61z" />
    <glyph glyph-name="minus" unicode="&#x2212;" horiz-adv-x="558" 
d="M62 270v58h434v-58h-434z" />
    <glyph glyph-name="radical" unicode="&#x221a;" horiz-adv-x="598" 
d="M606 600l-385 -792h-17l-197 399h77l103 -217c16 -34 25 -56 26 -66h2c1 12 10 34 25 66l289 610h77z" />
    <glyph glyph-name="infinity" unicode="&#x221e;" horiz-adv-x="754" 
d="M92 167c-29 32 -44 72 -44 119s15 86 44 118c30 34 69 51 118 51c61 0 117 -42 168 -126c49 84 104 126 166 126c45 0 83 -15 114 -46c32 -32 48 -73 48 -123c0 -47 -14 -86 -42 -118c-31 -34 -71 -51 -120 -51c-63 0 -119 41 -168 124c-49 -83 -105 -124 -166 -124
c-49 0 -88 17 -118 50zM410 287c42 -76 85 -114 130 -114c33 0 60 11 80 34c19 21 28 48 28 79c0 33 -10 61 -31 82s-46 31 -77 31c-47 0 -91 -37 -130 -112zM345 285c-42 76 -86 114 -131 114c-33 0 -59 -12 -79 -35c-19 -21 -28 -47 -28 -78s9 -58 28 -79
c19 -23 46 -34 79 -34c47 0 90 37 131 112z" />
    <glyph glyph-name="integral" unicode="&#x222b;" horiz-adv-x="298" 
d="M115 7v527c0 77 33 115 99 115c28 0 51 -7 70 -20l-20 -52c-12 7 -25 11 -38 11c-28 0 -42 -20 -42 -60v-527c0 -77 -33 -115 -99 -115c-28 0 -51 7 -70 20l20 52c13 -7 25 -11 38 -11c28 0 42 20 42 60z" />
    <glyph glyph-name="approxequal" unicode="&#x2248;" horiz-adv-x="456" 
d="M227 199c-29 15 -48 23 -59 23c-19 0 -33 -12 -41 -35l-3 -13l-59 5l5 29c11 49 41 73 89 73c21 0 45 -8 73 -23c29 -16 49 -24 61 -24c19 0 32 12 39 35l4 13l58 -5l-5 -30c-9 -48 -38 -72 -87 -72c-21 0 -46 8 -75 24zM227 389c-29 15 -48 23 -59 23
c-19 0 -33 -12 -41 -35l-3 -13l-59 5l5 30c11 48 41 72 89 72c21 0 45 -8 73 -23c29 -16 49 -24 61 -24c19 0 32 12 39 35l4 13l58 -5l-5 -29c-9 -49 -38 -73 -87 -73c-21 0 -46 8 -75 24z" />
    <glyph glyph-name="notequal" unicode="&#x2260;" horiz-adv-x="458" 
d="M57 366v58h190l42 116l51 -18l-36 -98h97v-58h-118l-59 -163h177v-58h-198l-41 -113l-51 18l34 95h-88v58h109l60 163h-169z" />
    <glyph glyph-name="lessequal" unicode="&#x2264;" horiz-adv-x="385" 
d="M296 249l-41 -43l-185 178v15l185 183l41 -43l-149 -148zM334 141v-58h-278v58h278z" />
    <glyph glyph-name="greaterequal" unicode="&#x2265;" horiz-adv-x="384" 
d="M130 206l-42 43l149 142l-149 148l41 43l185 -183v-15zM51 83v58h277v-58h-277z" />
    <glyph glyph-name="lozenge" unicode="&#x25ca;" horiz-adv-x="438" 
d="M242 600l163 -300l-163 -300h-46l-163 300l163 300h46zM112 299l102 -200h10l101 200l-101 202h-10z" />
    <glyph glyph-name="cir.acute" unicode="&#xe00d;" horiz-adv-x="0" 
d="M245 672l-53 61l-55 -61h-64l89 108h57l91 -108h-65zM408 883l-87 -132h-50l53 145z" />
    <glyph glyph-name="cir.grave" unicode="&#xe00e;" horiz-adv-x="0" 
d="M245 671l-53 61l-55 -61h-64l89 108h57l91 -108h-65zM54 754l-87 132l84 13l53 -145h-50z" />
    <glyph glyph-name="cir.tilde" unicode="&#xe00f;" horiz-adv-x="0" 
d="M245 674l-53 61l-55 -61h-64l89 108h57l91 -108h-65zM209 817c-31 19 -53 29 -66 29c-22 0 -37 -15 -46 -44l-4 -16l-49 6l5 26c11 55 40 83 87 83c21 0 47 -10 78 -30s53 -30 67 -30c25 0 41 15 47 45l3 15l49 -5l-4 -25c-10 -56 -39 -84 -87 -84c-22 0 -49 10 -80 30z
" />
    <glyph glyph-name="breve.tilde" unicode="&#xe010;" horiz-adv-x="0" 
d="M275 810h55c0 -39 -13 -73 -40 -100c-26 -27 -57 -40 -92 -40c-37 0 -68 13 -93 40c-26 27 -39 61 -39 100h55c0 -23 7 -42 22 -58c15 -17 33 -26 55 -26c21 0 40 8 55 25s22 36 22 59zM204 859c-31 19 -53 29 -66 29c-22 0 -37 -15 -46 -44l-4 -16l-49 6l5 26
c11 55 40 83 87 83c21 0 47 -10 78 -30s53 -30 67 -30c25 0 41 15 47 45l3 15l49 -5l-4 -25c-10 -56 -39 -84 -87 -84c-22 0 -49 10 -80 30z" />
    <glyph glyph-name="breve.acute" unicode="&#xe011;" horiz-adv-x="0" 
d="M275 814h55c0 -39 -13 -73 -40 -100c-26 -27 -57 -40 -92 -40c-37 0 -68 13 -93 40c-26 27 -39 61 -39 100h55c0 -23 7 -42 22 -58c15 -17 33 -26 55 -26c21 0 40 8 55 25s22 36 22 59zM318 946l-87 -132h-50l53 145z" />
    <glyph glyph-name="breve.grave" unicode="&#xe012;" horiz-adv-x="0" 
d="M275 813h55c0 -39 -13 -73 -40 -100c-26 -27 -57 -40 -92 -40c-37 0 -68 13 -93 40c-26 27 -39 61 -39 100h55c0 -23 7 -42 22 -58c15 -17 33 -26 55 -26c21 0 40 8 55 25s22 36 22 59zM181 814l-87 132l84 13l53 -145h-50z" />
    <glyph glyph-name="breve.hook" unicode="&#xe013;" horiz-adv-x="0" 
d="M275 812h55c0 -39 -13 -73 -40 -100c-26 -27 -57 -40 -92 -40c-37 0 -68 13 -93 40c-26 27 -39 61 -39 100h55c0 -23 7 -42 22 -58c15 -17 33 -26 55 -26c21 0 40 8 55 25s22 36 22 59zM135 875l-24 37c23 15 48 22 75 22c24 0 44 -4 59 -13c16 -9 24 -22 24 -39
s-9 -31 -26 -41c-10 -5 -15 -10 -16 -14l-2 -18h-47v22c0 13 7 25 22 34c9 5 13 10 13 15c0 4 -2 7 -6 9c-5 3 -12 5 -21 5c-15 0 -32 -6 -51 -19z" />
    <glyph glyph-name="cir.hook" unicode="&#xe014;" horiz-adv-x="0" 
d="M245 671l-53 61l-55 -61h-64l89 108h57l91 -108h-65zM238 830l-24 49c23 20 48 30 75 30c24 0 44 -6 59 -18c16 -13 24 -30 24 -52c0 -23 -9 -41 -26 -54c-10 -7 -15 -14 -16 -19l-2 -24h-47v29c0 18 7 33 22 46c9 7 13 13 13 20c0 5 -2 9 -6 12c-5 4 -12 6 -21 6
c-15 0 -32 -8 -51 -25z" />
    <glyph glyph-name="uniE015" unicode="&#xe015;" horiz-adv-x="279" 
d="M149 497l-87 132l84 13l53 -145h-50z" />
    <glyph glyph-name="uniE016" unicode="&#xe016;" horiz-adv-x="279" 
d="M199 629l-87 -132h-50l53 145z" />
    <glyph glyph-name="uniE017" unicode="&#xe017;" horiz-adv-x="371" 
d="M245 331l-53 61l-55 -61h-64l89 108h57l91 -108h-65z" />
    <glyph glyph-name="uniE018" unicode="&#xe018;" horiz-adv-x="325" 
d="M107 777l53 -62l55 62h64l-89 -109h-57l-91 109h65z" />
    <glyph glyph-name="uniE019" unicode="&#xe019;" horiz-adv-x="485" 
d="M234 698c-31 19 -53 29 -66 29c-22 0 -37 -15 -46 -44l-4 -16l-49 6l5 26c11 55 40 83 87 83c21 0 47 -10 78 -30s53 -30 67 -30c25 0 41 15 47 45l3 15l49 -5l-4 -25c-10 -56 -39 -84 -87 -84c-22 0 -49 10 -80 30z" />
    <glyph glyph-name="uniE01A" unicode="&#xe01a;" horiz-adv-x="485" 
d="M149 497l-87 132l84 13l53 -145h-50z" />
    <glyph glyph-name="uniE01B" unicode="&#xe01b;" horiz-adv-x="395" 
d="M327 577l-80 -158h-48l46 158h82zM174 577l-80 -158h-48l46 158h82z" />
    <glyph glyph-name="uniE01C" unicode="&#xe01c;" horiz-adv-x="396" 
d="M275 808h55c0 -39 -13 -73 -40 -100c-26 -27 -57 -40 -92 -40c-37 0 -68 13 -93 40c-26 27 -39 61 -39 100h55c0 -23 7 -42 22 -58c15 -17 33 -26 55 -26c21 0 40 8 55 25s22 36 22 59z" />
    <glyph glyph-name="uniE01D" unicode="&#xe01d;" horiz-adv-x="396" 
d="M275 808h55c0 -39 -13 -73 -40 -100c-26 -27 -57 -40 -92 -40c-37 0 -68 13 -93 40c-26 27 -39 61 -39 100h55c0 -23 7 -42 22 -58c15 -17 33 -26 55 -26c21 0 40 8 55 25s22 36 22 59z" />
    <glyph glyph-name="uniE01E" unicode="&#xe01e;" horiz-adv-x="288" 
d="M71 765c19 16 44 24 74 24c29 0 54 -8 73 -24s29 -37 29 -63s-10 -47 -29 -63s-44 -24 -73 -24c-30 0 -55 8 -74 24c-20 16 -30 37 -30 63s10 47 30 63zM145 745c-38 0 -57 -14 -57 -43s19 -43 57 -43c37 0 55 14 55 43s-18 43 -55 43z" />
    <glyph glyph-name="uniE01F" unicode="&#xe01f;" horiz-adv-x="417" 
d="M146 584l-24 49c23 20 48 30 75 30c24 0 44 -6 59 -18c16 -13 24 -30 24 -52c0 -23 -9 -41 -26 -54c-10 -7 -15 -14 -16 -19l-2 -24h-47v29c0 18 7 33 22 46c9 7 13 13 13 20c0 5 -2 9 -6 12c-5 4 -12 6 -21 6c-15 0 -32 -8 -51 -25z" />
    <glyph glyph-name="uniE020" unicode="&#xe020;" horiz-adv-x="555" 
d="M115 567c-11 11 -17 25 -17 42s6 31 17 42s25 17 42 17s31 -6 42 -17s17 -25 17 -42s-6 -31 -17 -42s-25 -17 -42 -17s-31 6 -42 17zM351 567c-11 11 -17 25 -17 42s6 31 17 42s25 17 42 17s31 -6 42 -17s17 -25 17 -42s-6 -31 -17 -42s-25 -17 -42 -17s-31 6 -42 17z
" />
    <glyph glyph-name="_17" horiz-adv-x="105" 
 />
    </font>
</defs>
</svg>
